<svg width="43" height="32" viewBox="0 0 43 32" fill="none" xmlns="http://www.w3.org/2000/svg">
<path fill-rule="evenodd" clip-rule="evenodd" d="M32.6755 5.33337H39.5847C41.5554 5.33337 43 6.80005 43 8.74438V28.3C43 30.2444 41.5554 32 39.5847 32H3.75122C1.78052 32 0 30.2444 0 28.3V8.74438C0 6.80005 1.78052 5.33337 3.75122 5.33337H5.26294V3.55554H9.07031V5.33337H10.5596C10.7927 5.07568 11.0154 4.82898 11.2283 4.59302C14.3206 1.16711 15.374 0 16.6626 0H26.5728C27.887 0 28.9771 1.21411 32.1973 4.8009L32.6755 5.33337ZM39.5847 30.2222C40.5142 30.2222 41.2085 29.3333 41.2085 28.2999V8.74438C41.2085 7.77771 40.5701 7.11108 39.5847 7.11108H32.6755H31.8694L31.3318 6.75549C30.9624 6.34436 30.6152 5.95557 30.2905 5.58887C29.7913 5.03516 29.3438 4.51733 28.9436 4.05408C28.2756 3.28088 27.739 2.65979 27.3118 2.27771C26.7407 1.7666 26.5615 1.77771 26.5615 1.77771H16.6514C16.6514 1.77771 16.6055 1.77466 16.4858 1.83875C16.3772 1.89709 16.2078 2.01099 15.957 2.23328C15.3076 2.81104 14.3894 3.81104 13.124 5.22217C12.9397 5.42664 12.7476 5.67542 12.5474 5.93445C12.3342 6.21021 12.1121 6.49768 11.8811 6.75549L11.3435 7.11108H10.5486H3.75146C2.69873 7.11108 1.79175 7.83325 1.79175 8.74438V28.2999C1.79175 29.2555 2.7771 30.2222 3.75146 30.2222H39.5847Z" fill="#3E4349"/>
<path fill-rule="evenodd" clip-rule="evenodd" d="M12 17.5C12 12.2667 16.2666 8 21.5 8C26.7334 8 31 12.2667 31 17.5C31 22.7333 26.7334 27 21.5 27C16.2666 27 12 22.7333 12 17.5ZM13.7778 17.5C13.7778 21.7667 17.2334 25.2223 21.5 25.2223C25.7666 25.2223 29.2222 21.7667 29.2222 17.5C29.2222 13.2334 25.7666 9.77783 21.5 9.77783C17.2334 9.77783 13.7778 13.2334 13.7778 17.5Z" fill="#3E4349"/>
<path d="M32 9H34V11H32V9Z" fill="#3E4349"/>
<path d="M21.5 21C23.433 21 25 19.433 25 17.5C25 15.567 23.433 14 21.5 14C19.567 14 18 15.567 18 17.5C18 19.433 19.567 21 21.5 21Z" fill="#3E4349"/>
</svg>
