<svg width="23" height="42" viewBox="0 0 23 42" fill="none" xmlns="http://www.w3.org/2000/svg">
<path d="M11.1672 36.4692C11.2533 36.1995 11.6629 35.071 12.2546 32.8903C12.651 31.4384 12.9092 30.2481 13.1379 29.3698C13.3666 28.4915 13.5152 27.5457 13.5726 27.2817C13.6301 27.0177 14.0067 23.6588 13.6046 21.7687C13.2887 20.2192 12.8061 17.8032 11.1172 16.4546C10.0257 15.5819 8.72446 15.0101 7.34296 14.7961C6.26871 14.624 5.20595 14.3715 4.12596 14.2223C2.74724 14.0214 1.36278 13.8837 0.225342 13.7459C2.4715 13.7459 4.96467 13.8091 7.45211 13.7172C8.42343 13.6415 9.377 13.415 10.2785 13.0458C11.548 12.5752 11.8525 11.3701 11.8238 10.2281C11.7624 8.81743 11.3688 7.44111 10.6749 6.211C9.82465 4.54677 9.31912 4.29427 8.41146 2.41197C8.11573 1.79704 7.85301 1.1668 7.62445 0.523926L7.90019 0.891204C8.61827 1.75775 9.41103 2.57839 10.0429 3.50232C11.2417 5.25072 12.3906 7.03355 13.4897 8.85081C14.6304 10.7989 15.5147 12.8859 16.1208 15.0601C16.5035 16.3953 16.8066 17.752 17.0284 19.1231C17.2113 20.1111 17.3303 21.1098 17.3846 22.113C17.465 23.9666 17.1203 25.3037 16.431 27.8919C15.9244 29.8843 15.2775 31.8384 14.495 33.7396C13.5185 36.0983 12.8751 37.6075 11.4963 39.3292C10.7814 40.2135 9.97454 41.0195 9.08933 41.7337C9.97468 40.0344 10.5962 38.298 11.1672 36.4692Z" fill="#FD4A4A"/>
<path d="M18.129 24.1922C18.3293 25.027 18.5221 25.9534 18.7675 26.8635C19.0129 27.7736 19.3489 28.8171 19.6279 29.7966C19.7756 30.3209 19.8882 30.8503 20.0243 31.3744C20.5082 33.2518 20.9863 35.1349 21.482 37.0068C21.662 37.6749 21.9061 38.327 22.0744 38.995C22.0806 39.0465 22.0797 39.0985 22.0717 39.1497C22.06 39.2933 22.005 39.4301 21.9139 39.5426L21.801 39.3571L21.3121 38.4256C21.245 38.2811 21.1384 38.0671 21.0035 37.8125C20.8686 37.5579 20.7329 37.3434 20.7105 37.2971C19.7966 35.4351 18.1937 32.2987 17.42 30.3876C17.0526 29.481 16.9667 29.9107 17.2471 28.8148C17.4342 28.0728 17.5694 27.3127 17.7103 26.5584C17.8512 25.8041 17.9879 24.958 18.129 24.1922Z" fill="#FD4A4A"/>
<path d="M7.71684 7.99316C9.10518 8.00131 9.76867 9.1448 9.83745 9.96246C9.8577 10.2512 9.78756 10.5391 9.63685 10.7859C9.09888 11.4543 8.15356 11.6236 7.4188 11.1832C6.96872 10.9405 6.63345 10.5276 6.48716 10.0359C6.34087 9.54424 6.39564 9.01425 6.63934 8.56322C6.90961 8.23786 7.29689 8.03297 7.71684 7.99316Z" fill="#FD4A4A"/>
</svg>
