<?xml version="1.0" standalone="no"?>
<!DOCTYPE svg PUBLIC "-//W3C//DTD SVG 1.1//EN" "http://www.w3.org/Graphics/SVG/1.1/DTD/svg11.dtd" >
<svg xmlns="http://www.w3.org/2000/svg" xmlns:xlink="http://www.w3.org/1999/xlink" version="1.1">
<metadata>
Created by FontForge 20160405 at Mon Jul 31 11:52:54 2017
 By www-data
Copyright \(c\) 2014 by Pyae Wai Mya Win \(Ryan\). All rights reserved.
</metadata>
<defs>
<font id="BERNIERShade-Regular" horiz-adv-x="0" >
  <font-face 
    font-family="BERNIER Shade"
    font-weight="400"
    font-stretch="normal"
    units-per-em="1000"
    panose-1="0 0 5 0 0 0 0 0 0 0"
    ascent="800"
    descent="-200"
    x-height="700"
    cap-height="700"
    bbox="-339 -301.21 835.856 980"
    underline-thickness="150"
    underline-position="-292"
    unicode-range="U+0020-2122"
  />
<missing-glyph horiz-adv-x="502" 
d="M63 0h376v700h-376v-700zM125 62v575h251v-575h-251z" />
    <glyph glyph-name=".notdef" horiz-adv-x="502" 
d="M63 0h376v700h-376v-700zM125 62v575h251v-575h-251z" />
    <glyph glyph-name="A" unicode="A" horiz-adv-x="464" 
d="M391 60c5 -29 4 -47 -4 -54c-9 -9 -80 -6 -88 -6c-10 1 -16 3 -20 7c-9 8 -10 23 -14 55c-2 15 -3 27 -5 35c-1 10 -3 58 -38 59c-5 1 -8 1 -8 1c-52 0 -60 -2 -66 -53c-1 -8 -6 -35 -14 -81c-3 -15 -11 -22 -25 -22c-31 -1 -57 -1 -78 0c-28 1 -21 22 -17 51
c24 136 38 221 44 256c0 3 1 6 1 7l-35 21c-6 3 -9 7 -9 14c0 6 3 11 9 14l48 28c22 124 37 214 46 269c6 33 14 39 46 39h91c10 -1 18 -3 22 -6c7 -7 11 -25 14 -41c28 -166 43 -254 44 -262l47 -27c5 -3 8 -8 8 -14c0 -7 -3 -11 -8 -14l-34 -20c27 -163 42 -248 43 -256z
M335 643c7 -7 11 -25 14 -41c17 -103 30 -177 37 -219c-11 6 -23 14 -34 20c-3 18 -11 61 -23 136c-6 32 -12 69 -19 110c16 0 19 -2 25 -6zM234 280c0 2 0 8 -1 17c-2 18 -13 71 -13 74c-1 4 -3 9 -6 15c-6 11 -17 7 -21 0c-7 -19 -13 -50 -16 -92c-1 -5 -1 -10 -1 -13
c0 -15 56 -14 58 -1zM214 290c-2 -1 -6 -1 -10 -1h-9v1v3c2 27 5 47 8 62c1 -3 1 -5 2 -9c3 -16 8 -41 9 -51v-5zM450 10c5 -29 6 -42 -2 -49c-13 -11 -18 -11 -99 -11c-10 0 -16 3 -20 7c-6 5 -8 12 -10 25c3 0 7 -1 11 -1c47 0 68 0 80 14c7 8 5 31 -1 68
c-1 4 -3 16 -8 49c-7 39 -18 105 -33 194l23 14c7 5 11 10 14 15l37 -21c5 -3 8 -8 8 -14c0 -7 -3 -11 -8 -14l-35 -20c27 -163 42 -248 43 -256zM221 137c4 0 14 0 19 -30c-40 -1 -42 -7 -48 -53c-1 -8 -2 -17 -10 -62c-3 -15 -11 -41 -44 -41c-31 0 -36 -1 -57 0
s-22 13 -20 31h5c13 0 28 0 43 1c23 0 39 13 43 36l8 43c3 22 6 34 6 40c1 8 4 29 9 33c4 3 23 3 39 3h4l1 -1h2z" />
    <glyph glyph-name="Aacute" unicode="&#xc1;" horiz-adv-x="464" 
d="M217 763c-22 -3 -33 -3 -52 1c-10 1 -17 8 -15 15c3 9 4 15 7 24c4 10 22 61 26 75c10 28 13 36 24 41c9 6 21 7 52 7c27 -1 43 -2 45 -3c8 0 15 -7 13 -13c-2 -7 -6 -14 -9 -19c-17 -27 -38 -71 -55 -97c-6 -8 -19 -28 -36 -31zM235 723c-18 0 -31 3 -31 20l16 2
c26 5 43 33 47 38c17 25 36 65 53 93c3 2 10 1 12 1c8 -1 14 -8 12 -14c-2 -7 -6 -20 -15 -38c-11 -20 -31 -56 -53 -85c-9 -12 -16 -17 -41 -17zM391 60c5 -29 4 -47 -4 -54c-9 -9 -80 -6 -88 -6c-10 1 -16 3 -20 7c-9 8 -10 23 -14 55c-2 15 -3 27 -5 35
c-1 10 -3 58 -38 59c-5 1 -8 1 -8 1c-52 0 -60 -2 -66 -53c-1 -8 -6 -35 -14 -81c-3 -15 -11 -22 -25 -22c-31 -1 -57 -1 -78 0c-28 1 -21 22 -17 51c24 136 38 221 44 256c0 3 1 6 1 7l-35 21c-6 3 -9 7 -9 14c0 6 3 11 9 14l48 28c22 124 37 214 46 269c6 33 14 39 46 39
h91c10 -1 18 -3 22 -6c7 -7 11 -25 14 -41c28 -166 43 -254 44 -262l47 -27c5 -3 8 -8 8 -14c0 -7 -3 -11 -8 -14l-34 -20c27 -163 42 -248 43 -256zM335 643c7 -7 11 -25 14 -41c17 -103 30 -177 37 -219c-11 6 -23 14 -34 20c-3 18 -11 61 -23 136c-6 32 -12 69 -19 110
c16 0 19 -2 25 -6zM234 280c0 2 0 8 -1 17c-2 18 -13 71 -13 74c-1 4 -3 9 -6 15c-6 11 -17 7 -21 0c-7 -19 -13 -50 -16 -92c-1 -5 -1 -10 -1 -13c0 -15 56 -14 58 -1zM214 290c-2 -1 -6 -1 -10 -1h-9v1v3c2 27 5 47 8 62c1 -3 1 -5 2 -9c3 -16 8 -41 9 -51v-5zM450 10
c5 -29 6 -42 -2 -49c-13 -11 -18 -11 -99 -11c-10 0 -16 3 -20 7c-6 5 -8 12 -10 25c3 0 7 -1 11 -1c47 0 68 0 80 14c7 8 5 31 -1 68c-1 4 -3 16 -8 49c-7 39 -18 105 -33 194l23 14c7 5 11 10 14 15l37 -21c5 -3 8 -8 8 -14c0 -7 -3 -11 -8 -14l-35 -20
c27 -163 42 -248 43 -256zM221 137c4 0 14 0 19 -30c-40 -1 -42 -7 -48 -53c-1 -8 -2 -17 -10 -62c-3 -15 -11 -41 -44 -41c-31 0 -36 -1 -57 0s-22 13 -20 31h5c13 0 28 0 43 1c23 0 39 13 43 36l8 43c3 22 6 34 6 40c1 8 4 29 9 33c4 3 23 3 39 3h4l1 -1h2z" />
    <glyph glyph-name="Abreve" unicode="&#x102;" horiz-adv-x="464" 
d="M196 765c62 0 121 41 121 125c0 28 -5 36 -20 36h-46c-15 0 -14 -16 -17 -36c-4 -28 -21 -46 -42 -46c-19 0 -35 18 -39 46c-3 19 -8 36 -28 36h-39c-10 0 -17 -7 -17 -39c0 -72 41 -122 127 -122zM336 888c14 0 23 -9 23 -37c0 -74 -68 -126 -132 -126
c-17 0 -39 6 -48 12c-11 7 -10 14 3 12s16 -2 24 -2c78 0 128 55 130 141zM186 885c14 0 16 -9 18 -20c-3 -2 -8 -3 -12 -3c-8 0 -16 8 -19 23h13zM391 60c5 -29 4 -47 -4 -54c-9 -9 -80 -6 -88 -6c-10 1 -16 3 -20 7c-9 8 -10 23 -14 55c-2 15 -3 27 -5 35
c-1 10 -3 58 -38 59c-5 1 -8 1 -8 1c-52 0 -60 -2 -66 -53c-1 -8 -6 -35 -14 -81c-3 -15 -11 -22 -25 -22c-31 -1 -57 -1 -78 0c-28 1 -21 22 -17 51c24 136 38 221 44 256c0 3 1 6 1 7l-35 21c-6 3 -9 7 -9 14c0 6 3 11 9 14l48 28c22 124 37 214 46 269c6 33 14 39 46 39
h91c10 -1 18 -3 22 -6c7 -7 11 -25 14 -41c28 -166 43 -254 44 -262l47 -27c5 -3 8 -8 8 -14c0 -7 -3 -11 -8 -14l-34 -20c27 -163 42 -248 43 -256zM335 643c7 -7 11 -25 14 -41c17 -103 30 -177 37 -219c-11 6 -23 14 -34 20c-3 18 -11 61 -23 136c-6 32 -12 69 -19 110
c16 0 19 -2 25 -6zM234 280c0 2 0 8 -1 17c-2 18 -13 71 -13 74c-1 4 -3 9 -6 15c-6 11 -17 7 -21 0c-7 -19 -13 -50 -16 -92c-1 -5 -1 -10 -1 -13c0 -15 56 -14 58 -1zM214 290c-2 -1 -6 -1 -10 -1h-9v1v3c2 27 5 47 8 62c1 -3 1 -5 2 -9c3 -16 8 -41 9 -51v-5zM450 10
c5 -29 6 -42 -2 -49c-13 -11 -18 -11 -99 -11c-10 0 -16 3 -20 7c-6 5 -8 12 -10 25c3 0 7 -1 11 -1c47 0 68 0 80 14c7 8 5 31 -1 68c-1 4 -3 16 -8 49c-7 39 -18 105 -33 194l23 14c7 5 11 10 14 15l37 -21c5 -3 8 -8 8 -14c0 -7 -3 -11 -8 -14l-35 -20
c27 -163 42 -248 43 -256zM221 137c4 0 14 0 19 -30c-40 -1 -42 -7 -48 -53c-1 -8 -2 -17 -10 -62c-3 -15 -11 -41 -44 -41c-31 0 -36 -1 -57 0s-22 13 -20 31h5c13 0 28 0 43 1c23 0 39 13 43 36l8 43c3 22 6 34 6 40c1 8 4 29 9 33c4 3 23 3 39 3h4l1 -1h2z" />
    <glyph glyph-name="Acircumflex" unicode="&#xc2;" horiz-adv-x="464" 
d="M98 767c30 0 53 1 63 7c5 4 16 26 25 57c4 10 13 10 16 0c9 -30 16 -53 22 -57c9 -6 28 -7 56 -7c30 1 42 2 43 3c6 0 9 7 6 13c-9 21 -57 133 -71 143c-3 2 -5 4 -9 5c-7 1 -77 1 -86 1c-8 0 -6 0 -14 -2c-17 0 -45 -55 -78 -122c-3 -6 -9 -18 -11 -25
c-2 -6 0 -13 6 -13c1 -1 12 -2 32 -3zM384 772c12 -23 0 -47 -24 -47c-8 0 -15 -1 -30 -1c-29 0 -37 1 -46 7c-3 2 -7 6 -11 18c44 1 47 2 52 2c28 0 28 23 20 40c-15 34 -28 65 -40 89c8 0 21 -2 29 -8c15 -11 39 -79 50 -100zM189 788c3 5 7 5 9 -1c6 -16 10 -24 16 -28
c4 -2 7 -4 12 -6c-9 -24 -12 -27 -69 -27h-29c-6 0 -8 5 -6 11c1 4 1 7 4 12c23 1 34 3 44 9c5 2 12 14 19 30zM391 60c5 -29 4 -47 -4 -54c-9 -9 -80 -6 -88 -6c-10 1 -16 3 -20 7c-9 8 -10 23 -14 55c-2 15 -3 27 -5 35c-1 10 -3 58 -38 59c-5 1 -8 1 -8 1
c-52 0 -60 -2 -66 -53c-1 -8 -6 -35 -14 -81c-3 -15 -11 -22 -25 -22c-31 -1 -57 -1 -78 0c-28 1 -21 22 -17 51c24 136 38 221 44 256c0 3 1 6 1 7l-35 21c-6 3 -9 7 -9 14c0 6 3 11 9 14l48 28c22 124 37 214 46 269c6 33 14 39 46 39h91c10 -1 18 -3 22 -6
c7 -7 11 -25 14 -41c28 -166 43 -254 44 -262l47 -27c5 -3 8 -8 8 -14c0 -7 -3 -11 -8 -14l-34 -20c27 -163 42 -248 43 -256zM335 643c7 -7 11 -25 14 -41c17 -103 30 -177 37 -219c-11 6 -23 14 -34 20c-3 18 -11 61 -23 136c-6 32 -12 69 -19 110c16 0 19 -2 25 -6z
M234 280c0 2 0 8 -1 17c-2 18 -13 71 -13 74c-1 4 -3 9 -6 15c-6 11 -17 7 -21 0c-7 -19 -13 -50 -16 -92c-1 -5 -1 -10 -1 -13c0 -15 56 -14 58 -1zM214 290c-2 -1 -6 -1 -10 -1h-9v1v3c2 27 5 47 8 62c1 -3 1 -5 2 -9c3 -16 8 -41 9 -51v-5zM450 10c5 -29 6 -42 -2 -49
c-13 -11 -18 -11 -99 -11c-10 0 -16 3 -20 7c-6 5 -8 12 -10 25c3 0 7 -1 11 -1c47 0 68 0 80 14c7 8 5 31 -1 68c-1 4 -3 16 -8 49c-7 39 -18 105 -33 194l23 14c7 5 11 10 14 15l37 -21c5 -3 8 -8 8 -14c0 -7 -3 -11 -8 -14l-35 -20c27 -163 42 -248 43 -256zM221 137
c4 0 14 0 19 -30c-40 -1 -42 -7 -48 -53c-1 -8 -2 -17 -10 -62c-3 -15 -11 -41 -44 -41c-31 0 -36 -1 -57 0s-22 13 -20 31h5c13 0 28 0 43 1c23 0 39 13 43 36l8 43c3 22 6 34 6 40c1 8 4 29 9 33c4 3 23 3 39 3h4l1 -1h2z" />
    <glyph glyph-name="Adieresis" unicode="&#xc4;" horiz-adv-x="464" 
d="M131 787c9 1 16 8 16 17c3 23 3 45 0 68c-1 9 -7 15 -16 15c-1 1 -13 1 -34 3c-21 -2 -32 -2 -35 -2c-8 -1 -14 -6 -15 -15c-3 -25 -3 -48 0 -68c2 -9 8 -16 15 -17c21 -3 44 -3 69 -1zM306 787c8 1 16 8 16 17c3 23 3 45 0 68c-2 9 -8 15 -16 15c-1 1 -13 1 -34 3
c-21 -2 -33 -2 -35 -2c-8 -1 -14 -6 -15 -15c-3 -25 -3 -48 0 -68c2 -9 8 -16 15 -17c21 -3 43 -3 69 -1zM198 820c3 -22 4 -33 0 -55c-3 -19 -11 -28 -29 -29c-25 -2 -35 -2 -55 1c-7 1 -13 7 -16 17l-2 14c12 -1 23 0 36 1h1c19 2 31 16 32 34c2 11 3 22 2 35
c10 -1 15 -1 16 -2c8 0 14 -6 15 -16zM373 820c3 -22 4 -33 0 -55c-3 -19 -11 -28 -29 -29c-26 -2 -35 -2 -55 1c-8 1 -14 7 -16 17l-2 14c11 -1 23 0 36 1h1c19 2 31 16 32 34c2 11 3 22 2 35c9 -1 14 -1 16 -2c8 0 14 -6 15 -16zM391 60c5 -29 4 -47 -4 -54
c-9 -9 -80 -6 -88 -6c-10 1 -16 3 -20 7c-9 8 -10 23 -14 55c-2 15 -3 27 -5 35c-1 10 -3 58 -38 59c-5 1 -8 1 -8 1c-52 0 -60 -2 -66 -53c-1 -8 -6 -35 -14 -81c-3 -15 -11 -22 -25 -22c-31 -1 -57 -1 -78 0c-28 1 -21 22 -17 51c24 136 38 221 44 256c0 3 1 6 1 7l-35 21
c-6 3 -9 7 -9 14c0 6 3 11 9 14l48 28c22 124 37 214 46 269c6 33 14 39 46 39h91c10 -1 18 -3 22 -6c7 -7 11 -25 14 -41c28 -166 43 -254 44 -262l47 -27c5 -3 8 -8 8 -14c0 -7 -3 -11 -8 -14l-34 -20c27 -163 42 -248 43 -256zM335 643c7 -7 11 -25 14 -41
c17 -103 30 -177 37 -219c-11 6 -23 14 -34 20c-3 18 -11 61 -23 136c-6 32 -12 69 -19 110c16 0 19 -2 25 -6zM234 280c0 2 0 8 -1 17c-2 18 -13 71 -13 74c-1 4 -3 9 -6 15c-6 11 -17 7 -21 0c-7 -19 -13 -50 -16 -92c-1 -5 -1 -10 -1 -13c0 -15 56 -14 58 -1zM214 290
c-2 -1 -6 -1 -10 -1h-9v1v3c2 27 5 47 8 62c1 -3 1 -5 2 -9c3 -16 8 -41 9 -51v-5zM450 10c5 -29 6 -42 -2 -49c-13 -11 -18 -11 -99 -11c-10 0 -16 3 -20 7c-6 5 -8 12 -10 25c3 0 7 -1 11 -1c47 0 68 0 80 14c7 8 5 31 -1 68c-1 4 -3 16 -8 49c-7 39 -18 105 -33 194
l23 14c7 5 11 10 14 15l37 -21c5 -3 8 -8 8 -14c0 -7 -3 -11 -8 -14l-35 -20c27 -163 42 -248 43 -256zM221 137c4 0 14 0 19 -30c-40 -1 -42 -7 -48 -53c-1 -8 -2 -17 -10 -62c-3 -15 -11 -41 -44 -41c-31 0 -36 -1 -57 0s-22 13 -20 31h5c13 0 28 0 43 1c23 0 39 13 43 36
l8 43c3 22 6 34 6 40c1 8 4 29 9 33c4 3 23 3 39 3h4l1 -1h2z" />
    <glyph glyph-name="Agrave" unicode="&#xc0;" horiz-adv-x="464" 
d="M208 763c22 -3 33 -3 52 1c10 1 15 8 15 15c-2 7 -4 15 -7 24c-4 10 -22 61 -26 75c-10 28 -13 36 -24 41c-9 6 -21 7 -52 7c-27 -1 -43 -2 -45 -3c-8 0 -15 -7 -13 -13c2 -7 6 -14 9 -19c17 -27 38 -71 56 -99c5 -6 18 -26 35 -29zM328 770c15 -46 -6 -49 -44 -49
c-27 0 -45 2 -62 22c15 -1 26 1 41 3c18 3 39 8 30 36c-2 7 -4 16 -8 27c-3 7 -12 42 -22 63l22 -3c12 -2 14 -13 24 -41c4 -14 15 -48 19 -58zM391 60c5 -29 4 -47 -4 -54c-9 -9 -80 -6 -88 -6c-10 1 -16 3 -20 7c-9 8 -10 23 -14 55c-2 15 -3 27 -5 35c-1 10 -3 58 -38 59
c-5 1 -8 1 -8 1c-52 0 -60 -2 -66 -53c-1 -8 -6 -35 -14 -81c-3 -15 -11 -22 -25 -22c-31 -1 -57 -1 -78 0c-28 1 -21 22 -17 51c24 136 38 221 44 256c0 3 1 6 1 7l-35 21c-6 3 -9 7 -9 14c0 6 3 11 9 14l48 28c22 124 37 214 46 269c6 33 14 39 46 39h91
c10 -1 18 -3 22 -6c7 -7 11 -25 14 -41c28 -166 43 -254 44 -262l47 -27c5 -3 8 -8 8 -14c0 -7 -3 -11 -8 -14l-34 -20c27 -163 42 -248 43 -256zM335 643c7 -7 11 -25 14 -41c17 -103 30 -177 37 -219c-11 6 -23 14 -34 20c-3 18 -11 61 -23 136c-6 32 -12 69 -19 110
c16 0 19 -2 25 -6zM234 280c0 2 0 8 -1 17c-2 18 -13 71 -13 74c-1 4 -3 9 -6 15c-6 11 -17 7 -21 0c-7 -19 -13 -50 -16 -92c-1 -5 -1 -10 -1 -13c0 -15 56 -14 58 -1zM214 290c-2 -1 -6 -1 -10 -1h-9v1v3c2 27 5 47 8 62c1 -3 1 -5 2 -9c3 -16 8 -41 9 -51v-5zM450 10
c5 -29 6 -42 -2 -49c-13 -11 -18 -11 -99 -11c-10 0 -16 3 -20 7c-6 5 -8 12 -10 25c3 0 7 -1 11 -1c47 0 68 0 80 14c7 8 5 31 -1 68c-1 4 -3 16 -8 49c-7 39 -18 105 -33 194l23 14c7 5 11 10 14 15l37 -21c5 -3 8 -8 8 -14c0 -7 -3 -11 -8 -14l-35 -20
c27 -163 42 -248 43 -256zM221 137c4 0 14 0 19 -30c-40 -1 -42 -7 -48 -53c-1 -8 -2 -17 -10 -62c-3 -15 -11 -41 -44 -41c-31 0 -36 -1 -57 0s-22 13 -20 31h5c13 0 28 0 43 1c23 0 39 13 43 36l8 43c3 22 6 34 6 40c1 8 4 29 9 33c4 3 23 3 39 3h4l1 -1h2z" />
    <glyph glyph-name="Amacron" unicode="&#x100;" horiz-adv-x="464" 
d="M274 785c16 0 28 0 34 6c3 4 5 9 5 17c1 6 1 19 1 26c0 41 -2 40 -42 41c-55 1 -109 1 -164 0c-20 0 -30 1 -37 -5c-3 -2 -5 -7 -5 -14c-1 -20 -1 -30 0 -48c1 -17 7 -21 24 -22c43 -2 87 -2 184 -1zM332 825c30 -1 32 -4 32 -41c0 -7 0 -20 -1 -26c0 -8 -2 -13 -5 -17
c-6 -6 -18 -6 -34 -6c-97 -1 -141 -1 -184 1c-17 1 -23 5 -24 22v9c36 -1 80 -1 158 0c16 0 37 0 48 12c6 8 9 17 9 28c1 4 1 9 1 18zM391 60c5 -29 4 -47 -4 -54c-9 -9 -80 -6 -88 -6c-10 1 -16 3 -20 7c-9 8 -10 23 -14 55c-2 15 -3 27 -5 35c-1 10 -3 58 -38 59
c-5 1 -8 1 -8 1c-52 0 -60 -2 -66 -53c-1 -8 -6 -35 -14 -81c-3 -15 -11 -22 -25 -22c-31 -1 -57 -1 -78 0c-28 1 -21 22 -17 51c24 136 38 221 44 256c0 3 1 6 1 7l-35 21c-6 3 -9 7 -9 14c0 6 3 11 9 14l48 28c22 124 37 214 46 269c6 33 14 39 46 39h91
c10 -1 18 -3 22 -6c7 -7 11 -25 14 -41c28 -166 43 -254 44 -262l47 -27c5 -3 8 -8 8 -14c0 -7 -3 -11 -8 -14l-34 -20c27 -163 42 -248 43 -256zM335 643c7 -7 11 -25 14 -41c17 -103 30 -177 37 -219c-11 6 -23 14 -34 20c-3 18 -11 61 -23 136c-6 32 -12 69 -19 110
c16 0 19 -2 25 -6zM234 280c0 2 0 8 -1 17c-2 18 -13 71 -13 74c-1 4 -3 9 -6 15c-6 11 -17 7 -21 0c-7 -19 -13 -50 -16 -92c-1 -5 -1 -10 -1 -13c0 -15 56 -14 58 -1zM214 290c-2 -1 -6 -1 -10 -1h-9v1v3c2 27 5 47 8 62c1 -3 1 -5 2 -9c3 -16 8 -41 9 -51v-5zM450 10
c5 -29 6 -42 -2 -49c-13 -11 -18 -11 -99 -11c-10 0 -16 3 -20 7c-6 5 -8 12 -10 25c3 0 7 -1 11 -1c47 0 68 0 80 14c7 8 5 31 -1 68c-1 4 -3 16 -8 49c-7 39 -18 105 -33 194l23 14c7 5 11 10 14 15l37 -21c5 -3 8 -8 8 -14c0 -7 -3 -11 -8 -14l-35 -20
c27 -163 42 -248 43 -256zM221 137c4 0 14 0 19 -30c-40 -1 -42 -7 -48 -53c-1 -8 -2 -17 -10 -62c-3 -15 -11 -41 -44 -41c-31 0 -36 -1 -57 0s-22 13 -20 31h5c13 0 28 0 43 1c23 0 39 13 43 36l8 43c3 22 6 34 6 40c1 8 4 29 9 33c4 3 23 3 39 3h4l1 -1h2z" />
    <glyph glyph-name="Aogonek" unicode="&#x104;" horiz-adv-x="454" 
d="M369 -131l11 -25c6 -13 2 -26 -9 -33c-21 -12 -42 -20 -64 -20c-74 0 -102 34 -102 83c0 39 14 71 45 117c7 10 8 17 7 32c0 7 -4 51 -7 74c-1 10 -3 58 -38 59c-5 1 -8 1 -8 1c-52 0 -60 -2 -66 -53c-1 -8 -6 -35 -14 -81c-3 -15 -11 -22 -25 -22c-31 -1 -57 -1 -78 0
c-28 1 -21 22 -17 51c24 136 38 221 44 256c0 3 1 6 1 7l-35 21c-6 3 -9 7 -9 14c0 6 3 11 9 14l48 28c22 124 37 214 46 269c6 33 14 39 46 39h91c10 -1 18 -3 22 -6c7 -7 11 -25 14 -41c28 -166 43 -254 44 -262l47 -27c5 -3 8 -8 8 -14c0 -7 -3 -11 -8 -14l-34 -20
c27 -163 42 -248 43 -256c5 -29 4 -46 -4 -54c-11 -11 -26 -8 -45 -27c-32 -33 -40 -62 -40 -85c0 -14 8 -24 20 -24c9 0 15 4 28 10c12 5 23 2 29 -11zM325 643c7 -7 11 -25 14 -41c17 -103 30 -177 37 -219c-11 6 -23 14 -34 20c-3 18 -11 61 -23 136
c-6 32 -12 69 -19 110c16 0 19 -2 25 -6zM166 281c0 -15 56 -14 58 -1c0 2 0 8 -1 17c-2 18 -13 71 -13 74c-1 4 -3 9 -6 15c-6 11 -17 7 -21 0c-7 -19 -13 -50 -16 -92c-1 -5 -1 -10 -1 -13zM204 290c-2 -1 -6 -1 -10 -1h-9v1v3c2 27 5 47 8 62c1 -3 1 -5 2 -9
c3 -16 8 -41 9 -51v-5zM440 10c5 -22 6 -35 -2 -42c-9 -8 -15 -9 -47 -17c-34 -8 -44 -38 -54 -54c-11 -7 -28 -13 -28 -3c0 36 28 70 50 83c13 8 34 10 41 18s5 31 -1 68c-1 4 -3 16 -8 49c-7 39 -18 105 -33 194l23 14c7 5 11 10 14 15l37 -21c5 -3 8 -8 8 -14
c0 -7 -3 -11 -8 -14l-35 -20c27 -163 42 -248 43 -256zM211 137c4 0 14 0 19 -30c-40 -1 -42 -7 -48 -53c-1 -8 -2 -17 -10 -62c-3 -15 -11 -41 -44 -41c-31 0 -36 -1 -57 0s-22 13 -20 31h5c13 0 28 0 43 1c23 0 39 13 43 36l8 43c3 22 6 34 6 40c1 8 4 29 9 33
c4 3 23 3 39 3h4l1 -1h2zM420 -181l3 -8c5 -13 1 -15 -8 -24c-21 -20 -40 -29 -71 -32c-24 -2 -61 2 -76 22c12 -3 26 -4 40 -4c27 0 50 9 72 22c15 9 22 23 22 37c7 0 15 -5 18 -13z" />
    <glyph glyph-name="Aring" unicode="&#xc5;" horiz-adv-x="471" 
d="M381 60c5 -29 4 -47 -4 -54c-9 -9 -80 -6 -88 -6c-10 1 -16 3 -20 7c-9 8 -10 23 -14 55c-2 15 -3 27 -5 35c-1 10 -3 58 -38 59c-5 1 -8 1 -8 1c-52 0 -60 -2 -66 -53c-1 -8 -6 -35 -14 -81c-3 -15 -11 -22 -25 -22c-31 -1 -57 -1 -78 0c-28 1 -21 22 -17 51
c24 136 38 221 44 256c0 3 1 6 1 7l-35 21c-6 3 -9 7 -9 14c0 6 3 11 9 14l48 28c21 121 39 227 48 283c-16 18 -24 46 -24 83c0 67 35 99 110 99c74 0 108 -32 108 -99c0 -39 -9 -67 -27 -86c28 -164 47 -273 48 -281l47 -27c5 -3 8 -8 8 -14c0 -7 -3 -11 -8 -14l-34 -20
c27 -163 42 -248 43 -256zM195 718c10 0 25 13 27 33c3 30 -18 39 -27 38c-18 -2 -27 -15 -27 -38c0 -20 7 -33 27 -33zM339 602c17 -105 30 -177 37 -219c-11 6 -23 14 -34 20c-3 18 -11 61 -23 136l-22 128c21 28 29 79 24 105c-1 4 3 7 5 2c9 -19 14 -48 14 -74
c0 -20 -3 -39 -9 -50zM197 771c3 0 9 -3 9 -11c-7 -5 -12 -13 -13 -24c-5 0 -7 3 -7 15c0 15 3 20 11 20zM224 280c0 2 0 8 -1 17c-2 18 -13 71 -13 74c-1 4 -3 9 -6 15c-6 11 -17 7 -21 0c-7 -19 -13 -50 -16 -92c-1 -5 -1 -10 -1 -13c0 -15 56 -14 58 -1zM204 290
c-2 -1 -6 -1 -10 -1h-9v1v3c2 27 5 47 8 62c1 -3 1 -5 2 -9c3 -16 8 -41 9 -51v-5zM440 10c5 -29 6 -42 -2 -49c-13 -11 -18 -11 -99 -11c-10 0 -16 3 -20 7c-6 5 -8 12 -10 25c3 0 7 -1 11 -1c47 0 68 0 80 14c7 8 5 31 -1 68c-1 4 -3 16 -8 49c-7 39 -18 105 -33 194
l23 14c7 5 11 10 14 15l37 -21c5 -3 8 -8 8 -14c0 -7 -3 -11 -8 -14l-35 -20c27 -163 42 -248 43 -256zM211 137c4 0 14 0 19 -30c-40 -1 -42 -7 -48 -53c-1 -8 -2 -17 -10 -62c-3 -15 -11 -41 -44 -41c-31 0 -36 -1 -57 0s-22 13 -20 31h5c13 0 28 0 43 1c23 0 39 13 43 36
l8 43c3 22 6 34 6 40c1 8 4 29 9 33c4 3 23 3 39 3h4l1 -1h2z" />
    <glyph glyph-name="Atilde" unicode="&#xc3;" horiz-adv-x="464" 
d="M254 762c28 0 61 18 85 66c8 16 7 23 0 29c-11 10 -27 22 -33 27c-8 6 -13 5 -18 3c-8 -3 -13 -25 -39 -25c-11 0 -20 8 -31 18c-13 12 -30 18 -51 18c-33 0 -66 -23 -86 -78c-2 -10 -4 -18 4 -24c12 -8 35 -19 44 -24c5 -3 9 -4 12 -3c15 3 9 30 29 31
c11 0 20 -8 31 -18c11 -11 34 -20 53 -20zM389 807c6 -7 8 -13 0 -29c-24 -48 -57 -66 -85 -66c-19 0 -42 9 -53 20l-6 5c-5 5 -7 8 -2 8c4 -1 7 -1 11 -1c40 0 77 28 101 76c2 4 4 7 7 7c9 0 16 -8 27 -20zM170 782c10 -3 21 -18 43 -29c4 -2 4 -3 0 -5
c-12 -6 -10 -25 -23 -28c-3 -1 -6 0 -14 2c-14 5 -25 12 -37 20c-4 3 -5 7 -6 11c4 -1 7 -1 10 -1c16 0 21 6 27 30zM391 60c5 -29 4 -47 -4 -54c-9 -9 -80 -6 -88 -6c-10 1 -16 3 -20 7c-9 8 -10 23 -14 55c-2 15 -3 27 -5 35c-1 10 -3 58 -38 59c-5 1 -8 1 -8 1
c-52 0 -60 -2 -66 -53c-1 -8 -6 -35 -14 -81c-3 -15 -11 -22 -25 -22c-31 -1 -57 -1 -78 0c-28 1 -21 22 -17 51c24 136 38 221 44 256c0 3 1 6 1 7l-35 21c-6 3 -9 7 -9 14c0 6 3 11 9 14l48 28c22 124 37 214 46 269c6 33 14 39 46 39h91c10 -1 18 -3 22 -6
c7 -7 11 -25 14 -41c28 -166 43 -254 44 -262l47 -27c5 -3 8 -8 8 -14c0 -7 -3 -11 -8 -14l-34 -20c27 -163 42 -248 43 -256zM335 643c7 -7 11 -25 14 -41c17 -103 30 -177 37 -219c-11 6 -23 14 -34 20c-3 18 -11 61 -23 136c-6 32 -12 69 -19 110c16 0 19 -2 25 -6z
M234 280c0 2 0 8 -1 17c-2 18 -13 71 -13 74c-1 4 -3 9 -6 15c-6 11 -17 7 -21 0c-7 -19 -13 -50 -16 -92c-1 -5 -1 -10 -1 -13c0 -15 56 -14 58 -1zM214 290c-2 -1 -6 -1 -10 -1h-9v1v3c2 27 5 47 8 62c1 -3 1 -5 2 -9c3 -16 8 -41 9 -51v-5zM450 10c5 -29 6 -42 -2 -49
c-13 -11 -18 -11 -99 -11c-10 0 -16 3 -20 7c-6 5 -8 12 -10 25c3 0 7 -1 11 -1c47 0 68 0 80 14c7 8 5 31 -1 68c-1 4 -3 16 -8 49c-7 39 -18 105 -33 194l23 14c7 5 11 10 14 15l37 -21c5 -3 8 -8 8 -14c0 -7 -3 -11 -8 -14l-35 -20c27 -163 42 -248 43 -256zM221 137
c4 0 14 0 19 -30c-40 -1 -42 -7 -48 -53c-1 -8 -2 -17 -10 -62c-3 -15 -11 -41 -44 -41c-31 0 -36 -1 -57 0s-22 13 -20 31h5c13 0 28 0 43 1c23 0 39 13 43 36l8 43c3 22 6 34 6 40c1 8 4 29 9 33c4 3 23 3 39 3h4l1 -1h2z" />
    <glyph glyph-name="AE" unicode="&#xc6;" horiz-adv-x="658" 
d="M587 693c-5 4 -18 7 -41 7h-213c-32 0 -41 -6 -56 -39c-25 -58 -66 -156 -126 -291l-26 -62c-16 -35 -52 -120 -111 -256c-12 -29 -25 -50 3 -51c21 -1 47 -1 78 0c14 0 25 7 31 22l24 58c11 22 23 22 54 22l66 -1c16 0 30 -8 30 -22c0 -37 -1 -64 8 -72s26 -8 40 -8h187
c21 0 45 -2 47 22c3 24 3 49 1 75c-3 23 -23 21 -53 21h-68c-33 0 -42 11 -44 43c-1 31 -1 58 1 82c2 43 12 48 50 48c9 0 42 0 57 1c14 1 22 8 22 22c2 21 2 42 1 63c-1 24 -7 31 -41 31c-7 1 -19 1 -35 1c-31 0 -33 -1 -45 10c-5 6 -9 16 -9 29c-2 32 -2 65 -1 99
c2 31 11 42 44 42h79c29 0 50 -2 52 22c2 23 3 73 -6 82zM613 610v39c12 -1 15 -3 19 -6c9 -9 7 -44 5 -67c-2 -28 -24 -37 -58 -37h-76c-33 0 -32 -2 -34 -33c-1 -24 -1 -56 0 -79c-26 1 -30 0 -31 22c-1 36 -1 63 0 97c1 22 4 24 25 25h78c44 0 71 -4 72 39zM300 212
c0 -16 -85 -14 -91 1c-2 4 -2 8 0 14c24 59 47 116 71 174c5 13 20 10 20 -4v-185zM567 313c1 14 2 29 2 45c24 0 26 -7 27 -31c1 -21 1 -40 -1 -62c-1 -14 -16 -23 -30 -24c-15 -1 -28 0 -57 0c-38 0 -38 6 -40 -37c-1 -17 0 -47 0 -68h-5c-22 1 -25 3 -26 26
c-1 35 -1 59 1 80c1 22 10 31 32 31h58c34 0 37 6 39 40zM226 222l52 130c2 6 8 5 8 -2l-4 -68c-8 -20 -19 -45 -29 -67c-10 1 -22 2 -27 7zM270 84c8 0 12 -3 12 -4v-27h-47c-31 0 -43 0 -54 -22l-24 -58c-6 -15 -17 -22 -31 -22c-31 -1 -38 -1 -59 0s-19 13 -11 31
c12 0 25 1 39 1c27 0 37 7 48 33l23 58c6 10 7 11 38 11zM602 68c18 -1 29 -4 31 -21c2 -26 2 -36 -1 -60c-2 -24 -26 -37 -47 -37h-187c-14 0 -31 0 -40 8c-4 4 -6 12 -7 24h184c63 0 71 21 67 86z" />
    <glyph glyph-name="B" unicode="B" horiz-adv-x="483" 
d="M434 220c1 50 -13 93 -43 127c-16 19 -16 27 -2 46c61 81 40 216 -25 272c-32 27 -70 40 -117 39c-16 -1 -37 -1 -63 -1c-76 1 -98 3 -108 -7c-4 -4 -6 -19 -6 -43v-264l-40 -23c-6 -4 -8 -8 -8 -15c0 -6 2 -10 8 -14l40 -23v-250c0 -33 0 -48 7 -56c5 -5 13 -8 24 -8
c190 -2 235 -11 293 58c27 32 40 67 39 107c0 23 0 42 1 55zM198 553c4 25 16 33 42 31c27 -2 46 -14 52 -41c6 -25 10 -59 -9 -92c-6 -10 -15 -17 -28 -21c-70 -23 -64 74 -57 123zM239 566c14 -1 24 -6 30 -17c-8 -3 -27 -2 -27 -35c0 -32 -1 -52 0 -69
c-28 -3 -37 32 -29 94c3 26 8 28 26 27zM403 382c30 39 42 92 40 143c-1 11 -3 15 -1 16c3 1 7 -3 9 -14c13 -58 5 -125 -26 -166c-8 -10 -9 -11 -11 -13l-10 11c-11 13 -9 11 -1 23zM291 151c-12 -22 -33 -32 -64 -31c-35 2 -30 17 -30 91c0 68 -4 81 23 95
c28 13 67 -10 78 -41c15 -40 12 -78 -7 -114zM228 290c12 6 32 1 39 -11c-6 -2 -10 -6 -16 -14c-4 -6 -6 -17 -6 -33v-61v-32c-5 -1 -10 -1 -17 -1c-17 1 -13 -2 -13 73c0 74 -1 71 13 79zM445 273c-1 4 5 4 12 -8c7 -13 13 -38 13 -69c0 -17 3 -48 3 -71
c1 -40 -22 -75 -42 -99c-65 -77 -104 -75 -294 -75c-23 0 -34 11 -36 31c188 -2 242 -13 307 64c30 36 44 76 43 119c0 23 0 42 1 54c0 15 -5 44 -7 54z" />
    <glyph glyph-name="C" unicode="C" horiz-adv-x="465" 
d="M395 240c0 14 -8 22 -22 23c-23 1 -46 1 -67 0c-21 0 -26 -7 -28 -29v-55c-1 -37 -27 -66 -58 -64s-46 30 -49 55c-2 12 -2 25 -2 39c-1 78 -1 174 0 290c0 25 -2 48 18 70c10 11 22 17 36 17c28 0 53 -26 55 -64c1 -63 -4 -67 24 -69c21 -1 41 -1 62 0c24 0 31 6 32 30
c1 30 6 108 -24 144c-33 39 -62 62 -86 71c-8 3 -18 4 -27 5c-13 0 -34 1 -63 0c-10 0 -21 -2 -34 -7c-65 -24 -107 -90 -105 -151c2 -27 2 -77 1 -157l-40 -23c-5 -4 -8 -8 -8 -15c0 -6 3 -10 8 -14l40 -23v-164c0 -33 6 -59 21 -78c103 -140 287 -84 314 56
c4 20 5 57 2 113zM414 482c1 19 3 57 -4 96c-2 10 -3 13 1 13c3 0 7 -7 9 -11c23 -43 23 -108 22 -138c-1 -24 -17 -36 -37 -36c-21 -1 -32 -1 -53 0c-20 1 -23 4 -24 28c84 0 85 5 86 48zM200 557c8 8 14 11 23 11c7 0 14 -3 20 -8c-21 -10 -24 -39 -24 -75
c0 -116 -1 -245 0 -323c0 -10 0 -20 1 -29c-16 2 -28 16 -31 39v1c-2 10 -2 22 -2 36c-1 78 -1 174 0 290c0 26 -1 42 13 58zM421 216c14 0 23 -9 23 -23c3 -56 -8 -93 -14 -113c-26 -93 -136 -142 -234 -113c-10 3 -9 10 2 8c89 -16 191 37 213 149c4 19 5 50 3 92h7z" />
    <glyph glyph-name="Cacute" unicode="&#x106;" horiz-adv-x="465" 
d="M236 763c-22 -3 -33 -3 -52 1c-10 1 -17 8 -15 15c3 9 4 15 7 24c4 10 22 61 26 75c10 28 13 36 24 41c9 6 21 7 52 7c27 -1 43 -2 45 -3c8 0 15 -7 13 -13c-2 -7 -6 -14 -9 -19c-17 -27 -38 -71 -55 -97c-6 -8 -19 -28 -36 -31zM254 723c-18 0 -31 3 -31 20l16 2
c26 5 43 33 47 38c17 25 36 65 53 93c3 2 10 1 12 1c8 -1 14 -8 12 -14c-2 -7 -6 -20 -15 -38c-11 -20 -31 -56 -53 -85c-9 -12 -16 -17 -41 -17zM395 240c0 14 -8 22 -22 23c-23 1 -46 1 -67 0c-21 0 -26 -7 -28 -29v-55c-1 -37 -27 -66 -58 -64s-46 30 -49 55
c-2 12 -2 25 -2 39c-1 78 -1 174 0 290c0 25 -2 48 18 70c10 11 22 17 36 17c28 0 53 -26 55 -64c1 -63 -4 -67 24 -69c21 -1 41 -1 62 0c24 0 31 6 32 30c1 30 6 108 -24 144c-33 39 -62 62 -86 71c-8 3 -18 4 -27 5c-13 0 -34 1 -63 0c-10 0 -21 -2 -34 -7
c-65 -24 -107 -90 -105 -151c2 -27 2 -77 1 -157l-40 -23c-5 -4 -8 -8 -8 -15c0 -6 3 -10 8 -14l40 -23v-164c0 -33 6 -59 21 -78c103 -140 287 -84 314 56c4 20 5 57 2 113zM414 482c1 19 3 57 -4 96c-2 10 -3 13 1 13c3 0 7 -7 9 -11c23 -43 23 -108 22 -138
c-1 -24 -17 -36 -37 -36c-21 -1 -32 -1 -53 0c-20 1 -23 4 -24 28c84 0 85 5 86 48zM200 557c8 8 14 11 23 11c7 0 14 -3 20 -8c-21 -10 -24 -39 -24 -75c0 -116 -1 -245 0 -323c0 -10 0 -20 1 -29c-16 2 -28 16 -31 39v1c-2 10 -2 22 -2 36c-1 78 -1 174 0 290
c0 26 -1 42 13 58zM421 216c14 0 23 -9 23 -23c3 -56 -8 -93 -14 -113c-26 -93 -136 -142 -234 -113c-10 3 -9 10 2 8c89 -16 191 37 213 149c4 19 5 50 3 92h7z" />
    <glyph glyph-name="Ccaron" unicode="&#x10c;" horiz-adv-x="465" 
d="M204 771c9 0 59 0 66 1c4 1 6 3 9 5c14 10 62 122 71 143c3 6 0 13 -6 13c-1 1 -13 2 -43 3c-28 0 -37 -1 -46 -7c-6 -4 -13 -27 -22 -57c-3 -10 -12 -10 -16 0c-9 31 -20 53 -25 57c-10 6 -23 7 -53 7c-20 -1 -31 -2 -32 -3c-6 0 -8 -7 -6 -13c2 -7 8 -19 11 -25
c33 -67 61 -122 68 -122c8 -2 16 -2 24 -2zM376 884c6 0 9 -7 6 -13c-9 -21 -57 -133 -71 -143c-3 -2 -5 -4 -9 -5c-7 -1 -40 -1 -49 -1c-8 0 -16 0 -24 2c-3 0 -10 11 -20 29l64 1c8 0 17 3 23 11c14 19 29 53 59 122c9 -1 20 -2 21 -3zM395 240c0 14 -8 22 -22 23
c-23 1 -46 1 -67 0c-21 0 -26 -7 -28 -29v-55c-1 -37 -27 -66 -58 -64s-46 30 -49 55c-2 12 -2 25 -2 39c-1 78 -1 174 0 290c0 25 -2 48 18 70c10 11 22 17 36 17c28 0 53 -26 55 -64c1 -63 -4 -67 24 -69c21 -1 41 -1 62 0c24 0 31 6 32 30c1 30 6 108 -24 144
c-33 39 -62 62 -86 71c-8 3 -18 4 -27 5c-13 0 -34 1 -63 0c-10 0 -21 -2 -34 -7c-65 -24 -107 -90 -105 -151c2 -27 2 -77 1 -157l-40 -23c-5 -4 -8 -8 -8 -15c0 -6 3 -10 8 -14l40 -23v-164c0 -33 6 -59 21 -78c103 -140 287 -84 314 56c4 20 5 57 2 113zM414 482
c1 19 3 57 -4 96c-2 10 -3 13 1 13c3 0 7 -7 9 -11c23 -43 23 -108 22 -138c-1 -24 -17 -36 -37 -36c-21 -1 -32 -1 -53 0c-20 1 -23 4 -24 28c84 0 85 5 86 48zM200 557c8 8 14 11 23 11c7 0 14 -3 20 -8c-21 -10 -24 -39 -24 -75c0 -116 -1 -245 0 -323c0 -10 0 -20 1 -29
c-16 2 -28 16 -31 39v1c-2 10 -2 22 -2 36c-1 78 -1 174 0 290c0 26 -1 42 13 58zM421 216c14 0 23 -9 23 -23c3 -56 -8 -93 -14 -113c-26 -93 -136 -142 -234 -113c-10 3 -9 10 2 8c89 -16 191 37 213 149c4 19 5 50 3 92h7z" />
    <glyph glyph-name="Ccedilla" unicode="&#xc7;" horiz-adv-x="465" 
d="M373 263c14 -1 22 -9 22 -23c3 -56 2 -93 -2 -113c-14 -73 -71 -124 -138 -135c-11 -2 -18 -8 -21 -18l-5 -14c5 1 10 1 13 1c48 0 73 -26 73 -77c0 -61 -34 -93 -99 -93c-37 0 -71 18 -89 39c-7 7 -9 14 0 23l15 16c6 7 13 9 20 4c9 -7 20 -20 40 -20c19 0 30 10 30 29
c0 14 -6 23 -22 23c-10 0 -12 -3 -18 -6c-5 -2 -8 -1 -10 0l-15 8c-9 4 -8 16 -6 21l17 48c4 12 0 21 -12 26c-31 12 -62 35 -87 69c-15 19 -21 45 -21 78v164l-40 23c-5 4 -8 8 -8 14c0 7 3 11 8 15l40 23c1 80 1 130 -1 157c-2 61 40 127 105 151c13 5 24 7 34 7
c29 1 50 0 63 0c9 -1 19 -2 27 -5c24 -9 53 -32 86 -71c30 -36 25 -114 24 -144c-1 -24 -8 -30 -32 -30c-21 -1 -41 -1 -62 0c-28 2 -23 6 -24 69c-2 38 -27 64 -55 64c-14 0 -26 -6 -36 -17c-20 -22 -18 -45 -18 -70c-1 -116 -1 -212 0 -290c0 -14 0 -27 2 -39
c3 -25 18 -53 49 -55s57 27 58 64v55c2 22 7 29 28 29c21 1 44 1 67 0zM420 580c23 -43 23 -108 22 -138c-1 -24 -17 -36 -37 -36c-21 -1 -32 -1 -53 0c-20 1 -23 4 -24 28c84 0 85 5 86 48c1 19 3 57 -4 96c-2 10 -3 13 1 13c3 0 7 -7 9 -11zM243 560
c-21 -10 -24 -39 -24 -75c0 -116 -1 -245 0 -323c0 -10 0 -20 1 -29c-16 2 -28 16 -31 39v1c-2 10 -2 22 -2 36c-1 78 -1 174 0 290c0 26 -1 42 13 58c8 8 14 11 23 11c7 0 14 -3 20 -8zM283 -29c-7 0 -8 6 -1 8c8 2 18 6 22 8c55 26 94 72 107 137c4 19 5 50 3 92h7
c14 0 23 -9 23 -23c3 -56 -8 -93 -14 -113c-15 -51 -55 -90 -105 -111c-1 -1 -12 -4 -14 -5c-3 -1 -7 -3 -11 0c-6 4 -13 7 -17 7zM333 -115c0 3 3 4 4 1c4 -8 6 -22 6 -36c0 -53 -35 -96 -92 -96c-21 0 -41 5 -56 14c-10 6 -9 9 2 7c6 -1 12 -2 19 -2c67 0 106 31 116 90
c1 6 2 14 1 22zM214 -118c0 -9 -2 -11 -12 -11c-8 0 -14 4 -21 10c6 -2 13 -1 19 2c8 4 7 4 10 4c4 0 4 1 4 -5z" />
    <glyph glyph-name="Cdotaccent" unicode="&#x10a;" horiz-adv-x="465" 
d="M263 782c8 1 16 8 16 17c3 24 3 48 0 72c-1 9 -8 16 -16 16c-1 1 -14 1 -36 3c-23 -2 -35 -2 -37 -2c-8 -1 -15 -7 -16 -16c-3 -26 -3 -50 0 -72c2 -9 9 -16 16 -17c22 -3 46 -3 73 -1zM329 821c3 -24 3 -48 0 -72c0 -9 -8 -16 -16 -17c-27 -2 -51 -2 -73 1
c-7 1 -14 8 -16 17c-1 5 -1 8 -1 13c12 -1 26 0 41 1c21 2 32 19 33 34c1 13 2 27 2 40c9 0 13 0 14 -1c8 0 15 -7 16 -16zM395 240c0 14 -8 22 -22 23c-23 1 -46 1 -67 0c-21 0 -26 -7 -28 -29v-55c-1 -37 -27 -66 -58 -64s-46 30 -49 55c-2 12 -2 25 -2 39
c-1 78 -1 174 0 290c0 25 -2 48 18 70c10 11 22 17 36 17c28 0 53 -26 55 -64c1 -63 -4 -67 24 -69c21 -1 41 -1 62 0c24 0 31 6 32 30c1 30 6 108 -24 144c-33 39 -62 62 -86 71c-8 3 -18 4 -27 5c-13 0 -34 1 -63 0c-10 0 -21 -2 -34 -7c-65 -24 -107 -90 -105 -151
c2 -27 2 -77 1 -157l-40 -23c-5 -4 -8 -8 -8 -15c0 -6 3 -10 8 -14l40 -23v-164c0 -33 6 -59 21 -78c103 -140 287 -84 314 56c4 20 5 57 2 113zM414 482c1 19 3 57 -4 96c-2 10 -3 13 1 13c3 0 7 -7 9 -11c23 -43 23 -108 22 -138c-1 -24 -17 -36 -37 -36
c-21 -1 -32 -1 -53 0c-20 1 -23 4 -24 28c84 0 85 5 86 48zM200 557c8 8 14 11 23 11c7 0 14 -3 20 -8c-21 -10 -24 -39 -24 -75c0 -116 -1 -245 0 -323c0 -10 0 -20 1 -29c-16 2 -28 16 -31 39v1c-2 10 -2 22 -2 36c-1 78 -1 174 0 290c0 26 -1 42 13 58zM421 216
c14 0 23 -9 23 -23c3 -56 -8 -93 -14 -113c-26 -93 -136 -142 -234 -113c-10 3 -9 10 2 8c89 -16 191 37 213 149c4 19 5 50 3 92h7z" />
    <glyph glyph-name="D" unicode="D" horiz-adv-x="518" 
d="M384 77c-63 -94 -101 -77 -282 -77h-4c-10 0 -17 3 -20 6c-8 8 -8 20 -8 56v252l-40 23c-5 3 -8 7 -8 14c0 6 3 11 8 14l40 23v258c0 15 1 27 1 35c3 24 25 22 44 22c93 1 140 1 142 1c36 0 67 -12 92 -38c49 -50 61 -83 61 -128v-150l40 -23c5 -3 8 -8 8 -14
c0 -7 -3 -11 -8 -14l-40 -23v-143c0 -36 -9 -67 -26 -94zM257 704v0zM189 174c0 -24 -1 -44 18 -52c38 -14 85 12 85 51v332c0 13 0 22 -1 27c-3 33 -21 50 -53 52c-38 3 -50 -6 -49 -43v-367zM428 538c0 13 -1 26 -4 37c-1 7 2 9 7 4c23 -32 29 -58 29 -91v-108h-1l-31 18
v140zM239 507v-370c-32 -8 -32 9 -32 37v367c0 25 1 27 30 25c16 -1 26 -6 31 -17c-22 -8 -29 -13 -29 -42zM500 315c5 -3 8 -8 8 -14c0 -7 -3 -11 -8 -14l-42 -23v-109c0 -36 -12 -80 -55 -136c-48 -62 -70 -68 -251 -68h-4c-10 0 -17 2 -20 5c-5 5 -7 12 -8 26
c163 -1 210 -18 279 85c20 30 29 66 29 104v133l31 17c5 3 9 7 11 11z" />
    <glyph glyph-name="Eth" unicode="&#xd0;" horiz-adv-x="476" 
d="M235 704v0zM362 77c-63 -94 -101 -77 -282 -77h-4c-10 0 -17 3 -20 6c-8 8 -8 20 -8 56v244h-25c-17 1 -23 5 -24 22c-1 18 -1 28 0 48c0 7 2 12 5 14c7 6 17 5 37 5h7v251c0 15 1 27 1 35c3 24 25 22 44 22c93 1 140 1 142 1c36 0 67 -12 92 -38c49 -50 61 -83 61 -128
v-150l40 -23c5 -3 8 -8 8 -14c0 -7 -3 -11 -8 -14l-40 -23v-143c0 -36 -9 -67 -26 -94zM167 174c0 -24 -1 -44 18 -52c38 -14 85 12 85 51v332c0 13 0 22 -1 27c-3 33 -21 50 -53 52c-38 3 -50 -6 -49 -43v-146h25c40 0 42 0 42 -41c0 -7 0 -20 -1 -26c0 -8 -2 -13 -5 -17
c-6 -6 -18 -6 -34 -6h-27v-131zM406 538c0 13 -1 26 -4 37c-1 7 2 9 7 4c23 -32 29 -58 29 -91v-108h-1l-31 18v140zM215 566c16 -1 26 -6 31 -17c-22 -8 -29 -13 -29 -42v-99h-32v133c0 25 1 27 30 25zM478 315c5 -3 8 -8 8 -14c0 -7 -3 -11 -8 -14l-42 -23v-109
c0 -36 -12 -80 -55 -136c-48 -62 -70 -68 -251 -68h-4c-10 0 -17 2 -20 5c-5 5 -7 12 -8 26c163 -1 210 -18 279 85c20 30 29 66 29 104v133l31 17c5 3 9 7 11 11zM217 262v-125c-32 -8 -32 9 -32 37v113h9c19 0 34 1 44 9c4 4 5 3 5 -3c0 -18 -6 -29 -26 -31z" />
    <glyph glyph-name="Dcaron" unicode="&#x10e;" horiz-adv-x="518" 
d="M117 895c-3 6 -9 18 -11 25c-2 6 0 13 6 13c1 1 12 2 32 3c30 0 43 -1 53 -7c5 -4 16 -26 25 -57c4 -10 13 -10 16 0c9 30 16 53 22 57c9 6 18 7 46 7c30 -1 42 -2 43 -3c6 0 9 -7 6 -13c-9 -21 -57 -133 -71 -143c-3 -2 -5 -4 -9 -5c-7 -1 -57 -1 -66 -1
c-8 0 -16 0 -24 2c-7 0 -35 55 -68 122zM278 754c8 0 17 3 23 11c14 19 29 53 59 122c9 -1 20 -2 21 -3c6 0 9 -7 6 -13c-9 -21 -57 -133 -71 -143c-3 -2 -5 -4 -9 -5c-7 -1 -40 -1 -49 -1c-8 0 -16 0 -24 2c-3 0 -10 11 -20 29zM257 704v0zM384 77
c-63 -94 -101 -77 -282 -77h-4c-10 0 -17 3 -20 6c-8 8 -8 20 -8 56v252l-40 23c-5 3 -8 7 -8 14c0 6 3 11 8 14l40 23v258c0 15 1 27 1 35c3 24 25 22 44 22c93 1 140 1 142 1c36 0 67 -12 92 -38c49 -50 61 -83 61 -128v-150l40 -23c5 -3 8 -8 8 -14c0 -7 -3 -11 -8 -14
l-40 -23v-143c0 -36 -9 -67 -26 -94zM189 174c0 -24 -1 -44 18 -52c38 -14 85 12 85 51v332c0 13 0 22 -1 27c-3 33 -21 50 -53 52c-38 3 -50 -6 -49 -43v-367zM428 538c0 13 -1 26 -4 37c-1 7 2 9 7 4c23 -32 29 -58 29 -91v-108h-1l-31 18v140zM239 507v-370
c-32 -8 -32 9 -32 37v367c0 25 1 27 30 25c16 -1 26 -6 31 -17c-22 -8 -29 -13 -29 -42zM500 315c5 -3 8 -8 8 -14c0 -7 -3 -11 -8 -14l-42 -23v-109c0 -36 -12 -80 -55 -136c-48 -62 -70 -68 -251 -68h-4c-10 0 -17 2 -20 5c-5 5 -7 12 -8 26c163 -1 210 -18 279 85
c20 30 29 66 29 104v133l31 17c5 3 9 7 11 11z" />
    <glyph glyph-name="Dcroat" unicode="&#x110;" horiz-adv-x="476" 
d="M235 704v0zM362 77c-63 -94 -101 -77 -282 -77h-4c-10 0 -17 3 -20 6c-8 8 -8 20 -8 56v244h-25c-17 1 -23 5 -24 22c-1 18 -1 28 0 48c0 7 2 12 5 14c7 6 17 5 37 5h7v251c0 15 1 27 1 35c3 24 25 22 44 22c93 1 140 1 142 1c36 0 67 -12 92 -38c49 -50 61 -83 61 -128
v-150l40 -23c5 -3 8 -8 8 -14c0 -7 -3 -11 -8 -14l-40 -23v-143c0 -36 -9 -67 -26 -94zM167 174c0 -24 -1 -44 18 -52c38 -14 85 12 85 51v332c0 13 0 22 -1 27c-3 33 -21 50 -53 52c-38 3 -50 -6 -49 -43v-146h25c40 0 42 0 42 -41c0 -7 0 -20 -1 -26c0 -8 -2 -13 -5 -17
c-6 -6 -18 -6 -34 -6h-27v-131zM406 538c0 13 -1 26 -4 37c-1 7 2 9 7 4c23 -32 29 -58 29 -91v-108h-1l-31 18v140zM215 566c16 -1 26 -6 31 -17c-22 -8 -29 -13 -29 -42v-99h-32v133c0 25 1 27 30 25zM478 315c5 -3 8 -8 8 -14c0 -7 -3 -11 -8 -14l-42 -23v-109
c0 -36 -12 -80 -55 -136c-48 -62 -70 -68 -251 -68h-4c-10 0 -17 2 -20 5c-5 5 -7 12 -8 26c163 -1 210 -18 279 85c20 30 29 66 29 104v133l31 17c5 3 9 7 11 11zM217 262v-125c-32 -8 -32 9 -32 37v113h9c19 0 34 1 44 9c4 4 5 3 5 -3c0 -18 -6 -29 -26 -31z" />
    <glyph glyph-name="E" unicode="E" horiz-adv-x="440" 
d="M383 97c-3 23 -23 20 -53 21h-98c-33 1 -42 11 -44 43c-1 31 -1 58 1 82c2 43 12 48 50 48c29 0 52 0 67 1c14 1 22 8 22 22c2 21 2 42 1 63c-1 24 -7 31 -31 31c-7 1 -19 1 -35 1c-31 0 -53 -1 -65 10c-5 6 -9 16 -9 29c-2 32 -2 65 -1 99c2 31 11 41 44 42h99
c29 0 50 -2 52 22c2 23 3 73 -6 82c-5 4 -18 7 -41 7h-216c-49 0 -50 -2 -50 -52v-261l-40 -23c-5 -3 -8 -8 -8 -14c0 -7 3 -11 8 -14l40 -23v-247c0 -37 -1 -50 8 -58s26 -8 40 -8h217c21 0 45 -2 47 22c3 24 3 49 1 75zM403 610v39c12 -1 15 -3 19 -6c9 -9 7 -44 5 -67
c-2 -28 -24 -37 -58 -37h-97c-33 0 -32 -2 -34 -33c-1 -24 -1 -56 0 -79c-26 1 -30 0 -31 22c-1 36 -1 63 0 97c1 22 4 24 25 25h99c44 0 71 -4 72 39zM346 313c1 14 2 29 2 45c24 0 26 -7 27 -31c1 -21 1 -40 -1 -62c-1 -14 -16 -23 -30 -24c-15 -1 -38 0 -67 0
c-38 0 -38 6 -40 -37c-1 -17 0 -47 0 -68h-5c-22 1 -25 3 -26 26c-1 35 -1 59 1 80c1 22 10 31 32 31h68c34 0 37 6 39 40zM430 47c0 -76 -8 -95 -70 -96l-192 -1c-14 0 -31 0 -40 8c-5 5 -7 11 -8 24h215c38 0 61 -3 65 38c2 15 3 31 2 47c16 0 28 -3 28 -20z" />
    <glyph glyph-name="Eacute" unicode="&#xc9;" horiz-adv-x="440" 
d="M237 763c-22 -3 -33 -3 -52 1c-10 1 -17 8 -15 15c3 9 4 15 7 24c4 10 22 61 26 75c10 28 13 36 24 41c9 6 21 7 52 7c27 -1 43 -2 45 -3c8 0 15 -7 13 -13c-2 -7 -6 -14 -9 -19c-17 -27 -38 -71 -55 -97c-6 -8 -19 -28 -36 -31zM255 723c-18 0 -31 3 -31 20l16 2
c26 5 43 33 47 38c17 25 36 65 53 93c3 2 10 1 12 1c8 -1 14 -8 12 -14c-2 -7 -6 -20 -15 -38c-11 -20 -31 -56 -53 -85c-9 -12 -16 -17 -41 -17zM383 97c-3 23 -23 20 -53 21h-98c-33 1 -42 11 -44 43c-1 31 -1 58 1 82c2 43 12 48 50 48c29 0 52 0 67 1c14 1 22 8 22 22
c2 21 2 42 1 63c-1 24 -7 31 -31 31c-7 1 -19 1 -35 1c-31 0 -53 -1 -65 10c-5 6 -9 16 -9 29c-2 32 -2 65 -1 99c2 31 11 41 44 42h99c29 0 50 -2 52 22c2 23 3 73 -6 82c-5 4 -18 7 -41 7h-216c-49 0 -50 -2 -50 -52v-261l-40 -23c-5 -3 -8 -8 -8 -14c0 -7 3 -11 8 -14
l40 -23v-247c0 -37 -1 -50 8 -58s26 -8 40 -8h217c21 0 45 -2 47 22c3 24 3 49 1 75zM403 610v39c12 -1 15 -3 19 -6c9 -9 7 -44 5 -67c-2 -28 -24 -37 -58 -37h-97c-33 0 -32 -2 -34 -33c-1 -24 -1 -56 0 -79c-26 1 -30 0 -31 22c-1 36 -1 63 0 97c1 22 4 24 25 25h99
c44 0 71 -4 72 39zM346 313c1 14 2 29 2 45c24 0 26 -7 27 -31c1 -21 1 -40 -1 -62c-1 -14 -16 -23 -30 -24c-15 -1 -38 0 -67 0c-38 0 -38 6 -40 -37c-1 -17 0 -47 0 -68h-5c-22 1 -25 3 -26 26c-1 35 -1 59 1 80c1 22 10 31 32 31h68c34 0 37 6 39 40zM430 47
c0 -76 -8 -95 -70 -96l-192 -1c-14 0 -31 0 -40 8c-5 5 -7 11 -8 24h215c38 0 61 -3 65 38c2 15 3 31 2 47c16 0 28 -3 28 -20z" />
    <glyph glyph-name="Ecaron" unicode="&#x11a;" horiz-adv-x="440" 
d="M205 771c9 0 59 0 66 1c4 1 6 3 9 5c14 10 62 122 71 143c3 6 0 13 -6 13c-1 1 -13 2 -43 3c-28 0 -37 -1 -46 -7c-6 -4 -13 -27 -22 -57c-3 -10 -12 -10 -16 0c-9 31 -20 53 -25 57c-10 6 -23 7 -53 7c-20 -1 -31 -2 -32 -3c-6 0 -8 -7 -6 -13c2 -7 8 -19 11 -25
c33 -67 61 -122 68 -122c8 -2 16 -2 24 -2zM377 884c6 0 9 -7 6 -13c-9 -21 -57 -133 -71 -143c-3 -2 -5 -4 -9 -5c-7 -1 -40 -1 -49 -1c-8 0 -16 0 -24 2c-3 0 -10 11 -20 29l64 1c8 0 17 3 23 11c14 19 29 53 59 122c9 -1 20 -2 21 -3zM383 97c-3 23 -23 20 -53 21h-98
c-33 1 -42 11 -44 43c-1 31 -1 58 1 82c2 43 12 48 50 48c29 0 52 0 67 1c14 1 22 8 22 22c2 21 2 42 1 63c-1 24 -7 31 -31 31c-7 1 -19 1 -35 1c-31 0 -53 -1 -65 10c-5 6 -9 16 -9 29c-2 32 -2 65 -1 99c2 31 11 41 44 42h99c29 0 50 -2 52 22c2 23 3 73 -6 82
c-5 4 -18 7 -41 7h-216c-49 0 -50 -2 -50 -52v-261l-40 -23c-5 -3 -8 -8 -8 -14c0 -7 3 -11 8 -14l40 -23v-247c0 -37 -1 -50 8 -58s26 -8 40 -8h217c21 0 45 -2 47 22c3 24 3 49 1 75zM403 610v39c12 -1 15 -3 19 -6c9 -9 7 -44 5 -67c-2 -28 -24 -37 -58 -37h-97
c-33 0 -32 -2 -34 -33c-1 -24 -1 -56 0 -79c-26 1 -30 0 -31 22c-1 36 -1 63 0 97c1 22 4 24 25 25h99c44 0 71 -4 72 39zM346 313c1 14 2 29 2 45c24 0 26 -7 27 -31c1 -21 1 -40 -1 -62c-1 -14 -16 -23 -30 -24c-15 -1 -38 0 -67 0c-38 0 -38 6 -40 -37
c-1 -17 0 -47 0 -68h-5c-22 1 -25 3 -26 26c-1 35 -1 59 1 80c1 22 10 31 32 31h68c34 0 37 6 39 40zM430 47c0 -76 -8 -95 -70 -96l-192 -1c-14 0 -31 0 -40 8c-5 5 -7 11 -8 24h215c38 0 61 -3 65 38c2 15 3 31 2 47c16 0 28 -3 28 -20z" />
    <glyph glyph-name="Ecircumflex" unicode="&#xca;" horiz-adv-x="440" 
d="M118 767c30 0 53 1 63 7c5 4 16 26 25 57c4 10 13 10 16 0c9 -30 16 -53 22 -57c9 -6 28 -7 56 -7c30 1 42 2 43 3c6 0 9 7 6 13c-9 21 -57 133 -71 143c-3 2 -5 4 -9 5c-7 1 -77 1 -86 1c-8 0 -6 0 -14 -2c-17 0 -45 -55 -78 -122c-3 -6 -9 -18 -11 -25
c-2 -6 0 -13 6 -13c1 -1 12 -2 32 -3zM404 772c12 -23 0 -47 -24 -47c-8 0 -15 -1 -30 -1c-29 0 -37 1 -46 7c-3 2 -7 6 -11 18c44 1 47 2 52 2c28 0 28 23 20 40c-15 34 -28 65 -40 89c8 0 21 -2 29 -8c15 -11 39 -79 50 -100zM209 788c3 5 7 5 9 -1c6 -16 10 -24 16 -28
c4 -2 7 -4 12 -6c-9 -24 -12 -27 -69 -27h-29c-6 0 -8 5 -6 11c1 4 1 7 4 12c23 1 34 3 44 9c5 2 12 14 19 30zM383 97c-3 23 -23 20 -53 21h-98c-33 1 -42 11 -44 43c-1 31 -1 58 1 82c2 43 12 48 50 48c29 0 52 0 67 1c14 1 22 8 22 22c2 21 2 42 1 63c-1 24 -7 31 -31 31
c-7 1 -19 1 -35 1c-31 0 -53 -1 -65 10c-5 6 -9 16 -9 29c-2 32 -2 65 -1 99c2 31 11 41 44 42h99c29 0 50 -2 52 22c2 23 3 73 -6 82c-5 4 -18 7 -41 7h-216c-49 0 -50 -2 -50 -52v-261l-40 -23c-5 -3 -8 -8 -8 -14c0 -7 3 -11 8 -14l40 -23v-247c0 -37 -1 -50 8 -58
s26 -8 40 -8h217c21 0 45 -2 47 22c3 24 3 49 1 75zM403 610v39c12 -1 15 -3 19 -6c9 -9 7 -44 5 -67c-2 -28 -24 -37 -58 -37h-97c-33 0 -32 -2 -34 -33c-1 -24 -1 -56 0 -79c-26 1 -30 0 -31 22c-1 36 -1 63 0 97c1 22 4 24 25 25h99c44 0 71 -4 72 39zM346 313
c1 14 2 29 2 45c24 0 26 -7 27 -31c1 -21 1 -40 -1 -62c-1 -14 -16 -23 -30 -24c-15 -1 -38 0 -67 0c-38 0 -38 6 -40 -37c-1 -17 0 -47 0 -68h-5c-22 1 -25 3 -26 26c-1 35 -1 59 1 80c1 22 10 31 32 31h68c34 0 37 6 39 40zM430 47c0 -76 -8 -95 -70 -96l-192 -1
c-14 0 -31 0 -40 8c-5 5 -7 11 -8 24h215c38 0 61 -3 65 38c2 15 3 31 2 47c16 0 28 -3 28 -20z" />
    <glyph glyph-name="Edieresis" unicode="&#xcb;" horiz-adv-x="440" 
d="M151 787c9 1 16 8 16 17c3 23 3 45 0 68c-1 9 -7 15 -16 15c-1 1 -13 1 -34 3c-21 -2 -32 -2 -35 -2c-8 -1 -14 -6 -15 -15c-3 -25 -3 -48 0 -68c2 -9 8 -16 15 -17c21 -3 44 -3 69 -1zM326 787c8 1 16 8 16 17c3 23 3 45 0 68c-2 9 -8 15 -16 15c-1 1 -13 1 -34 3
c-21 -2 -33 -2 -35 -2c-8 -1 -14 -6 -15 -15c-3 -25 -3 -48 0 -68c2 -9 8 -16 15 -17c21 -3 43 -3 69 -1zM218 820c3 -22 4 -33 0 -55c-3 -19 -11 -28 -29 -29c-25 -2 -35 -2 -55 1c-7 1 -13 7 -16 17l-2 14c12 -1 23 0 36 1h1c19 2 31 16 32 34c2 11 3 22 2 35
c10 -1 15 -1 16 -2c8 0 14 -6 15 -16zM393 820c3 -22 4 -33 0 -55c-3 -19 -11 -28 -29 -29c-26 -2 -35 -2 -55 1c-8 1 -14 7 -16 17l-2 14c11 -1 23 0 36 1h1c19 2 31 16 32 34c2 11 3 22 2 35c9 -1 14 -1 16 -2c8 0 14 -6 15 -16zM383 97c-3 23 -23 20 -53 21h-98
c-33 1 -42 11 -44 43c-1 31 -1 58 1 82c2 43 12 48 50 48c29 0 52 0 67 1c14 1 22 8 22 22c2 21 2 42 1 63c-1 24 -7 31 -31 31c-7 1 -19 1 -35 1c-31 0 -53 -1 -65 10c-5 6 -9 16 -9 29c-2 32 -2 65 -1 99c2 31 11 41 44 42h99c29 0 50 -2 52 22c2 23 3 73 -6 82
c-5 4 -18 7 -41 7h-216c-49 0 -50 -2 -50 -52v-261l-40 -23c-5 -3 -8 -8 -8 -14c0 -7 3 -11 8 -14l40 -23v-247c0 -37 -1 -50 8 -58s26 -8 40 -8h217c21 0 45 -2 47 22c3 24 3 49 1 75zM403 610v39c12 -1 15 -3 19 -6c9 -9 7 -44 5 -67c-2 -28 -24 -37 -58 -37h-97
c-33 0 -32 -2 -34 -33c-1 -24 -1 -56 0 -79c-26 1 -30 0 -31 22c-1 36 -1 63 0 97c1 22 4 24 25 25h99c44 0 71 -4 72 39zM346 313c1 14 2 29 2 45c24 0 26 -7 27 -31c1 -21 1 -40 -1 -62c-1 -14 -16 -23 -30 -24c-15 -1 -38 0 -67 0c-38 0 -38 6 -40 -37
c-1 -17 0 -47 0 -68h-5c-22 1 -25 3 -26 26c-1 35 -1 59 1 80c1 22 10 31 32 31h68c34 0 37 6 39 40zM430 47c0 -76 -8 -95 -70 -96l-192 -1c-14 0 -31 0 -40 8c-5 5 -7 11 -8 24h215c38 0 61 -3 65 38c2 15 3 31 2 47c16 0 28 -3 28 -20z" />
    <glyph glyph-name="Edotaccent" unicode="&#x116;" horiz-adv-x="440" 
d="M264 782c8 1 16 8 16 17c3 24 3 48 0 72c-1 9 -8 16 -16 16c-1 1 -14 1 -36 3c-23 -2 -35 -2 -37 -2c-8 -1 -15 -7 -16 -16c-3 -26 -3 -50 0 -72c2 -9 9 -16 16 -17c22 -3 46 -3 73 -1zM330 821c3 -24 3 -48 0 -72c0 -9 -8 -16 -16 -17c-27 -2 -51 -2 -73 1
c-7 1 -14 8 -16 17c-1 5 -1 8 -1 13c12 -1 26 0 41 1c21 2 32 19 33 34c1 13 2 27 2 40c9 0 13 0 14 -1c8 0 15 -7 16 -16zM383 97c-3 23 -23 20 -53 21h-98c-33 1 -42 11 -44 43c-1 31 -1 58 1 82c2 43 12 48 50 48c29 0 52 0 67 1c14 1 22 8 22 22c2 21 2 42 1 63
c-1 24 -7 31 -31 31c-7 1 -19 1 -35 1c-31 0 -53 -1 -65 10c-5 6 -9 16 -9 29c-2 32 -2 65 -1 99c2 31 11 41 44 42h99c29 0 50 -2 52 22c2 23 3 73 -6 82c-5 4 -18 7 -41 7h-216c-49 0 -50 -2 -50 -52v-261l-40 -23c-5 -3 -8 -8 -8 -14c0 -7 3 -11 8 -14l40 -23v-247
c0 -37 -1 -50 8 -58s26 -8 40 -8h217c21 0 45 -2 47 22c3 24 3 49 1 75zM403 610v39c12 -1 15 -3 19 -6c9 -9 7 -44 5 -67c-2 -28 -24 -37 -58 -37h-97c-33 0 -32 -2 -34 -33c-1 -24 -1 -56 0 -79c-26 1 -30 0 -31 22c-1 36 -1 63 0 97c1 22 4 24 25 25h99c44 0 71 -4 72 39
zM346 313c1 14 2 29 2 45c24 0 26 -7 27 -31c1 -21 1 -40 -1 -62c-1 -14 -16 -23 -30 -24c-15 -1 -38 0 -67 0c-38 0 -38 6 -40 -37c-1 -17 0 -47 0 -68h-5c-22 1 -25 3 -26 26c-1 35 -1 59 1 80c1 22 10 31 32 31h68c34 0 37 6 39 40zM430 47c0 -76 -8 -95 -70 -96l-192 -1
c-14 0 -31 0 -40 8c-5 5 -7 11 -8 24h215c38 0 61 -3 65 38c2 15 3 31 2 47c16 0 28 -3 28 -20z" />
    <glyph glyph-name="Egrave" unicode="&#xc8;" horiz-adv-x="440" 
d="M228 763c22 -3 33 -3 52 1c10 1 15 8 15 15c-2 7 -4 15 -7 24c-4 10 -22 61 -26 75c-10 28 -13 36 -24 41c-9 6 -21 7 -52 7c-27 -1 -43 -2 -45 -3c-8 0 -15 -7 -13 -13c2 -7 6 -14 9 -19c17 -27 38 -71 56 -99c5 -6 18 -26 35 -29zM348 770c15 -46 -6 -49 -44 -49
c-27 0 -45 2 -62 22c15 -1 26 1 41 3c18 3 39 8 30 36c-2 7 -4 16 -8 27c-3 7 -12 42 -22 63l22 -3c12 -2 14 -13 24 -41c4 -14 15 -48 19 -58zM383 97c-3 23 -23 20 -53 21h-98c-33 1 -42 11 -44 43c-1 31 -1 58 1 82c2 43 12 48 50 48c29 0 52 0 67 1c14 1 22 8 22 22
c2 21 2 42 1 63c-1 24 -7 31 -31 31c-7 1 -19 1 -35 1c-31 0 -53 -1 -65 10c-5 6 -9 16 -9 29c-2 32 -2 65 -1 99c2 31 11 41 44 42h99c29 0 50 -2 52 22c2 23 3 73 -6 82c-5 4 -18 7 -41 7h-216c-49 0 -50 -2 -50 -52v-261l-40 -23c-5 -3 -8 -8 -8 -14c0 -7 3 -11 8 -14
l40 -23v-247c0 -37 -1 -50 8 -58s26 -8 40 -8h217c21 0 45 -2 47 22c3 24 3 49 1 75zM403 610v39c12 -1 15 -3 19 -6c9 -9 7 -44 5 -67c-2 -28 -24 -37 -58 -37h-97c-33 0 -32 -2 -34 -33c-1 -24 -1 -56 0 -79c-26 1 -30 0 -31 22c-1 36 -1 63 0 97c1 22 4 24 25 25h99
c44 0 71 -4 72 39zM346 313c1 14 2 29 2 45c24 0 26 -7 27 -31c1 -21 1 -40 -1 -62c-1 -14 -16 -23 -30 -24c-15 -1 -38 0 -67 0c-38 0 -38 6 -40 -37c-1 -17 0 -47 0 -68h-5c-22 1 -25 3 -26 26c-1 35 -1 59 1 80c1 22 10 31 32 31h68c34 0 37 6 39 40zM430 47
c0 -76 -8 -95 -70 -96l-192 -1c-14 0 -31 0 -40 8c-5 5 -7 11 -8 24h215c38 0 61 -3 65 38c2 15 3 31 2 47c16 0 28 -3 28 -20z" />
    <glyph glyph-name="Emacron" unicode="&#x112;" horiz-adv-x="440" 
d="M294 785c16 0 28 0 34 6c3 4 5 9 5 17c1 6 1 19 1 26c0 41 -2 40 -42 41c-55 1 -109 1 -164 0c-20 0 -30 1 -37 -5c-3 -2 -5 -7 -5 -14c-1 -20 -1 -30 0 -48c1 -17 7 -21 24 -22c43 -2 87 -2 184 -1zM352 825c30 -1 32 -4 32 -41c0 -7 0 -20 -1 -26c0 -8 -2 -13 -5 -17
c-6 -6 -18 -6 -34 -6c-97 -1 -141 -1 -184 1c-17 1 -23 5 -24 22v9c36 -1 80 -1 158 0c16 0 37 0 48 12c6 8 9 17 9 28c1 4 1 9 1 18zM383 97c-3 23 -23 20 -53 21h-98c-33 1 -42 11 -44 43c-1 31 -1 58 1 82c2 43 12 48 50 48c29 0 52 0 67 1c14 1 22 8 22 22
c2 21 2 42 1 63c-1 24 -7 31 -31 31c-7 1 -19 1 -35 1c-31 0 -53 -1 -65 10c-5 6 -9 16 -9 29c-2 32 -2 65 -1 99c2 31 11 41 44 42h99c29 0 50 -2 52 22c2 23 3 73 -6 82c-5 4 -18 7 -41 7h-216c-49 0 -50 -2 -50 -52v-261l-40 -23c-5 -3 -8 -8 -8 -14c0 -7 3 -11 8 -14
l40 -23v-247c0 -37 -1 -50 8 -58s26 -8 40 -8h217c21 0 45 -2 47 22c3 24 3 49 1 75zM403 610v39c12 -1 15 -3 19 -6c9 -9 7 -44 5 -67c-2 -28 -24 -37 -58 -37h-97c-33 0 -32 -2 -34 -33c-1 -24 -1 -56 0 -79c-26 1 -30 0 -31 22c-1 36 -1 63 0 97c1 22 4 24 25 25h99
c44 0 71 -4 72 39zM346 313c1 14 2 29 2 45c24 0 26 -7 27 -31c1 -21 1 -40 -1 -62c-1 -14 -16 -23 -30 -24c-15 -1 -38 0 -67 0c-38 0 -38 6 -40 -37c-1 -17 0 -47 0 -68h-5c-22 1 -25 3 -26 26c-1 35 -1 59 1 80c1 22 10 31 32 31h68c34 0 37 6 39 40zM430 47
c0 -76 -8 -95 -70 -96l-192 -1c-14 0 -31 0 -40 8c-5 5 -7 11 -8 24h215c38 0 61 -3 65 38c2 15 3 31 2 47c16 0 28 -3 28 -20z" />
    <glyph glyph-name="Eogonek" unicode="&#x118;" horiz-adv-x="407" 
d="M344 -6c-58 -44 -79 -77 -79 -100c0 -14 8 -24 20 -24c9 0 20 4 33 10c12 5 23 2 29 -11l11 -25c6 -13 2 -26 -9 -33c-21 -12 -42 -20 -64 -20c-74 0 -102 34 -102 83c0 26 9 50 24 73c17 25 54 53 -22 53h-88c-14 0 -31 0 -40 8s-8 21 -8 58v247l-40 23c-5 3 -8 7 -8 14
c0 6 3 11 8 14l40 23v261c0 50 1 52 50 52h216c23 0 36 -3 41 -7c9 -9 8 -59 6 -82c-2 -24 -23 -22 -52 -22h-99c-33 -1 -42 -11 -44 -42c-1 -34 -1 -67 1 -99c0 -13 4 -23 9 -29c12 -11 34 -10 65 -10c16 0 28 0 35 -1c24 0 30 -7 31 -31c1 -21 1 -42 -1 -63
c0 -14 -8 -21 -22 -22c-15 -1 -38 -1 -67 -1c-38 0 -48 -5 -50 -48c-2 -24 -2 -51 -1 -82c2 -32 11 -42 44 -43h98c30 -1 50 2 53 -21c2 -26 2 -51 -1 -75c-1 -10 -8 -22 -17 -28zM217 427c-26 1 -30 0 -31 22c-1 36 -1 63 0 97c1 22 4 24 25 25h99c44 0 71 -4 72 39v39
c12 -1 15 -3 19 -6c9 -9 7 -44 5 -67c-2 -28 -24 -37 -58 -37h-97c-33 0 -32 -2 -34 -33c-1 -24 -1 -56 0 -79zM323 241c-15 -1 -38 0 -67 0c-38 0 -38 6 -40 -37c-1 -17 0 -47 0 -68h-5c-22 1 -25 3 -26 26c-1 35 -1 59 1 80c1 22 10 31 32 31h68c34 0 37 6 39 40
c1 14 2 29 2 45c24 0 26 -7 27 -31c1 -21 1 -40 -1 -62c-1 -14 -16 -23 -30 -24zM379 20c2 15 3 31 2 47c16 0 28 -3 28 -20c0 -58 -6 -81 -34 -92c-32 -13 -52 -44 -61 -58c-13 -7 -32 -11 -31 -1c2 20 26 49 72 83c17 12 21 20 24 41zM397 -181c6 -16 5 -22 -5 -32
c-21 -20 -40 -29 -71 -32c-24 -2 -61 2 -76 22c12 -3 26 -4 40 -4c27 0 50 9 72 22c15 9 22 23 22 37c10 4 15 -5 18 -13z" />
    <glyph glyph-name="F" unicode="F" horiz-adv-x="434" 
d="M378 665c0 32 -5 36 -36 38h-170c-41 0 -64 0 -72 -1c-22 0 -28 -6 -29 -28c-1 -4 -1 -15 -1 -32v-254l-40 -23c-5 -3 -8 -8 -8 -14c0 -7 3 -11 8 -14l40 -23v-260c0 -54 1 -54 56 -54s55 0 55 55v169c0 42 8 55 28 63c6 2 18 4 36 5c38 0 57 1 55 1c28 1 24 26 24 66
c-1 49 -2 51 -52 51c-64 1 -84 -5 -89 32c-1 7 -2 18 -2 32c1 45 1 73 2 83c2 39 34 34 60 34l43 1h43c25 0 46 -3 48 21c2 16 2 33 1 52zM398 610v39c12 -1 15 -3 19 -6c9 -9 7 -44 5 -67c-2 -28 -24 -37 -58 -37h-97c-33 0 -32 -2 -34 -33c-1 -24 -1 -56 0 -79
c-26 1 -30 0 -31 22c-1 36 -1 63 0 97c1 22 4 24 25 25h99c44 0 71 -4 72 39zM370 327c1 -21 1 -40 -1 -62c-1 -14 -16 -23 -30 -24c-15 -1 -38 0 -67 0c-38 0 -41 6 -41 -37v-35v-164c0 -44 -11 -55 -55 -55c-46 0 -54 0 -56 32h6c63 0 73 2 73 73v114c0 37 0 52 3 73
c3 22 10 31 32 31h68c34 0 37 6 39 40c1 14 2 29 2 45c24 0 26 -7 27 -31z" />
    <glyph glyph-name="G" unicode="G" horiz-adv-x="453" 
d="M360 642c-31 40 -70 60 -116 61h-36c-91 1 -151 -85 -151 -160c1 -28 1 -81 1 -158l-40 -23c-5 -3 -8 -7 -8 -14c0 -6 3 -11 8 -14l40 -22v-154c0 -24 2 -42 7 -54c32 -75 98 -110 161 -110c39 0 78 8 108 32c80 65 59 113 59 329c0 26 0 37 -8 45c-3 3 -9 6 -18 6
c-9 1 -27 1 -54 1c-35 0 -44 0 -53 -1c-16 -1 -24 -9 -25 -24c-1 -6 -1 -27 -1 -62c0 -18 8 -28 24 -30c33 -5 23 -75 13 -133c-1 -1 -2 -4 -3 -7c-24 -44 -78 -42 -93 7c-6 17 -8 36 -8 57v280c0 48 13 86 48 91s59 -28 60 -61c3 -70 -4 -68 23 -70c24 -1 47 -1 70 0
c30 2 24 27 24 56c0 66 4 85 -32 132zM402 601l8 -9c24 -32 32 -61 32 -99v-33c0 -29 0 -56 -30 -56h-7c-2 3 -4 6 -7 9c-7 6 -19 11 -30 11c-8 1 -22 1 -42 1v10h18c8 0 16 1 25 1c51 3 41 47 41 74c0 52 1 60 -8 91zM217 164c0 -10 0 -19 1 -27c-11 1 -21 9 -26 25v1
c-5 13 -7 29 -7 51v280c0 46 12 70 33 73c8 1 16 -1 23 -7c-27 -14 -24 -72 -24 -116v-280zM443 305c0 -233 1 -252 -79 -317c-31 -25 -69 -37 -112 -37c-17 0 -36 4 -54 12c-6 3 -11 5 -16 9c-6 3 -6 10 3 8c3 -1 10 -2 17 -3c51 -7 106 4 143 35c73 60 73 72 66 344h6
c9 0 15 -3 18 -6c8 -8 8 -19 8 -45z" />
    <glyph glyph-name="Gbreve" unicode="&#x11e;" horiz-adv-x="453" 
d="M215 765c62 0 121 41 121 125c0 28 -5 36 -20 36h-46c-15 0 -14 -16 -17 -36c-4 -28 -21 -46 -42 -46c-19 0 -35 18 -39 46c-3 19 -8 36 -28 36h-39c-10 0 -17 -7 -17 -39c0 -72 41 -122 127 -122zM355 888c14 0 23 -9 23 -37c0 -74 -68 -126 -132 -126
c-17 0 -39 6 -48 12c-11 7 -10 14 3 12s16 -2 24 -2c78 0 128 55 130 141zM205 885c14 0 16 -9 18 -20c-3 -2 -8 -3 -12 -3c-8 0 -16 8 -19 23h13zM360 642c-31 40 -70 60 -116 61h-36c-91 1 -151 -85 -151 -160c1 -28 1 -81 1 -158l-40 -23c-5 -3 -8 -7 -8 -14
c0 -6 3 -11 8 -14l40 -22v-154c0 -24 2 -42 7 -54c32 -75 98 -110 161 -110c39 0 78 8 108 32c80 65 59 113 59 329c0 26 0 37 -8 45c-3 3 -9 6 -18 6c-9 1 -27 1 -54 1c-35 0 -44 0 -53 -1c-16 -1 -24 -9 -25 -24c-1 -6 -1 -27 -1 -62c0 -18 8 -28 24 -30
c33 -5 23 -75 13 -133c-1 -1 -2 -4 -3 -7c-24 -44 -78 -42 -93 7c-6 17 -8 36 -8 57v280c0 48 13 86 48 91s59 -28 60 -61c3 -70 -4 -68 23 -70c24 -1 47 -1 70 0c30 2 24 27 24 56c0 66 4 85 -32 132zM402 601l8 -9c24 -32 32 -61 32 -99v-33c0 -29 0 -56 -30 -56h-7
c-2 3 -4 6 -7 9c-7 6 -19 11 -30 11c-8 1 -22 1 -42 1v10h18c8 0 16 1 25 1c51 3 41 47 41 74c0 52 1 60 -8 91zM217 164c0 -10 0 -19 1 -27c-11 1 -21 9 -26 25v1c-5 13 -7 29 -7 51v280c0 46 12 70 33 73c8 1 16 -1 23 -7c-27 -14 -24 -72 -24 -116v-280zM443 305
c0 -233 1 -252 -79 -317c-31 -25 -69 -37 -112 -37c-17 0 -36 4 -54 12c-6 3 -11 5 -16 9c-6 3 -6 10 3 8c3 -1 10 -2 17 -3c51 -7 106 4 143 35c73 60 73 72 66 344h6c9 0 15 -3 18 -6c8 -8 8 -19 8 -45z" />
    <glyph glyph-name="Gcommaaccent" unicode="&#x122;" horiz-adv-x="453" 
d="M360 642c-31 40 -70 60 -116 61h-36c-91 1 -151 -85 -151 -160c1 -28 1 -81 1 -158l-40 -23c-5 -3 -8 -7 -8 -14c0 -6 3 -11 8 -14l40 -22v-154c0 -24 2 -42 7 -54c32 -75 98 -110 161 -110c39 0 78 8 108 32c80 65 59 113 59 329c0 26 0 37 -8 45c-3 3 -9 6 -18 6
c-9 1 -27 1 -54 1c-35 0 -44 0 -53 -1c-16 -1 -24 -9 -25 -24c-1 -6 -1 -27 -1 -62c0 -18 8 -28 24 -30c33 -5 23 -75 13 -133c-1 -1 -2 -4 -3 -7c-24 -44 -78 -42 -93 7c-6 17 -8 36 -8 57v280c0 48 13 86 48 91s59 -28 60 -61c3 -70 -4 -68 23 -70c24 -1 47 -1 70 0
c30 2 24 27 24 56c0 66 4 85 -32 132zM402 601l8 -9c24 -32 32 -61 32 -99v-33c0 -29 0 -56 -30 -56h-7c-2 3 -4 6 -7 9c-7 6 -19 11 -30 11c-8 1 -22 1 -42 1v10h18c8 0 16 1 25 1c51 3 41 47 41 74c0 52 1 60 -8 91zM217 164c0 -10 0 -19 1 -27c-11 1 -21 9 -26 25v1
c-5 13 -7 29 -7 51v280c0 46 12 70 33 73c8 1 16 -1 23 -7c-27 -14 -24 -72 -24 -116v-280zM443 305c0 -233 1 -252 -79 -317c-31 -25 -69 -37 -112 -37c-17 0 -36 4 -54 12c-6 3 -11 5 -16 9c-6 3 -6 10 3 8c3 -1 10 -2 17 -3c51 -7 106 4 143 35c73 60 73 72 66 344h6
c9 0 15 -3 18 -6c8 -8 8 -19 8 -45zM219 -266c16 0 27 5 35 19c29 64 33 86 33 115c0 49 4 56 -17 57s-41 1 -62 0c-11 -1 -17 -6 -18 -17c0 -13 -1 -33 0 -59c0 -10 5 -17 13 -20c15 -7 17 -18 2 -61c-2 -6 -4 -12 -4 -18c0 -9 5 -16 18 -16zM321 -182
c0 -29 -1 -49 -38 -110c-9 -15 -31 -10 -31 3s8 12 24 46c23 48 29 78 29 111v7c20 0 16 -13 16 -57z" />
    <glyph glyph-name="Gdotaccent" unicode="&#x120;" horiz-adv-x="453" 
d="M263 782c8 1 16 8 16 17c3 24 3 48 0 72c-1 9 -8 16 -16 16c-1 1 -14 1 -36 3c-23 -2 -35 -2 -37 -2c-8 -1 -15 -7 -16 -16c-3 -26 -3 -50 0 -72c2 -9 9 -16 16 -17c22 -3 46 -3 73 -1zM329 821c3 -24 3 -48 0 -72c0 -9 -8 -16 -16 -17c-27 -2 -51 -2 -73 1
c-7 1 -14 8 -16 17c-1 5 -1 8 -1 13c12 -1 26 0 41 1c21 2 32 19 33 34c1 13 2 27 2 40c9 0 13 0 14 -1c8 0 15 -7 16 -16zM360 642c-31 40 -70 60 -116 61h-36c-91 1 -151 -85 -151 -160c1 -28 1 -81 1 -158l-40 -23c-5 -3 -8 -7 -8 -14c0 -6 3 -11 8 -14l40 -22v-154
c0 -24 2 -42 7 -54c32 -75 98 -110 161 -110c39 0 78 8 108 32c80 65 59 113 59 329c0 26 0 37 -8 45c-3 3 -9 6 -18 6c-9 1 -27 1 -54 1c-35 0 -44 0 -53 -1c-16 -1 -24 -9 -25 -24c-1 -6 -1 -27 -1 -62c0 -18 8 -28 24 -30c33 -5 23 -75 13 -133c-1 -1 -2 -4 -3 -7
c-24 -44 -78 -42 -93 7c-6 17 -8 36 -8 57v280c0 48 13 86 48 91s59 -28 60 -61c3 -70 -4 -68 23 -70c24 -1 47 -1 70 0c30 2 24 27 24 56c0 66 4 85 -32 132zM402 601l8 -9c24 -32 32 -61 32 -99v-33c0 -29 0 -56 -30 -56h-7c-2 3 -4 6 -7 9c-7 6 -19 11 -30 11
c-8 1 -22 1 -42 1v10h18c8 0 16 1 25 1c51 3 41 47 41 74c0 52 1 60 -8 91zM217 164c0 -10 0 -19 1 -27c-11 1 -21 9 -26 25v1c-5 13 -7 29 -7 51v280c0 46 12 70 33 73c8 1 16 -1 23 -7c-27 -14 -24 -72 -24 -116v-280zM443 305c0 -233 1 -252 -79 -317
c-31 -25 -69 -37 -112 -37c-17 0 -36 4 -54 12c-6 3 -11 5 -16 9c-6 3 -6 10 3 8c3 -1 10 -2 17 -3c51 -7 106 4 143 35c73 60 73 72 66 344h6c9 0 15 -3 18 -6c8 -8 8 -19 8 -45z" />
    <glyph glyph-name="H" unicode="H" horiz-adv-x="538" 
d="M458 364l-40 23v265c0 26 4 49 -23 51c-19 2 -79 3 -88 -6c-5 -5 -7 -19 -7 -44c-1 -20 -1 -50 -1 -89v-89c0 -29 2 -60 -28 -63c-26 -4 -61 -4 -73 7c-11 11 -9 31 -9 63v166c0 30 4 53 -23 55c-19 2 -79 3 -89 -6c-5 -5 -7 -19 -7 -44v-266l-40 -23c-5 -3 -8 -8 -8 -14
c0 -7 3 -11 8 -14l40 -23v-249c0 -36 0 -49 7 -57c8 -8 25 -7 59 -7c49 0 53 4 53 51v182c0 28 -3 54 26 56s72 6 80 -22c3 -10 4 -24 4 -41l1 -174c0 -27 -3 -49 22 -51c9 -1 22 -1 39 -1c54 0 57 2 57 55v258l40 23c5 3 8 7 8 14c0 6 -3 11 -8 14zM207 482v171h9
c27 0 23 -25 23 -55v-170c-14 0 -21 0 -27 6c-5 5 -5 16 -5 48zM436 397v256h9c27 0 23 -25 23 -51v-223h-1zM508 314c5 -3 8 -8 8 -14c0 -7 -3 -11 -8 -14l-40 -23v-250c0 -44 -8 -63 -57 -63c-17 0 -30 0 -39 1c-18 1 -22 14 -22 31h11c75 0 75 0 75 73v248l31 17
c5 3 9 7 11 11zM222 271c44 3 52 0 56 -9c2 -5 3 -12 3 -22c-6 0 -11 -1 -16 -1c-29 -2 -26 -28 -26 -56v-182c0 -41 -7 -51 -53 -51c-34 0 -51 -1 -59 7c-4 5 -6 12 -7 25h16c71 0 71 0 71 69v182c0 29 6 37 15 38z" />
    <glyph glyph-name="Hbar" unicode="&#x126;" horiz-adv-x="504" 
d="M405 505h-9v-118l40 -23c5 -3 8 -8 8 -14c0 -7 -3 -11 -8 -14l-40 -23v-258c0 -53 -3 -55 -57 -55c-17 0 -30 0 -39 1c-25 2 -22 24 -22 51l-1 174c0 17 -1 31 -4 41c-8 28 -51 24 -80 22s-26 -28 -26 -56v-182c0 -47 -4 -51 -53 -51c-34 0 -51 -1 -59 7
c-7 8 -7 21 -7 57v249l-40 23c-5 3 -8 7 -8 14c0 6 3 11 8 14l40 23v118c-17 0 -22 1 -23 1c-17 1 -24 5 -24 22c0 12 -1 27 0 38c1 7 2 12 5 14c7 6 17 5 37 5h5v68c0 25 2 39 7 44c10 9 70 8 89 6c27 -2 23 -25 23 -55v-63h110c0 23 0 57 1 68c0 25 2 39 7 44
c9 9 69 8 88 6c27 -2 23 -25 23 -51v-67h7c40 0 42 0 42 -31c0 -7 0 -20 -1 -26c0 -8 -2 -13 -5 -17c-6 -6 -18 -6 -34 -6zM185 603v50h9c25 0 23 -22 23 -50h-32zM446 598c-7 4 -17 5 -32 5v50h9c27 0 23 -25 23 -51v-4zM463 535c30 0 32 -3 32 -51c0 -20 -8 -29 -26 -29
h-23v-76h-1l-31 18v90c14 0 30 2 39 12c6 8 9 17 9 28c0 2 1 5 1 8zM249 412c30 3 28 34 28 63v30h-110v-23c0 -32 -2 -52 9 -63c12 -11 47 -11 73 -7zM259 487v-32h-35c-4 0 -7 -3 -7 -7v-20c-14 0 -21 0 -27 6c-3 3 -5 9 -5 21v32h74zM389 -50c-17 0 -30 0 -39 1
c-18 1 -22 14 -22 31h11c75 0 75 0 75 73v248l31 17c5 3 9 7 11 11l30 -17c5 -3 8 -8 8 -14c0 -7 -3 -11 -8 -14l-40 -23v-250c0 -44 -8 -63 -57 -63zM164 -50c-34 0 -51 -1 -59 7c-4 5 -6 12 -7 25h16c71 0 71 0 71 69v182c0 29 6 37 15 38c44 3 52 0 56 -9
c2 -5 3 -12 3 -22c-6 0 -11 -1 -16 -1c-29 -2 -26 -28 -26 -56v-182c0 -41 -7 -51 -53 -51z" />
    <glyph glyph-name="I" unicode="I" horiz-adv-x="309" 
d="M229 365l-40 23v255c0 34 4 56 -23 59c-19 1 -79 3 -89 -7c-4 -4 -6 -19 -6 -43v-264l-40 -23c-6 -3 -9 -8 -9 -14c0 -7 3 -11 9 -14l40 -23v-258c0 -28 -3 -53 24 -55c10 -1 24 -1 43 -1c49 0 51 1 51 51v263l40 23c5 3 8 7 8 14c0 6 -3 11 -8 14zM207 398v254h9
c27 -3 23 -25 23 -59v-213h-1zM279 315c5 -3 8 -8 8 -14c0 -7 -3 -11 -8 -14l-40 -23v-263c0 -41 -10 -51 -51 -51c-19 0 -33 0 -43 1c-19 1 -23 14 -24 31h17c69 0 69 0 69 69v253l31 17c5 3 9 7 11 11z" />
    <glyph glyph-name="Iacute" unicode="&#xcd;" horiz-adv-x="309" 
d="M142 763c-22 -3 -33 -3 -52 1c-10 1 -17 8 -15 15c3 9 4 15 7 24c4 10 22 61 26 75c10 28 13 36 24 41c9 6 21 7 52 7c27 -1 43 -2 45 -3c8 0 15 -7 13 -13c-2 -7 -6 -14 -9 -19c-17 -27 -38 -71 -55 -97c-6 -8 -19 -28 -36 -31zM160 723c-18 0 -31 3 -31 20l16 2
c26 5 43 33 47 38c17 25 36 65 53 93c3 2 10 1 12 1c8 -1 14 -8 12 -14c-2 -7 -6 -20 -15 -38c-11 -20 -31 -56 -53 -85c-9 -12 -16 -17 -41 -17zM229 365l-40 23v255c0 34 4 56 -23 59c-19 1 -79 3 -89 -7c-4 -4 -6 -19 -6 -43v-264l-40 -23c-6 -3 -9 -8 -9 -14
c0 -7 3 -11 9 -14l40 -23v-258c0 -28 -3 -53 24 -55c10 -1 24 -1 43 -1c49 0 51 1 51 51v263l40 23c5 3 8 7 8 14c0 6 -3 11 -8 14zM207 398v254h9c27 -3 23 -25 23 -59v-213h-1zM279 315c5 -3 8 -8 8 -14c0 -7 -3 -11 -8 -14l-40 -23v-263c0 -41 -10 -51 -51 -51
c-19 0 -33 0 -43 1c-19 1 -23 14 -24 31h17c69 0 69 0 69 69v253l31 17c5 3 9 7 11 11z" />
    <glyph glyph-name="Icircumflex" unicode="&#xce;" horiz-adv-x="261" 
d="M231 774c-9 21 -57 133 -71 143c-3 2 -5 4 -9 5c-7 1 -52 1 -61 1c-8 0 -16 0 -24 -2c-7 0 -32 -55 -65 -122c-3 -6 -9 -18 -11 -25c-2 -6 0 -13 6 -13c1 -1 12 -2 32 -3c30 0 43 1 53 7c5 4 13 26 22 57c4 10 13 10 16 0c9 -30 11 -53 17 -57c9 -6 18 -7 46 -7
c30 1 42 2 43 3c6 0 9 7 6 13zM289 770c18 -35 8 -50 -34 -52c-28 0 -37 1 -46 7c-3 2 -5 7 -7 16c12 0 20 1 25 2c30 2 34 9 20 39c-17 40 -33 75 -46 101c11 0 20 -1 23 -1c4 -1 6 -3 9 -5c14 -10 47 -86 56 -107zM110 784c4 -15 8 -29 16 -34c9 -6 18 -9 36 -10
c-3 -8 -6 -13 -8 -15c-10 -6 -23 -7 -53 -7c-20 1 -31 2 -32 3c-6 0 -8 7 -6 13l3 8c10 1 17 3 24 7c6 3 13 15 20 35zM207 365c5 -3 8 -8 8 -14c0 -7 -3 -11 -8 -14l-40 -23v-263c0 -50 -2 -51 -51 -51c-19 0 -33 0 -43 1c-27 2 -24 27 -24 55v258l-40 23c-6 3 -9 7 -9 14
c0 6 3 11 9 14l40 23v264c0 24 2 39 6 43c10 10 70 8 89 7c27 -3 23 -25 23 -59v-255zM185 398v254h9c27 -3 23 -25 23 -59v-213h-1zM257 315c5 -3 8 -8 8 -14c0 -7 -3 -11 -8 -14l-40 -23v-263c0 -41 -10 -51 -51 -51c-19 0 -33 0 -43 1c-19 1 -23 14 -24 31h17
c69 0 69 0 69 69v253l31 17c5 3 9 7 11 11z" />
    <glyph glyph-name="Idieresis" unicode="&#xcf;" horiz-adv-x="275" 
d="M44 787c9 1 16 8 16 17c3 23 3 45 0 68c-1 9 -7 15 -16 15c-1 1 -13 1 -34 3c-21 -2 -32 -2 -35 -2c-8 -1 -14 -6 -15 -15c-3 -25 -3 -48 0 -68c2 -9 8 -16 15 -17c21 -3 44 -3 69 -1zM209 787c8 1 16 8 16 17c3 23 3 45 0 68c-2 9 -8 15 -16 15c-1 1 -13 1 -34 3
c-21 -2 -33 -2 -35 -2c-8 -1 -14 -6 -15 -15c-3 -25 -3 -48 0 -68c2 -9 8 -16 15 -17c21 -3 43 -3 69 -1zM111 820c3 -22 4 -33 0 -55c-3 -19 -11 -28 -29 -29c-25 -2 -35 -2 -55 1c-7 1 -13 7 -16 17l-2 14c12 -1 23 0 36 1h1c19 2 31 16 32 34c2 11 3 22 2 35
c10 -1 15 -1 16 -2c8 0 14 -6 15 -16zM276 820c3 -22 4 -33 0 -55c-3 -19 -11 -28 -29 -29c-26 -2 -35 -2 -55 1c-8 1 -14 7 -16 17l-2 14c11 -1 23 0 36 1h1c19 2 31 16 32 34c2 11 3 22 2 35c9 -1 14 -1 16 -2c8 0 14 -6 15 -16zM229 365l-40 23v255c0 34 4 56 -23 59
c-19 1 -79 3 -89 -7c-4 -4 -6 -19 -6 -43v-264l-40 -23c-6 -3 -9 -8 -9 -14c0 -7 3 -11 9 -14l40 -23v-258c0 -28 -3 -53 24 -55c10 -1 24 -1 43 -1c49 0 51 1 51 51v263l40 23c5 3 8 7 8 14c0 6 -3 11 -8 14zM207 398v254h9c27 -3 23 -25 23 -59v-213h-1zM279 315
c5 -3 8 -8 8 -14c0 -7 -3 -11 -8 -14l-40 -23v-263c0 -41 -10 -51 -51 -51c-19 0 -33 0 -43 1c-19 1 -23 14 -24 31h17c69 0 69 0 69 69v253l31 17c5 3 9 7 11 11z" />
    <glyph glyph-name="Idotaccent" unicode="&#x130;" horiz-adv-x="309" 
d="M169 782c8 1 16 8 16 17c3 24 3 48 0 72c-1 9 -8 16 -16 16c-1 1 -14 1 -36 3c-23 -2 -35 -2 -37 -2c-8 -1 -15 -7 -16 -16c-3 -26 -3 -50 0 -72c2 -9 9 -16 16 -17c22 -3 46 -3 73 -1zM235 821c3 -24 3 -48 0 -72c0 -9 -8 -16 -16 -17c-27 -2 -51 -2 -73 1
c-7 1 -14 8 -16 17c-1 5 -1 8 -1 13c12 -1 26 0 41 1c21 2 32 19 33 34c1 13 2 27 2 40c9 0 13 0 14 -1c8 0 15 -7 16 -16zM229 365l-40 23v255c0 34 4 56 -23 59c-19 1 -79 3 -89 -7c-4 -4 -6 -19 -6 -43v-264l-40 -23c-6 -3 -9 -8 -9 -14c0 -7 3 -11 9 -14l40 -23v-258
c0 -28 -3 -53 24 -55c10 -1 24 -1 43 -1c49 0 51 1 51 51v263l40 23c5 3 8 7 8 14c0 6 -3 11 -8 14zM207 398v254h9c27 -3 23 -25 23 -59v-213h-1zM279 315c5 -3 8 -8 8 -14c0 -7 -3 -11 -8 -14l-40 -23v-263c0 -41 -10 -51 -51 -51c-19 0 -33 0 -43 1c-19 1 -23 14 -24 31
h17c69 0 69 0 69 69v253l31 17c5 3 9 7 11 11z" />
    <glyph glyph-name="Igrave" unicode="&#xcc;" horiz-adv-x="309" 
d="M133 763c22 -3 33 -3 52 1c10 1 15 8 15 15c-2 7 -4 15 -7 24c-4 10 -22 61 -26 75c-10 28 -13 36 -24 41c-9 6 -21 7 -52 7c-27 -1 -43 -2 -45 -3c-8 0 -15 -7 -13 -13c2 -7 6 -14 9 -19c17 -27 38 -71 56 -99c5 -6 18 -26 35 -29zM253 770c15 -46 -6 -49 -44 -49
c-27 0 -45 2 -62 22c15 -1 26 1 41 3c18 3 39 8 30 36c-2 7 -4 16 -8 27c-3 7 -12 42 -22 63l22 -3c12 -2 14 -13 24 -41c4 -14 15 -48 19 -58zM229 365l-40 23v255c0 34 4 56 -23 59c-19 1 -79 3 -89 -7c-4 -4 -6 -19 -6 -43v-264l-40 -23c-6 -3 -9 -8 -9 -14
c0 -7 3 -11 9 -14l40 -23v-258c0 -28 -3 -53 24 -55c10 -1 24 -1 43 -1c49 0 51 1 51 51v263l40 23c5 3 8 7 8 14c0 6 -3 11 -8 14zM207 398v254h9c27 -3 23 -25 23 -59v-213h-1zM279 315c5 -3 8 -8 8 -14c0 -7 -3 -11 -8 -14l-40 -23v-263c0 -41 -10 -51 -51 -51
c-19 0 -33 0 -43 1c-19 1 -23 14 -24 31h17c69 0 69 0 69 69v253l31 17c5 3 9 7 11 11z" />
    <glyph glyph-name="Imacron" unicode="&#x12a;" horiz-adv-x="309" 
d="M199 785c16 0 28 0 34 6c3 4 5 9 5 17c1 6 1 19 1 26c0 41 -2 40 -42 41c-55 1 -109 1 -164 0c-20 0 -30 1 -37 -5c-3 -2 -5 -7 -5 -14c-1 -20 -1 -30 0 -48c1 -17 7 -21 24 -22c43 -2 87 -2 184 -1zM257 825c30 -1 32 -4 32 -41c0 -7 0 -20 -1 -26c0 -8 -2 -13 -5 -17
c-6 -6 -18 -6 -34 -6c-97 -1 -141 -1 -184 1c-17 1 -23 5 -24 22v9c36 -1 80 -1 158 0c16 0 37 0 48 12c6 8 9 17 9 28c1 4 1 9 1 18zM229 365l-40 23v255c0 34 4 56 -23 59c-19 1 -79 3 -89 -7c-4 -4 -6 -19 -6 -43v-264l-40 -23c-6 -3 -9 -8 -9 -14c0 -7 3 -11 9 -14
l40 -23v-258c0 -28 -3 -53 24 -55c10 -1 24 -1 43 -1c49 0 51 1 51 51v263l40 23c5 3 8 7 8 14c0 6 -3 11 -8 14zM207 398v254h9c27 -3 23 -25 23 -59v-213h-1zM279 315c5 -3 8 -8 8 -14c0 -7 -3 -11 -8 -14l-40 -23v-263c0 -41 -10 -51 -51 -51c-19 0 -33 0 -43 1
c-19 1 -23 14 -24 31h17c69 0 69 0 69 69v253l31 17c5 3 9 7 11 11z" />
    <glyph glyph-name="Iogonek" unicode="&#x12e;" horiz-adv-x="261" 
d="M207 365c5 -3 8 -8 8 -14c0 -7 -3 -11 -8 -14l-40 -23v-263c0 -34 -3 -43 -13 -51c-37 -28 -56 -75 -56 -106c0 -14 8 -24 20 -24c9 0 20 4 33 10c12 5 23 2 29 -11l11 -25c6 -13 2 -26 -9 -33c-21 -12 -42 -20 -64 -20c-74 0 -102 34 -102 83c0 40 13 76 41 114
c5 7 7 13 0 20c-9 9 -8 28 -8 48v258l-40 23c-6 3 -9 7 -9 14c0 6 3 11 9 14l40 23v264c0 24 2 39 6 43c10 10 70 8 89 7c27 -3 23 -25 23 -59v-255zM185 398v254h9c27 -3 23 -25 23 -59v-213h-1zM257 315c5 -3 8 -8 8 -14c0 -7 -3 -11 -8 -14l-40 -23v-251
c0 -32 -7 -43 -13 -47c-23 -17 -54 -38 -54 -69c-13 -7 -33 -11 -34 -1c-2 21 12 51 30 69c24 22 39 17 39 86v253l31 17c5 3 9 7 11 11zM233 -189c5 -13 1 -15 -8 -24c-21 -20 -40 -29 -71 -32c-24 -2 -61 2 -76 22c12 -3 26 -4 40 -4c27 0 50 9 72 22c15 9 22 23 22 37
c7 0 15 -5 18 -13z" />
    <glyph glyph-name="J" unicode="J" horiz-adv-x="372" 
d="M299 365l-39 23v258c0 31 2 54 -22 55s-49 1 -74 0c-23 -1 -21 -24 -21 -55v-259l-38 -22c-6 -3 -8 -8 -8 -14c0 -7 2 -11 8 -14l38 -22c0 -90 6 -140 -5 -168c-7 -18 -23 -26 -54 -30c-3 0 -9 -1 -15 -1c-22 0 -36 -3 -39 -23l-10 -62c-1 -11 4 -19 16 -23
c84 -26 151 4 192 60c21 29 32 63 32 103v143l39 23c5 3 8 7 8 14c0 6 -3 11 -8 14zM278 398v253h10c24 -1 22 -24 22 -55v-217c-1 1 -2 1 -32 19zM349 315c5 -3 8 -8 8 -14c0 -7 -3 -11 -8 -14l-39 -23v-93c0 -54 -23 -106 -44 -135c-34 -47 -77 -83 -147 -83
c-31 0 -49 12 -49 29c86 -11 135 24 173 75c23 33 35 71 35 114v133l30 17c5 3 9 7 12 11z" />
    <glyph glyph-name="K" unicode="K" horiz-adv-x="521" 
d="M379 0h-28c-27 -2 -46 10 -56 38c-1 4 -8 23 -22 59c-24 61 -38 97 -42 106c-6 15 -12 25 -17 31s-16 6 -21 0c-8 -10 -12 -23 -12 -41c0 2 0 -31 -1 -98v-67c-2 -20 -8 -26 -27 -28c-19 0 -39 0 -58 1c-17 0 -23 7 -24 25c-1 6 -1 18 -1 36v251l-40 23c-5 4 -8 8 -8 14
c0 7 3 11 8 15l40 23v256c0 31 -2 54 22 55c22 1 44 1 67 0s21 -23 21 -47v-40c0 -31 -1 -49 5 -70c2 -9 14 -12 22 -6c5 4 12 14 19 29c6 11 14 27 24 47c12 22 19 38 24 48c12 21 17 38 35 39c37 3 70 3 98 0c7 -1 11 -8 8 -15c-3 -8 -8 -18 -13 -28
c-13 -27 -46 -92 -97 -194c-10 -19 -14 -27 -13 -24c-8 -16 -8 -31 -1 -46c7 -16 16 -36 26 -61c36 -89 74 -184 115 -284c4 -9 7 -18 9 -27c2 -8 -3 -16 -11 -18c-16 -2 -20 -2 -51 -2zM503 8c17 -39 7 -57 -32 -57h-70c-25 0 -43 7 -54 31h32c91 0 100 -2 70 72
c-41 100 -79 195 -115 284c-10 25 -20 45 -27 61c-5 11 -4 20 1 31c83 164 92 181 110 218l2 3h21c7 0 11 -9 8 -16c-3 -8 -8 -18 -13 -28c-13 -27 -38 -73 -89 -175c-10 -19 -10 -19 11 -70c7 -16 24 -56 34 -81c36 -89 70 -173 111 -273zM205 563c-3 -6 -8 -5 -8 2
c0 11 1 29 1 47v37h11c20 -1 21 -17 21 -37c-5 -11 -18 -35 -25 -49zM201 203c1 7 5 11 11 -3l19 -47v-10c0 1 0 -32 -1 -98v-67c-2 -20 -8 -26 -27 -28c-19 0 -39 0 -58 1c-17 0 -23 7 -24 25c0 2 0 4 -1 6h34c28 3 41 16 44 45v68l2 91c0 7 0 12 1 17z" />
    <glyph glyph-name="Kcommaaccent" unicode="&#x136;" horiz-adv-x="521" 
d="M180 28c-2 -20 -8 -26 -27 -28c-19 0 -39 0 -58 1c-17 0 -23 7 -24 25c-1 6 -1 18 -1 36v251l-40 23c-5 4 -8 8 -8 14c0 7 3 11 8 15l40 23v256c0 31 -2 54 22 55c22 1 44 1 67 0s21 -23 21 -47v-40c0 -31 -1 -49 5 -70c2 -9 14 -12 22 -6c5 4 12 14 19 29
c6 11 14 27 24 47c12 22 19 38 24 48c12 21 17 38 35 39c37 3 70 3 98 0c7 -1 11 -8 8 -15c-3 -8 -8 -18 -13 -28c-13 -27 -46 -92 -97 -194c-10 -19 -14 -27 -13 -24c-8 -16 -8 -31 -1 -46c7 -16 16 -36 26 -61c36 -89 74 -184 115 -284c4 -9 7 -18 9 -27
c2 -8 -3 -16 -11 -18c-16 -2 -20 -2 -51 -2h-28c-27 -2 -46 10 -56 38c-1 4 -8 23 -22 59c-24 61 -38 97 -42 106c-6 15 -12 25 -17 31s-16 6 -21 0c-8 -10 -12 -23 -12 -41c0 2 0 -31 -1 -98v-67zM503 8c17 -39 7 -57 -32 -57h-70c-25 0 -43 7 -54 31h32c91 0 100 -2 70 72
c-41 100 -79 195 -115 284c-10 25 -20 45 -27 61c-5 11 -4 20 1 31c83 164 92 181 110 218l2 3h21c7 0 11 -9 8 -16c-3 -8 -8 -18 -13 -28c-13 -27 -38 -73 -89 -175c-10 -19 -10 -19 11 -70c7 -16 24 -56 34 -81c36 -89 70 -173 111 -273zM205 563c-3 -6 -8 -5 -8 2
c0 11 1 29 1 47v37h11c20 -1 21 -17 21 -37c-5 -11 -18 -35 -25 -49zM230 -22c-2 -20 -8 -26 -27 -28c-19 0 -39 0 -58 1c-17 0 -23 7 -24 25c0 2 0 4 -1 6h34c28 3 41 16 44 45v68l2 91c0 7 0 12 1 17c1 7 5 11 11 -3l19 -47v-10c0 1 0 -32 -1 -98v-67zM312 -116
c0 -29 -4 -51 -33 -115c-8 -14 -19 -19 -35 -19c-13 0 -18 7 -18 16c0 6 2 12 4 18c15 43 13 54 -2 61c-8 3 -13 10 -13 20c-1 26 0 46 0 59c1 11 7 16 18 17c21 1 41 1 62 0s17 -8 17 -57zM330 -109c20 0 16 -13 16 -57c0 -29 -1 -49 -38 -110c-9 -15 -31 -10 -31 3
s8 12 24 46c23 48 29 78 29 111v7z" />
    <glyph glyph-name="L" unicode="L" horiz-adv-x="429" 
d="M368 94c-1 29 -12 24 -77 24c-86 2 -98 -7 -102 36c0 7 -1 20 -1 40v120l40 23c5 3 8 8 8 14c0 7 -2 12 -8 15l-40 23v251c0 38 4 60 -24 62c-10 1 -24 1 -44 1c-49 0 -50 -2 -50 -51v-263l-40 -23c-6 -3 -8 -8 -8 -15c0 -6 2 -10 8 -14l40 -23v-267c0 -45 2 -47 47 -47
h205c22 0 45 -4 46 23c1 24 1 47 0 71zM206 399v253h8c28 0 24 -24 24 -62v-209zM238 322c4 3 8 7 11 11l29 -17c6 -3 8 -8 8 -15c0 -6 -3 -11 -8 -14l-40 -23v-128c-28 0 -29 1 -31 19c0 8 -1 20 -1 39v110zM418 44c1 -24 1 -32 0 -56c-1 -27 -28 -38 -50 -38h-201
c-39 0 -46 2 -47 32h202c20 0 62 -7 64 40c1 16 1 31 1 46c25 0 30 -4 31 -24z" />
    <glyph glyph-name="Lacute" unicode="&#x139;" horiz-adv-x="429" 
d="M141 763c-22 -3 -33 -3 -52 1c-10 1 -17 8 -15 15c3 9 4 15 7 24c4 10 22 61 26 75c10 28 13 36 24 41c9 6 21 7 52 7c27 -1 43 -2 45 -3c8 0 15 -7 13 -13c-2 -7 -6 -14 -9 -19c-17 -27 -38 -71 -55 -97c-6 -8 -19 -28 -36 -31zM159 723c-18 0 -31 3 -31 20l16 2
c26 5 43 33 47 38c17 25 36 65 53 93c3 2 10 1 12 1c8 -1 14 -8 12 -14c-2 -7 -6 -20 -15 -38c-11 -20 -31 -56 -53 -85c-9 -12 -16 -17 -41 -17zM368 94c-1 29 -12 24 -77 24c-86 2 -98 -7 -102 36c0 7 -1 20 -1 40v120l40 23c5 3 8 8 8 14c0 7 -2 12 -8 15l-40 23v251
c0 38 4 60 -24 62c-10 1 -24 1 -44 1c-49 0 -50 -2 -50 -51v-263l-40 -23c-6 -3 -8 -8 -8 -15c0 -6 2 -10 8 -14l40 -23v-267c0 -45 2 -47 47 -47h205c22 0 45 -4 46 23c1 24 1 47 0 71zM206 399v253h8c28 0 24 -24 24 -62v-209zM238 322c4 3 8 7 11 11l29 -17
c6 -3 8 -8 8 -15c0 -6 -3 -11 -8 -14l-40 -23v-128c-28 0 -29 1 -31 19c0 8 -1 20 -1 39v110zM418 44c1 -24 1 -32 0 -56c-1 -27 -28 -38 -50 -38h-201c-39 0 -46 2 -47 32h202c20 0 62 -7 64 40c1 16 1 31 1 46c25 0 30 -4 31 -24z" />
    <glyph glyph-name="Lcaron" unicode="&#x13d;" horiz-adv-x="429" 
d="M368 94c-1 29 -12 24 -77 24c-86 2 -98 -7 -102 36c0 7 -1 20 -1 40v120l40 23c5 3 8 8 8 14c0 7 -2 12 -8 15l-40 23v251c0 38 4 60 -24 62c-10 1 -24 1 -44 1c-49 0 -50 -2 -50 -51v-263l-40 -23c-6 -3 -8 -8 -8 -15c0 -6 2 -10 8 -14l40 -23v-267c0 -45 2 -47 47 -47
h205c22 0 45 -4 46 23c1 24 1 47 0 71zM320 507c16 -1 27 5 35 19c29 64 33 86 33 115c0 20 1 32 0 41c-1 13 -4 15 -17 16c-21 1 -41 1 -62 0c-11 -1 -17 -6 -18 -17c0 -13 -1 -33 0 -59c0 -10 5 -17 13 -20c15 -7 17 -18 2 -61c-2 -5 -3 -9 -3 -13c-3 -14 2 -21 17 -21z
M357 470c17 0 22 4 30 18c29 64 36 80 36 109c0 49 4 56 -17 57v-13c0 -33 -7 -60 -29 -111c-8 -21 -21 -39 -38 -39c0 -8 0 -21 18 -21zM206 399v253h8c28 0 24 -24 24 -62v-209zM238 322c4 3 8 7 11 11l29 -17c6 -3 8 -8 8 -15c0 -6 -3 -11 -8 -14l-40 -23v-128
c-28 0 -29 1 -31 19c0 8 -1 20 -1 39v110zM418 44c1 -24 1 -32 0 -56c-1 -27 -28 -38 -50 -38h-201c-39 0 -46 2 -47 32h202c20 0 62 -7 64 40c1 16 1 31 1 46c25 0 30 -4 31 -24z" />
    <glyph glyph-name="Lcommaaccent" unicode="&#x13b;" horiz-adv-x="429" 
d="M368 94c-1 29 -12 24 -77 24c-86 2 -98 -7 -102 36c0 7 -1 20 -1 40v120l40 23c5 3 8 8 8 14c0 7 -2 12 -8 15l-40 23v251c0 38 4 60 -24 62c-10 1 -24 1 -44 1c-49 0 -50 -2 -50 -51v-263l-40 -23c-6 -3 -8 -8 -8 -15c0 -6 2 -10 8 -14l40 -23v-267c0 -45 2 -47 47 -47
h205c22 0 45 -4 46 23c1 24 1 47 0 71zM206 399v253h8c28 0 24 -24 24 -62v-209zM238 322c4 3 8 7 11 11l29 -17c6 -3 8 -8 8 -15c0 -6 -3 -11 -8 -14l-40 -23v-128c-28 0 -29 1 -31 19c0 8 -1 20 -1 39v110zM418 44c1 -24 1 -32 0 -56c-1 -27 -28 -38 -50 -38h-201
c-39 0 -46 2 -47 32h202c20 0 62 -7 64 40c1 16 1 31 1 46c25 0 30 -4 31 -24zM207 -260c16 0 27 5 35 19c29 64 33 86 33 115c0 49 4 56 -17 57s-41 1 -62 0c-11 -1 -17 -6 -18 -17c0 -13 -1 -33 0 -59c0 -10 5 -17 13 -20c15 -7 17 -18 2 -61c-2 -6 -4 -12 -4 -18
c0 -9 5 -16 18 -16zM309 -176c0 -29 -1 -49 -38 -110c-9 -15 -31 -10 -31 3s8 12 24 46c23 48 29 78 29 111v7c20 0 16 -13 16 -57z" />
    <glyph glyph-name="Ldot" unicode="&#x13f;" horiz-adv-x="382" 
d="M346 94c-1 29 -12 24 -77 24c-86 2 -98 -7 -102 36c0 7 -1 20 -1 40v446c0 38 4 60 -24 62c-10 1 -24 1 -44 1c-49 0 -50 -2 -50 -51v-263l-40 -23c-6 -4 -8 -8 -8 -15c0 -6 2 -10 8 -14l40 -23v-267c0 -45 2 -47 47 -47h205c22 0 45 -4 46 23c1 24 1 47 0 71zM184 194
v459c3 -1 6 -1 8 -1c28 -2 24 -24 24 -62v-454c-28 0 -29 1 -31 19c0 8 -1 20 -1 39zM316 346c8 1 15 7 15 16c3 22 3 44 0 66c-1 9 -7 15 -15 15c-1 1 -13 1 -33 3c-21 -2 -32 -2 -34 -2c-8 -1 -14 -6 -15 -15c-3 -24 -3 -46 0 -66c2 -9 8 -15 15 -16c20 -3 42 -3 67 -1z
M353 296c17 1 25 10 28 28c4 22 3 32 0 54c-1 9 -7 15 -15 15c-1 1 -6 1 -15 2c1 -12 0 -23 -2 -34c-1 -17 -13 -31 -31 -33h-1c-13 -1 -24 -2 -35 -1l2 -14c2 -9 8 -15 15 -16c20 -3 29 -3 54 -1zM396 44c1 -24 1 -32 0 -56c-1 -27 -28 -38 -50 -38h-201
c-39 0 -46 2 -47 32h202c20 0 62 -7 64 40c1 16 1 31 1 46c25 0 30 -4 31 -24z" />
    <glyph glyph-name="Lslash" unicode="&#x141;" horiz-adv-x="382" 
d="M346 94c-1 29 -12 24 -77 24c-86 2 -98 -7 -102 36c0 7 -1 20 -1 40v98l53 34c23 15 35 25 41 31c3 4 5 9 5 17c1 6 1 23 1 30c0 36 -8 54 -42 31l-58 -39v244c0 38 4 60 -24 62c-10 1 -24 1 -44 1c-49 0 -50 -2 -50 -51v-334c-31 -20 -50 -32 -55 -37
c-3 -2 -5 -7 -5 -14c-1 -20 -1 -34 0 -52c1 -17 11 -30 24 -22c9 6 21 14 36 23v-169c0 -45 2 -47 47 -47h205c22 0 45 -4 46 23c1 24 1 47 0 71zM184 430v223c3 -1 6 -1 8 -1c28 -2 24 -24 24 -62v-139zM283 409c18 0 20 -15 20 -38c0 -7 0 -21 -1 -30
c-1 -8 -5 -14 -12 -20c-8 -7 -19 -17 -41 -31l-33 -21v-133c-28 0 -29 1 -31 19c0 8 -1 20 -1 39v88l45 29c20 13 36 25 45 34c5 7 9 17 9 28v36zM396 44c1 -24 1 -47 0 -71c-1 -27 -24 -23 -46 -23h-205c-39 0 -46 2 -47 32h202c20 0 62 -7 64 40c1 16 1 31 1 46
c25 0 30 -4 31 -24z" />
    <glyph glyph-name="M" unicode="M" horiz-adv-x="686" 
d="M606 362l-40 23v259c0 29 4 53 -23 54c-31 1 -69 1 -114 0c-30 0 -27 -21 -35 -66c-1 -2 -59 -310 -59 -310c-4 -16 -22 -15 -26 -3s-6 22 -7 27l-52 263l-14 69c-3 13 -11 20 -22 20h-122c-25 -1 -22 -26 -22 -55v-258l-40 -23c-5 -3 -8 -8 -8 -14c0 -7 3 -11 8 -14
l40 -23v-255c0 -33 -3 -54 21 -57c25 -2 50 -2 74 0c25 4 23 28 23 56v170c0 17 2 29 5 35c1 4 11 8 15 0c13 -30 21 -71 35 -133c4 -14 19 -77 25 -103c4 -19 10 -24 30 -25c28 -2 59 -1 67 6c4 4 8 12 11 23c4 18 10 43 17 77l22 112c6 29 11 42 20 42c12 0 15 -22 14 -71
l-1 -138c0 -25 -2 -48 18 -50c27 -3 53 -3 79 0c23 3 21 29 21 57v254l40 23c5 3 8 7 8 14c0 6 -3 11 -8 14zM260 648h9c11 0 19 -4 22 -17l44 -217l-10 -60c-1 -7 -7 -7 -8 0c-2 12 -5 36 -8 51zM584 395v253c36 0 32 -16 32 -54v-217zM656 312c5 -3 8 -8 8 -14
c0 -7 -3 -11 -8 -14l-40 -23v-254c0 -28 -10 -54 -36 -56s-37 -3 -64 -1c-14 1 -17 14 -18 30c16 -1 33 0 49 2c40 5 37 23 37 75v244l31 17c5 3 9 7 11 11zM203 210c0 7 5 7 6 2l18 -89c1 -7 6 -28 11 -50v-57c0 -28 2 -63 -32 -67c-24 -3 -40 -2 -65 0
c-17 2 -20 13 -21 31c16 -1 32 0 47 1c42 6 40 17 39 74zM430 50c0 -12 -1 -28 3 -41l-7 -31c-3 -11 -7 -19 -11 -23c-8 -7 -39 -8 -67 -6c-19 1 -31 9 -31 31c30 0 52 0 61 9c7 6 12 22 16 35c4 18 12 43 17 77l17 106c1 6 7 5 7 -1z" />
    <glyph glyph-name="N" unicode="N" horiz-adv-x="569" 
d="M488 364l-39 23v263c0 23 2 48 -19 49c-15 2 -31 2 -48 2c-49 0 -51 -2 -51 -51c0 4 0 -68 -1 -217c0 -33 0 -41 -5 -57c-4 -12 -17 -12 -22 0c-2 4 -4 9 -6 15l-74 250c-6 18 -10 31 -12 38c-4 14 -13 21 -25 21h-95c-23 -1 -21 -25 -21 -56v-257l-40 -23
c-5 -4 -8 -8 -8 -15c0 -6 3 -10 8 -14l40 -23v-253c0 -32 -4 -57 27 -61h35c56 0 57 0 57 54v217c0 21 1 35 4 43c5 12 18 15 24 3l12 -33c-2 5 20 -73 74 -230c5 -15 8 -23 10 -30c11 -32 56 -24 80 -24c53 0 56 2 56 55v259l39 23c6 4 9 8 9 14c0 7 -3 11 -9 15zM239 650
c16 1 31 -2 36 -20c2 -7 6 -20 12 -38l25 -87v-73c0 -6 -6 -6 -8 -1zM467 397v253c4 0 9 0 13 -1c21 -1 19 -26 19 -49v-222c0 1 -10 6 -32 19zM538 314c6 -3 9 -8 9 -15c0 -6 -3 -10 -9 -14l-39 -23v-259c0 -44 -11 -55 -56 -55c-24 0 -70 -7 -80 24c-1 2 -1 5 -2 7
c13 0 24 1 32 1c74 0 74 0 74 73v249l31 18c5 3 8 7 11 11zM207 265c0 6 6 8 8 2c5 -14 9 -28 24 -75v-190c0 -43 -11 -54 -57 -54h-35c-21 3 -26 15 -27 32h12c75 0 75 0 75 72v213z" />
    <glyph glyph-name="Nacute" unicode="&#x143;" horiz-adv-x="569" 
d="M266 763c-22 -3 -33 -3 -52 1c-10 1 -17 8 -15 15c3 9 4 15 7 24c4 10 22 61 26 75c10 28 13 36 24 41c9 6 21 7 52 7c27 -1 43 -2 45 -3c8 0 15 -7 13 -13c-2 -7 -6 -14 -9 -19c-17 -27 -38 -71 -55 -97c-6 -8 -19 -28 -36 -31zM284 723c-18 0 -31 3 -31 20l16 2
c26 5 43 33 47 38c17 25 36 65 53 93c3 2 10 1 12 1c8 -1 14 -8 12 -14c-2 -7 -6 -20 -15 -38c-11 -20 -31 -56 -53 -85c-9 -12 -16 -17 -41 -17zM488 364l-39 23v263c0 23 2 48 -19 49c-15 2 -31 2 -48 2c-49 0 -51 -2 -51 -51c0 4 0 -68 -1 -217c0 -33 0 -41 -5 -57
c-4 -12 -17 -12 -22 0c-2 4 -4 9 -6 15l-74 250c-6 18 -10 31 -12 38c-4 14 -13 21 -25 21h-95c-23 -1 -21 -25 -21 -56v-257l-40 -23c-5 -4 -8 -8 -8 -15c0 -6 3 -10 8 -14l40 -23v-253c0 -32 -4 -57 27 -61h35c56 0 57 0 57 54v217c0 21 1 35 4 43c5 12 18 15 24 3l12 -33
c-2 5 20 -73 74 -230c5 -15 8 -23 10 -30c11 -32 56 -24 80 -24c53 0 56 2 56 55v259l39 23c6 4 9 8 9 14c0 7 -3 11 -9 15zM239 650c16 1 31 -2 36 -20c2 -7 6 -20 12 -38l25 -87v-73c0 -6 -6 -6 -8 -1zM467 397v253c4 0 9 0 13 -1c21 -1 19 -26 19 -49v-222
c0 1 -10 6 -32 19zM538 314c6 -3 9 -8 9 -15c0 -6 -3 -10 -9 -14l-39 -23v-259c0 -44 -11 -55 -56 -55c-24 0 -70 -7 -80 24c-1 2 -1 5 -2 7c13 0 24 1 32 1c74 0 74 0 74 73v249l31 18c5 3 8 7 11 11zM207 265c0 6 6 8 8 2c5 -14 9 -28 24 -75v-190c0 -43 -11 -54 -57 -54
h-35c-21 3 -26 15 -27 32h12c75 0 75 0 75 72v213z" />
    <glyph glyph-name="Ncaron" unicode="&#x147;" horiz-adv-x="569" 
d="M234 771c9 0 59 0 66 1c4 1 6 3 9 5c14 10 62 122 71 143c3 6 0 13 -6 13c-1 1 -13 2 -43 3c-28 0 -37 -1 -46 -7c-6 -4 -13 -27 -22 -57c-3 -10 -12 -10 -16 0c-9 31 -20 53 -25 57c-10 6 -23 7 -53 7c-20 -1 -31 -2 -32 -3c-6 0 -8 -7 -6 -13c2 -7 8 -19 11 -25
c33 -67 61 -122 68 -122c8 -2 16 -2 24 -2zM406 884c6 0 9 -7 6 -13c-9 -21 -57 -133 -71 -143c-3 -2 -5 -4 -9 -5c-7 -1 -40 -1 -49 -1c-8 0 -16 0 -24 2c-3 0 -10 11 -20 29l64 1c8 0 17 3 23 11c14 19 29 53 59 122c9 -1 20 -2 21 -3zM488 364l-39 23v263
c0 23 2 48 -19 49c-15 2 -31 2 -48 2c-49 0 -51 -2 -51 -51c0 4 0 -68 -1 -217c0 -33 0 -41 -5 -57c-4 -12 -17 -12 -22 0c-2 4 -4 9 -6 15l-74 250c-6 18 -10 31 -12 38c-4 14 -13 21 -25 21h-95c-23 -1 -21 -25 -21 -56v-257l-40 -23c-5 -4 -8 -8 -8 -15c0 -6 3 -10 8 -14
l40 -23v-253c0 -32 -4 -57 27 -61h35c56 0 57 0 57 54v217c0 21 1 35 4 43c5 12 18 15 24 3l12 -33c-2 5 20 -73 74 -230c5 -15 8 -23 10 -30c11 -32 56 -24 80 -24c53 0 56 2 56 55v259l39 23c6 4 9 8 9 14c0 7 -3 11 -9 15zM239 650c16 1 31 -2 36 -20c2 -7 6 -20 12 -38
l25 -87v-73c0 -6 -6 -6 -8 -1zM467 397v253c4 0 9 0 13 -1c21 -1 19 -26 19 -49v-222c0 1 -10 6 -32 19zM538 314c6 -3 9 -8 9 -15c0 -6 -3 -10 -9 -14l-39 -23v-259c0 -44 -11 -55 -56 -55c-24 0 -70 -7 -80 24c-1 2 -1 5 -2 7c13 0 24 1 32 1c74 0 74 0 74 73v249l31 18
c5 3 8 7 11 11zM207 265c0 6 6 8 8 2c5 -14 9 -28 24 -75v-190c0 -43 -11 -54 -57 -54h-35c-21 3 -26 15 -27 32h12c75 0 75 0 75 72v213z" />
    <glyph glyph-name="Ncommaaccent" unicode="&#x145;" horiz-adv-x="569" 
d="M488 364l-39 23v263c0 23 2 48 -19 49c-15 2 -31 2 -48 2c-49 0 -51 -2 -51 -51c0 4 0 -68 -1 -217c0 -33 0 -41 -5 -57c-4 -12 -17 -12 -22 0c-2 4 -4 9 -6 15l-74 250c-6 18 -10 31 -12 38c-4 14 -13 21 -25 21h-95c-23 -1 -21 -25 -21 -56v-257l-40 -23
c-5 -4 -8 -8 -8 -15c0 -6 3 -10 8 -14l40 -23v-253c0 -32 -4 -57 27 -61h35c56 0 57 0 57 54v217c0 21 1 35 4 43c5 12 18 15 24 3l12 -33c-2 5 20 -73 74 -230c5 -15 8 -23 10 -30c11 -32 56 -24 80 -24c53 0 56 2 56 55v259l39 23c6 4 9 8 9 14c0 7 -3 11 -9 15zM239 650
c16 1 31 -2 36 -20c2 -7 6 -20 12 -38l25 -87v-73c0 -6 -6 -6 -8 -1zM467 397v253c4 0 9 0 13 -1c21 -1 19 -26 19 -49v-222c0 1 -10 6 -32 19zM538 314c6 -3 9 -8 9 -15c0 -6 -3 -10 -9 -14l-39 -23v-259c0 -44 -11 -55 -56 -55c-24 0 -70 -7 -80 24c-1 2 -1 5 -2 7
c13 0 24 1 32 1c74 0 74 0 74 73v249l31 18c5 3 8 7 11 11zM207 265c0 6 6 8 8 2c5 -14 9 -28 24 -75v-190c0 -43 -11 -54 -57 -54h-35c-21 3 -26 15 -27 32h12c75 0 75 0 75 72v213zM256 -250c16 0 27 5 35 19c29 64 33 86 33 115c0 49 4 56 -17 57s-41 1 -62 0
c-11 -1 -17 -6 -18 -17c0 -13 -1 -33 0 -59c0 -10 5 -17 13 -20c15 -7 17 -18 2 -61c-2 -6 -4 -12 -4 -18c0 -9 5 -16 18 -16zM358 -166c0 -29 -1 -49 -38 -110c-9 -15 -31 -10 -31 3s8 12 24 46c23 48 29 78 29 111v7c20 0 16 -13 16 -57z" />
    <glyph glyph-name="Eng" unicode="&#x14a;" horiz-adv-x="513" 
d="M397 -164c-41 -56 -127 -83 -192 -60c-12 4 -17 12 -16 23l9 62c3 13 11 21 24 22c3 1 9 1 16 1c6 0 12 1 15 1c38 4 56 5 65 65c0 0 -1 1 -1 2c-1 4 -27 81 -30 88l-5 14c-38 107 -76 185 -74 180l-15 33c-6 12 -16 9 -21 -3c-3 -8 -4 -22 -4 -43v-167
c0 -54 -1 -54 -57 -54h-35c-31 4 -27 29 -27 61v253l-40 23c-5 4 -8 8 -8 14c0 7 3 11 8 15l40 23v257c0 31 -2 55 21 56h95c12 0 21 -7 25 -21c2 -7 6 -20 12 -38c5 -16 9 -29 11 -38c1 -5 58 -230 79 -288c10 -28 21 -25 21 2c0 44 -3 95 -3 333c0 49 2 51 51 51
c17 0 33 0 48 -2c21 -1 19 -26 19 -49v-263l39 -23c6 -4 9 -8 9 -15c0 -6 -3 -10 -9 -14l-39 -23l1 -375c0 -40 -11 -74 -32 -103zM299 375c0 -6 -7 -6 -8 -1l-73 276c16 1 31 -2 36 -20c2 -7 6 -20 12 -38l25 -87zM478 378c0 1 -10 6 -32 19v253c4 0 9 0 13 -1
c21 -1 19 -26 19 -49v-222zM517 314c6 -3 9 -8 9 -15c0 -6 -3 -10 -9 -14l-39 -23v-323c0 -54 -23 -106 -44 -135c-34 -47 -77 -78 -147 -78c-31 0 -49 12 -49 25c92 -1 135 23 173 74c23 33 35 71 35 114v363l31 18c5 3 8 7 11 11zM218 2c0 -43 -11 -54 -57 -54h-35
c-21 3 -26 15 -27 32h12c75 0 76 0 75 72l-3 184c0 6 5 8 8 2l27 -62v-174zM266 47c-1 0 -1 1 -1 1zM266 47v-2v2z" />
    <glyph glyph-name="Ntilde" unicode="&#xd1;" horiz-adv-x="569" 
d="M303 762c28 0 61 18 85 66c8 16 7 23 0 29c-11 10 -27 22 -33 27c-8 6 -13 5 -18 3c-8 -3 -13 -25 -39 -25c-11 0 -20 8 -31 18c-13 12 -30 18 -51 18c-33 0 -66 -23 -86 -78c-2 -10 -4 -18 4 -24c12 -8 35 -19 44 -24c5 -3 9 -4 12 -3c15 3 9 30 29 31
c11 0 20 -8 31 -18c11 -11 34 -20 53 -20zM438 807c6 -7 8 -13 0 -29c-24 -48 -57 -66 -85 -66c-19 0 -42 9 -53 20l-6 5c-5 5 -7 8 -2 8c4 -1 7 -1 11 -1c40 0 77 28 101 76c2 4 4 7 7 7c9 0 16 -8 27 -20zM219 782c10 -3 21 -18 43 -29c4 -2 4 -3 0 -5
c-12 -6 -10 -25 -23 -28c-3 -1 -6 0 -14 2c-14 5 -25 12 -37 20c-4 3 -5 7 -6 11c4 -1 7 -1 10 -1c16 0 21 6 27 30zM488 364l-39 23v263c0 23 2 48 -19 49c-15 2 -31 2 -48 2c-49 0 -51 -2 -51 -51c0 4 0 -68 -1 -217c0 -33 0 -41 -5 -57c-4 -12 -17 -12 -22 0
c-2 4 -4 9 -6 15l-74 250c-6 18 -10 31 -12 38c-4 14 -13 21 -25 21h-95c-23 -1 -21 -25 -21 -56v-257l-40 -23c-5 -4 -8 -8 -8 -15c0 -6 3 -10 8 -14l40 -23v-253c0 -32 -4 -57 27 -61h35c56 0 57 0 57 54v217c0 21 1 35 4 43c5 12 18 15 24 3l12 -33c-2 5 20 -73 74 -230
c5 -15 8 -23 10 -30c11 -32 56 -24 80 -24c53 0 56 2 56 55v259l39 23c6 4 9 8 9 14c0 7 -3 11 -9 15zM239 650c16 1 31 -2 36 -20c2 -7 6 -20 12 -38l25 -87v-73c0 -6 -6 -6 -8 -1zM467 397v253c4 0 9 0 13 -1c21 -1 19 -26 19 -49v-222c0 1 -10 6 -32 19zM538 314
c6 -3 9 -8 9 -15c0 -6 -3 -10 -9 -14l-39 -23v-259c0 -44 -11 -55 -56 -55c-24 0 -70 -7 -80 24c-1 2 -1 5 -2 7c13 0 24 1 32 1c74 0 74 0 74 73v249l31 18c5 3 8 7 11 11zM207 265c0 6 6 8 8 2c5 -14 9 -28 24 -75v-190c0 -43 -11 -54 -57 -54h-35c-21 3 -26 15 -27 32h12
c75 0 75 0 75 72v213z" />
    <glyph glyph-name="O" unicode="O" horiz-adv-x="512" 
d="M444 364l-40 23v133c0 53 -13 110 -55 149c-42 40 -92 51 -171 39c-13 -2 -24 -7 -36 -16c-58 -42 -86 -92 -84 -151c0 -28 1 -81 0 -154l-40 -23c-6 -4 -8 -8 -8 -15c0 -6 2 -10 8 -14l40 -23v-146c0 -32 5 -58 17 -80c64 -120 230 -128 309 -1c5 9 9 17 10 26
c8 41 11 67 11 78l-1 123l40 23c6 4 8 8 8 14c0 7 -2 12 -8 15zM273 148c-18 -40 -76 -39 -92 2c-4 8 -5 23 -5 43v326c0 16 0 26 1 32c7 51 81 57 97 8c3 -10 5 -21 5 -35v-338c0 -16 -2 -29 -6 -38zM422 397v123c0 22 -2 44 -7 64c-2 9 4 13 9 4c23 -35 30 -78 30 -118
v-91zM195 549c2 27 32 31 49 20c-9 -7 -15 -17 -17 -30c-1 -6 -1 -16 -1 -32v-326c0 -21 2 -37 5 -44c-13 -2 -28 4 -34 20c-2 4 -3 15 -3 36v326c0 12 0 16 1 30zM494 314c6 -3 8 -8 8 -15c0 -6 -2 -10 -8 -14l-40 -23l1 -76c1 -195 -134 -255 -263 -219c-8 2 -5 11 3 10
c75 -9 156 21 204 98c17 32 24 83 24 114l-1 113l31 18c5 3 9 6 13 10z" />
    <glyph glyph-name="Oacute" unicode="&#xd3;" horiz-adv-x="512" 
d="M244 772c-22 -3 -33 -3 -52 1c-10 1 -17 8 -15 15c3 9 4 15 7 24c4 10 22 61 26 75c10 28 13 36 24 41c9 6 21 7 52 7c27 -1 43 -2 45 -3c8 0 15 -7 13 -13c-2 -7 -6 -14 -9 -19c-17 -27 -38 -71 -55 -97c-6 -8 -19 -28 -36 -31zM262 732c-18 0 -31 3 -31 20l16 2
c26 5 43 33 47 38c17 25 36 65 53 93c3 2 10 1 12 1c8 -1 14 -8 12 -14c-2 -7 -6 -20 -15 -38c-11 -20 -31 -56 -53 -85c-9 -12 -16 -17 -41 -17zM444 364l-40 23v133c0 53 -13 110 -55 149c-42 40 -92 51 -171 39c-13 -2 -24 -7 -36 -16c-58 -42 -86 -92 -84 -151
c0 -28 1 -81 0 -154l-40 -23c-6 -4 -8 -8 -8 -15c0 -6 2 -10 8 -14l40 -23v-146c0 -32 5 -58 17 -80c64 -120 230 -128 309 -1c5 9 9 17 10 26c8 41 11 67 11 78l-1 123l40 23c6 4 8 8 8 14c0 7 -2 12 -8 15zM273 148c-18 -40 -76 -39 -92 2c-4 8 -5 23 -5 43v326
c0 16 0 26 1 32c7 51 81 57 97 8c3 -10 5 -21 5 -35v-338c0 -16 -2 -29 -6 -38zM422 397v123c0 22 -2 44 -7 64c-2 9 4 13 9 4c23 -35 30 -78 30 -118v-91zM195 549c2 27 32 31 49 20c-9 -7 -15 -17 -17 -30c-1 -6 -1 -16 -1 -32v-326c0 -21 2 -37 5 -44
c-13 -2 -28 4 -34 20c-2 4 -3 15 -3 36v326c0 12 0 16 1 30zM494 314c6 -3 8 -8 8 -15c0 -6 -2 -10 -8 -14l-40 -23l1 -76c1 -195 -134 -255 -263 -219c-8 2 -5 11 3 10c75 -9 156 21 204 98c17 32 24 83 24 114l-1 113l31 18c5 3 9 6 13 10z" />
    <glyph glyph-name="Ocircumflex" unicode="&#xd4;" horiz-adv-x="512" 
d="M125 776c30 0 53 1 63 7c5 4 16 26 25 57c4 10 13 10 16 0c9 -30 16 -53 22 -57c9 -6 28 -7 56 -7c30 1 42 2 43 3c6 0 9 7 6 13c-9 21 -57 133 -71 143c-3 2 -5 4 -9 5c-7 1 -77 1 -86 1c-8 0 -6 0 -14 -2c-17 0 -45 -55 -78 -122c-3 -6 -9 -18 -11 -25
c-2 -6 0 -13 6 -13c1 -1 12 -2 32 -3zM411 781c12 -23 0 -47 -24 -47c-8 0 -15 -1 -30 -1c-29 0 -37 1 -46 7c-3 2 -7 6 -11 18c44 1 47 2 52 2c28 0 28 23 20 40c-15 34 -28 65 -40 89c8 0 21 -2 29 -8c15 -11 39 -79 50 -100zM216 797c3 5 7 5 9 -1c6 -16 10 -24 16 -28
c4 -2 7 -4 12 -6c-9 -24 -12 -27 -69 -27h-29c-6 0 -8 5 -6 11c1 4 1 7 4 12c23 1 34 3 44 9c5 2 12 14 19 30zM444 364l-40 23v133c0 53 -13 110 -55 149c-42 40 -92 51 -171 39c-13 -2 -24 -7 -36 -16c-58 -42 -86 -92 -84 -151c0 -28 1 -81 0 -154l-40 -23
c-6 -4 -8 -8 -8 -15c0 -6 2 -10 8 -14l40 -23v-146c0 -32 5 -58 17 -80c64 -120 230 -128 309 -1c5 9 9 17 10 26c8 41 11 67 11 78l-1 123l40 23c6 4 8 8 8 14c0 7 -2 12 -8 15zM273 148c-18 -40 -76 -39 -92 2c-4 8 -5 23 -5 43v326c0 16 0 26 1 32c7 51 81 57 97 8
c3 -10 5 -21 5 -35v-338c0 -16 -2 -29 -6 -38zM422 397v123c0 22 -2 44 -7 64c-2 9 4 13 9 4c23 -35 30 -78 30 -118v-91zM195 549c2 27 32 31 49 20c-9 -7 -15 -17 -17 -30c-1 -6 -1 -16 -1 -32v-326c0 -21 2 -37 5 -44c-13 -2 -28 4 -34 20c-2 4 -3 15 -3 36v326
c0 12 0 16 1 30zM494 314c6 -3 8 -8 8 -15c0 -6 -2 -10 -8 -14l-40 -23l1 -76c1 -195 -134 -255 -263 -219c-8 2 -5 11 3 10c75 -9 156 21 204 98c17 32 24 83 24 114l-1 113l31 18c5 3 9 6 13 10z" />
    <glyph glyph-name="Odieresis" unicode="&#xd6;" horiz-adv-x="512" 
d="M158 796c9 1 16 8 16 17c3 23 3 45 0 68c-1 9 -7 15 -16 15c-1 1 -13 1 -34 3c-21 -2 -32 -2 -35 -2c-8 -1 -14 -6 -15 -15c-3 -25 -3 -48 0 -68c2 -9 8 -16 15 -17c21 -3 44 -3 69 -1zM333 796c8 1 16 8 16 17c3 23 3 45 0 68c-2 9 -8 15 -16 15c-1 1 -13 1 -34 3
c-21 -2 -33 -2 -35 -2c-8 -1 -14 -6 -15 -15c-3 -25 -3 -48 0 -68c2 -9 8 -16 15 -17c21 -3 43 -3 69 -1zM225 829c3 -22 4 -33 0 -55c-3 -19 -11 -28 -29 -29c-25 -2 -35 -2 -55 1c-7 1 -13 7 -16 17l-2 14c12 -1 23 0 36 1h1c19 2 31 16 32 34c2 11 3 22 2 35
c10 -1 15 -1 16 -2c8 0 14 -6 15 -16zM400 829c3 -22 4 -33 0 -55c-3 -19 -11 -28 -29 -29c-26 -2 -35 -2 -55 1c-8 1 -14 7 -16 17l-2 14c11 -1 23 0 36 1h1c19 2 31 16 32 34c2 11 3 22 2 35c9 -1 14 -1 16 -2c8 0 14 -6 15 -16zM444 364l-40 23v133c0 53 -13 110 -55 149
c-42 40 -92 51 -171 39c-13 -2 -24 -7 -36 -16c-58 -42 -86 -92 -84 -151c0 -28 1 -81 0 -154l-40 -23c-6 -4 -8 -8 -8 -15c0 -6 2 -10 8 -14l40 -23v-146c0 -32 5 -58 17 -80c64 -120 230 -128 309 -1c5 9 9 17 10 26c8 41 11 67 11 78l-1 123l40 23c6 4 8 8 8 14
c0 7 -2 12 -8 15zM273 148c-18 -40 -76 -39 -92 2c-4 8 -5 23 -5 43v326c0 16 0 26 1 32c7 51 81 57 97 8c3 -10 5 -21 5 -35v-338c0 -16 -2 -29 -6 -38zM422 397v123c0 22 -2 44 -7 64c-2 9 4 13 9 4c23 -35 30 -78 30 -118v-91zM195 549c2 27 32 31 49 20
c-9 -7 -15 -17 -17 -30c-1 -6 -1 -16 -1 -32v-326c0 -21 2 -37 5 -44c-13 -2 -28 4 -34 20c-2 4 -3 15 -3 36v326c0 12 0 16 1 30zM494 314c6 -3 8 -8 8 -15c0 -6 -2 -10 -8 -14l-40 -23l1 -76c1 -195 -134 -255 -263 -219c-8 2 -5 11 3 10c75 -9 156 21 204 98
c17 32 24 83 24 114l-1 113l31 18c5 3 9 6 13 10z" />
    <glyph glyph-name="Ograve" unicode="&#xd2;" horiz-adv-x="512" 
d="M235 772c22 -3 33 -3 52 1c10 1 15 8 15 15c-2 7 -4 15 -7 24c-4 10 -22 61 -26 75c-10 28 -13 36 -24 41c-9 6 -21 7 -52 7c-27 -1 -43 -2 -45 -3c-8 0 -15 -7 -13 -13c2 -7 6 -14 9 -19c17 -27 38 -71 56 -99c5 -6 18 -26 35 -29zM355 779c15 -46 -6 -49 -44 -49
c-27 0 -45 2 -62 22c15 -1 26 1 41 3c18 3 39 8 30 36c-2 7 -4 16 -8 27c-3 7 -12 42 -22 63l22 -3c12 -2 14 -13 24 -41c4 -14 15 -48 19 -58zM444 364l-40 23v133c0 53 -13 110 -55 149c-42 40 -92 51 -171 39c-13 -2 -24 -7 -36 -16c-58 -42 -86 -92 -84 -151
c0 -28 1 -81 0 -154l-40 -23c-6 -4 -8 -8 -8 -15c0 -6 2 -10 8 -14l40 -23v-146c0 -32 5 -58 17 -80c64 -120 230 -128 309 -1c5 9 9 17 10 26c8 41 11 67 11 78l-1 123l40 23c6 4 8 8 8 14c0 7 -2 12 -8 15zM273 148c-18 -40 -76 -39 -92 2c-4 8 -5 23 -5 43v326
c0 16 0 26 1 32c7 51 81 57 97 8c3 -10 5 -21 5 -35v-338c0 -16 -2 -29 -6 -38zM422 397v123c0 22 -2 44 -7 64c-2 9 4 13 9 4c23 -35 30 -78 30 -118v-91zM195 549c2 27 32 31 49 20c-9 -7 -15 -17 -17 -30c-1 -6 -1 -16 -1 -32v-326c0 -21 2 -37 5 -44
c-13 -2 -28 4 -34 20c-2 4 -3 15 -3 36v326c0 12 0 16 1 30zM494 314c6 -3 8 -8 8 -15c0 -6 -2 -10 -8 -14l-40 -23l1 -76c1 -195 -134 -255 -263 -219c-8 2 -5 11 3 10c75 -9 156 21 204 98c17 32 24 83 24 114l-1 113l31 18c5 3 9 6 13 10z" />
    <glyph glyph-name="Ohungarumlaut" unicode="&#x150;" horiz-adv-x="512" 
d="M174 786c17 4 27 23 31 29c13 28 26 72 39 99c2 5 5 12 6 19c1 6 -7 13 -15 13c-2 1 -19 2 -46 3c-40 0 -32 -1 -40 -7c-10 -5 -12 -13 -17 -41c-2 -14 -10 -65 -13 -75l-3 -24c1 -7 7 -14 17 -15c20 -4 30 -4 41 -1zM314 786c17 3 27 23 31 29c13 28 26 72 39 99
c2 5 5 12 6 19c1 6 -7 13 -15 13c-2 1 -19 2 -46 3c-40 0 -32 -1 -40 -7c-10 -5 -12 -13 -17 -41c-2 -14 -10 -65 -13 -75l-3 -24c1 -7 7 -14 17 -15c20 -4 20 -4 41 -1zM425 896c8 0 16 -7 15 -13c-1 -7 -4 -14 -6 -19c-13 -27 -26 -71 -39 -99c-4 -6 -14 -26 -31 -29
c-21 -3 -21 -3 -41 1c-10 1 -16 8 -17 15c1 5 1 10 2 15c17 3 32 11 42 21c5 7 10 17 11 18c12 26 24 66 36 92c16 0 26 -1 28 -2zM247 857c-10 -47 -16 -70 11 -85l-3 -7c-4 -6 -14 -25 -31 -29c-11 -3 -21 -3 -41 1c-10 1 -16 8 -17 15l2 15c1 0 7 0 10 1
c34 8 46 41 64 91zM444 364l-40 23v133c0 53 -13 110 -55 149c-42 40 -92 51 -171 39c-13 -2 -24 -7 -36 -16c-58 -42 -86 -92 -84 -151c0 -28 1 -81 0 -154l-40 -23c-6 -4 -8 -8 -8 -15c0 -6 2 -10 8 -14l40 -23v-146c0 -32 5 -58 17 -80c64 -120 230 -128 309 -1
c5 9 9 17 10 26c8 41 11 67 11 78l-1 123l40 23c6 4 8 8 8 14c0 7 -2 12 -8 15zM273 148c-18 -40 -76 -39 -92 2c-4 8 -5 23 -5 43v326c0 16 0 26 1 32c7 51 81 57 97 8c3 -10 5 -21 5 -35v-338c0 -16 -2 -29 -6 -38zM422 397v123c0 22 -2 44 -7 64c-2 9 4 13 9 4
c23 -35 30 -78 30 -118v-91zM195 549c2 27 32 31 49 20c-9 -7 -15 -17 -17 -30c-1 -6 -1 -16 -1 -32v-326c0 -21 2 -37 5 -44c-13 -2 -28 4 -34 20c-2 4 -3 15 -3 36v326c0 12 0 16 1 30zM494 314c6 -3 8 -8 8 -15c0 -6 -2 -10 -8 -14l-40 -23l1 -76
c1 -195 -134 -255 -263 -219c-8 2 -5 11 3 10c75 -9 156 21 204 98c17 32 24 83 24 114l-1 113l31 18c5 3 9 6 13 10z" />
    <glyph glyph-name="Omacron" unicode="&#x14c;" horiz-adv-x="512" 
d="M301 794c16 0 28 0 34 6c3 4 5 9 5 17c1 6 1 19 1 26c0 41 -2 40 -42 41c-55 1 -109 1 -164 0c-20 0 -30 1 -37 -5c-3 -2 -5 -7 -5 -14c-1 -20 -1 -30 0 -48c1 -17 7 -21 24 -22c43 -2 87 -2 184 -1zM359 834c30 -1 32 -4 32 -41c0 -7 0 -20 -1 -26c0 -8 -2 -13 -5 -17
c-6 -6 -18 -6 -34 -6c-97 -1 -141 -1 -184 1c-17 1 -23 5 -24 22v9c36 -1 80 -1 158 0c16 0 37 0 48 12c6 8 9 17 9 28c1 4 1 9 1 18zM444 364l-40 23v133c0 53 -13 110 -55 149c-42 40 -92 51 -171 39c-13 -2 -24 -7 -36 -16c-58 -42 -86 -92 -84 -151c0 -28 1 -81 0 -154
l-40 -23c-6 -4 -8 -8 -8 -15c0 -6 2 -10 8 -14l40 -23v-146c0 -32 5 -58 17 -80c64 -120 230 -128 309 -1c5 9 9 17 10 26c8 41 11 67 11 78l-1 123l40 23c6 4 8 8 8 14c0 7 -2 12 -8 15zM273 148c-18 -40 -76 -39 -92 2c-4 8 -5 23 -5 43v326c0 16 0 26 1 32
c7 51 81 57 97 8c3 -10 5 -21 5 -35v-338c0 -16 -2 -29 -6 -38zM422 397v123c0 22 -2 44 -7 64c-2 9 4 13 9 4c23 -35 30 -78 30 -118v-91zM195 549c2 27 32 31 49 20c-9 -7 -15 -17 -17 -30c-1 -6 -1 -16 -1 -32v-326c0 -21 2 -37 5 -44c-13 -2 -28 4 -34 20
c-2 4 -3 15 -3 36v326c0 12 0 16 1 30zM494 314c6 -3 8 -8 8 -15c0 -6 -2 -10 -8 -14l-40 -23l1 -76c1 -195 -134 -255 -263 -219c-8 2 -5 11 3 10c75 -9 156 21 204 98c17 32 24 83 24 114l-1 113l31 18c5 3 9 6 13 10z" />
    <glyph glyph-name="Oslash" unicode="&#xd8;" horiz-adv-x="479" 
d="M434 364l-40 23v133c0 42 -8 86 -32 122l16 41c3 8 5 16 7 23v5c0 8 -4 14 -13 15l-22 2c-22 2 -27 -9 -35 -30l-3 -8c-25 16 -53 23 -89 23c-17 0 -35 -2 -55 -5c-13 -2 -24 -7 -36 -16c-56 -41 -84 -89 -84 -145v-160l-40 -23c-6 -4 -8 -8 -8 -15c0 -6 2 -10 8 -14
l40 -23v-146c0 -32 5 -58 17 -80c3 -6 7 -12 11 -18c-5 -15 -10 -28 -15 -40c-8 -20 -12 -32 -12 -40c0 -10 8 -11 28 -11h7c18 0 30 8 35 25c1 3 3 9 6 15c0 1 1 2 1 3c28 -18 59 -27 91 -27c58 0 118 30 157 92c5 9 9 17 10 26c8 41 11 67 11 78l-1 123l40 23
c6 4 8 8 8 14c0 7 -2 12 -8 15zM434 568c7 -27 10 -70 10 -97v-92l-32 18v124c0 44 -9 86 -30 123l13 34h5l22 -2c10 -1 15 -9 13 -20c-2 -7 -4 -15 -7 -23l-8 -21c6 -12 9 -26 14 -44zM166 519c0 16 0 26 1 32c4 27 27 42 50 42c32 0 44 -9 49 -24
c-10 -27 -53 -142 -100 -265v215zM184 399v120c0 12 0 16 1 30c2 27 32 31 49 20c-9 -7 -15 -17 -17 -30c-1 -6 -1 -16 -1 -32v-27zM263 148c-9 -20 -27 -29 -46 -29c-27 0 -40 7 -46 18c35 90 57 150 69 182l29 79v-212c0 -16 -2 -29 -6 -38zM484 314c6 -3 8 -8 8 -15
c0 -6 -2 -10 -8 -14l-40 -23l1 -76c1 -160 -110 -233 -213 -233c-31 0 -66 9 -78 12l-4 -12c-8 -24 -9 -26 -39 -26c-20 0 -31 1 -31 11c0 5 2 11 5 21c24 1 42 12 50 33c17 -8 35 -13 50 -15c9 -1 17 -2 26 -2c67 0 135 32 178 100c17 32 24 83 24 114l-1 113l31 18
c5 3 9 6 13 10zM247 290c2 6 8 4 8 -2v-46l-31 -81v-21c-15 -2 -20 -1 -32 8l44 113z" />
    <glyph glyph-name="Otilde" unicode="&#xd5;" horiz-adv-x="512" 
d="M281 771c28 0 61 18 85 66c8 16 7 23 0 29c-11 10 -27 22 -33 27c-8 6 -13 5 -18 3c-8 -3 -13 -25 -39 -25c-11 0 -20 8 -31 18c-13 12 -30 18 -51 18c-33 0 -66 -23 -86 -78c-2 -10 -4 -18 4 -24c12 -8 35 -19 44 -24c5 -3 9 -4 12 -3c15 3 9 30 29 31
c11 0 20 -8 31 -18c11 -11 34 -20 53 -20zM416 816c6 -7 8 -13 0 -29c-24 -48 -57 -66 -85 -66c-19 0 -42 9 -53 20l-6 5c-5 5 -7 8 -2 8c4 -1 7 -1 11 -1c40 0 77 28 101 76c2 4 4 7 7 7c9 0 16 -8 27 -20zM197 791c10 -3 21 -18 43 -29c4 -2 4 -3 0 -5
c-12 -6 -10 -25 -23 -28c-3 -1 -6 0 -14 2c-14 5 -25 12 -37 20c-4 3 -5 7 -6 11c4 -1 7 -1 10 -1c16 0 21 6 27 30zM444 364l-40 23v133c0 53 -13 110 -55 149c-42 40 -92 51 -171 39c-13 -2 -24 -7 -36 -16c-58 -42 -86 -92 -84 -151c0 -28 1 -81 0 -154l-40 -23
c-6 -4 -8 -8 -8 -15c0 -6 2 -10 8 -14l40 -23v-146c0 -32 5 -58 17 -80c64 -120 230 -128 309 -1c5 9 9 17 10 26c8 41 11 67 11 78l-1 123l40 23c6 4 8 8 8 14c0 7 -2 12 -8 15zM273 148c-18 -40 -76 -39 -92 2c-4 8 -5 23 -5 43v326c0 16 0 26 1 32c7 51 81 57 97 8
c3 -10 5 -21 5 -35v-338c0 -16 -2 -29 -6 -38zM422 397v123c0 22 -2 44 -7 64c-2 9 4 13 9 4c23 -35 30 -78 30 -118v-91zM195 549c2 27 32 31 49 20c-9 -7 -15 -17 -17 -30c-1 -6 -1 -16 -1 -32v-326c0 -21 2 -37 5 -44c-13 -2 -28 4 -34 20c-2 4 -3 15 -3 36v326
c0 12 0 16 1 30zM494 314c6 -3 8 -8 8 -15c0 -6 -2 -10 -8 -14l-40 -23l1 -76c1 -195 -134 -255 -263 -219c-8 2 -5 11 3 10c75 -9 156 21 204 98c17 32 24 83 24 114l-1 113l31 18c5 3 9 6 13 10z" />
    <glyph glyph-name="OE" unicode="&#x152;" horiz-adv-x="596" 
d="M545 693c6 -6 7 -27 7 -49c0 -12 0 -24 -1 -33c-2 -24 -23 -22 -52 -22h-79c-33 0 -42 -11 -44 -42c0 -14 -1 -28 -1 -42c0 -19 1 -38 2 -57c0 -13 4 -23 9 -29c10 -9 13 -10 33 -10c22 0 38 0 47 -1c34 0 40 -7 41 -31c0 -9 1 -17 1 -26c0 -12 -1 -25 -2 -37
c0 -14 -8 -21 -22 -22c-15 -1 -48 -1 -57 -1c-38 0 -48 -5 -50 -48c-1 -14 -2 -29 -2 -45c0 -12 1 -24 1 -37c2 -32 11 -43 44 -43h68c30 0 50 2 53 -21c1 -12 1 -23 1 -34c0 -14 0 -28 -2 -41c-2 -24 -26 -22 -47 -22h-187c-10 0 -21 2 -31 3c-19 -7 -39 -10 -58 -10
c-61 0 -120 32 -152 93c-12 22 -17 48 -17 80v146l-40 23c-6 4 -8 8 -8 14c0 7 2 11 8 15l40 23v68v92c0 56 28 104 84 145c12 9 23 14 36 16c20 3 38 5 55 5c27 0 50 -4 70 -13h211c23 0 36 -3 41 -7zM571 610v39c12 -1 15 -3 19 -6c9 -9 7 -44 5 -67
c-2 -28 -24 -37 -58 -37h-76c-33 0 -32 -2 -34 -33c-1 -24 -1 -56 0 -79c-26 1 -30 0 -31 22c-1 36 -1 63 0 97c1 22 4 24 25 25h78c44 0 71 -4 72 39zM219 102c15 0 29 2 39 8v287c0 7 0 99 5 197c-8 9 -27 12 -46 12c-37 0 -51 -27 -51 -74v-349c0 -49 18 -81 53 -81z
M233 587c-9 -13 -14 -21 -16 -34c-1 -6 -1 -16 -1 -32v-353c0 -21 1 -40 4 -47c-29 0 -36 28 -36 59v353c0 44 19 62 49 54zM525 313c1 14 2 29 2 45c24 0 26 -7 27 -31c1 -21 1 -40 -1 -62c-1 -14 -16 -23 -30 -24c-15 -1 -28 0 -57 0c-38 0 -38 6 -40 -37
c-1 -17 0 -47 0 -68h-5c-22 1 -25 3 -26 26c-1 35 -1 59 1 80c1 22 10 31 32 31h58c34 0 37 6 39 40zM591 47c2 -26 2 -51 -1 -75c-2 -24 -26 -22 -47 -22h-187c-60 0 -132 5 -174 17c-8 2 -5 11 3 10c26 -3 61 -3 93 9c32 -6 139 -4 215 -4c63 0 71 21 67 86
c18 -1 29 -4 31 -21z" />
    <glyph glyph-name="P" unicode="P" horiz-adv-x="480" 
d="M410 480c0 47 0 72 -1 75c-10 121 -113 147 -173 147h-57h-58c-50 0 -51 -1 -51 -50v-266l-40 -23c-5 -3 -8 -7 -8 -14c0 -6 3 -11 8 -14l40 -23v-264c0 -24 -2 -46 22 -48c31 -2 80 -3 89 6c4 4 7 16 7 34v157c0 32 -5 56 29 60c5 1 20 2 43 2c18 1 32 3 42 7
c63 24 105 79 108 146v68zM297 431c-6 -40 -42 -65 -80 -59c-18 3 -27 13 -28 29c0 64 0 23 -1 80c0 83 -11 105 42 101c74 -6 76 -83 67 -151zM456 505c1 -3 4 -28 4 -75v-18c0 -102 -55 -154 -114 -183c-13 -6 -57 -17 -79 -20c-34 -4 -29 -3 -29 -62v-147
c0 -30 -14 -47 -36 -49c-19 -2 -39 -2 -60 -1c-18 2 -21 14 -22 31c39 -1 64 2 74 12c8 8 12 25 12 47v149c0 48 7 52 54 52h1c21 1 36 4 48 8c70 27 119 90 119 163v68c0 49 0 68 -1 76c0 6 -1 12 -2 18c-1 10 3 12 10 2c9 -13 18 -38 21 -71zM255 556
c-24 -7 -17 -35 -17 -101c1 -52 1 -20 1 -65c-6 -1 -13 -1 -19 0c-9 1 -12 4 -13 12v96c0 74 -6 68 22 66c10 -1 19 -3 26 -8z" />
    <glyph glyph-name="Thorn" unicode="&#xde;" horiz-adv-x="458" 
d="M387 428c-10 121 -113 147 -173 147h-47v68c0 34 4 56 -23 59c-19 1 -79 3 -89 -7c-4 -4 -6 -19 -6 -43v-266l-40 -23c-6 -3 -9 -8 -9 -14c0 -7 3 -11 9 -14l40 -23h-1l1 -2v-254c0 -28 -3 -53 24 -55c10 -1 24 -1 43 -1c49 0 51 1 51 51v56c2 12 9 21 28 23
c5 1 20 2 43 2c18 1 32 3 42 7c63 24 105 80 108 147v67c0 47 0 72 -1 75zM185 593v59h9c27 -3 23 -25 23 -59h-32zM434 378c1 -3 4 -28 4 -75v-18c0 -102 -55 -154 -114 -183c-13 -6 -57 -17 -79 -20c-34 -4 -29 -3 -29 -62v-19c0 -30 -14 -47 -36 -49
c-19 -2 -39 -2 -60 -1c-18 2 -21 14 -22 31c39 -1 64 2 74 12c8 8 12 25 12 47v21c0 48 7 52 54 52h1c21 1 36 4 48 8c70 27 119 90 119 163v68c0 49 0 68 -1 76c0 6 -1 12 -2 18c-1 10 3 12 10 2c9 -13 18 -38 21 -71zM275 304c-6 -40 -42 -65 -80 -59c-18 3 -27 13 -28 29
v163c4 15 15 20 41 18c74 -6 76 -83 67 -151zM233 429c-24 -7 -17 -35 -17 -101c1 -52 1 -20 1 -65c-6 -1 -13 -1 -19 0c-9 1 -12 4 -13 12v96c0 74 -6 68 22 66c10 -1 19 -3 26 -8z" />
    <glyph glyph-name="Q" unicode="Q" horiz-adv-x="518" 
d="M450 364l-41 24v134c0 37 -3 88 -59 146c-69 72 -197 58 -256 -19c-24 -30 -35 -67 -35 -107v-154l-41 -24c-6 -3 -8 -8 -8 -14c0 -7 2 -11 8 -14l41 -24v-158c0 -61 31 -112 93 -152c28 -19 107 -14 125 -12c22 2 39 -2 52 -13c17 -15 39 -21 67 -21c20 1 28 7 29 26
c0 7 1 25 1 56c0 14 -5 24 -16 30c-10 7 -14 19 -11 36c7 37 10 61 10 70c0 22 0 78 1 139l40 23c5 3 8 7 8 14c0 6 -3 11 -8 14zM282 187c0 -35 -2 -54 -20 -68s-46 -14 -63 0c-18 14 -21 35 -21 60v343c0 24 1 40 20 57c19 16 41 18 62 1c22 -17 22 -32 22 -65v-328z
M427 398v124c0 11 0 23 -2 37l-3 17c-2 8 3 12 7 7l12 -21c17 -34 18 -65 18 -90v-92zM197 542c1 22 31 47 49 27c-9 -7 -15 -17 -17 -30c-1 -6 -1 -16 -1 -32v-338c0 -21 2 -37 5 -44c-13 -2 -28 4 -34 20c-2 4 -3 15 -3 36v331c0 12 0 16 1 30zM500 314c5 -3 8 -8 8 -14
c0 -7 -3 -11 -8 -14l-40 -23s1 -28 -1 -89c-2 -49 -8 -70 -4 -81c2 -8 7 -11 14 -16c11 -7 8 -48 8 -62c0 -31 -1 -49 -1 -56c0 -44 -28 -55 -48 -56c-28 0 -35 -1 -54 9c-12 6 -32 23 -54 21c-18 -2 -90 0 -118 19c-6 4 -11 8 -16 12c-7 5 -5 10 2 9c6 -1 12 -2 18 -2
c31 -2 63 0 73 1c18 2 29 -1 38 -9c19 -17 46 -25 79 -25c32 2 46 16 47 44c0 6 1 25 1 56c0 19 -8 34 -22 44c-5 2 -7 7 -5 19c6 33 10 61 10 73c0 21 0 72 1 128l31 18c5 3 9 7 12 11z" />
    <glyph glyph-name="R" unicode="R" horiz-adv-x="506" 
d="M422 55c-27 106 -45 174 -54 206c-6 25 -3 46 11 63c19 24 29 48 29 71c1 92 1 151 0 178c-2 56 -42 103 -96 116c-32 9 -61 13 -86 12h-53c-58 0 -87 2 -96 -7c-5 -5 -7 -20 -7 -45v-263l-40 -23c-5 -3 -8 -8 -8 -14c0 -7 3 -11 8 -15l40 -22v-254c0 -33 -4 -57 23 -58
c24 -1 48 -1 71 0c28 1 24 24 24 54v141c1 31 -1 58 28 62s34 -22 38 -41l19 -81c10 -39 17 -66 20 -81c6 -28 9 -51 31 -54c33 -2 63 -2 90 1c11 1 17 10 15 20c-1 9 -3 21 -7 34zM473 -49c-27 -2 -66 -3 -99 -1c-16 2 -22 14 -26 31c26 -1 48 0 68 2c39 3 34 20 31 41
c-6 33 -46 185 -62 242c-4 20 -2 34 8 47c22 27 33 55 33 82c1 93 0 151 0 179v17c0 8 3 9 8 1c13 -19 23 -46 24 -69c1 -27 0 -36 0 -128c0 -37 -13 -70 -32 -94c-14 -17 -6 -32 10 -90c9 -32 25 -101 54 -206c8 -29 11 -52 -17 -54zM297 434c0 -2 -1 -6 -2 -12
c-8 -37 -43 -59 -80 -50c-17 5 -25 15 -25 32c0 2 -1 30 -1 74c0 83 -11 110 45 103c4 -1 8 -2 15 -3c33 -8 46 -22 48 -54v-90zM239 428v-39c-17 -3 -31 -1 -31 15c0 2 -1 30 -1 74c0 55 -3 76 2 83c3 5 9 4 22 2c17 -2 19 -2 25 -4c-22 -19 -17 -51 -17 -131zM218 239
c11 2 13 -2 18 -27l6 -24c-4 -11 -3 -27 -4 -43v-141c0 -30 4 -53 -24 -54c-23 -1 -47 -1 -71 0c-19 1 -23 13 -23 31c15 0 30 0 45 1c48 2 41 44 41 72v141c1 39 2 43 12 44z" />
    <glyph glyph-name="Racute" unicode="&#x154;" horiz-adv-x="506" 
d="M237 764c-22 -3 -33 -3 -52 1c-10 1 -17 8 -15 15c3 9 4 15 7 24c4 10 22 61 26 75c10 28 13 36 24 41c9 6 21 7 52 7c27 -1 43 -2 45 -3c8 0 15 -7 13 -13c-2 -7 -6 -14 -9 -19c-17 -27 -38 -71 -55 -97c-6 -8 -19 -28 -36 -31zM255 724c-18 0 -31 3 -31 20l16 2
c26 5 43 33 47 38c17 25 36 65 53 93c3 2 10 1 12 1c8 -1 14 -8 12 -14c-2 -7 -6 -20 -15 -38c-11 -20 -31 -56 -53 -85c-9 -12 -16 -17 -41 -17zM422 55c-27 106 -45 174 -54 206c-6 25 -3 46 11 63c19 24 29 48 29 71c1 92 1 151 0 178c-2 56 -42 103 -96 116
c-32 9 -61 13 -86 12h-53c-58 0 -87 2 -96 -7c-5 -5 -7 -20 -7 -45v-263l-40 -23c-5 -3 -8 -8 -8 -14c0 -7 3 -11 8 -15l40 -22v-254c0 -33 -4 -57 23 -58c24 -1 48 -1 71 0c28 1 24 24 24 54v141c1 31 -1 58 28 62s34 -22 38 -41l19 -81c10 -39 17 -66 20 -81
c6 -28 9 -51 31 -54c33 -2 63 -2 90 1c11 1 17 10 15 20c-1 9 -3 21 -7 34zM473 -49c-27 -2 -66 -3 -99 -1c-16 2 -22 14 -26 31c26 -1 48 0 68 2c39 3 34 20 31 41c-6 33 -46 185 -62 242c-4 20 -2 34 8 47c22 27 33 55 33 82c1 93 0 151 0 179v17c0 8 3 9 8 1
c13 -19 23 -46 24 -69c1 -27 0 -36 0 -128c0 -37 -13 -70 -32 -94c-14 -17 -6 -32 10 -90c9 -32 25 -101 54 -206c8 -29 11 -52 -17 -54zM297 434c0 -2 -1 -6 -2 -12c-8 -37 -43 -59 -80 -50c-17 5 -25 15 -25 32c0 2 -1 30 -1 74c0 83 -11 110 45 103c4 -1 8 -2 15 -3
c33 -8 46 -22 48 -54v-90zM239 428v-39c-17 -3 -31 -1 -31 15c0 2 -1 30 -1 74c0 55 -3 76 2 83c3 5 9 4 22 2c17 -2 19 -2 25 -4c-22 -19 -17 -51 -17 -131zM218 239c11 2 13 -2 18 -27l6 -24c-4 -11 -3 -27 -4 -43v-141c0 -30 4 -53 -24 -54c-23 -1 -47 -1 -71 0
c-19 1 -23 13 -23 31c15 0 30 0 45 1c48 2 41 44 41 72v141c1 39 2 43 12 44z" />
    <glyph glyph-name="Rcaron" unicode="&#x158;" horiz-adv-x="506" 
d="M205 772c9 0 59 0 66 1c4 1 6 3 9 5c14 10 62 122 71 143c3 6 0 13 -6 13c-1 1 -13 2 -43 3c-28 0 -37 -1 -46 -7c-6 -4 -13 -27 -22 -57c-3 -10 -12 -10 -16 0c-9 31 -20 53 -25 57c-10 6 -23 7 -53 7c-20 -1 -31 -2 -32 -3c-6 0 -8 -7 -6 -13c2 -7 8 -19 11 -25
c33 -67 61 -122 68 -122c8 -2 16 -2 24 -2zM377 885c6 0 9 -7 6 -13c-9 -21 -57 -133 -71 -143c-3 -2 -5 -4 -9 -5c-7 -1 -40 -1 -49 -1c-8 0 -16 0 -24 2c-3 0 -10 11 -20 29l64 1c8 0 17 3 23 11c14 19 29 53 59 122c9 -1 20 -2 21 -3zM422 55c-27 106 -45 174 -54 206
c-6 25 -3 46 11 63c19 24 29 48 29 71c1 92 1 151 0 178c-2 56 -42 103 -96 116c-32 9 -61 13 -86 12h-53c-58 0 -87 2 -96 -7c-5 -5 -7 -20 -7 -45v-263l-40 -23c-5 -3 -8 -8 -8 -14c0 -7 3 -11 8 -15l40 -22v-254c0 -33 -4 -57 23 -58c24 -1 48 -1 71 0c28 1 24 24 24 54
v141c1 31 -1 58 28 62s34 -22 38 -41l19 -81c10 -39 17 -66 20 -81c6 -28 9 -51 31 -54c33 -2 63 -2 90 1c11 1 17 10 15 20c-1 9 -3 21 -7 34zM473 -49c-27 -2 -66 -3 -99 -1c-16 2 -22 14 -26 31c26 -1 48 0 68 2c39 3 34 20 31 41c-6 33 -46 185 -62 242
c-4 20 -2 34 8 47c22 27 33 55 33 82c1 93 0 151 0 179v17c0 8 3 9 8 1c13 -19 23 -46 24 -69c1 -27 0 -36 0 -128c0 -37 -13 -70 -32 -94c-14 -17 -6 -32 10 -90c9 -32 25 -101 54 -206c8 -29 11 -52 -17 -54zM297 434c0 -2 -1 -6 -2 -12c-8 -37 -43 -59 -80 -50
c-17 5 -25 15 -25 32c0 2 -1 30 -1 74c0 83 -11 110 45 103c4 -1 8 -2 15 -3c33 -8 46 -22 48 -54v-90zM239 428v-39c-17 -3 -31 -1 -31 15c0 2 -1 30 -1 74c0 55 -3 76 2 83c3 5 9 4 22 2c17 -2 19 -2 25 -4c-22 -19 -17 -51 -17 -131zM218 239c11 2 13 -2 18 -27l6 -24
c-4 -11 -3 -27 -4 -43v-141c0 -30 4 -53 -24 -54c-23 -1 -47 -1 -71 0c-19 1 -23 13 -23 31c15 0 30 0 45 1c48 2 41 44 41 72v141c1 39 2 43 12 44z" />
    <glyph glyph-name="Rcommaaccent" unicode="&#x156;" horiz-adv-x="506" 
d="M422 55c-27 106 -45 174 -54 206c-6 25 -3 46 11 63c19 24 29 48 29 71c1 92 1 151 0 178c-2 56 -42 103 -96 116c-32 9 -61 13 -86 12h-53c-58 0 -87 2 -96 -7c-5 -5 -7 -20 -7 -45v-263l-40 -23c-5 -3 -8 -8 -8 -14c0 -7 3 -11 8 -15l40 -22v-254c0 -33 -4 -57 23 -58
c24 -1 48 -1 71 0c28 1 24 24 24 54v141c1 31 -1 58 28 62s34 -22 38 -41l19 -81c10 -39 17 -66 20 -81c6 -28 9 -51 31 -54c33 -2 63 -2 90 1c11 1 17 10 15 20c-1 9 -3 21 -7 34zM473 -49c-27 -2 -66 -3 -99 -1c-16 2 -22 14 -26 31c26 -1 48 0 68 2c39 3 34 20 31 41
c-6 33 -46 185 -62 242c-4 20 -2 34 8 47c22 27 33 55 33 82c1 93 0 151 0 179v17c0 8 3 9 8 1c13 -19 23 -46 24 -69c1 -27 0 -36 0 -128c0 -37 -13 -70 -32 -94c-14 -17 -6 -32 10 -90c9 -32 25 -101 54 -206c8 -29 11 -52 -17 -54zM297 434c0 -2 -1 -6 -2 -12
c-8 -37 -43 -59 -80 -50c-17 5 -25 15 -25 32c0 2 -1 30 -1 74c0 83 -11 110 45 103c4 -1 8 -2 15 -3c33 -8 46 -22 48 -54v-90zM239 428v-39c-17 -3 -31 -1 -31 15c0 2 -1 30 -1 74c0 55 -3 76 2 83c3 5 9 4 22 2c17 -2 19 -2 25 -4c-22 -19 -17 -51 -17 -131zM218 239
c11 2 13 -2 18 -27l6 -24c-4 -11 -3 -27 -4 -43v-141c0 -30 4 -53 -24 -54c-23 -1 -47 -1 -71 0c-19 1 -23 13 -23 31c15 0 30 0 45 1c48 2 41 44 41 72v141c1 39 2 43 12 44zM244 -250c16 0 27 5 35 19c29 64 33 86 33 115c0 49 4 56 -17 57s-41 1 -62 0
c-11 -1 -17 -6 -18 -17c0 -13 -1 -33 0 -59c0 -10 5 -17 13 -20c15 -7 17 -18 2 -61c-2 -6 -4 -12 -4 -18c0 -9 5 -16 18 -16zM346 -166c0 -29 -1 -49 -38 -110c-9 -15 -31 -10 -31 3s8 12 24 46c23 48 29 78 29 111v7c20 0 16 -13 16 -57z" />
    <glyph glyph-name="S" unicode="S" horiz-adv-x="439" 
d="M316 334c-18 21 -29 31 -47 47l11 20c7 11 -1 24 -14 24h-48c-7 8 -21 22 -24 26c-30 34 -42 70 -37 108c7 56 68 67 92 14l10 -26c4 -11 12 -16 24 -16c24 0 50 5 77 14c10 4 15 10 13 22c-10 84 -76 182 -223 145c-64 -16 -113 -72 -119 -150c-5 -67 17 -128 65 -180
l28 -28l-16 -28c-6 -11 2 -25 15 -24h54l9 -9c52 -53 73 -62 72 -121c0 -27 -20 -53 -44 -59c-25 -6 -45 5 -61 33c-5 10 -7 16 -10 28c-1 7 -3 11 -3 13c-6 21 -13 27 -33 26c-11 0 -34 -3 -67 -8c-21 -3 -18 -28 -16 -43c5 -33 19 -68 43 -105c8 -12 21 -23 38 -34
c28 -17 54 -27 104 -27c67 0 82 1 127 54c22 26 36 55 40 87c10 73 -9 139 -60 197zM366 528c19 7 25 19 25 42c0 5 -2 19 -3 24c-2 9 2 11 7 3c13 -23 20 -45 23 -69c2 -12 -3 -18 -13 -22c-27 -9 -53 -14 -77 -14c-12 0 -20 5 -24 16l-2 6c21 2 42 7 64 14zM238 553
c-23 10 -36 -5 -39 -28c-2 -18 7 -52 12 -67c-30 34 -42 65 -37 99c5 38 43 48 59 9zM161 -16c14 -2 27 -6 48 -6c64 0 88 -2 141 60c25 30 40 62 44 97c5 37 3 73 -7 107c-3 9 2 12 7 3c30 -48 28 -101 19 -147c-8 -39 -17 -53 -39 -79c-45 -53 -86 -66 -135 -66
c-30 0 -59 9 -82 21c-14 7 -13 12 4 10zM199 128c-8 3 -23 14 -30 26c-9 20 -11 33 -12 36c14 -1 25 -6 32 -23c5 -12 7 -25 10 -39z" />
    <glyph glyph-name="Sacute" unicode="&#x15a;" horiz-adv-x="439" 
d="M201 791c-22 -3 -33 -3 -52 1c-10 1 -17 8 -15 15c3 9 4 15 7 24c4 10 22 61 26 75c10 28 13 36 24 41c9 6 21 7 52 7c27 -1 43 -2 45 -3c8 0 15 -7 13 -13c-2 -7 -6 -14 -9 -19c-17 -27 -38 -71 -55 -97c-6 -8 -19 -28 -36 -31zM219 751c-18 0 -31 3 -31 20l16 2
c26 5 43 33 47 38c17 25 36 65 53 93c3 2 10 1 12 1c8 -1 14 -8 12 -14c-2 -7 -6 -20 -15 -38c-11 -20 -31 -56 -53 -85c-9 -12 -16 -17 -41 -17zM316 334c-18 21 -29 31 -47 47l11 20c7 11 -1 24 -14 24h-48c-7 8 -21 22 -24 26c-30 34 -42 70 -37 108c7 56 68 67 92 14
l10 -26c4 -11 12 -16 24 -16c24 0 50 5 77 14c10 4 15 10 13 22c-10 84 -76 182 -223 145c-64 -16 -113 -72 -119 -150c-5 -67 17 -128 65 -180l28 -28l-16 -28c-6 -11 2 -25 15 -24h54l9 -9c52 -53 73 -62 72 -121c0 -27 -20 -53 -44 -59c-25 -6 -45 5 -61 33
c-5 10 -7 16 -10 28c-1 7 -3 11 -3 13c-6 21 -13 27 -33 26c-11 0 -34 -3 -67 -8c-21 -3 -18 -28 -16 -43c5 -33 19 -68 43 -105c8 -12 21 -23 38 -34c28 -17 54 -27 104 -27c67 0 82 1 127 54c22 26 36 55 40 87c10 73 -9 139 -60 197zM366 528c19 7 25 19 25 42
c0 5 -2 19 -3 24c-2 9 2 11 7 3c13 -23 20 -45 23 -69c2 -12 -3 -18 -13 -22c-27 -9 -53 -14 -77 -14c-12 0 -20 5 -24 16l-2 6c21 2 42 7 64 14zM238 553c-23 10 -36 -5 -39 -28c-2 -18 7 -52 12 -67c-30 34 -42 65 -37 99c5 38 43 48 59 9zM161 -16c14 -2 27 -6 48 -6
c64 0 88 -2 141 60c25 30 40 62 44 97c5 37 3 73 -7 107c-3 9 2 12 7 3c30 -48 28 -101 19 -147c-8 -39 -17 -53 -39 -79c-45 -53 -86 -66 -135 -66c-30 0 -59 9 -82 21c-14 7 -13 12 4 10zM199 128c-8 3 -23 14 -30 26c-9 20 -11 33 -12 36c14 -1 25 -6 32 -23
c5 -12 7 -25 10 -39z" />
    <glyph glyph-name="Scaron" unicode="&#x160;" horiz-adv-x="439" 
d="M169 799c9 0 59 0 66 1c4 1 6 3 9 5c14 10 62 122 71 143c3 6 0 13 -6 13c-1 1 -13 2 -43 3c-28 0 -37 -1 -46 -7c-6 -4 -13 -27 -22 -57c-3 -10 -12 -10 -16 0c-9 31 -20 53 -25 57c-10 6 -23 7 -53 7c-20 -1 -31 -2 -32 -3c-6 0 -8 -7 -6 -13c2 -7 8 -19 11 -25
c33 -67 61 -122 68 -122c8 -2 16 -2 24 -2zM341 912c6 0 9 -7 6 -13c-9 -21 -57 -133 -71 -143c-3 -2 -5 -4 -9 -5c-7 -1 -40 -1 -49 -1c-8 0 -16 0 -24 2c-3 0 -10 11 -20 29l64 1c8 0 17 3 23 11c14 19 29 53 59 122c9 -1 20 -2 21 -3zM316 334c-18 21 -29 31 -47 47
l11 20c7 11 -1 24 -14 24h-48c-7 8 -21 22 -24 26c-30 34 -42 70 -37 108c7 56 68 67 92 14l10 -26c4 -11 12 -16 24 -16c24 0 50 5 77 14c10 4 15 10 13 22c-10 84 -76 182 -223 145c-64 -16 -113 -72 -119 -150c-5 -67 17 -128 65 -180l28 -28l-16 -28
c-6 -11 2 -25 15 -24h54l9 -9c52 -53 73 -62 72 -121c0 -27 -20 -53 -44 -59c-25 -6 -45 5 -61 33c-5 10 -7 16 -10 28c-1 7 -3 11 -3 13c-6 21 -13 27 -33 26c-11 0 -34 -3 -67 -8c-21 -3 -18 -28 -16 -43c5 -33 19 -68 43 -105c8 -12 21 -23 38 -34c28 -17 54 -27 104 -27
c67 0 82 1 127 54c22 26 36 55 40 87c10 73 -9 139 -60 197zM366 528c19 7 25 19 25 42c0 5 -2 19 -3 24c-2 9 2 11 7 3c13 -23 20 -45 23 -69c2 -12 -3 -18 -13 -22c-27 -9 -53 -14 -77 -14c-12 0 -20 5 -24 16l-2 6c21 2 42 7 64 14zM238 553c-23 10 -36 -5 -39 -28
c-2 -18 7 -52 12 -67c-30 34 -42 65 -37 99c5 38 43 48 59 9zM161 -16c14 -2 27 -6 48 -6c64 0 88 -2 141 60c25 30 40 62 44 97c5 37 3 73 -7 107c-3 9 2 12 7 3c30 -48 28 -101 19 -147c-8 -39 -17 -53 -39 -79c-45 -53 -86 -66 -135 -66c-30 0 -59 9 -82 21
c-14 7 -13 12 4 10zM199 128c-8 3 -23 14 -30 26c-9 20 -11 33 -12 36c14 -1 25 -6 32 -23c5 -12 7 -25 10 -39z" />
    <glyph glyph-name="Scedilla" unicode="&#x15e;" horiz-adv-x="439" 
d="M326 334c51 -58 70 -124 60 -197c-4 -32 -18 -61 -40 -87c-35 -42 -52 -51 -90 -53c-10 -1 -17 -5 -20 -15l-7 -22c5 1 10 1 13 1c48 0 73 -26 73 -77c0 -61 -34 -93 -99 -93c-37 0 -71 18 -89 39c-7 7 -9 14 0 23l15 16c6 7 13 9 20 4c9 -7 20 -20 40 -20
c19 0 30 10 30 29c0 14 -6 23 -22 23c-10 0 -12 -3 -18 -6c-5 -2 -8 -1 -10 0l-15 8c-9 4 -8 16 -6 21l19 52c4 11 -1 18 -13 21c-20 4 -36 12 -52 22c-17 11 -30 22 -38 34c-24 37 -38 72 -43 105c-2 15 -5 40 16 43c33 5 56 8 67 8c20 1 27 -5 33 -26c0 -2 2 -6 3 -13
c3 -12 5 -18 10 -28c16 -28 36 -39 61 -33c24 6 44 32 44 59c1 59 -20 68 -72 121l-9 9h-54c-13 -1 -21 13 -15 24l16 28l-28 28c-48 52 -70 113 -65 180c6 78 55 134 119 150c147 37 213 -61 223 -145c2 -12 -3 -18 -13 -22c-27 -9 -53 -14 -77 -14c-12 0 -20 5 -24 16
l-10 26c-24 53 -85 42 -92 -14c-5 -38 7 -74 37 -108c3 -4 17 -18 24 -26h48c13 0 21 -13 14 -24l-11 -20c18 -16 29 -26 47 -47zM376 528c19 7 25 19 25 42c0 5 -2 19 -3 24c-2 9 2 11 7 3c13 -23 20 -45 23 -69c2 -12 -3 -18 -13 -22c-27 -9 -53 -14 -77 -14
c-12 0 -20 5 -24 16l-2 6c21 2 42 7 64 14zM248 553c-23 10 -36 -5 -39 -28c-2 -18 7 -52 12 -67c-30 34 -42 65 -37 99c5 38 43 48 59 9zM264 -26c-4 1 -4 6 1 6c40 0 67 25 95 58c25 30 40 62 44 97c5 37 3 73 -7 107c-3 9 2 12 7 3c30 -48 28 -101 19 -147
c-8 -39 -17 -53 -39 -79c-27 -32 -53 -50 -81 -58c-11 6 -26 11 -39 13zM209 128c-8 3 -23 14 -30 26c-9 20 -11 33 -12 36c14 -1 25 -6 32 -23c5 -12 7 -25 10 -39zM333 -115c0 3 3 4 4 1c4 -8 6 -22 6 -36c0 -53 -35 -96 -92 -96c-21 0 -41 5 -56 14c-10 6 -9 9 2 7
c6 -1 12 -2 19 -2c67 0 106 31 116 90c1 6 2 14 1 22zM200 -117c-6 -3 -13 -4 -19 -2c7 -6 13 -10 21 -10c10 0 12 2 12 11c0 6 0 5 -4 5c-3 0 -2 0 -10 -4z" />
    <glyph glyph-name="Scommaaccent" unicode="&#x218;" horiz-adv-x="439" 
d="M316 334c-18 21 -29 31 -47 47l11 20c7 11 -1 24 -14 24h-48c-7 8 -21 22 -24 26c-30 34 -42 70 -37 108c7 56 68 67 92 14l10 -26c4 -11 12 -16 24 -16c24 0 50 5 77 14c10 4 15 10 13 22c-10 84 -76 182 -223 145c-64 -16 -113 -72 -119 -150c-5 -67 17 -128 65 -180
l28 -28l-16 -28c-6 -11 2 -25 15 -24h54l9 -9c52 -53 73 -62 72 -121c0 -27 -20 -53 -44 -59c-25 -6 -45 5 -61 33c-5 10 -7 16 -10 28c-1 7 -3 11 -3 13c-6 21 -13 27 -33 26c-11 0 -34 -3 -67 -8c-21 -3 -18 -28 -16 -43c5 -33 19 -68 43 -105c8 -12 21 -23 38 -34
c28 -17 54 -27 104 -27c67 0 82 1 127 54c22 26 36 55 40 87c10 73 -9 139 -60 197zM366 528c19 7 25 19 25 42c0 5 -2 19 -3 24c-2 9 2 11 7 3c13 -23 20 -45 23 -69c2 -12 -3 -18 -13 -22c-27 -9 -53 -14 -77 -14c-12 0 -20 5 -24 16l-2 6c21 2 42 7 64 14zM238 553
c-23 10 -36 -5 -39 -28c-2 -18 7 -52 12 -67c-30 34 -42 65 -37 99c5 38 43 48 59 9zM161 -16c14 -2 27 -6 48 -6c64 0 88 -2 141 60c25 30 40 62 44 97c5 37 3 73 -7 107c-3 9 2 12 7 3c30 -48 28 -101 19 -147c-8 -39 -17 -53 -39 -79c-45 -53 -86 -66 -135 -66
c-30 0 -59 9 -82 21c-14 7 -13 12 4 10zM199 128c-8 3 -23 14 -30 26c-9 20 -11 33 -12 36c14 -1 25 -6 32 -23c5 -12 7 -25 10 -39zM188 -260c16 0 27 5 35 19c29 64 33 86 33 115c0 49 4 56 -17 57s-41 1 -62 0c-11 -1 -17 -6 -18 -17c0 -13 -1 -33 0 -59
c0 -10 5 -17 13 -20c15 -7 17 -18 2 -61c-2 -6 -4 -12 -4 -18c0 -9 5 -16 18 -16zM290 -176c0 -29 -1 -49 -38 -110c-9 -15 -31 -10 -31 3s8 12 24 46c23 48 29 78 29 111v7c20 0 16 -13 16 -57z" />
    <glyph glyph-name="T" unicode="T" horiz-adv-x="409" 
d="M300 700c47 0 49 0 49 -47c0 -20 0 -35 -1 -43c0 -9 -2 -15 -5 -19c-8 -7 -22 -7 -40 -7c-20 0 -41 1 -53 -11c-12 -11 -11 -28 -11 -67v-118l44 -25c5 -4 8 -8 8 -14c0 -7 -3 -12 -8 -15l-44 -25v-248c0 -36 3 -59 -21 -61c-26 -1 -51 -1 -75 0c-26 1 -22 25 -22 55v253
l-46 26c-5 3 -7 8 -7 15c0 6 2 10 7 14l46 26v127c0 34 0 47 -9 57c-10 11 -30 11 -50 11c-11 0 -19 0 -23 1c-20 1 -27 6 -28 26c-1 21 -1 44 0 67c0 8 3 14 6 17c8 7 20 5 43 5h240zM367 650c31 -1 32 -6 32 -47c0 -29 0 -38 -12 -50s-27 -15 -47 -15c-31 0 -39 -1 -46 -7
c-5 -5 -5 -17 -5 -75v-76l-32 19v107c0 39 1 50 6 54c4 5 11 6 40 6c19 0 42 -2 55 11c6 7 8 19 8 32c0 9 1 23 1 41zM62 566c25 0 33 -1 37 -5c2 -3 4 -7 4 -27c-6 0 -11 0 -14 1c-20 1 -27 6 -28 26v5h1zM292 318c5 3 9 7 12 12l29 -17c5 -4 8 -8 8 -14
c0 -7 -3 -12 -8 -15l-44 -25v-248c0 -36 -6 -58 -43 -61c-26 -2 -29 -1 -53 0c-19 1 -22 13 -22 31c16 0 32 0 48 1c43 4 38 44 38 79v237z" />
    <glyph glyph-name="Tbar" unicode="&#x166;" horiz-adv-x="409" 
d="M290 700h-240c-23 0 -35 2 -43 -5c-3 -3 -6 -9 -6 -17c-1 -23 -1 -46 0 -67c1 -20 8 -25 28 -26c4 -1 12 -1 23 -1c20 0 40 0 50 -11c9 -10 9 -23 9 -57v-118h-25c-20 0 -30 1 -37 -5c-3 -2 -5 -7 -5 -14c-1 -20 -1 -30 0 -48c1 -17 7 -21 24 -22h42l1 -1v-253
c0 -30 -4 -54 22 -55c24 -1 49 -1 75 0c24 2 21 25 21 61v247h30c16 0 28 0 34 6c3 4 5 9 5 17c1 6 1 19 1 26c0 41 -2 41 -42 41h-28v108c0 39 -1 56 11 67c12 12 33 11 53 11c18 0 32 0 40 7c3 4 5 10 5 19c1 8 1 23 1 43c0 47 -2 47 -49 47zM357 650c31 -1 32 -6 32 -47
c0 -29 0 -38 -12 -50s-27 -15 -47 -15c-31 0 -39 -1 -46 -7c-5 -5 -5 -17 -5 -75v-40h-32v90c0 39 1 50 6 54c4 5 11 6 40 6c19 0 42 -2 55 11c6 7 8 19 8 32c0 9 1 23 1 41zM52 566c25 0 33 -1 37 -5c2 -3 4 -7 4 -27c-6 0 -11 0 -14 1c-20 1 -27 6 -28 26v5h1zM318 351
c26 -2 27 -10 27 -31c0 -51 -8 -60 -53 -60h-13v-249c0 -36 -6 -58 -43 -61c-26 -2 -29 -1 -53 0c-19 1 -22 13 -22 31c16 0 32 0 48 1c43 4 38 44 38 79v229h12c50 0 59 3 59 40v21z" />
    <glyph glyph-name="Tcaron" unicode="&#x164;" horiz-adv-x="409" 
d="M159 771c9 0 59 0 66 1c4 1 6 3 9 5c14 10 62 122 71 143c3 6 0 13 -6 13c-1 1 -13 2 -43 3c-28 0 -37 -1 -46 -7c-6 -4 -13 -27 -22 -57c-3 -10 -12 -10 -16 0c-9 31 -20 53 -25 57c-10 6 -23 7 -53 7c-20 -1 -31 -2 -32 -3c-6 0 -8 -7 -6 -13c2 -7 8 -19 11 -25
c33 -67 61 -122 68 -122c8 -2 16 -2 24 -2zM331 884c6 0 9 -7 6 -13c-9 -21 -57 -133 -71 -143c-3 -2 -5 -4 -9 -5c-7 -1 -40 -1 -49 -1c-8 0 -16 0 -24 2c-3 0 -10 11 -20 29l64 1c8 0 17 3 23 11c14 19 29 53 59 122c9 -1 20 -2 21 -3zM300 700c47 0 49 0 49 -47
c0 -20 0 -35 -1 -43c0 -9 -2 -15 -5 -19c-8 -7 -22 -7 -40 -7c-20 0 -41 1 -53 -11c-12 -11 -11 -28 -11 -67v-118l44 -25c5 -4 8 -8 8 -14c0 -7 -3 -12 -8 -15l-44 -25v-248c0 -36 3 -59 -21 -61c-26 -1 -51 -1 -75 0c-26 1 -22 25 -22 55v253l-46 26c-5 3 -7 8 -7 15
c0 6 2 10 7 14l46 26v127c0 34 0 47 -9 57c-10 11 -30 11 -50 11c-11 0 -19 0 -23 1c-20 1 -27 6 -28 26c-1 21 -1 44 0 67c0 8 3 14 6 17c8 7 20 5 43 5h240zM367 650c31 -1 32 -6 32 -47c0 -29 0 -38 -12 -50s-27 -15 -47 -15c-31 0 -39 -1 -46 -7c-5 -5 -5 -17 -5 -75
v-76l-32 19v107c0 39 1 50 6 54c4 5 11 6 40 6c19 0 42 -2 55 11c6 7 8 19 8 32c0 9 1 23 1 41zM62 566c25 0 33 -1 37 -5c2 -3 4 -7 4 -27c-6 0 -11 0 -14 1c-20 1 -27 6 -28 26v5h1zM292 318c5 3 9 7 12 12l29 -17c5 -4 8 -8 8 -14c0 -7 -3 -12 -8 -15l-44 -25v-248
c0 -36 -6 -58 -43 -61c-26 -2 -29 -1 -53 0c-19 1 -22 13 -22 31c16 0 32 0 48 1c43 4 38 44 38 79v237z" />
    <glyph glyph-name="uni0162" unicode="&#x162;" horiz-adv-x="399" 
d="M300 700c47 0 49 0 49 -47c0 -20 0 -35 -1 -43c0 -9 -2 -15 -5 -19c-8 -7 -22 -7 -40 -7c-20 0 -41 1 -53 -11c-12 -11 -11 -28 -11 -67v-118l44 -25c5 -4 8 -8 8 -14c0 -7 -3 -12 -8 -15l-44 -25v-248c0 -36 3 -59 -21 -61c-26 -1 -51 -1 -75 0c-26 1 -22 25 -22 55v253
l-46 26c-5 3 -7 8 -7 15c0 6 2 10 7 14l46 26v127c0 34 0 47 -9 57c-10 11 -30 11 -50 11c-11 0 -19 0 -23 1c-20 1 -27 6 -28 26c-1 21 -1 44 0 67c0 8 3 14 6 17c8 7 20 5 43 5h240zM367 650c31 -1 32 -6 32 -47c0 -29 0 -38 -12 -50s-27 -15 -47 -15c-31 0 -39 -1 -46 -7
c-5 -5 -5 -17 -5 -75v-76l-32 19v107c0 39 1 50 6 54c4 5 11 6 40 6c19 0 42 -2 55 11c6 7 8 19 8 32c0 9 1 23 1 41zM62 566c25 0 33 -1 37 -5c2 -3 4 -7 4 -27c-6 0 -11 0 -14 1c-20 1 -27 6 -28 26v5h1zM292 318c5 3 9 7 12 12l29 -17c5 -4 8 -8 8 -14
c0 -7 -3 -12 -8 -15l-44 -25v-248c0 -36 -6 -58 -43 -61c-26 -2 -29 -1 -53 0c-19 1 -22 13 -22 31c16 0 32 0 48 1c43 4 38 44 38 79v237zM164 -258c16 0 27 5 35 19c29 64 33 86 33 115c0 49 4 56 -17 57s-41 1 -62 0c-11 -1 -17 -6 -18 -17c0 -13 -1 -33 0 -59
c0 -10 5 -17 13 -20c15 -7 17 -18 2 -61c-2 -6 -4 -12 -4 -18c0 -9 5 -16 18 -16zM266 -174c0 -29 -1 -49 -38 -110c-9 -15 -31 -10 -31 3s8 12 24 46c23 48 29 78 29 111v7c20 0 16 -13 16 -57z" />
    <glyph glyph-name="uni021A" unicode="&#x21a;" horiz-adv-x="409" 
d="M300 700c47 0 49 0 49 -47c0 -20 0 -35 -1 -43c0 -9 -2 -15 -5 -19c-8 -7 -22 -7 -40 -7c-20 0 -41 1 -53 -11c-12 -11 -11 -28 -11 -67v-118l44 -25c5 -4 8 -8 8 -14c0 -7 -3 -12 -8 -15l-44 -25v-248c0 -36 3 -59 -21 -61c-26 -1 -51 -1 -75 0c-26 1 -22 25 -22 55v253
l-46 26c-5 3 -7 8 -7 15c0 6 2 10 7 14l46 26v127c0 34 0 47 -9 57c-10 11 -30 11 -50 11c-11 0 -19 0 -23 1c-20 1 -27 6 -28 26c-1 21 -1 44 0 67c0 8 3 14 6 17c8 7 20 5 43 5h240zM367 650c31 -1 32 -6 32 -47c0 -29 0 -38 -12 -50s-27 -15 -47 -15c-31 0 -39 -1 -46 -7
c-5 -5 -5 -17 -5 -75v-76l-32 19v107c0 39 1 50 6 54c4 5 11 6 40 6c19 0 42 -2 55 11c6 7 8 19 8 32c0 9 1 23 1 41zM62 566c25 0 33 -1 37 -5c2 -3 4 -7 4 -27c-6 0 -11 0 -14 1c-20 1 -27 6 -28 26v5h1zM292 318c5 3 9 7 12 12l29 -17c5 -4 8 -8 8 -14
c0 -7 -3 -12 -8 -15l-44 -25v-248c0 -36 -6 -58 -43 -61c-26 -2 -29 -1 -53 0c-19 1 -22 13 -22 31c16 0 32 0 48 1c43 4 38 44 38 79v237zM164 -258c16 0 27 5 35 19c29 64 33 86 33 115c0 49 4 56 -17 57s-41 1 -62 0c-11 -1 -17 -6 -18 -17c0 -13 -1 -33 0 -59
c0 -10 5 -17 13 -20c15 -7 17 -18 2 -61c-2 -6 -4 -12 -4 -18c0 -9 5 -16 18 -16zM266 -174c0 -29 -1 -49 -38 -110c-9 -15 -31 -10 -31 3s8 12 24 46c23 48 29 78 29 111v7c20 0 16 -13 16 -57z" />
    <glyph glyph-name="U" unicode="U" horiz-adv-x="523" 
d="M450 363l-40 23v259c0 27 2 52 -20 54c-14 1 -30 1 -47 1c-50 0 -51 -1 -51 -50v-442c0 -46 -7 -90 -52 -98c-36 -5 -56 32 -57 58c-1 11 -1 24 -1 39v430c0 37 4 60 -23 62c-20 2 -77 3 -88 -7c-5 -5 -7 -20 -7 -44v-262l-40 -23c-6 -3 -9 -7 -9 -14c0 -6 3 -11 9 -14
l40 -23v-129c0 -23 4 -52 12 -86c4 -14 11 -27 19 -39c54 -70 136 -84 220 -55c51 17 97 99 95 161c0 34 -1 93 -1 147l41 24c6 3 8 8 8 14c0 7 -2 11 -8 14zM200 207v443c4 -1 7 -1 9 -1c27 -2 23 -25 23 -62v-459c-16 1 -30 19 -31 41v1c-1 10 -1 22 -1 37zM428 396v254
c4 -1 8 -1 12 -1c22 -2 20 -27 20 -54v-217zM500 313c6 -3 8 -7 8 -14c0 -6 -2 -11 -8 -14l-41 -24c0 -54 1 -65 1 -99c0 -70 -36 -146 -94 -182c-6 -4 -14 -8 -20 -10c-61 -21 -89 -17 -139 -4c-16 4 -16 11 2 8c35 -6 77 -2 112 12c69 28 109 103 107 178
c0 32 -1 86 -1 137l34 20c4 2 7 5 10 9z" />
    <glyph glyph-name="Uacute" unicode="&#xda;" horiz-adv-x="523" 
d="M249 763c-22 -3 -33 -3 -52 1c-10 1 -17 8 -15 15c3 9 4 15 7 24c4 10 22 61 26 75c10 28 13 36 24 41c9 6 21 7 52 7c27 -1 43 -2 45 -3c8 0 15 -7 13 -13c-2 -7 -6 -14 -9 -19c-17 -27 -38 -71 -55 -97c-6 -8 -19 -28 -36 -31zM267 723c-18 0 -31 3 -31 20l16 2
c26 5 43 33 47 38c17 25 36 65 53 93c3 2 10 1 12 1c8 -1 14 -8 12 -14c-2 -7 -6 -20 -15 -38c-11 -20 -31 -56 -53 -85c-9 -12 -16 -17 -41 -17zM450 363l-40 23v259c0 27 2 52 -20 54c-14 1 -30 1 -47 1c-50 0 -51 -1 -51 -50v-442c0 -46 -7 -90 -52 -98
c-36 -5 -56 32 -57 58c-1 11 -1 24 -1 39v430c0 37 4 60 -23 62c-20 2 -77 3 -88 -7c-5 -5 -7 -20 -7 -44v-262l-40 -23c-6 -3 -9 -7 -9 -14c0 -6 3 -11 9 -14l40 -23v-129c0 -23 4 -52 12 -86c4 -14 11 -27 19 -39c54 -70 136 -84 220 -55c51 17 97 99 95 161
c0 34 -1 93 -1 147l41 24c6 3 8 8 8 14c0 7 -2 11 -8 14zM200 207v443c4 -1 7 -1 9 -1c27 -2 23 -25 23 -62v-459c-16 1 -30 19 -31 41v1c-1 10 -1 22 -1 37zM428 396v254c4 -1 8 -1 12 -1c22 -2 20 -27 20 -54v-217zM500 313c6 -3 8 -7 8 -14c0 -6 -2 -11 -8 -14l-41 -24
c0 -54 1 -65 1 -99c0 -70 -36 -146 -94 -182c-6 -4 -14 -8 -20 -10c-61 -21 -89 -17 -139 -4c-16 4 -16 11 2 8c35 -6 77 -2 112 12c69 28 109 103 107 178c0 32 -1 86 -1 137l34 20c4 2 7 5 10 9z" />
    <glyph glyph-name="Ucircumflex" unicode="&#xdb;" horiz-adv-x="523" 
d="M130 767c30 0 53 1 63 7c5 4 16 26 25 57c4 10 13 10 16 0c9 -30 16 -53 22 -57c9 -6 28 -7 56 -7c30 1 42 2 43 3c6 0 9 7 6 13c-9 21 -57 133 -71 143c-3 2 -5 4 -9 5c-7 1 -77 1 -86 1c-8 0 -6 0 -14 -2c-17 0 -45 -55 -78 -122c-3 -6 -9 -18 -11 -25
c-2 -6 0 -13 6 -13c1 -1 12 -2 32 -3zM416 772c12 -23 0 -47 -24 -47c-8 0 -15 -1 -30 -1c-29 0 -37 1 -46 7c-3 2 -7 6 -11 18c44 1 47 2 52 2c28 0 28 23 20 40c-15 34 -28 65 -40 89c8 0 21 -2 29 -8c15 -11 39 -79 50 -100zM221 788c3 5 7 5 9 -1c6 -16 10 -24 16 -28
c4 -2 7 -4 12 -6c-9 -24 -12 -27 -69 -27h-29c-6 0 -8 5 -6 11c1 4 1 7 4 12c23 1 34 3 44 9c5 2 12 14 19 30zM450 363l-40 23v259c0 27 2 52 -20 54c-14 1 -30 1 -47 1c-50 0 -51 -1 -51 -50v-442c0 -46 -7 -90 -52 -98c-36 -5 -56 32 -57 58c-1 11 -1 24 -1 39v430
c0 37 4 60 -23 62c-20 2 -77 3 -88 -7c-5 -5 -7 -20 -7 -44v-262l-40 -23c-6 -3 -9 -7 -9 -14c0 -6 3 -11 9 -14l40 -23v-129c0 -23 4 -52 12 -86c4 -14 11 -27 19 -39c54 -70 136 -84 220 -55c51 17 97 99 95 161c0 34 -1 93 -1 147l41 24c6 3 8 8 8 14c0 7 -2 11 -8 14z
M200 207v443c4 -1 7 -1 9 -1c27 -2 23 -25 23 -62v-459c-16 1 -30 19 -31 41v1c-1 10 -1 22 -1 37zM428 396v254c4 -1 8 -1 12 -1c22 -2 20 -27 20 -54v-217zM500 313c6 -3 8 -7 8 -14c0 -6 -2 -11 -8 -14l-41 -24c0 -54 1 -65 1 -99c0 -70 -36 -146 -94 -182
c-6 -4 -14 -8 -20 -10c-61 -21 -89 -17 -139 -4c-16 4 -16 11 2 8c35 -6 77 -2 112 12c69 28 109 103 107 178c0 32 -1 86 -1 137l34 20c4 2 7 5 10 9z" />
    <glyph glyph-name="Udieresis" unicode="&#xdc;" horiz-adv-x="523" 
d="M163 787c9 1 16 8 16 17c3 23 3 45 0 68c-1 9 -7 15 -16 15c-1 1 -13 1 -34 3c-21 -2 -32 -2 -35 -2c-8 -1 -14 -6 -15 -15c-3 -25 -3 -48 0 -68c2 -9 8 -16 15 -17c21 -3 44 -3 69 -1zM338 787c8 1 16 8 16 17c3 23 3 45 0 68c-2 9 -8 15 -16 15c-1 1 -13 1 -34 3
c-21 -2 -33 -2 -35 -2c-8 -1 -14 -6 -15 -15c-3 -25 -3 -48 0 -68c2 -9 8 -16 15 -17c21 -3 43 -3 69 -1zM230 820c3 -22 4 -33 0 -55c-3 -19 -11 -28 -29 -29c-25 -2 -35 -2 -55 1c-7 1 -13 7 -16 17l-2 14c12 -1 23 0 36 1h1c19 2 31 16 32 34c2 11 3 22 2 35
c10 -1 15 -1 16 -2c8 0 14 -6 15 -16zM405 820c3 -22 4 -33 0 -55c-3 -19 -11 -28 -29 -29c-26 -2 -35 -2 -55 1c-8 1 -14 7 -16 17l-2 14c11 -1 23 0 36 1h1c19 2 31 16 32 34c2 11 3 22 2 35c9 -1 14 -1 16 -2c8 0 14 -6 15 -16zM450 363l-40 23v259c0 27 2 52 -20 54
c-14 1 -30 1 -47 1c-50 0 -51 -1 -51 -50v-442c0 -46 -7 -90 -52 -98c-36 -5 -56 32 -57 58c-1 11 -1 24 -1 39v430c0 37 4 60 -23 62c-20 2 -77 3 -88 -7c-5 -5 -7 -20 -7 -44v-262l-40 -23c-6 -3 -9 -7 -9 -14c0 -6 3 -11 9 -14l40 -23v-129c0 -23 4 -52 12 -86
c4 -14 11 -27 19 -39c54 -70 136 -84 220 -55c51 17 97 99 95 161c0 34 -1 93 -1 147l41 24c6 3 8 8 8 14c0 7 -2 11 -8 14zM200 207v443c4 -1 7 -1 9 -1c27 -2 23 -25 23 -62v-459c-16 1 -30 19 -31 41v1c-1 10 -1 22 -1 37zM428 396v254c4 -1 8 -1 12 -1
c22 -2 20 -27 20 -54v-217zM500 313c6 -3 8 -7 8 -14c0 -6 -2 -11 -8 -14l-41 -24c0 -54 1 -65 1 -99c0 -70 -36 -146 -94 -182c-6 -4 -14 -8 -20 -10c-61 -21 -89 -17 -139 -4c-16 4 -16 11 2 8c35 -6 77 -2 112 12c69 28 109 103 107 178c0 32 -1 86 -1 137l34 20
c4 2 7 5 10 9z" />
    <glyph glyph-name="Ugrave" unicode="&#xd9;" horiz-adv-x="523" 
d="M240 763c22 -3 33 -3 52 1c10 1 15 8 15 15c-2 7 -4 15 -7 24c-4 10 -22 61 -26 75c-10 28 -13 36 -24 41c-9 6 -21 7 -52 7c-27 -1 -43 -2 -45 -3c-8 0 -15 -7 -13 -13c2 -7 6 -14 9 -19c17 -27 38 -71 56 -99c5 -6 18 -26 35 -29zM360 770c15 -46 -6 -49 -44 -49
c-27 0 -45 2 -62 22c15 -1 26 1 41 3c18 3 39 8 30 36c-2 7 -4 16 -8 27c-3 7 -12 42 -22 63l22 -3c12 -2 14 -13 24 -41c4 -14 15 -48 19 -58zM450 363l-40 23v259c0 27 2 52 -20 54c-14 1 -30 1 -47 1c-50 0 -51 -1 -51 -50v-442c0 -46 -7 -90 -52 -98
c-36 -5 -56 32 -57 58c-1 11 -1 24 -1 39v430c0 37 4 60 -23 62c-20 2 -77 3 -88 -7c-5 -5 -7 -20 -7 -44v-262l-40 -23c-6 -3 -9 -7 -9 -14c0 -6 3 -11 9 -14l40 -23v-129c0 -23 4 -52 12 -86c4 -14 11 -27 19 -39c54 -70 136 -84 220 -55c51 17 97 99 95 161
c0 34 -1 93 -1 147l41 24c6 3 8 8 8 14c0 7 -2 11 -8 14zM200 207v443c4 -1 7 -1 9 -1c27 -2 23 -25 23 -62v-459c-16 1 -30 19 -31 41v1c-1 10 -1 22 -1 37zM428 396v254c4 -1 8 -1 12 -1c22 -2 20 -27 20 -54v-217zM500 313c6 -3 8 -7 8 -14c0 -6 -2 -11 -8 -14l-41 -24
c0 -54 1 -65 1 -99c0 -70 -36 -146 -94 -182c-6 -4 -14 -8 -20 -10c-61 -21 -89 -17 -139 -4c-16 4 -16 11 2 8c35 -6 77 -2 112 12c69 28 109 103 107 178c0 32 -1 86 -1 137l34 20c4 2 7 5 10 9z" />
    <glyph glyph-name="Uhungarumlaut" unicode="&#x170;" horiz-adv-x="523" 
d="M179 777c17 4 27 23 31 29c13 28 26 72 39 99c2 5 5 12 6 19c1 6 -7 13 -15 13c-2 1 -19 2 -46 3c-40 0 -32 -1 -40 -7c-10 -5 -12 -13 -17 -41c-2 -14 -10 -65 -13 -75l-3 -24c1 -7 7 -14 17 -15c20 -4 30 -4 41 -1zM319 777c17 3 27 23 31 29c13 28 26 72 39 99
c2 5 5 12 6 19c1 6 -7 13 -15 13c-2 1 -19 2 -46 3c-40 0 -32 -1 -40 -7c-10 -5 -12 -13 -17 -41c-2 -14 -10 -65 -13 -75l-3 -24c1 -7 7 -14 17 -15c20 -4 20 -4 41 -1zM430 887c8 0 16 -7 15 -13c-1 -7 -4 -14 -6 -19c-13 -27 -26 -71 -39 -99c-4 -6 -14 -26 -31 -29
c-21 -3 -21 -3 -41 1c-10 1 -16 8 -17 15c1 5 1 10 2 15c17 3 32 11 42 21c5 7 10 17 11 18c12 26 24 66 36 92c16 0 26 -1 28 -2zM252 848c-10 -47 -16 -70 11 -85l-3 -7c-4 -6 -14 -25 -31 -29c-11 -3 -21 -3 -41 1c-10 1 -16 8 -17 15l2 15c1 0 7 0 10 1
c34 8 46 41 64 91zM450 363l-40 23v259c0 27 2 52 -20 54c-14 1 -30 1 -47 1c-50 0 -51 -1 -51 -50v-442c0 -46 -7 -90 -52 -98c-36 -5 -56 32 -57 58c-1 11 -1 24 -1 39v430c0 37 4 60 -23 62c-20 2 -77 3 -88 -7c-5 -5 -7 -20 -7 -44v-262l-40 -23c-6 -3 -9 -7 -9 -14
c0 -6 3 -11 9 -14l40 -23v-129c0 -23 4 -52 12 -86c4 -14 11 -27 19 -39c54 -70 136 -84 220 -55c51 17 97 99 95 161c0 34 -1 93 -1 147l41 24c6 3 8 8 8 14c0 7 -2 11 -8 14zM200 207v443c4 -1 7 -1 9 -1c27 -2 23 -25 23 -62v-459c-16 1 -30 19 -31 41v1
c-1 10 -1 22 -1 37zM428 396v254c4 -1 8 -1 12 -1c22 -2 20 -27 20 -54v-217zM500 313c6 -3 8 -7 8 -14c0 -6 -2 -11 -8 -14l-41 -24c0 -54 1 -65 1 -99c0 -70 -36 -146 -94 -182c-6 -4 -14 -8 -20 -10c-61 -21 -89 -17 -139 -4c-16 4 -16 11 2 8c35 -6 77 -2 112 12
c69 28 109 103 107 178c0 32 -1 86 -1 137l34 20c4 2 7 5 10 9z" />
    <glyph glyph-name="Umacron" unicode="&#x16a;" horiz-adv-x="523" 
d="M306 785c16 0 28 0 34 6c3 4 5 9 5 17c1 6 1 19 1 26c0 41 -2 40 -42 41c-55 1 -109 1 -164 0c-20 0 -30 1 -37 -5c-3 -2 -5 -7 -5 -14c-1 -20 -1 -30 0 -48c1 -17 7 -21 24 -22c43 -2 87 -2 184 -1zM364 825c30 -1 32 -4 32 -41c0 -7 0 -20 -1 -26c0 -8 -2 -13 -5 -17
c-6 -6 -18 -6 -34 -6c-97 -1 -141 -1 -184 1c-17 1 -23 5 -24 22v9c36 -1 80 -1 158 0c16 0 37 0 48 12c6 8 9 17 9 28c1 4 1 9 1 18zM450 363l-40 23v259c0 27 2 52 -20 54c-14 1 -30 1 -47 1c-50 0 -51 -1 -51 -50v-442c0 -46 -7 -90 -52 -98c-36 -5 -56 32 -57 58
c-1 11 -1 24 -1 39v430c0 37 4 60 -23 62c-20 2 -77 3 -88 -7c-5 -5 -7 -20 -7 -44v-262l-40 -23c-6 -3 -9 -7 -9 -14c0 -6 3 -11 9 -14l40 -23v-129c0 -23 4 -52 12 -86c4 -14 11 -27 19 -39c54 -70 136 -84 220 -55c51 17 97 99 95 161c0 34 -1 93 -1 147l41 24
c6 3 8 8 8 14c0 7 -2 11 -8 14zM200 207v443c4 -1 7 -1 9 -1c27 -2 23 -25 23 -62v-459c-16 1 -30 19 -31 41v1c-1 10 -1 22 -1 37zM428 396v254c4 -1 8 -1 12 -1c22 -2 20 -27 20 -54v-217zM500 313c6 -3 8 -7 8 -14c0 -6 -2 -11 -8 -14l-41 -24c0 -54 1 -65 1 -99
c0 -70 -36 -146 -94 -182c-6 -4 -14 -8 -20 -10c-61 -21 -89 -17 -139 -4c-16 4 -16 11 2 8c35 -6 77 -2 112 12c69 28 109 103 107 178c0 32 -1 86 -1 137l34 20c4 2 7 5 10 9z" />
    <glyph glyph-name="Uogonek" unicode="&#x172;" horiz-adv-x="480" 
d="M435 363l-40 23v259c0 27 2 52 -20 54c-14 1 -30 1 -47 1c-50 0 -51 -1 -51 -50v-442c0 -46 -7 -90 -52 -98c-36 -5 -56 32 -57 58c-1 11 -1 24 -1 39v430c0 37 4 60 -23 62c-20 2 -77 3 -88 -7c-5 -5 -7 -20 -7 -44v-262l-40 -23c-6 -3 -9 -7 -9 -14c0 -6 3 -11 9 -14
l40 -23v-129c0 -23 4 -52 12 -86c4 -14 11 -27 19 -39c38 -50 91 -70 147 -69c-25 -36 -38 -67 -38 -100c0 -49 27 -98 108 -98c28 0 52 8 76 20c13 7 16 20 10 33l-13 30c-6 14 -20 16 -34 11c-14 -6 -29 -10 -40 -10c-17 0 -28 12 -28 31c0 25 21 63 64 104s62 100 62 154
v147l41 24c6 3 8 8 8 14c0 7 -2 11 -8 14zM185 207v443c4 -1 7 -1 9 -1c27 -2 23 -25 23 -62v-459c-16 1 -30 19 -31 41v1c-1 10 -1 22 -1 37zM413 396v254c4 -1 8 -1 12 -1c22 -2 20 -27 20 -54v-217zM485 313c6 -3 8 -7 8 -14c0 -6 -2 -11 -8 -14l-41 -24v-97
c0 -75 -27 -134 -80 -187c-38 -38 -48 -64 -45 -80c-8 -3 -18 -4 -23 -4c-7 0 -10 4 -10 13c0 22 22 56 58 91c50 48 69 106 69 167c0 32 -1 86 -1 137l34 20c4 2 7 5 10 9zM421 -181c6 -16 5 -22 -5 -32c-21 -20 -40 -29 -71 -32c-24 -2 -61 2 -76 22c12 -3 26 -4 40 -4
c27 0 50 9 72 22c15 9 22 23 22 37c10 4 15 -5 18 -13z" />
    <glyph glyph-name="Uring" unicode="&#x16e;" horiz-adv-x="523" 
d="M214 743c75 0 109 36 109 113c0 67 -34 99 -108 99c-75 0 -110 -32 -110 -99c0 -77 34 -113 109 -113zM214 816c-20 0 -27 13 -27 33c0 23 9 36 27 38c9 1 30 -8 27 -38c-2 -20 -17 -33 -27 -33zM340 870c-1 4 3 7 5 2c3 -6 4 -11 5 -16c18 -88 -19 -151 -100 -151
c-18 0 -41 5 -56 14c-6 3 -4 8 2 7c90 -11 145 36 145 130c0 5 0 9 -1 14zM216 869c3 0 9 -3 9 -11c-7 -5 -12 -13 -13 -24c-5 0 -7 3 -7 15c0 15 3 20 11 20zM450 363l-40 23v259c0 27 2 52 -20 54c-14 1 -30 1 -47 1c-50 0 -51 -1 -51 -50v-442c0 -46 -7 -90 -52 -98
c-36 -5 -56 32 -57 58c-1 11 -1 24 -1 39v430c0 37 4 60 -23 62c-20 2 -77 3 -88 -7c-5 -5 -7 -20 -7 -44v-262l-40 -23c-6 -3 -9 -7 -9 -14c0 -6 3 -11 9 -14l40 -23v-129c0 -23 4 -52 12 -86c4 -14 11 -27 19 -39c54 -70 136 -84 220 -55c51 17 97 99 95 161
c0 34 -1 93 -1 147l41 24c6 3 8 8 8 14c0 7 -2 11 -8 14zM200 207v443c4 -1 7 -1 9 -1c27 -2 23 -25 23 -62v-459c-16 1 -30 19 -31 41v1c-1 10 -1 22 -1 37zM428 396v254c4 -1 8 -1 12 -1c22 -2 20 -27 20 -54v-217zM500 313c6 -3 8 -7 8 -14c0 -6 -2 -11 -8 -14l-41 -24
c0 -54 1 -65 1 -99c0 -70 -36 -146 -94 -182c-6 -4 -14 -8 -20 -10c-61 -21 -89 -17 -139 -4c-16 4 -16 11 2 8c35 -6 77 -2 112 12c69 28 109 103 107 178c0 32 -1 86 -1 137l34 20c4 2 7 5 10 9z" />
    <glyph glyph-name="V" unicode="V" horiz-adv-x="460" 
d="M153 0h114c27 1 29 39 33 60l45 251l42 24c6 4 9 8 9 15c0 6 -3 11 -9 14l-29 17c28 159 42 228 44 237c4 23 6 43 8 58c1 15 -5 23 -21 24c-22 1 -48 1 -78 0c-27 -1 -30 -50 -33 -69c-10 -58 -37 -229 -49 -303c-1 -10 -5 -24 -9 -42c-4 -14 -16 -11 -19 -3
c-5 15 -8 26 -10 34c-5 34 -12 80 -21 136c-21 138 -27 172 -36 222c-3 19 -10 24 -29 25c-20 1 -41 1 -63 1c-28 -2 -34 -9 -31 -38c0 -3 1 -7 2 -11c6 -38 29 -160 39 -218l5 -27l4 -26l-28 -17c-6 -3 -8 -8 -8 -14c0 -7 2 -11 8 -15l41 -24l47 -264c3 -15 4 -47 32 -47z
M214 335c-1 -8 -8 -8 -9 0l-17 121c-16 111 -24 155 -31 194c17 -1 29 -6 32 -24c8 -43 36 -219 36 -224zM429 650c16 -1 22 -9 21 -24c-2 -15 -4 -35 -8 -58c-2 -8 -13 -66 -36 -196l-8 6l-20 12c26 150 40 215 42 224v1c2 13 4 25 5 35h4zM437 314c6 -3 9 -8 9 -14
c0 -7 -3 -11 -9 -15l-53 -30l-44 -245c-8 -43 -20 -58 -62 -59l-75 -1c-20 0 -26 17 -29 32l93 1c44 1 47 54 51 74l43 243l35 20c5 3 9 7 12 11z" />
    <glyph glyph-name="W" unicode="W" horiz-adv-x="615" 
d="M547 602c6 41 10 64 10 70c2 19 -4 28 -23 28c-18 1 -38 1 -60 1c-32 -1 -36 -4 -41 -35c-3 -14 -6 -31 -9 -53c-8 -61 -12 -89 -19 -130c-3 -16 -21 -18 -26 -2c-4 10 -6 18 -6 23c-5 30 -15 101 -19 125c0 5 -5 70 -35 71c-29 1 -54 1 -74 0c-14 0 -22 -8 -24 -21
c-4 -20 -9 -56 -17 -109c-1 -10 -8 -64 -12 -86c-1 -12 -10 -21 -16 -19c-7 2 -11 8 -13 19c-4 23 -12 78 -14 93l-17 101c-3 24 -7 23 -63 23h-16c-40 0 -48 -5 -40 -48c13 -77 27 -156 45 -270l-34 -19c-6 -4 -8 -8 -8 -14c0 -7 2 -11 8 -15l47 -27
c15 -91 27 -171 34 -208l14 -77c5 -30 38 -24 67 -24c48 0 51 2 58 49c4 26 12 81 23 163c3 15 6 26 10 30c6 7 15 6 19 -1c4 -13 8 -31 11 -54c2 -16 7 -42 14 -82c6 -34 10 -62 12 -82c2 -14 9 -21 24 -22c23 -1 46 -1 67 -1c23 1 29 7 33 31c0 2 35 229 40 260l3 18
l47 27c5 4 8 8 8 15c0 6 -3 10 -8 14l-34 19l1 8c4 21 13 82 33 211zM155 651c18 -1 24 -4 27 -23c2 -13 4 -26 7 -39l-5 -35l-2 -27c-1 -7 -8 -7 -9 0l-3 28c-2 22 -8 53 -15 96zM395 530c-1 -7 -7 -6 -8 0l-4 30c-4 28 -9 56 -11 70c0 4 -1 11 -3 20c23 -1 31 -39 34 -59
l-5 -33zM577 650c19 0 25 -9 23 -28c0 -6 -4 -29 -10 -70c-14 -89 -22 -144 -28 -178l-5 5l-24 14c4 24 13 86 32 206c3 22 6 38 7 51h5zM597 314c5 -4 8 -8 8 -14c0 -7 -3 -11 -8 -15l-57 -32l-2 -13c-1 0 -34 -229 -38 -249c-6 -32 -11 -40 -42 -41c-21 -1 -28 -1 -51 0
c-17 1 -25 11 -25 31h43c32 1 45 14 50 48l41 268l41 23c4 3 8 7 10 11zM290 196c1 -5 2 -11 2 -14c2 -16 4 -37 9 -72c-6 -53 -11 -90 -15 -110c-7 -47 -10 -49 -58 -49c-29 0 -54 -8 -59 22c0 3 -1 5 -1 7c6 1 13 1 18 1c58 0 67 8 76 64c5 32 11 89 18 137l2 14
c1 6 7 7 8 0z" />
    <glyph glyph-name="Wacute" unicode="&#x1e82;" horiz-adv-x="615" 
d="M292 763c-22 -3 -33 -3 -52 1c-10 1 -17 8 -15 15c3 9 4 15 7 24c4 10 22 61 26 75c10 28 13 36 24 41c9 6 21 7 52 7c27 -1 43 -2 45 -3c8 0 15 -7 13 -13c-2 -7 -6 -14 -9 -19c-17 -27 -38 -71 -55 -97c-6 -8 -19 -28 -36 -31zM310 723c-18 0 -31 3 -31 20l16 2
c26 5 43 33 47 38c17 25 36 65 53 93c3 2 10 1 12 1c8 -1 14 -8 12 -14c-2 -7 -6 -20 -15 -38c-11 -20 -31 -56 -53 -85c-9 -12 -16 -17 -41 -17zM547 602c6 41 10 64 10 70c2 19 -4 28 -23 28c-18 1 -38 1 -60 1c-32 -1 -36 -4 -41 -35c-3 -14 -6 -31 -9 -53
c-8 -61 -12 -89 -19 -130c-3 -16 -21 -18 -26 -2c-4 10 -6 18 -6 23c-5 30 -15 101 -19 125c0 5 -5 70 -35 71c-29 1 -54 1 -74 0c-14 0 -22 -8 -24 -21c-4 -20 -9 -56 -17 -109c-1 -10 -8 -64 -12 -86c-1 -12 -10 -21 -16 -19c-7 2 -11 8 -13 19c-4 23 -12 78 -14 93
l-17 101c-3 24 -7 23 -63 23h-16c-40 0 -48 -5 -40 -48c13 -77 27 -156 45 -270l-34 -19c-6 -4 -8 -8 -8 -14c0 -7 2 -11 8 -15l47 -27c15 -91 27 -171 34 -208l14 -77c5 -30 38 -24 67 -24c48 0 51 2 58 49c4 26 12 81 23 163c3 15 6 26 10 30c6 7 15 6 19 -1
c4 -13 8 -31 11 -54c2 -16 7 -42 14 -82c6 -34 10 -62 12 -82c2 -14 9 -21 24 -22c23 -1 46 -1 67 -1c23 1 29 7 33 31c0 2 35 229 40 260l3 18l47 27c5 4 8 8 8 15c0 6 -3 10 -8 14l-34 19l1 8c4 21 13 82 33 211zM155 651c18 -1 24 -4 27 -23c2 -13 4 -26 7 -39l-5 -35
l-2 -27c-1 -7 -8 -7 -9 0l-3 28c-2 22 -8 53 -15 96zM395 530c-1 -7 -7 -6 -8 0l-4 30c-4 28 -9 56 -11 70c0 4 -1 11 -3 20c23 -1 31 -39 34 -59l-5 -33zM577 650c19 0 25 -9 23 -28c0 -6 -4 -29 -10 -70c-14 -89 -22 -144 -28 -178l-5 5l-24 14c4 24 13 86 32 206
c3 22 6 38 7 51h5zM597 314c5 -4 8 -8 8 -14c0 -7 -3 -11 -8 -15l-57 -32l-2 -13c-1 0 -34 -229 -38 -249c-6 -32 -11 -40 -42 -41c-21 -1 -28 -1 -51 0c-17 1 -25 11 -25 31h43c32 1 45 14 50 48l41 268l41 23c4 3 8 7 10 11zM290 196c1 -5 2 -11 2 -14c2 -16 4 -37 9 -72
c-6 -53 -11 -90 -15 -110c-7 -47 -10 -49 -58 -49c-29 0 -54 -8 -59 22c0 3 -1 5 -1 7c6 1 13 1 18 1c58 0 67 8 76 64c5 32 11 89 18 137l2 14c1 6 7 7 8 0z" />
    <glyph glyph-name="Wcircumflex" unicode="&#x174;" horiz-adv-x="615" 
d="M173 767c30 0 53 1 63 7c5 4 16 26 25 57c4 10 13 10 16 0c9 -30 16 -53 22 -57c9 -6 28 -7 56 -7c30 1 42 2 43 3c6 0 9 7 6 13c-9 21 -57 133 -71 143c-3 2 -5 4 -9 5c-7 1 -77 1 -86 1c-8 0 -6 0 -14 -2c-17 0 -45 -55 -78 -122c-3 -6 -9 -18 -11 -25
c-2 -6 0 -13 6 -13c1 -1 12 -2 32 -3zM459 772c12 -23 0 -47 -24 -47c-8 0 -15 -1 -30 -1c-29 0 -37 1 -46 7c-3 2 -7 6 -11 18c44 1 47 2 52 2c28 0 28 23 20 40c-15 34 -28 65 -40 89c8 0 21 -2 29 -8c15 -11 39 -79 50 -100zM264 788c3 5 7 5 9 -1c6 -16 10 -24 16 -28
c4 -2 7 -4 12 -6c-9 -24 -12 -27 -69 -27h-29c-6 0 -8 5 -6 11c1 4 1 7 4 12c23 1 34 3 44 9c5 2 12 14 19 30zM547 602c6 41 10 64 10 70c2 19 -4 28 -23 28c-18 1 -38 1 -60 1c-32 -1 -36 -4 -41 -35c-3 -14 -6 -31 -9 -53c-8 -61 -12 -89 -19 -130c-3 -16 -21 -18 -26 -2
c-4 10 -6 18 -6 23c-5 30 -15 101 -19 125c0 5 -5 70 -35 71c-29 1 -54 1 -74 0c-14 0 -22 -8 -24 -21c-4 -20 -9 -56 -17 -109c-1 -10 -8 -64 -12 -86c-1 -12 -10 -21 -16 -19c-7 2 -11 8 -13 19c-4 23 -12 78 -14 93l-17 101c-3 24 -7 23 -63 23h-16c-40 0 -48 -5 -40 -48
c13 -77 27 -156 45 -270l-34 -19c-6 -4 -8 -8 -8 -14c0 -7 2 -11 8 -15l47 -27c15 -91 27 -171 34 -208l14 -77c5 -30 38 -24 67 -24c48 0 51 2 58 49c4 26 12 81 23 163c3 15 6 26 10 30c6 7 15 6 19 -1c4 -13 8 -31 11 -54c2 -16 7 -42 14 -82c6 -34 10 -62 12 -82
c2 -14 9 -21 24 -22c23 -1 46 -1 67 -1c23 1 29 7 33 31c0 2 35 229 40 260l3 18l47 27c5 4 8 8 8 15c0 6 -3 10 -8 14l-34 19l1 8c4 21 13 82 33 211zM155 651c18 -1 24 -4 27 -23c2 -13 4 -26 7 -39l-5 -35l-2 -27c-1 -7 -8 -7 -9 0l-3 28c-2 22 -8 53 -15 96zM395 530
c-1 -7 -7 -6 -8 0l-4 30c-4 28 -9 56 -11 70c0 4 -1 11 -3 20c23 -1 31 -39 34 -59l-5 -33zM577 650c19 0 25 -9 23 -28c0 -6 -4 -29 -10 -70c-14 -89 -22 -144 -28 -178l-5 5l-24 14c4 24 13 86 32 206c3 22 6 38 7 51h5zM597 314c5 -4 8 -8 8 -14c0 -7 -3 -11 -8 -15
l-57 -32l-2 -13c-1 0 -34 -229 -38 -249c-6 -32 -11 -40 -42 -41c-21 -1 -28 -1 -51 0c-17 1 -25 11 -25 31h43c32 1 45 14 50 48l41 268l41 23c4 3 8 7 10 11zM290 196c1 -5 2 -11 2 -14c2 -16 4 -37 9 -72c-6 -53 -11 -90 -15 -110c-7 -47 -10 -49 -58 -49
c-29 0 -54 -8 -59 22c0 3 -1 5 -1 7c6 1 13 1 18 1c58 0 67 8 76 64c5 32 11 89 18 137l2 14c1 6 7 7 8 0z" />
    <glyph glyph-name="Wdieresis" unicode="&#x1e84;" horiz-adv-x="615" 
d="M206 787c9 1 16 8 16 17c3 23 3 45 0 68c-1 9 -7 15 -16 15c-1 1 -13 1 -34 3c-21 -2 -32 -2 -35 -2c-8 -1 -14 -6 -15 -15c-3 -25 -3 -48 0 -68c2 -9 8 -16 15 -17c21 -3 44 -3 69 -1zM381 787c8 1 16 8 16 17c3 23 3 45 0 68c-2 9 -8 15 -16 15c-1 1 -13 1 -34 3
c-21 -2 -33 -2 -35 -2c-8 -1 -14 -6 -15 -15c-3 -25 -3 -48 0 -68c2 -9 8 -16 15 -17c21 -3 43 -3 69 -1zM273 820c3 -22 4 -33 0 -55c-3 -19 -11 -28 -29 -29c-25 -2 -35 -2 -55 1c-7 1 -13 7 -16 17l-2 14c12 -1 23 0 36 1h1c19 2 31 16 32 34c2 11 3 22 2 35
c10 -1 15 -1 16 -2c8 0 14 -6 15 -16zM448 820c3 -22 4 -33 0 -55c-3 -19 -11 -28 -29 -29c-26 -2 -35 -2 -55 1c-8 1 -14 7 -16 17l-2 14c11 -1 23 0 36 1h1c19 2 31 16 32 34c2 11 3 22 2 35c9 -1 14 -1 16 -2c8 0 14 -6 15 -16zM547 602c6 41 10 64 10 70
c2 19 -4 28 -23 28c-18 1 -38 1 -60 1c-32 -1 -36 -4 -41 -35c-3 -14 -6 -31 -9 -53c-8 -61 -12 -89 -19 -130c-3 -16 -21 -18 -26 -2c-4 10 -6 18 -6 23c-5 30 -15 101 -19 125c0 5 -5 70 -35 71c-29 1 -54 1 -74 0c-14 0 -22 -8 -24 -21c-4 -20 -9 -56 -17 -109
c-1 -10 -8 -64 -12 -86c-1 -12 -10 -21 -16 -19c-7 2 -11 8 -13 19c-4 23 -12 78 -14 93l-17 101c-3 24 -7 23 -63 23h-16c-40 0 -48 -5 -40 -48c13 -77 27 -156 45 -270l-34 -19c-6 -4 -8 -8 -8 -14c0 -7 2 -11 8 -15l47 -27c15 -91 27 -171 34 -208l14 -77
c5 -30 38 -24 67 -24c48 0 51 2 58 49c4 26 12 81 23 163c3 15 6 26 10 30c6 7 15 6 19 -1c4 -13 8 -31 11 -54c2 -16 7 -42 14 -82c6 -34 10 -62 12 -82c2 -14 9 -21 24 -22c23 -1 46 -1 67 -1c23 1 29 7 33 31c0 2 35 229 40 260l3 18l47 27c5 4 8 8 8 15c0 6 -3 10 -8 14
l-34 19l1 8c4 21 13 82 33 211zM155 651c18 -1 24 -4 27 -23c2 -13 4 -26 7 -39l-5 -35l-2 -27c-1 -7 -8 -7 -9 0l-3 28c-2 22 -8 53 -15 96zM395 530c-1 -7 -7 -6 -8 0l-4 30c-4 28 -9 56 -11 70c0 4 -1 11 -3 20c23 -1 31 -39 34 -59l-5 -33zM577 650c19 0 25 -9 23 -28
c0 -6 -4 -29 -10 -70c-14 -89 -22 -144 -28 -178l-5 5l-24 14c4 24 13 86 32 206c3 22 6 38 7 51h5zM597 314c5 -4 8 -8 8 -14c0 -7 -3 -11 -8 -15l-57 -32l-2 -13c-1 0 -34 -229 -38 -249c-6 -32 -11 -40 -42 -41c-21 -1 -28 -1 -51 0c-17 1 -25 11 -25 31h43
c32 1 45 14 50 48l41 268l41 23c4 3 8 7 10 11zM290 196c1 -5 2 -11 2 -14c2 -16 4 -37 9 -72c-6 -53 -11 -90 -15 -110c-7 -47 -10 -49 -58 -49c-29 0 -54 -8 -59 22c0 3 -1 5 -1 7c6 1 13 1 18 1c58 0 67 8 76 64c5 32 11 89 18 137l2 14c1 6 7 7 8 0z" />
    <glyph glyph-name="Wgrave" unicode="&#x1e80;" horiz-adv-x="615" 
d="M283 763c22 -3 33 -3 52 1c10 1 15 8 15 15c-2 7 -4 15 -7 24c-4 10 -22 61 -26 75c-10 28 -13 36 -24 41c-9 6 -21 7 -52 7c-27 -1 -43 -2 -45 -3c-8 0 -15 -7 -13 -13c2 -7 6 -14 9 -19c17 -27 38 -71 56 -99c5 -6 18 -26 35 -29zM403 770c15 -46 -6 -49 -44 -49
c-27 0 -45 2 -62 22c15 -1 26 1 41 3c18 3 39 8 30 36c-2 7 -4 16 -8 27c-3 7 -12 42 -22 63l22 -3c12 -2 14 -13 24 -41c4 -14 15 -48 19 -58zM547 602c6 41 10 64 10 70c2 19 -4 28 -23 28c-18 1 -38 1 -60 1c-32 -1 -36 -4 -41 -35c-3 -14 -6 -31 -9 -53
c-8 -61 -12 -89 -19 -130c-3 -16 -21 -18 -26 -2c-4 10 -6 18 -6 23c-5 30 -15 101 -19 125c0 5 -5 70 -35 71c-29 1 -54 1 -74 0c-14 0 -22 -8 -24 -21c-4 -20 -9 -56 -17 -109c-1 -10 -8 -64 -12 -86c-1 -12 -10 -21 -16 -19c-7 2 -11 8 -13 19c-4 23 -12 78 -14 93
l-17 101c-3 24 -7 23 -63 23h-16c-40 0 -48 -5 -40 -48c13 -77 27 -156 45 -270l-34 -19c-6 -4 -8 -8 -8 -14c0 -7 2 -11 8 -15l47 -27c15 -91 27 -171 34 -208l14 -77c5 -30 38 -24 67 -24c48 0 51 2 58 49c4 26 12 81 23 163c3 15 6 26 10 30c6 7 15 6 19 -1
c4 -13 8 -31 11 -54c2 -16 7 -42 14 -82c6 -34 10 -62 12 -82c2 -14 9 -21 24 -22c23 -1 46 -1 67 -1c23 1 29 7 33 31c0 2 35 229 40 260l3 18l47 27c5 4 8 8 8 15c0 6 -3 10 -8 14l-34 19l1 8c4 21 13 82 33 211zM155 651c18 -1 24 -4 27 -23c2 -13 4 -26 7 -39l-5 -35
l-2 -27c-1 -7 -8 -7 -9 0l-3 28c-2 22 -8 53 -15 96zM395 530c-1 -7 -7 -6 -8 0l-4 30c-4 28 -9 56 -11 70c0 4 -1 11 -3 20c23 -1 31 -39 34 -59l-5 -33zM577 650c19 0 25 -9 23 -28c0 -6 -4 -29 -10 -70c-14 -89 -22 -144 -28 -178l-5 5l-24 14c4 24 13 86 32 206
c3 22 6 38 7 51h5zM597 314c5 -4 8 -8 8 -14c0 -7 -3 -11 -8 -15l-57 -32l-2 -13c-1 0 -34 -229 -38 -249c-6 -32 -11 -40 -42 -41c-21 -1 -28 -1 -51 0c-17 1 -25 11 -25 31h43c32 1 45 14 50 48l41 268l41 23c4 3 8 7 10 11zM290 196c1 -5 2 -11 2 -14c2 -16 4 -37 9 -72
c-6 -53 -11 -90 -15 -110c-7 -47 -10 -49 -58 -49c-29 0 -54 -8 -59 22c0 3 -1 5 -1 7c6 1 13 1 18 1c58 0 67 8 76 64c5 32 11 89 18 137l2 14c1 6 7 7 8 0z" />
    <glyph glyph-name="X" unicode="X" horiz-adv-x="471" 
d="M370 94l25 -67c12 -32 -8 -27 -57 -27h-24c-25 -3 -43 9 -52 37l-35 96l-6 19c-6 24 -27 22 -33 1c-4 -13 -10 -31 -33 -92c-14 -37 -16 -61 -47 -61c-42 0 -68 1 -79 1c-30 2 -16 27 -7 51c57 147 91 231 100 252l6 15l-31 16c-6 4 -8 8 -8 15c0 6 2 10 8 14l31 16
c-2 5 -5 10 -7 15l-100 253c-5 13 -9 23 -10 30c-3 11 4 20 16 22c28 3 58 3 90 0c12 -1 21 -10 26 -26c7 -18 19 -51 37 -100c6 -16 9 -26 11 -29c6 -16 21 -13 26 -2l10 26c21 59 34 92 36 100c7 22 22 33 43 33c7 -1 20 -1 37 -1c16 0 29 0 38 -1c7 0 12 -3 15 -8
c6 -8 2 -15 -8 -43l-49 -124c-29 -75 -46 -116 -49 -125l-7 -18v-1l28 -17c6 -4 9 -8 9 -14c0 -7 -3 -11 -9 -15l-30 -17c18 -45 53 -130 89 -224zM429 642c6 -8 2 -15 -8 -43l-49 -124l-44 -100c-6 4 -14 9 -24 14l52 130l52 132c6 0 16 -1 21 -9zM209 570
c-2 -6 -6 -5 -8 0s-3 9 -4 10c-10 28 -19 51 -25 69c9 0 30 2 35 -12l14 -36zM458 -8c12 -32 -8 -39 -53 -40l-41 -1c-23 -1 -41 7 -50 31h24c84 0 92 4 74 51l-25 67c-22 57 -64 167 -81 210c15 8 28 17 32 28c6 -3 16 -10 29 -20c7 -5 9 -9 9 -15c0 -7 -3 -11 -9 -14
l-18 -8c27 -66 66 -172 90 -237zM210 129c1 -3 5 -14 10 -31c-7 -17 -19 -52 -31 -87c-14 -37 -16 -61 -47 -61c-42 0 -52 1 -63 1c-22 1 -20 15 -15 31h44c48 0 51 38 64 73c3 7 20 58 26 75c3 9 9 9 12 -1z" />
    <glyph glyph-name="Y" unicode="Y" horiz-adv-x="452" 
d="M265 55c0 -55 0 -55 -54 -55h-36c-19 1 -25 7 -27 26c0 7 -1 25 -1 56v149c1 20 -1 41 -7 64l-43 26c-6 3 -8 8 -8 14c0 7 2 11 8 14l22 14c-10 29 -18 50 -22 61l-77 223c-4 12 -7 23 -10 34c-2 8 4 17 12 18c34 4 67 4 98 0c9 -2 16 -9 20 -22c6 -16 14 -39 23 -67
c3 -12 15 -51 21 -68c4 -13 10 -30 21 -30c7 0 11 4 13 12c5 14 10 30 17 51c17 54 28 89 35 107c4 11 12 17 23 18c36 0 65 0 87 -1c6 0 11 -2 15 -7c6 -9 3 -20 -3 -36c-40 -118 -75 -216 -102 -294l21 -13c6 -3 8 -7 8 -14c0 -6 -2 -11 -8 -14l-43 -25
c-2 -10 -3 -21 -3 -33c1 -102 1 -171 0 -208zM429 642c6 -9 3 -20 -3 -36c-34 -102 -65 -189 -90 -261c-2 7 -6 13 -12 17l-12 8c26 75 59 169 97 280c7 0 14 -1 20 -8zM209 546c-2 -6 -6 -5 -8 0l-32 103c9 0 30 2 35 -12l18 -48zM201 546v0zM360 298c7 -3 9 -6 9 -13
c0 -6 -2 -11 -9 -15l-42 -24c-2 -10 -3 -21 -3 -33c1 -102 1 -171 0 -208c0 -44 -11 -55 -54 -55h-36c-19 1 -25 7 -27 26v6h13c72 0 72 15 72 73c1 37 1 106 0 208c0 8 0 15 1 22c27 15 42 23 43 26z" />
    <glyph glyph-name="Yacute" unicode="&#xdd;" horiz-adv-x="452" 
d="M175 764c-10 1 -17 8 -15 15c3 9 4 15 7 24c4 10 22 61 26 75c10 28 13 36 24 41c9 6 21 7 52 7c27 -1 43 -2 45 -3c8 0 15 -7 13 -13c-2 -7 -6 -14 -9 -19c-17 -27 -38 -71 -55 -97c-6 -8 -19 -28 -36 -31c-22 -3 -33 -3 -52 1zM230 745c26 5 43 33 47 38
c17 25 36 65 53 93c3 2 10 1 12 1c8 -1 14 -8 12 -14c-2 -7 -6 -20 -15 -38c-11 -20 -31 -56 -53 -85c-9 -12 -16 -17 -41 -17c-18 0 -31 3 -31 20zM265 55c0 -55 0 -55 -54 -55h-36c-19 1 -25 7 -27 26c0 7 -1 25 -1 56v149c1 20 -1 41 -7 64l-43 26c-6 3 -8 8 -8 14
c0 7 2 11 8 14l22 14c-10 29 -18 50 -22 61l-77 223c-4 12 -7 23 -10 34c-2 8 4 17 12 18c34 4 67 4 98 0c9 -2 16 -9 20 -22c6 -16 14 -39 23 -67c3 -12 15 -51 21 -68c4 -13 10 -30 21 -30c7 0 11 4 13 12c5 14 10 30 17 51c17 54 28 89 35 107c4 11 12 17 23 18
c36 0 65 0 87 -1c6 0 11 -2 15 -7c6 -9 3 -20 -3 -36c-40 -118 -75 -216 -102 -294l21 -13c6 -3 8 -7 8 -14c0 -6 -2 -11 -8 -14l-43 -25c-2 -10 -3 -21 -3 -33c1 -102 1 -171 0 -208zM429 642c6 -9 3 -20 -3 -36c-34 -102 -65 -189 -90 -261c-2 7 -6 13 -12 17l-12 8
c26 75 59 169 97 280c7 0 14 -1 20 -8zM209 546c-2 -6 -6 -5 -8 0l-32 103c9 0 30 2 35 -12l18 -48zM201 546v0zM360 298c7 -3 9 -6 9 -13c0 -6 -2 -11 -9 -15l-42 -24c-2 -10 -3 -21 -3 -33c1 -102 1 -171 0 -208c0 -44 -11 -55 -54 -55h-36c-19 1 -25 7 -27 26v6h13
c72 0 72 15 72 73c1 37 1 106 0 208c0 8 0 15 1 22c27 15 42 23 43 26z" />
    <glyph glyph-name="Ycircumflex" unicode="&#x176;" horiz-adv-x="452" 
d="M76 770c-6 0 -8 7 -6 13c2 7 8 19 11 25c33 67 61 122 78 122c8 2 6 2 14 2c9 0 79 0 86 -1c4 -1 6 -3 9 -5c14 -10 62 -122 71 -143c3 -6 0 -13 -6 -13c-1 -1 -13 -2 -43 -3c-28 0 -47 1 -56 7c-6 4 -13 27 -22 57c-3 10 -12 10 -16 0c-9 -31 -20 -53 -25 -57
c-10 -6 -33 -7 -63 -7c-20 1 -31 2 -32 3zM335 751c28 0 28 23 20 40c-15 34 -28 65 -40 89c8 0 21 -2 29 -8c15 -11 39 -79 50 -100c12 -23 0 -47 -24 -47c-8 0 -15 -1 -30 -1c-29 0 -37 1 -46 7c-3 2 -7 6 -11 18c44 1 47 2 52 2zM236 753c-9 -24 -12 -27 -69 -27h-29
c-6 0 -8 5 -6 11c1 4 1 7 4 12c23 1 34 3 44 9c5 2 12 14 19 30c3 5 7 5 9 -1c6 -16 10 -24 16 -28c4 -2 7 -4 12 -6zM265 55c0 -55 0 -55 -54 -55h-36c-19 1 -25 7 -27 26c0 7 -1 25 -1 56v149c1 20 -1 41 -7 64l-43 26c-6 3 -8 8 -8 14c0 7 2 11 8 14l22 14
c-10 29 -18 50 -22 61l-77 223c-4 12 -7 23 -10 34c-2 8 4 17 12 18c34 4 67 4 98 0c9 -2 16 -9 20 -22c6 -16 14 -39 23 -67c3 -12 15 -51 21 -68c4 -13 10 -30 21 -30c7 0 11 4 13 12c5 14 10 30 17 51c17 54 28 89 35 107c4 11 12 17 23 18c36 0 65 0 87 -1
c6 0 11 -2 15 -7c6 -9 3 -20 -3 -36c-40 -118 -75 -216 -102 -294l21 -13c6 -3 8 -7 8 -14c0 -6 -2 -11 -8 -14l-43 -25c-2 -10 -3 -21 -3 -33c1 -102 1 -171 0 -208zM429 642c6 -9 3 -20 -3 -36c-34 -102 -65 -189 -90 -261c-2 7 -6 13 -12 17l-12 8c26 75 59 169 97 280
c7 0 14 -1 20 -8zM209 546c-2 -6 -6 -5 -8 0l-32 103c9 0 30 2 35 -12l18 -48zM201 546v0zM360 298c7 -3 9 -6 9 -13c0 -6 -2 -11 -9 -15l-42 -24c-2 -10 -3 -21 -3 -33c1 -102 1 -171 0 -208c0 -44 -11 -55 -54 -55h-36c-19 1 -25 7 -27 26v6h13c72 0 72 15 72 73
c1 37 1 106 0 208c0 8 0 15 1 22c27 15 42 23 43 26z" />
    <glyph glyph-name="Ydieresis" unicode="&#x178;" horiz-adv-x="452" 
d="M72 788c-7 1 -13 8 -15 17c-3 20 -3 43 0 68c1 9 7 14 15 15c3 0 14 0 35 2c21 -2 33 -2 34 -3c9 0 15 -6 16 -15c3 -23 3 -45 0 -68c0 -9 -7 -16 -16 -17c-25 -2 -48 -2 -69 1zM247 788c-7 1 -13 8 -15 17c-3 20 -3 43 0 68c1 9 7 14 15 15c2 0 14 0 35 2
c21 -2 33 -2 34 -3c8 0 14 -6 16 -15c3 -23 3 -45 0 -68c0 -9 -8 -16 -16 -17c-26 -2 -48 -2 -69 1zM142 769h1c19 2 31 16 32 34c2 11 3 22 2 35c10 -1 15 -1 16 -2c8 0 14 -6 15 -16c3 -22 4 -33 0 -55c-3 -19 -11 -28 -29 -29c-25 -2 -35 -2 -55 1c-7 1 -13 7 -16 17
l-2 14c12 -1 23 0 36 1zM317 769h1c19 2 31 16 32 34c2 11 3 22 2 35c9 -1 14 -1 16 -2c8 0 14 -6 15 -16c3 -22 4 -33 0 -55c-3 -19 -11 -28 -29 -29c-26 -2 -35 -2 -55 1c-8 1 -14 7 -16 17l-2 14c11 -1 23 0 36 1zM265 55c0 -55 0 -55 -54 -55h-36c-19 1 -25 7 -27 26
c0 7 -1 25 -1 56v149c1 20 -1 41 -7 64l-43 26c-6 3 -8 8 -8 14c0 7 2 11 8 14l22 14c-10 29 -18 50 -22 61l-77 223c-4 12 -7 23 -10 34c-2 8 4 17 12 18c34 4 67 4 98 0c9 -2 16 -9 20 -22c6 -16 14 -39 23 -67c3 -12 15 -51 21 -68c4 -13 10 -30 21 -30c7 0 11 4 13 12
c5 14 10 30 17 51c17 54 28 89 35 107c4 11 12 17 23 18c36 0 65 0 87 -1c6 0 11 -2 15 -7c6 -9 3 -20 -3 -36c-40 -118 -75 -216 -102 -294l21 -13c6 -3 8 -7 8 -14c0 -6 -2 -11 -8 -14l-43 -25c-2 -10 -3 -21 -3 -33c1 -102 1 -171 0 -208zM429 642c6 -9 3 -20 -3 -36
c-34 -102 -65 -189 -90 -261c-2 7 -6 13 -12 17l-12 8c26 75 59 169 97 280c7 0 14 -1 20 -8zM209 546c-2 -6 -6 -5 -8 0l-32 103c9 0 30 2 35 -12l18 -48zM201 546v0zM360 298c7 -3 9 -6 9 -13c0 -6 -2 -11 -9 -15l-42 -24c-2 -10 -3 -21 -3 -33c1 -102 1 -171 0 -208
c0 -44 -11 -55 -54 -55h-36c-19 1 -25 7 -27 26v6h13c72 0 72 15 72 73c1 37 1 106 0 208c0 8 0 15 1 22c27 15 42 23 43 26z" />
    <glyph glyph-name="Ygrave" unicode="&#x1ef2;" horiz-adv-x="452" 
d="M74 891c-3 5 -7 12 -9 19c-2 6 5 13 13 13c2 1 18 2 45 3c31 0 43 -1 52 -7c11 -5 14 -13 24 -41c4 -14 22 -65 26 -75c3 -9 5 -17 7 -24c0 -7 -5 -14 -15 -15c-19 -4 -30 -4 -52 -1c-17 3 -30 23 -35 29c-18 28 -39 72 -56 99zM250 782c-2 7 -4 16 -8 27
c-3 7 -12 42 -22 63l22 -3c12 -2 14 -13 24 -41c4 -14 15 -48 19 -58c15 -46 -6 -49 -44 -49c-27 0 -45 2 -62 22c15 -1 26 1 41 3c18 3 39 8 30 36zM265 55c0 -55 0 -55 -54 -55h-36c-19 1 -25 7 -27 26c0 7 -1 25 -1 56v149c1 20 -1 41 -7 64l-43 26c-6 3 -8 8 -8 14
c0 7 2 11 8 14l22 14c-10 29 -18 50 -22 61l-77 223c-4 12 -7 23 -10 34c-2 8 4 17 12 18c34 4 67 4 98 0c9 -2 16 -9 20 -22c6 -16 14 -39 23 -67c3 -12 15 -51 21 -68c4 -13 10 -30 21 -30c7 0 11 4 13 12c5 14 10 30 17 51c17 54 28 89 35 107c4 11 12 17 23 18
c36 0 65 0 87 -1c6 0 11 -2 15 -7c6 -9 3 -20 -3 -36c-40 -118 -75 -216 -102 -294l21 -13c6 -3 8 -7 8 -14c0 -6 -2 -11 -8 -14l-43 -25c-2 -10 -3 -21 -3 -33c1 -102 1 -171 0 -208zM429 642c6 -9 3 -20 -3 -36c-34 -102 -65 -189 -90 -261c-2 7 -6 13 -12 17l-12 8
c26 75 59 169 97 280c7 0 14 -1 20 -8zM209 546c-2 -6 -6 -5 -8 0l-32 103c9 0 30 2 35 -12l18 -48zM201 546v0zM360 298c7 -3 9 -6 9 -13c0 -6 -2 -11 -9 -15l-42 -24c-2 -10 -3 -21 -3 -33c1 -102 1 -171 0 -208c0 -44 -11 -55 -54 -55h-36c-19 1 -25 7 -27 26v6h13
c72 0 72 15 72 73c1 37 1 106 0 208c0 8 0 15 1 22c27 15 42 23 43 26z" />
    <glyph glyph-name="Z" unicode="Z" horiz-adv-x="407" 
d="M315 110h-43c-48 0 -69 0 -83 3c-40 6 -22 35 -14 55c10 27 33 85 57 146l37 21c5 4 8 8 8 15c0 6 -3 10 -8 14l-14 8c29 74 49 121 68 169c15 36 22 73 20 112c-2 45 -6 49 -51 49h-221c-23 0 -48 3 -50 -24c-1 -23 -1 -47 0 -71c1 -26 25 -23 46 -23h75
c28 0 65 2 53 -36l-6 -14l-59 -149l-37 -21c-5 -4 -8 -8 -8 -14c0 -7 3 -11 8 -15l14 -8l-78 -196c-8 -20 -10 -58 -7 -113c1 -20 25 -18 46 -18h217c32 0 43 0 50 7c4 3 6 9 7 17c1 20 1 40 0 59c-1 20 -8 26 -27 27zM293 361c-3 8 -9 14 -16 19c26 65 45 109 63 154
c9 23 16 46 19 69c1 11 2 21 2 28c0 10 6 8 9 3c3 -6 4 -13 5 -31c2 -39 -5 -76 -20 -112c-15 -39 -32 -78 -52 -131c-5 -10 -9 -3 -10 1zM172 541l-2 -7h-53c-21 0 -45 -3 -46 23v9h71c37 0 40 1 36 -12zM290 320l11 -6c5 -4 8 -8 8 -14c0 -7 -3 -11 -8 -15l-37 -21
c-21 -54 -42 -107 -53 -138c-6 0 -18 -1 -23 6c-4 6 -1 14 4 29c10 31 31 82 54 140l32 19c6 3 7 3 12 0zM365 60c19 -1 27 -7 27 -27c0 -8 0 -19 -1 -39c-3 -26 -17 -44 -56 -44h-217c-21 0 -45 -2 -46 18c0 5 0 9 -1 14h214c50 0 73 1 75 40c1 12 1 25 1 38h4z" />
    <glyph glyph-name="Zacute" unicode="&#x179;" horiz-adv-x="407" 
d="M192 763c-22 -3 -33 -3 -52 1c-10 1 -17 8 -15 15c3 9 4 15 7 24c4 10 22 61 26 75c10 28 13 36 24 41c9 6 21 7 52 7c27 -1 43 -2 45 -3c8 0 15 -7 13 -13c-2 -7 -6 -14 -9 -19c-17 -27 -38 -71 -55 -97c-6 -8 -19 -28 -36 -31zM210 723c-18 0 -31 3 -31 20l16 2
c26 5 43 33 47 38c17 25 36 65 53 93c3 2 10 1 12 1c8 -1 14 -8 12 -14c-2 -7 -6 -20 -15 -38c-11 -20 -31 -56 -53 -85c-9 -12 -16 -17 -41 -17zM315 110h-43c-48 0 -69 0 -83 3c-40 6 -22 35 -14 55c10 27 33 85 57 146l37 21c5 4 8 8 8 15c0 6 -3 10 -8 14l-14 8
c29 74 49 121 68 169c15 36 22 73 20 112c-2 45 -6 49 -51 49h-221c-23 0 -48 3 -50 -24c-1 -23 -1 -47 0 -71c1 -26 25 -23 46 -23h75c28 0 65 2 53 -36l-6 -14l-59 -149l-37 -21c-5 -4 -8 -8 -8 -14c0 -7 3 -11 8 -15l14 -8l-78 -196c-8 -20 -10 -58 -7 -113
c1 -20 25 -18 46 -18h217c32 0 43 0 50 7c4 3 6 9 7 17c1 20 1 40 0 59c-1 20 -8 26 -27 27zM293 361c-3 8 -9 14 -16 19c26 65 45 109 63 154c9 23 16 46 19 69c1 11 2 21 2 28c0 10 6 8 9 3c3 -6 4 -13 5 -31c2 -39 -5 -76 -20 -112c-15 -39 -32 -78 -52 -131
c-5 -10 -9 -3 -10 1zM172 541l-2 -7h-53c-21 0 -45 -3 -46 23v9h71c37 0 40 1 36 -12zM290 320l11 -6c5 -4 8 -8 8 -14c0 -7 -3 -11 -8 -15l-37 -21c-21 -54 -42 -107 -53 -138c-6 0 -18 -1 -23 6c-4 6 -1 14 4 29c10 31 31 82 54 140l32 19c6 3 7 3 12 0zM365 60
c19 -1 27 -7 27 -27c0 -8 0 -19 -1 -39c-3 -26 -17 -44 -56 -44h-217c-21 0 -45 -2 -46 18c0 5 0 9 -1 14h214c50 0 73 1 75 40c1 12 1 25 1 38h4z" />
    <glyph glyph-name="Zcaron" unicode="&#x17d;" horiz-adv-x="407" 
d="M160 771c9 0 59 0 66 1c4 1 6 3 9 5c14 10 62 122 71 143c3 6 0 13 -6 13c-1 1 -13 2 -43 3c-28 0 -37 -1 -46 -7c-6 -4 -13 -27 -22 -57c-3 -10 -12 -10 -16 0c-9 31 -20 53 -25 57c-10 6 -23 7 -53 7c-20 -1 -31 -2 -32 -3c-6 0 -8 -7 -6 -13c2 -7 8 -19 11 -25
c33 -67 61 -122 68 -122c8 -2 16 -2 24 -2zM332 884c6 0 9 -7 6 -13c-9 -21 -57 -133 -71 -143c-3 -2 -5 -4 -9 -5c-7 -1 -40 -1 -49 -1c-8 0 -16 0 -24 2c-3 0 -10 11 -20 29l64 1c8 0 17 3 23 11c14 19 29 53 59 122c9 -1 20 -2 21 -3zM315 110h-43c-48 0 -69 0 -83 3
c-40 6 -22 35 -14 55c10 27 33 85 57 146l37 21c5 4 8 8 8 15c0 6 -3 10 -8 14l-14 8c29 74 49 121 68 169c15 36 22 73 20 112c-2 45 -6 49 -51 49h-221c-23 0 -48 3 -50 -24c-1 -23 -1 -47 0 -71c1 -26 25 -23 46 -23h75c28 0 65 2 53 -36l-6 -14l-59 -149l-37 -21
c-5 -4 -8 -8 -8 -14c0 -7 3 -11 8 -15l14 -8l-78 -196c-8 -20 -10 -58 -7 -113c1 -20 25 -18 46 -18h217c32 0 43 0 50 7c4 3 6 9 7 17c1 20 1 40 0 59c-1 20 -8 26 -27 27zM293 361c-3 8 -9 14 -16 19c26 65 45 109 63 154c9 23 16 46 19 69c1 11 2 21 2 28c0 10 6 8 9 3
c3 -6 4 -13 5 -31c2 -39 -5 -76 -20 -112c-15 -39 -32 -78 -52 -131c-5 -10 -9 -3 -10 1zM172 541l-2 -7h-53c-21 0 -45 -3 -46 23v9h71c37 0 40 1 36 -12zM290 320l11 -6c5 -4 8 -8 8 -14c0 -7 -3 -11 -8 -15l-37 -21c-21 -54 -42 -107 -53 -138c-6 0 -18 -1 -23 6
c-4 6 -1 14 4 29c10 31 31 82 54 140l32 19c6 3 7 3 12 0zM365 60c19 -1 27 -7 27 -27c0 -8 0 -19 -1 -39c-3 -26 -17 -44 -56 -44h-217c-21 0 -45 -2 -46 18c0 5 0 9 -1 14h214c50 0 73 1 75 40c1 12 1 25 1 38h4z" />
    <glyph glyph-name="Zdotaccent" unicode="&#x17b;" horiz-adv-x="407" 
d="M219 782c8 1 16 8 16 17c3 24 3 48 0 72c-1 9 -8 16 -16 16c-1 1 -14 1 -36 3c-23 -2 -35 -2 -37 -2c-8 -1 -15 -7 -16 -16c-3 -26 -3 -50 0 -72c2 -9 9 -16 16 -17c22 -3 46 -3 73 -1zM285 821c3 -24 3 -48 0 -72c0 -9 -8 -16 -16 -17c-27 -2 -51 -2 -73 1
c-7 1 -14 8 -16 17c-1 5 -1 8 -1 13c12 -1 26 0 41 1c21 2 32 19 33 34c1 13 2 27 2 40c9 0 13 0 14 -1c8 0 15 -7 16 -16zM315 110h-43c-48 0 -69 0 -83 3c-40 6 -22 35 -14 55c10 27 33 85 57 146l37 21c5 4 8 8 8 15c0 6 -3 10 -8 14l-14 8c29 74 49 121 68 169
c15 36 22 73 20 112c-2 45 -6 49 -51 49h-221c-23 0 -48 3 -50 -24c-1 -23 -1 -47 0 -71c1 -26 25 -23 46 -23h75c28 0 65 2 53 -36l-6 -14l-59 -149l-37 -21c-5 -4 -8 -8 -8 -14c0 -7 3 -11 8 -15l14 -8l-78 -196c-8 -20 -10 -58 -7 -113c1 -20 25 -18 46 -18h217
c32 0 43 0 50 7c4 3 6 9 7 17c1 20 1 40 0 59c-1 20 -8 26 -27 27zM293 361c-3 8 -9 14 -16 19c26 65 45 109 63 154c9 23 16 46 19 69c1 11 2 21 2 28c0 10 6 8 9 3c3 -6 4 -13 5 -31c2 -39 -5 -76 -20 -112c-15 -39 -32 -78 -52 -131c-5 -10 -9 -3 -10 1zM172 541l-2 -7
h-53c-21 0 -45 -3 -46 23v9h71c37 0 40 1 36 -12zM290 320l11 -6c5 -4 8 -8 8 -14c0 -7 -3 -11 -8 -15l-37 -21c-21 -54 -42 -107 -53 -138c-6 0 -18 -1 -23 6c-4 6 -1 14 4 29c10 31 31 82 54 140l32 19c6 3 7 3 12 0zM365 60c19 -1 27 -7 27 -27c0 -8 0 -19 -1 -39
c-3 -26 -17 -44 -56 -44h-217c-21 0 -45 -2 -46 18c0 5 0 9 -1 14h214c50 0 73 1 75 40c1 12 1 25 1 38h4z" />
    <glyph glyph-name="a" unicode="a" horiz-adv-x="474" 
d="M401 60c5 -29 4 -47 -4 -54c-9 -9 -80 -6 -88 -6c-10 1 -16 3 -20 7c-9 8 -10 23 -14 55c-2 15 -3 27 -5 35c-1 10 -3 58 -38 59c-5 1 -8 1 -8 1c-52 0 -60 -2 -66 -53c-1 -8 -6 -35 -14 -81c-3 -15 -11 -22 -25 -22c-31 -1 -57 -1 -78 0c-28 1 -21 22 -17 51
c24 136 95 554 104 609c6 33 14 39 46 39h91c10 -1 18 -3 22 -6c7 -7 11 -25 14 -41c28 -166 99 -585 100 -593zM460 10c5 -29 6 -42 -2 -49c-13 -11 -18 -11 -99 -11c-10 0 -16 3 -20 7c-6 5 -8 12 -10 25c3 0 7 -1 11 -1c47 0 68 0 80 14c7 8 5 31 -1 68c-1 4 -3 16 -8 49
c-8 45 -63 369 -72 427c-6 32 -12 69 -19 110c16 0 19 -2 25 -6c7 -7 11 -25 14 -41c0 -1 102 -592 101 -592zM244 280c0 2 0 8 -1 17c-2 18 -13 71 -13 74c-1 4 -3 9 -6 15c-6 11 -17 7 -21 0c-7 -19 -13 -50 -16 -92c-1 -5 -1 -10 -1 -13c0 -15 56 -14 58 -1zM224 290
c-2 -1 -6 -1 -10 -1h-9v1v3c2 27 5 47 8 62c1 -3 1 -5 2 -9c3 -16 8 -41 9 -51v-5zM231 137c4 0 14 0 19 -30c-40 -1 -42 -7 -48 -53c-1 -8 -2 -17 -10 -62c-3 -15 -11 -41 -44 -41c-31 0 -36 -1 -57 0s-22 13 -20 31h5c13 0 28 0 43 1c23 0 39 13 43 36l8 43
c3 22 6 34 6 40c1 8 4 29 9 33c4 3 23 3 39 3h4l1 -1h2z" />
    <glyph glyph-name="aacute" unicode="&#xe1;" horiz-adv-x="474" 
d="M227 763c-22 -3 -33 -3 -52 1c-10 1 -17 8 -15 15c3 9 4 15 7 24c4 10 22 61 26 75c10 28 13 36 24 41c9 6 21 7 52 7c27 -1 43 -2 45 -3c8 0 15 -7 13 -13c-2 -7 -6 -14 -9 -19c-17 -27 -38 -71 -55 -97c-6 -8 -19 -28 -36 -31zM245 723c-18 0 -31 3 -31 20l16 2
c26 5 43 33 47 38c17 25 36 65 53 93c3 2 10 1 12 1c8 -1 14 -8 12 -14c-2 -7 -6 -20 -15 -38c-11 -20 -31 -56 -53 -85c-9 -12 -16 -17 -41 -17zM401 60c5 -29 4 -47 -4 -54c-9 -9 -80 -6 -88 -6c-10 1 -16 3 -20 7c-9 8 -10 23 -14 55c-2 15 -3 27 -5 35
c-1 10 -3 58 -38 59c-5 1 -8 1 -8 1c-52 0 -60 -2 -66 -53c-1 -8 -6 -35 -14 -81c-3 -15 -11 -22 -25 -22c-31 -1 -57 -1 -78 0c-28 1 -21 22 -17 51c24 136 95 554 104 609c6 33 14 39 46 39h91c10 -1 18 -3 22 -6c7 -7 11 -25 14 -41c28 -166 99 -585 100 -593zM460 10
c5 -29 6 -42 -2 -49c-13 -11 -18 -11 -99 -11c-10 0 -16 3 -20 7c-6 5 -8 12 -10 25c3 0 7 -1 11 -1c47 0 68 0 80 14c7 8 5 31 -1 68c-1 4 -3 16 -8 49c-8 45 -63 369 -72 427c-6 32 -12 69 -19 110c16 0 19 -2 25 -6c7 -7 11 -25 14 -41c0 -1 102 -592 101 -592zM244 280
c0 2 0 8 -1 17c-2 18 -13 71 -13 74c-1 4 -3 9 -6 15c-6 11 -17 7 -21 0c-7 -19 -13 -50 -16 -92c-1 -5 -1 -10 -1 -13c0 -15 56 -14 58 -1zM224 290c-2 -1 -6 -1 -10 -1h-9v1v3c2 27 5 47 8 62c1 -3 1 -5 2 -9c3 -16 8 -41 9 -51v-5zM231 137c4 0 14 0 19 -30
c-40 -1 -42 -7 -48 -53c-1 -8 -2 -17 -10 -62c-3 -15 -11 -41 -44 -41c-31 0 -36 -1 -57 0s-22 13 -20 31h5c13 0 28 0 43 1c23 0 39 13 43 36l8 43c3 22 6 34 6 40c1 8 4 29 9 33c4 3 23 3 39 3h4l1 -1h2z" />
    <glyph glyph-name="abreve" unicode="&#x103;" horiz-adv-x="474" 
d="M206 765c62 0 121 41 121 125c0 28 -5 36 -20 36h-46c-15 0 -14 -16 -17 -36c-4 -28 -21 -46 -42 -46c-19 0 -35 18 -39 46c-3 19 -8 36 -28 36h-39c-10 0 -17 -7 -17 -39c0 -72 41 -122 127 -122zM346 888c14 0 23 -9 23 -37c0 -74 -68 -126 -132 -126
c-17 0 -39 6 -48 12c-11 7 -10 14 3 12s16 -2 24 -2c78 0 128 55 130 141zM196 885c14 0 16 -9 18 -20c-3 -2 -8 -3 -12 -3c-8 0 -16 8 -19 23h13zM401 60c5 -29 4 -47 -4 -54c-9 -9 -80 -6 -88 -6c-10 1 -16 3 -20 7c-9 8 -10 23 -14 55c-2 15 -3 27 -5 35
c-1 10 -3 58 -38 59c-5 1 -8 1 -8 1c-52 0 -60 -2 -66 -53c-1 -8 -6 -35 -14 -81c-3 -15 -11 -22 -25 -22c-31 -1 -57 -1 -78 0c-28 1 -21 22 -17 51c24 136 95 554 104 609c6 33 14 39 46 39h91c10 -1 18 -3 22 -6c7 -7 11 -25 14 -41c28 -166 99 -585 100 -593zM460 10
c5 -29 6 -42 -2 -49c-13 -11 -18 -11 -99 -11c-10 0 -16 3 -20 7c-6 5 -8 12 -10 25c3 0 7 -1 11 -1c47 0 68 0 80 14c7 8 5 31 -1 68c-1 4 -3 16 -8 49c-8 45 -63 369 -72 427c-6 32 -12 69 -19 110c16 0 19 -2 25 -6c7 -7 11 -25 14 -41c0 -1 102 -592 101 -592zM244 280
c0 2 0 8 -1 17c-2 18 -13 71 -13 74c-1 4 -3 9 -6 15c-6 11 -17 7 -21 0c-7 -19 -13 -50 -16 -92c-1 -5 -1 -10 -1 -13c0 -15 56 -14 58 -1zM224 290c-2 -1 -6 -1 -10 -1h-9v1v3c2 27 5 47 8 62c1 -3 1 -5 2 -9c3 -16 8 -41 9 -51v-5zM231 137c4 0 14 0 19 -30
c-40 -1 -42 -7 -48 -53c-1 -8 -2 -17 -10 -62c-3 -15 -11 -41 -44 -41c-31 0 -36 -1 -57 0s-22 13 -20 31h5c13 0 28 0 43 1c23 0 39 13 43 36l8 43c3 22 6 34 6 40c1 8 4 29 9 33c4 3 23 3 39 3h4l1 -1h2z" />
    <glyph glyph-name="acircumflex" unicode="&#xe2;" horiz-adv-x="474" 
d="M108 767c30 0 53 1 63 7c5 4 16 26 25 57c4 10 13 10 16 0c9 -30 16 -53 22 -57c9 -6 28 -7 56 -7c30 1 42 2 43 3c6 0 9 7 6 13c-9 21 -57 133 -71 143c-3 2 -5 4 -9 5c-7 1 -77 1 -86 1c-8 0 -6 0 -14 -2c-17 0 -45 -55 -78 -122c-3 -6 -9 -18 -11 -25
c-2 -6 0 -13 6 -13c1 -1 12 -2 32 -3zM394 772c12 -23 0 -47 -24 -47c-8 0 -15 -1 -30 -1c-29 0 -37 1 -46 7c-3 2 -7 6 -11 18c44 1 47 2 52 2c28 0 28 23 20 40c-15 34 -28 65 -40 89c8 0 21 -2 29 -8c15 -11 39 -79 50 -100zM199 788c3 5 7 5 9 -1c6 -16 10 -24 16 -28
c4 -2 7 -4 12 -6c-9 -24 -12 -27 -69 -27h-29c-6 0 -8 5 -6 11c1 4 1 7 4 12c23 1 34 3 44 9c5 2 12 14 19 30zM401 60c5 -29 4 -47 -4 -54c-9 -9 -80 -6 -88 -6c-10 1 -16 3 -20 7c-9 8 -10 23 -14 55c-2 15 -3 27 -5 35c-1 10 -3 58 -38 59c-5 1 -8 1 -8 1
c-52 0 -60 -2 -66 -53c-1 -8 -6 -35 -14 -81c-3 -15 -11 -22 -25 -22c-31 -1 -57 -1 -78 0c-28 1 -21 22 -17 51c24 136 95 554 104 609c6 33 14 39 46 39h91c10 -1 18 -3 22 -6c7 -7 11 -25 14 -41c28 -166 99 -585 100 -593zM460 10c5 -29 6 -42 -2 -49
c-13 -11 -18 -11 -99 -11c-10 0 -16 3 -20 7c-6 5 -8 12 -10 25c3 0 7 -1 11 -1c47 0 68 0 80 14c7 8 5 31 -1 68c-1 4 -3 16 -8 49c-8 45 -63 369 -72 427c-6 32 -12 69 -19 110c16 0 19 -2 25 -6c7 -7 11 -25 14 -41c0 -1 102 -592 101 -592zM244 280c0 2 0 8 -1 17
c-2 18 -13 71 -13 74c-1 4 -3 9 -6 15c-6 11 -17 7 -21 0c-7 -19 -13 -50 -16 -92c-1 -5 -1 -10 -1 -13c0 -15 56 -14 58 -1zM224 290c-2 -1 -6 -1 -10 -1h-9v1v3c2 27 5 47 8 62c1 -3 1 -5 2 -9c3 -16 8 -41 9 -51v-5zM231 137c4 0 14 0 19 -30c-40 -1 -42 -7 -48 -53
c-1 -8 -2 -17 -10 -62c-3 -15 -11 -41 -44 -41c-31 0 -36 -1 -57 0s-22 13 -20 31h5c13 0 28 0 43 1c23 0 39 13 43 36l8 43c3 22 6 34 6 40c1 8 4 29 9 33c4 3 23 3 39 3h4l1 -1h2z" />
    <glyph glyph-name="adieresis" unicode="&#xe4;" horiz-adv-x="474" 
d="M141 787c9 1 16 8 16 17c3 23 3 45 0 68c-1 9 -7 15 -16 15c-1 1 -13 1 -34 3c-21 -2 -32 -2 -35 -2c-8 -1 -14 -6 -15 -15c-3 -25 -3 -48 0 -68c2 -9 8 -16 15 -17c21 -3 44 -3 69 -1zM316 787c8 1 16 8 16 17c3 23 3 45 0 68c-2 9 -8 15 -16 15c-1 1 -13 1 -34 3
c-21 -2 -33 -2 -35 -2c-8 -1 -14 -6 -15 -15c-3 -25 -3 -48 0 -68c2 -9 8 -16 15 -17c21 -3 43 -3 69 -1zM208 820c3 -22 4 -33 0 -55c-3 -19 -11 -28 -29 -29c-25 -2 -35 -2 -55 1c-7 1 -13 7 -16 17l-2 14c12 -1 23 0 36 1h1c19 2 31 16 32 34c2 11 3 22 2 35
c10 -1 15 -1 16 -2c8 0 14 -6 15 -16zM383 820c3 -22 4 -33 0 -55c-3 -19 -11 -28 -29 -29c-26 -2 -35 -2 -55 1c-8 1 -14 7 -16 17l-2 14c11 -1 23 0 36 1h1c19 2 31 16 32 34c2 11 3 22 2 35c9 -1 14 -1 16 -2c8 0 14 -6 15 -16zM401 60c5 -29 4 -47 -4 -54
c-9 -9 -80 -6 -88 -6c-10 1 -16 3 -20 7c-9 8 -10 23 -14 55c-2 15 -3 27 -5 35c-1 10 -3 58 -38 59c-5 1 -8 1 -8 1c-52 0 -60 -2 -66 -53c-1 -8 -6 -35 -14 -81c-3 -15 -11 -22 -25 -22c-31 -1 -57 -1 -78 0c-28 1 -21 22 -17 51c24 136 95 554 104 609c6 33 14 39 46 39
h91c10 -1 18 -3 22 -6c7 -7 11 -25 14 -41c28 -166 99 -585 100 -593zM460 10c5 -29 6 -42 -2 -49c-13 -11 -18 -11 -99 -11c-10 0 -16 3 -20 7c-6 5 -8 12 -10 25c3 0 7 -1 11 -1c47 0 68 0 80 14c7 8 5 31 -1 68c-1 4 -3 16 -8 49c-8 45 -63 369 -72 427
c-6 32 -12 69 -19 110c16 0 19 -2 25 -6c7 -7 11 -25 14 -41c0 -1 102 -592 101 -592zM244 280c0 2 0 8 -1 17c-2 18 -13 71 -13 74c-1 4 -3 9 -6 15c-6 11 -17 7 -21 0c-7 -19 -13 -50 -16 -92c-1 -5 -1 -10 -1 -13c0 -15 56 -14 58 -1zM224 290c-2 -1 -6 -1 -10 -1h-9v1v3
c2 27 5 47 8 62c1 -3 1 -5 2 -9c3 -16 8 -41 9 -51v-5zM231 137c4 0 14 0 19 -30c-40 -1 -42 -7 -48 -53c-1 -8 -2 -17 -10 -62c-3 -15 -11 -41 -44 -41c-31 0 -36 -1 -57 0s-22 13 -20 31h5c13 0 28 0 43 1c23 0 39 13 43 36l8 43c3 22 6 34 6 40c1 8 4 29 9 33
c4 3 23 3 39 3h4l1 -1h2z" />
    <glyph glyph-name="agrave" unicode="&#xe0;" horiz-adv-x="474" 
d="M218 763c22 -3 33 -3 52 1c10 1 15 8 15 15c-2 7 -4 15 -7 24c-4 10 -22 61 -26 75c-10 28 -13 36 -24 41c-9 6 -21 7 -52 7c-27 -1 -43 -2 -45 -3c-8 0 -15 -7 -13 -13c2 -7 6 -14 9 -19c17 -27 38 -71 56 -99c5 -6 18 -26 35 -29zM338 770c15 -46 -6 -49 -44 -49
c-27 0 -45 2 -62 22c15 -1 26 1 41 3c18 3 39 8 30 36c-2 7 -4 16 -8 27c-3 7 -12 42 -22 63l22 -3c12 -2 14 -13 24 -41c4 -14 15 -48 19 -58zM401 60c5 -29 4 -47 -4 -54c-9 -9 -80 -6 -88 -6c-10 1 -16 3 -20 7c-9 8 -10 23 -14 55c-2 15 -3 27 -5 35c-1 10 -3 58 -38 59
c-5 1 -8 1 -8 1c-52 0 -60 -2 -66 -53c-1 -8 -6 -35 -14 -81c-3 -15 -11 -22 -25 -22c-31 -1 -57 -1 -78 0c-28 1 -21 22 -17 51c24 136 95 554 104 609c6 33 14 39 46 39h91c10 -1 18 -3 22 -6c7 -7 11 -25 14 -41c28 -166 99 -585 100 -593zM460 10c5 -29 6 -42 -2 -49
c-13 -11 -18 -11 -99 -11c-10 0 -16 3 -20 7c-6 5 -8 12 -10 25c3 0 7 -1 11 -1c47 0 68 0 80 14c7 8 5 31 -1 68c-1 4 -3 16 -8 49c-8 45 -63 369 -72 427c-6 32 -12 69 -19 110c16 0 19 -2 25 -6c7 -7 11 -25 14 -41c0 -1 102 -592 101 -592zM244 280c0 2 0 8 -1 17
c-2 18 -13 71 -13 74c-1 4 -3 9 -6 15c-6 11 -17 7 -21 0c-7 -19 -13 -50 -16 -92c-1 -5 -1 -10 -1 -13c0 -15 56 -14 58 -1zM224 290c-2 -1 -6 -1 -10 -1h-9v1v3c2 27 5 47 8 62c1 -3 1 -5 2 -9c3 -16 8 -41 9 -51v-5zM231 137c4 0 14 0 19 -30c-40 -1 -42 -7 -48 -53
c-1 -8 -2 -17 -10 -62c-3 -15 -11 -41 -44 -41c-31 0 -36 -1 -57 0s-22 13 -20 31h5c13 0 28 0 43 1c23 0 39 13 43 36l8 43c3 22 6 34 6 40c1 8 4 29 9 33c4 3 23 3 39 3h4l1 -1h2z" />
    <glyph glyph-name="amacron" unicode="&#x101;" horiz-adv-x="474" 
d="M284 785c16 0 28 0 34 6c3 4 5 9 5 17c1 6 1 19 1 26c0 41 -2 40 -42 41c-55 1 -109 1 -164 0c-20 0 -30 1 -37 -5c-3 -2 -5 -7 -5 -14c-1 -20 -1 -30 0 -48c1 -17 7 -21 24 -22c43 -2 87 -2 184 -1zM342 825c30 -1 32 -4 32 -41c0 -7 0 -20 -1 -26c0 -8 -2 -13 -5 -17
c-6 -6 -18 -6 -34 -6c-97 -1 -141 -1 -184 1c-17 1 -23 5 -24 22v9c36 -1 80 -1 158 0c16 0 37 0 48 12c6 8 9 17 9 28c1 4 1 9 1 18zM401 60c5 -29 4 -47 -4 -54c-9 -9 -80 -6 -88 -6c-10 1 -16 3 -20 7c-9 8 -10 23 -14 55c-2 15 -3 27 -5 35c-1 10 -3 58 -38 59
c-5 1 -8 1 -8 1c-52 0 -60 -2 -66 -53c-1 -8 -6 -35 -14 -81c-3 -15 -11 -22 -25 -22c-31 -1 -57 -1 -78 0c-28 1 -21 22 -17 51c24 136 95 554 104 609c6 33 14 39 46 39h91c10 -1 18 -3 22 -6c7 -7 11 -25 14 -41c28 -166 99 -585 100 -593zM460 10c5 -29 6 -42 -2 -49
c-13 -11 -18 -11 -99 -11c-10 0 -16 3 -20 7c-6 5 -8 12 -10 25c3 0 7 -1 11 -1c47 0 68 0 80 14c7 8 5 31 -1 68c-1 4 -3 16 -8 49c-8 45 -63 369 -72 427c-6 32 -12 69 -19 110c16 0 19 -2 25 -6c7 -7 11 -25 14 -41c0 -1 102 -592 101 -592zM244 280c0 2 0 8 -1 17
c-2 18 -13 71 -13 74c-1 4 -3 9 -6 15c-6 11 -17 7 -21 0c-7 -19 -13 -50 -16 -92c-1 -5 -1 -10 -1 -13c0 -15 56 -14 58 -1zM224 290c-2 -1 -6 -1 -10 -1h-9v1v3c2 27 5 47 8 62c1 -3 1 -5 2 -9c3 -16 8 -41 9 -51v-5zM231 137c4 0 14 0 19 -30c-40 -1 -42 -7 -48 -53
c-1 -8 -2 -17 -10 -62c-3 -15 -11 -41 -44 -41c-31 0 -36 -1 -57 0s-22 13 -20 31h5c13 0 28 0 43 1c23 0 39 13 43 36l8 43c3 22 6 34 6 40c1 8 4 29 9 33c4 3 23 3 39 3h4l1 -1h2z" />
    <glyph glyph-name="aogonek" unicode="&#x105;" horiz-adv-x="454" 
d="M369 -131l11 -25c6 -13 2 -26 -9 -33c-21 -12 -42 -20 -64 -20c-74 0 -102 34 -102 83c0 39 14 71 45 117c7 10 8 17 7 32c0 7 -4 51 -7 74c-1 10 -3 58 -38 59c-5 1 -8 1 -8 1c-52 0 -60 -2 -66 -53c-1 -8 -6 -35 -14 -81c-3 -15 -11 -22 -25 -22c-31 -1 -57 -1 -78 0
c-28 1 -21 22 -17 51c24 136 95 554 104 609c6 33 14 39 46 39h91c10 -1 18 -3 22 -6c7 -7 11 -25 14 -41c28 -166 99 -585 100 -593c5 -29 4 -46 -4 -54c-11 -11 -26 -8 -45 -27c-32 -33 -40 -62 -40 -85c0 -14 8 -24 20 -24c9 0 15 4 28 10c12 5 23 2 29 -11zM440 10
c5 -22 6 -35 -2 -42c-9 -8 -15 -9 -47 -17c-34 -8 -44 -38 -54 -54c-11 -7 -28 -13 -28 -3c0 36 28 70 50 83c13 8 34 10 41 18s5 31 -1 68c-1 4 -3 16 -8 49c-7 39 -60 352 -72 427c-6 32 -12 69 -19 110c16 0 19 -2 25 -6c7 -7 11 -25 14 -41zM166 281c0 -15 56 -14 58 -1
c0 2 0 8 -1 17c-2 18 -13 71 -13 74c-1 4 -3 9 -6 15c-6 11 -17 7 -21 0c-7 -19 -13 -50 -16 -92c-1 -5 -1 -10 -1 -13zM204 290c-2 -1 -6 -1 -10 -1h-9v1v3c2 27 5 47 8 62c1 -3 1 -5 2 -9c3 -16 8 -41 9 -51v-5zM211 137c4 0 14 0 19 -30c-40 -1 -42 -7 -48 -53
c-1 -8 -2 -17 -10 -62c-3 -15 -11 -41 -44 -41c-31 0 -36 -1 -57 0s-22 13 -20 31h5c13 0 28 0 43 1c23 0 39 13 43 36l8 43c3 22 6 34 6 40c1 8 4 29 9 33c4 3 23 3 39 3h4l1 -1h2zM420 -181l3 -8c5 -13 1 -15 -8 -24c-21 -20 -40 -29 -71 -32c-24 -2 -61 2 -76 22
c12 -3 26 -4 40 -4c27 0 50 9 72 22c15 9 22 23 22 37c7 0 15 -5 18 -13z" />
    <glyph glyph-name="aring" unicode="&#xe5;" horiz-adv-x="471" 
d="M381 60c5 -29 4 -47 -4 -54c-9 -9 -80 -6 -88 -6c-10 1 -16 3 -20 7c-9 8 -10 23 -14 55c-2 15 -3 27 -5 35c-1 10 -3 58 -38 59c-5 1 -8 1 -8 1c-52 0 -60 -2 -66 -53c-1 -8 -6 -35 -14 -81c-3 -15 -11 -22 -25 -22c-31 -1 -57 -1 -78 0c-28 1 -21 22 -17 51
c24 136 97 567 106 623c-16 18 -24 46 -24 83c0 67 35 99 110 99c74 0 108 -32 108 -99c0 -39 -9 -67 -27 -86c28 -164 103 -604 104 -612zM195 718c10 0 25 13 27 33c3 30 -18 39 -27 38c-18 -2 -27 -15 -27 -38c0 -20 7 -33 27 -33zM440 10c5 -29 6 -42 -2 -49
c-13 -11 -18 -11 -99 -11c-10 0 -16 3 -20 7c-6 5 -8 12 -10 25c3 0 7 -1 11 -1c47 0 68 0 80 14c7 8 5 31 -1 68c-1 4 -3 16 -8 49c-7 39 -60 352 -72 427l-22 128c21 28 29 79 24 105c-1 4 5 7 7 2c9 -19 12 -48 12 -74c0 -20 -3 -39 -9 -50l8 -48zM197 771
c3 0 9 -3 9 -11c-7 -5 -12 -13 -13 -24c-5 0 -7 3 -7 15c0 15 3 20 11 20zM224 280c0 2 0 8 -1 17c-2 18 -13 71 -13 74c-1 4 -3 9 -6 15c-6 11 -17 7 -21 0c-7 -19 -13 -50 -16 -92c-1 -5 -1 -10 -1 -13c0 -15 56 -14 58 -1zM204 290c-2 -1 -6 -1 -10 -1h-9v1v3
c2 27 5 47 8 62c1 -3 1 -5 2 -9c3 -16 8 -41 9 -51v-5zM211 137c4 0 14 0 19 -30c-40 -1 -42 -7 -48 -53c-1 -8 -2 -17 -10 -62c-3 -15 -11 -41 -44 -41c-31 0 -36 -1 -57 0s-22 13 -20 31h5c13 0 28 0 43 1c23 0 39 13 43 36l8 43c3 22 6 34 6 40c1 8 4 29 9 33
c4 3 23 3 39 3h4l1 -1h2z" />
    <glyph glyph-name="atilde" unicode="&#xe3;" horiz-adv-x="474" 
d="M264 762c28 0 61 18 85 66c8 16 7 23 0 29c-11 10 -27 22 -33 27c-8 6 -13 5 -18 3c-8 -3 -13 -25 -39 -25c-11 0 -20 8 -31 18c-13 12 -30 18 -51 18c-33 0 -66 -23 -86 -78c-2 -10 -4 -18 4 -24c12 -8 35 -19 44 -24c5 -3 9 -4 12 -3c15 3 9 30 29 31
c11 0 20 -8 31 -18c11 -11 34 -20 53 -20zM399 807c6 -7 8 -13 0 -29c-24 -48 -57 -66 -85 -66c-19 0 -42 9 -53 20l-6 5c-5 5 -7 8 -2 8c4 -1 7 -1 11 -1c40 0 77 28 101 76c2 4 4 7 7 7c9 0 16 -8 27 -20zM180 782c10 -3 21 -18 43 -29c4 -2 4 -3 0 -5
c-12 -6 -10 -25 -23 -28c-3 -1 -6 0 -14 2c-14 5 -25 12 -37 20c-4 3 -5 7 -6 11c4 -1 7 -1 10 -1c16 0 21 6 27 30zM401 60c5 -29 4 -47 -4 -54c-9 -9 -80 -6 -88 -6c-10 1 -16 3 -20 7c-9 8 -10 23 -14 55c-2 15 -3 27 -5 35c-1 10 -3 58 -38 59c-5 1 -8 1 -8 1
c-52 0 -60 -2 -66 -53c-1 -8 -6 -35 -14 -81c-3 -15 -11 -22 -25 -22c-31 -1 -57 -1 -78 0c-28 1 -21 22 -17 51c24 136 95 554 104 609c6 33 14 39 46 39h91c10 -1 18 -3 22 -6c7 -7 11 -25 14 -41c28 -166 99 -585 100 -593zM460 10c5 -29 6 -42 -2 -49
c-13 -11 -18 -11 -99 -11c-10 0 -16 3 -20 7c-6 5 -8 12 -10 25c3 0 7 -1 11 -1c47 0 68 0 80 14c7 8 5 31 -1 68c-1 4 -3 16 -8 49c-8 45 -63 369 -72 427c-6 32 -12 69 -19 110c16 0 19 -2 25 -6c7 -7 11 -25 14 -41c0 -1 102 -592 101 -592zM244 280c0 2 0 8 -1 17
c-2 18 -13 71 -13 74c-1 4 -3 9 -6 15c-6 11 -17 7 -21 0c-7 -19 -13 -50 -16 -92c-1 -5 -1 -10 -1 -13c0 -15 56 -14 58 -1zM224 290c-2 -1 -6 -1 -10 -1h-9v1v3c2 27 5 47 8 62c1 -3 1 -5 2 -9c3 -16 8 -41 9 -51v-5zM231 137c4 0 14 0 19 -30c-40 -1 -42 -7 -48 -53
c-1 -8 -2 -17 -10 -62c-3 -15 -11 -41 -44 -41c-31 0 -36 -1 -57 0s-22 13 -20 31h5c13 0 28 0 43 1c23 0 39 13 43 36l8 43c3 22 6 34 6 40c1 8 4 29 9 33c4 3 23 3 39 3h4l1 -1h2z" />
    <glyph glyph-name="ae" unicode="&#xe6;" horiz-adv-x="658" 
d="M587 693c-5 4 -18 7 -41 7h-213c-32 0 -41 -6 -56 -39c-25 -58 -66 -156 -126 -291l-26 -62c-16 -35 -52 -120 -111 -256c-12 -29 -25 -50 3 -51c21 -1 47 -1 78 0c14 0 25 7 31 22l24 58c11 22 23 22 54 22l66 -1c16 0 30 -8 30 -22c0 -37 -1 -64 8 -72s26 -8 40 -8h187
c21 0 45 -2 47 22c3 24 3 49 1 75c-3 23 -23 21 -53 21h-68c-33 0 -42 11 -44 43c-1 31 -1 58 1 82c2 43 12 48 50 48c9 0 42 0 57 1c14 1 22 8 22 22c2 21 2 42 1 63c-1 24 -7 31 -41 31c-7 1 -19 1 -35 1c-31 0 -33 -1 -45 10c-5 6 -9 16 -9 29c-2 32 -2 65 -1 99
c2 31 11 42 44 42h79c29 0 50 -2 52 22c2 23 3 73 -6 82zM613 610v39c12 -1 15 -3 19 -6c9 -9 7 -44 5 -67c-2 -28 -24 -37 -58 -37h-76c-33 0 -32 -2 -34 -33c-1 -24 -1 -56 0 -79c-26 1 -30 0 -31 22c-1 36 -1 63 0 97c1 22 4 24 25 25h78c44 0 71 -4 72 39zM300 212
c0 -16 -85 -14 -91 1c-2 4 -2 8 0 14c24 59 47 116 71 174c5 13 20 10 20 -4v-185zM567 313c1 14 2 29 2 45c24 0 26 -7 27 -31c1 -21 1 -40 -1 -62c-1 -14 -16 -23 -30 -24c-15 -1 -28 0 -57 0c-38 0 -38 6 -40 -37c-1 -17 0 -47 0 -68h-5c-22 1 -25 3 -26 26
c-1 35 -1 59 1 80c1 22 10 31 32 31h58c34 0 37 6 39 40zM226 222l52 130c2 6 8 5 8 -2l-4 -68c-8 -20 -19 -45 -29 -67c-10 1 -22 2 -27 7zM270 84c8 0 12 -3 12 -4v-27h-47c-31 0 -43 0 -54 -22l-24 -58c-6 -15 -17 -22 -31 -22c-31 -1 -38 -1 -59 0s-19 13 -11 31
c12 0 25 1 39 1c27 0 37 7 48 33l23 58c6 10 7 11 38 11zM602 68c18 -1 29 -4 31 -21c2 -26 2 -36 -1 -60c-2 -24 -26 -37 -47 -37h-187c-14 0 -31 0 -40 8c-4 4 -6 12 -7 24h184c63 0 71 21 67 86z" />
    <glyph glyph-name="b" unicode="b" horiz-adv-x="459" 
d="M410 220c1 50 -13 93 -43 127c-16 19 -16 27 -2 46c61 81 40 216 -25 272c-32 27 -70 40 -117 39c-16 -1 -37 -1 -63 -1c-76 1 -98 3 -108 -7c-4 -4 -6 -19 -6 -43v-589c0 -33 0 -48 7 -56c5 -5 13 -8 24 -8c190 -2 235 -11 293 58c27 32 40 67 39 107c0 23 0 42 1 55z
M174 553c4 25 16 33 42 31c27 -2 46 -14 52 -41c6 -25 10 -59 -9 -92c-6 -10 -15 -17 -28 -21c-70 -23 -64 74 -57 123zM215 566c14 -1 24 -6 30 -17c-8 -3 -27 -2 -27 -35c0 -32 -1 -52 0 -69c-28 -3 -37 32 -29 94c3 26 8 28 26 27zM379 382c30 39 42 92 40 143
c-1 11 -3 15 -1 16c3 1 7 -3 9 -14c13 -58 5 -125 -26 -166c-8 -10 -9 -11 -11 -13l-10 11c-11 13 -9 11 -1 23zM267 151c-12 -22 -33 -32 -64 -31c-35 2 -30 17 -30 91c0 68 -4 81 23 95c28 13 67 -10 78 -41c15 -40 12 -78 -7 -114zM204 290c12 6 32 1 39 -11
c-6 -2 -10 -6 -16 -14c-4 -6 -6 -17 -6 -33v-61v-32c-5 -1 -10 -1 -17 -1c-17 1 -13 -2 -13 73c0 74 -1 71 13 79zM421 273c-1 4 5 4 12 -8c7 -13 13 -38 13 -69c0 -17 3 -48 3 -71c1 -40 -22 -75 -42 -99c-65 -77 -104 -75 -294 -75c-23 0 -34 11 -36 31
c188 -2 242 -13 307 64c30 36 44 76 43 119c0 23 0 42 1 54c0 15 -5 44 -7 54z" />
    <glyph glyph-name="c" unicode="c" horiz-adv-x="448" 
d="M378 240c0 14 -8 22 -22 23c-23 1 -46 1 -67 0c-21 0 -26 -7 -28 -29v-55c-1 -37 -27 -66 -58 -64s-46 30 -49 55c-2 12 -2 25 -2 39c-1 78 -1 174 0 290c0 25 -2 48 18 70c10 11 22 17 36 17c28 0 53 -26 55 -64c1 -63 -4 -67 24 -69c21 -1 41 -1 62 0c24 0 31 6 32 30
c1 30 6 108 -24 144c-33 39 -62 62 -86 71c-8 3 -18 4 -27 5c-13 0 -34 1 -63 0c-10 0 -21 -2 -34 -7c-65 -24 -107 -90 -105 -151c2 -27 2 -77 1 -396c0 -33 6 -59 21 -78c103 -140 287 -84 314 56c4 20 5 57 2 113zM397 482c1 19 3 57 -4 96c-2 10 -3 13 1 13
c3 0 7 -7 9 -11c23 -43 23 -108 22 -138c-1 -24 -17 -36 -37 -36c-21 -1 -32 -1 -53 0c-20 1 -23 4 -24 28c84 0 85 5 86 48zM183 557c8 8 14 11 23 11c7 0 14 -3 20 -8c-21 -10 -24 -39 -24 -75c0 -116 -1 -245 0 -323c0 -10 0 -20 1 -29c-16 2 -28 16 -31 39v1
c-2 10 -2 22 -2 36c-1 78 -1 174 0 290c0 26 -1 42 13 58zM404 216c14 0 23 -9 23 -23c3 -56 -8 -93 -14 -113c-26 -93 -136 -142 -234 -113c-10 3 -9 10 2 8c89 -16 191 37 213 149c4 19 5 50 3 92h7z" />
    <glyph glyph-name="cacute" unicode="&#x107;" horiz-adv-x="448" 
d="M219 763c-22 -3 -33 -3 -52 1c-10 1 -17 8 -15 15c3 9 4 15 7 24c4 10 22 61 26 75c10 28 13 36 24 41c9 6 21 7 52 7c27 -1 43 -2 45 -3c8 0 15 -7 13 -13c-2 -7 -6 -14 -9 -19c-17 -27 -38 -71 -55 -97c-6 -8 -19 -28 -36 -31zM237 723c-18 0 -31 3 -31 20l16 2
c26 5 43 33 47 38c17 25 36 65 53 93c3 2 10 1 12 1c8 -1 14 -8 12 -14c-2 -7 -6 -20 -15 -38c-11 -20 -31 -56 -53 -85c-9 -12 -16 -17 -41 -17zM378 240c0 14 -8 22 -22 23c-23 1 -46 1 -67 0c-21 0 -26 -7 -28 -29v-55c-1 -37 -27 -66 -58 -64s-46 30 -49 55
c-2 12 -2 25 -2 39c-1 78 -1 174 0 290c0 25 -2 48 18 70c10 11 22 17 36 17c28 0 53 -26 55 -64c1 -63 -4 -67 24 -69c21 -1 41 -1 62 0c24 0 31 6 32 30c1 30 6 108 -24 144c-33 39 -62 62 -86 71c-8 3 -18 4 -27 5c-13 0 -34 1 -63 0c-10 0 -21 -2 -34 -7
c-65 -24 -107 -90 -105 -151c2 -27 2 -77 1 -396c0 -33 6 -59 21 -78c103 -140 287 -84 314 56c4 20 5 57 2 113zM397 482c1 19 3 57 -4 96c-2 10 -3 13 1 13c3 0 7 -7 9 -11c23 -43 23 -108 22 -138c-1 -24 -17 -36 -37 -36c-21 -1 -32 -1 -53 0c-20 1 -23 4 -24 28
c84 0 85 5 86 48zM183 557c8 8 14 11 23 11c7 0 14 -3 20 -8c-21 -10 -24 -39 -24 -75c0 -116 -1 -245 0 -323c0 -10 0 -20 1 -29c-16 2 -28 16 -31 39v1c-2 10 -2 22 -2 36c-1 78 -1 174 0 290c0 26 -1 42 13 58zM404 216c14 0 23 -9 23 -23c3 -56 -8 -93 -14 -113
c-26 -93 -136 -142 -234 -113c-10 3 -9 10 2 8c89 -16 191 37 213 149c4 19 5 50 3 92h7z" />
    <glyph glyph-name="ccaron" unicode="&#x10d;" horiz-adv-x="448" 
d="M187 771c9 0 59 0 66 1c4 1 6 3 9 5c14 10 62 122 71 143c3 6 0 13 -6 13c-1 1 -13 2 -43 3c-28 0 -37 -1 -46 -7c-6 -4 -13 -27 -22 -57c-3 -10 -12 -10 -16 0c-9 31 -20 53 -25 57c-10 6 -23 7 -53 7c-20 -1 -31 -2 -32 -3c-6 0 -8 -7 -6 -13c2 -7 8 -19 11 -25
c33 -67 61 -122 68 -122c8 -2 16 -2 24 -2zM359 884c6 0 9 -7 6 -13c-9 -21 -57 -133 -71 -143c-3 -2 -5 -4 -9 -5c-7 -1 -40 -1 -49 -1c-8 0 -16 0 -24 2c-3 0 -10 11 -20 29l64 1c8 0 17 3 23 11c14 19 29 53 59 122c9 -1 20 -2 21 -3zM378 240c0 14 -8 22 -22 23
c-23 1 -46 1 -67 0c-21 0 -26 -7 -28 -29v-55c-1 -37 -27 -66 -58 -64s-46 30 -49 55c-2 12 -2 25 -2 39c-1 78 -1 174 0 290c0 25 -2 48 18 70c10 11 22 17 36 17c28 0 53 -26 55 -64c1 -63 -4 -67 24 -69c21 -1 41 -1 62 0c24 0 31 6 32 30c1 30 6 108 -24 144
c-33 39 -62 62 -86 71c-8 3 -18 4 -27 5c-13 0 -34 1 -63 0c-10 0 -21 -2 -34 -7c-65 -24 -107 -90 -105 -151c2 -27 2 -77 1 -396c0 -33 6 -59 21 -78c103 -140 287 -84 314 56c4 20 5 57 2 113zM397 482c1 19 3 57 -4 96c-2 10 -3 13 1 13c3 0 7 -7 9 -11
c23 -43 23 -108 22 -138c-1 -24 -17 -36 -37 -36c-21 -1 -32 -1 -53 0c-20 1 -23 4 -24 28c84 0 85 5 86 48zM183 557c8 8 14 11 23 11c7 0 14 -3 20 -8c-21 -10 -24 -39 -24 -75c0 -116 -1 -245 0 -323c0 -10 0 -20 1 -29c-16 2 -28 16 -31 39v1c-2 10 -2 22 -2 36
c-1 78 -1 174 0 290c0 26 -1 42 13 58zM404 216c14 0 23 -9 23 -23c3 -56 -8 -93 -14 -113c-26 -93 -136 -142 -234 -113c-10 3 -9 10 2 8c89 -16 191 37 213 149c4 19 5 50 3 92h7z" />
    <glyph glyph-name="ccedilla" unicode="&#xe7;" horiz-adv-x="448" 
d="M356 263c14 -1 22 -9 22 -23c3 -56 2 -93 -2 -113c-14 -73 -71 -124 -138 -135c-11 -2 -18 -8 -21 -18l-5 -14c5 1 10 1 13 1c48 0 73 -26 73 -77c0 -61 -34 -93 -99 -93c-37 0 -71 18 -89 39c-7 7 -9 14 0 23l15 16c6 7 13 9 20 4c9 -7 20 -20 40 -20c19 0 30 10 30 29
c0 14 -6 23 -22 23c-10 0 -12 -3 -18 -6c-5 -2 -8 -1 -10 0l-15 8c-9 4 -8 16 -6 21l17 48c4 12 0 21 -12 26c-31 12 -62 35 -87 69c-15 19 -21 45 -21 78l-1 396c-2 61 40 127 105 151c13 5 24 7 34 7c29 1 50 0 63 0c9 -1 19 -2 27 -5c24 -9 53 -32 86 -71
c30 -36 25 -114 24 -144c-1 -24 -8 -30 -32 -30c-21 -1 -41 -1 -62 0c-28 2 -23 6 -24 69c-2 38 -27 64 -55 64c-14 0 -26 -6 -36 -17c-20 -22 -18 -45 -18 -70c-1 -116 -1 -212 0 -290c0 -14 0 -27 2 -39c3 -25 18 -53 49 -55s57 27 58 64v55c2 22 7 29 28 29
c21 1 44 1 67 0zM403 580c23 -43 23 -108 22 -138c-1 -24 -17 -36 -37 -36c-21 -1 -32 -1 -53 0c-20 1 -23 4 -24 28c84 0 85 5 86 48c1 19 3 57 -4 96c-2 10 -3 13 1 13c3 0 7 -7 9 -11zM226 560c-21 -10 -24 -39 -24 -75c0 -116 -1 -245 0 -323c0 -10 0 -20 1 -29
c-16 2 -28 16 -31 39v1c-2 10 -2 22 -2 36c-1 78 -1 174 0 290c0 26 -1 42 13 58c8 8 14 11 23 11c7 0 14 -3 20 -8zM266 -29c-7 0 -8 6 -1 8c8 2 18 6 22 8c55 26 94 72 107 137c4 19 5 50 3 92h7c14 0 23 -9 23 -23c3 -56 -8 -93 -14 -113c-15 -51 -55 -90 -105 -111
c-1 -1 -12 -4 -14 -5c-3 -1 -7 -3 -11 0c-6 4 -13 7 -17 7zM316 -115c0 3 3 4 4 1c4 -8 6 -22 6 -36c0 -53 -35 -96 -92 -96c-21 0 -41 5 -56 14c-10 6 -9 9 2 7c6 -1 12 -2 19 -2c67 0 106 31 116 90c1 6 2 14 1 22zM197 -118c0 -9 -2 -11 -12 -11c-8 0 -14 4 -21 10
c6 -2 13 -1 19 2c8 4 7 4 10 4c4 0 4 1 4 -5z" />
    <glyph glyph-name="cdotaccent" unicode="&#x10b;" horiz-adv-x="448" 
d="M246 782c8 1 16 8 16 17c3 24 3 48 0 72c-1 9 -8 16 -16 16c-1 1 -14 1 -36 3c-23 -2 -35 -2 -37 -2c-8 -1 -15 -7 -16 -16c-3 -26 -3 -50 0 -72c2 -9 9 -16 16 -17c22 -3 46 -3 73 -1zM312 821c3 -24 3 -48 0 -72c0 -9 -8 -16 -16 -17c-27 -2 -51 -2 -73 1
c-7 1 -14 8 -16 17c-1 5 -1 8 -1 13c12 -1 26 0 41 1c21 2 32 19 33 34c1 13 2 27 2 40c9 0 13 0 14 -1c8 0 15 -7 16 -16zM378 240c0 14 -8 22 -22 23c-23 1 -46 1 -67 0c-21 0 -26 -7 -28 -29v-55c-1 -37 -27 -66 -58 -64s-46 30 -49 55c-2 12 -2 25 -2 39
c-1 78 -1 174 0 290c0 25 -2 48 18 70c10 11 22 17 36 17c28 0 53 -26 55 -64c1 -63 -4 -67 24 -69c21 -1 41 -1 62 0c24 0 31 6 32 30c1 30 6 108 -24 144c-33 39 -62 62 -86 71c-8 3 -18 4 -27 5c-13 0 -34 1 -63 0c-10 0 -21 -2 -34 -7c-65 -24 -107 -90 -105 -151
c2 -27 2 -77 1 -396c0 -33 6 -59 21 -78c103 -140 287 -84 314 56c4 20 5 57 2 113zM397 482c1 19 3 57 -4 96c-2 10 -3 13 1 13c3 0 7 -7 9 -11c23 -43 23 -108 22 -138c-1 -24 -17 -36 -37 -36c-21 -1 -32 -1 -53 0c-20 1 -23 4 -24 28c84 0 85 5 86 48zM183 557
c8 8 14 11 23 11c7 0 14 -3 20 -8c-21 -10 -24 -39 -24 -75c0 -116 -1 -245 0 -323c0 -10 0 -20 1 -29c-16 2 -28 16 -31 39v1c-2 10 -2 22 -2 36c-1 78 -1 174 0 290c0 26 -1 42 13 58zM404 216c14 0 23 -9 23 -23c3 -56 -8 -93 -14 -113c-26 -93 -136 -142 -234 -113
c-10 3 -9 10 2 8c89 -16 191 37 213 149c4 19 5 50 3 92h7z" />
    <glyph glyph-name="d" unicode="d" horiz-adv-x="479" 
d="M237 704v0zM364 77c-63 -94 -101 -77 -282 -77h-4c-10 0 -17 3 -20 6c-8 8 -8 20 -8 56v584c0 15 1 27 1 35c3 24 25 22 44 22c93 1 140 1 142 1c36 0 67 -12 92 -38c49 -50 61 -83 61 -128v-367c0 -36 -9 -67 -26 -94zM169 174c0 -24 -1 -44 18 -52c38 -14 85 12 85 51
v332c0 13 0 22 -1 27c-3 33 -21 50 -53 52c-38 3 -50 -6 -49 -43v-367zM411 579c23 -32 28 -58 28 -91l-1 -333c0 -36 -12 -80 -55 -136c-48 -62 -70 -68 -251 -68h-4c-10 0 -17 2 -20 5c-5 5 -7 12 -8 26c163 -1 210 -18 279 85c20 30 29 66 29 104v367c0 13 -1 26 -4 37
c-1 7 2 9 7 4zM219 507v-370c-32 -8 -32 9 -32 37v367c0 25 1 27 30 25c16 -1 26 -6 31 -17c-22 -8 -29 -13 -29 -42z" />
    <glyph glyph-name="eth" unicode="&#xf0;" horiz-adv-x="476" 
d="M235 704v0zM362 77c-63 -94 -101 -77 -282 -77h-4c-10 0 -17 3 -20 6c-8 8 -8 20 -8 56v244h-25c-17 1 -23 5 -24 22c-1 18 -1 28 0 48c0 7 2 12 5 14c7 6 17 5 37 5h7v251c0 15 1 27 1 35c3 24 25 22 44 22c93 1 140 1 142 1c36 0 67 -12 92 -38c49 -50 61 -83 61 -128
v-367c0 -36 -9 -67 -26 -94zM167 174c0 -24 -1 -44 18 -52c38 -14 85 12 85 51v332c0 13 0 22 -1 27c-3 33 -21 50 -53 52c-38 3 -50 -6 -49 -43v-146h25c40 0 42 0 42 -41c0 -7 0 -20 -1 -26c0 -8 -2 -13 -5 -17c-6 -6 -18 -6 -34 -6h-27v-131zM409 579
c23 -32 27 -58 27 -91v-333c0 -36 -12 -80 -55 -136c-48 -62 -70 -68 -251 -68h-4c-10 0 -17 2 -20 5c-5 5 -7 12 -8 26c163 -1 210 -18 279 85c20 30 29 66 29 104v367c0 13 -1 26 -4 37c-1 7 2 9 7 4zM215 566c16 -1 26 -6 31 -17c-22 -8 -29 -13 -29 -42v-99h-32v133
c0 25 1 27 30 25zM217 262v-125c-32 -8 -32 9 -32 37v113h9c19 0 34 1 44 9c4 4 5 3 5 -3c0 -18 -6 -29 -26 -31z" />
    <glyph glyph-name="dcaron" unicode="&#x10f;" horiz-adv-x="479" 
d="M97 895c-3 6 -9 18 -11 25c-2 6 0 13 6 13c1 1 12 2 32 3c30 0 43 -1 53 -7c5 -4 16 -26 25 -57c4 -10 13 -10 16 0c9 30 16 53 22 57c9 6 18 7 46 7c30 -1 42 -2 43 -3c6 0 9 -7 6 -13c-9 -21 -57 -133 -71 -143c-3 -2 -5 -4 -9 -5c-7 -1 -57 -1 -66 -1
c-8 0 -16 0 -24 2c-7 0 -35 55 -68 122zM258 754c8 0 17 3 23 11c14 19 29 53 59 122c9 -1 20 -2 21 -3c6 0 9 -7 6 -13c-9 -21 -57 -133 -71 -143c-3 -2 -5 -4 -9 -5c-7 -1 -40 -1 -49 -1c-8 0 -16 0 -24 2c-3 0 -10 11 -20 29zM364 77c-63 -94 -101 -77 -282 -77h-4
c-10 0 -17 3 -20 6c-8 8 -8 20 -8 56v584c0 15 1 27 1 35c3 24 25 22 44 22c93 1 140 1 142 1c36 0 67 -12 92 -38c49 -50 61 -83 61 -128v-367c0 -36 -9 -67 -26 -94zM237 704v0zM169 174c0 -24 -1 -44 18 -52c38 -14 85 12 85 51v332c0 13 0 22 -1 27c-3 33 -21 50 -53 52
c-38 3 -50 -6 -49 -43v-367zM411 579c23 -32 28 -58 28 -91l-1 -333c0 -36 -12 -80 -55 -136c-48 -62 -70 -68 -251 -68h-4c-10 0 -17 2 -20 5c-5 5 -7 12 -8 26c163 -1 210 -18 279 85c20 30 29 66 29 104v367c0 13 -1 26 -4 37c-1 7 2 9 7 4zM219 507v-370
c-32 -8 -32 9 -32 37v367c0 25 1 27 30 25c16 -1 26 -6 31 -17c-22 -8 -29 -13 -29 -42z" />
    <glyph glyph-name="dcroat" unicode="&#x111;" horiz-adv-x="476" 
d="M235 704v0zM362 77c-63 -94 -101 -77 -282 -77h-4c-10 0 -17 3 -20 6c-8 8 -8 20 -8 56v244h-25c-17 1 -23 5 -24 22c-1 18 -1 28 0 48c0 7 2 12 5 14c7 6 17 5 37 5h7v251c0 15 1 27 1 35c3 24 25 22 44 22c93 1 140 1 142 1c36 0 67 -12 92 -38c49 -50 61 -83 61 -128
v-367c0 -36 -9 -67 -26 -94zM167 174c0 -24 -1 -44 18 -52c38 -14 85 12 85 51v332c0 13 0 22 -1 27c-3 33 -21 50 -53 52c-38 3 -50 -6 -49 -43v-146h25c40 0 42 0 42 -41c0 -7 0 -20 -1 -26c0 -8 -2 -13 -5 -17c-6 -6 -18 -6 -34 -6h-27v-131zM409 579
c23 -32 27 -58 27 -91v-333c0 -36 -12 -80 -55 -136c-48 -62 -70 -68 -251 -68h-4c-10 0 -17 2 -20 5c-5 5 -7 12 -8 26c163 -1 210 -18 279 85c20 30 29 66 29 104v367c0 13 -1 26 -4 37c-1 7 2 9 7 4zM215 566c16 -1 26 -6 31 -17c-22 -8 -29 -13 -29 -42v-99h-32v133
c0 25 1 27 30 25zM217 262v-125c-32 -8 -32 9 -32 37v113h9c19 0 34 1 44 9c4 4 5 3 5 -3c0 -18 -6 -29 -26 -31z" />
    <glyph glyph-name="e" unicode="e" horiz-adv-x="430" 
d="M363 97c-3 23 -23 20 -53 21h-98c-33 1 -42 11 -44 43c-1 31 -1 58 1 82c2 43 12 48 50 48c29 0 52 0 67 1c14 1 22 8 22 22c2 21 2 42 1 63c-1 24 -7 31 -31 31c-7 1 -19 1 -35 1c-31 0 -53 -1 -65 10c-5 6 -9 16 -9 29c-2 32 -2 65 -1 99c2 31 11 41 44 42h99
c29 0 50 -2 52 22c2 23 3 73 -6 82c-5 4 -18 7 -41 7h-216c-49 0 -50 -2 -50 -52v-582c0 -37 -1 -50 8 -58s26 -8 40 -8h217c21 0 45 -2 47 22c3 24 3 49 1 75zM383 610v39c12 -1 15 -3 19 -6c9 -9 7 -44 5 -67c-2 -28 -24 -37 -58 -37h-97c-33 0 -32 -2 -34 -33
c-1 -24 -1 -56 0 -79c-26 1 -30 0 -31 22c-1 36 -1 63 0 97c1 22 4 24 25 25h99c44 0 71 -4 72 39zM326 313c1 14 2 29 2 45c24 0 26 -7 27 -31c1 -21 1 -40 -1 -62c-1 -14 -16 -23 -30 -24c-15 -1 -38 0 -67 0c-38 0 -38 6 -40 -37c-1 -17 0 -47 0 -68h-5
c-22 1 -25 3 -26 26c-1 35 -1 59 1 80c1 22 10 31 32 31h68c34 0 37 6 39 40zM410 47c0 -76 -8 -95 -70 -96l-192 -1c-14 0 -31 0 -40 8c-5 5 -7 11 -8 24h215c38 0 61 -3 65 38c2 15 3 31 2 47c16 0 28 -3 28 -20z" />
    <glyph glyph-name="eacute" unicode="&#xe9;" horiz-adv-x="430" 
d="M217 763c-22 -3 -33 -3 -52 1c-10 1 -17 8 -15 15c3 9 4 15 7 24c4 10 22 61 26 75c10 28 13 36 24 41c9 6 21 7 52 7c27 -1 43 -2 45 -3c8 0 15 -7 13 -13c-2 -7 -6 -14 -9 -19c-17 -27 -38 -71 -55 -97c-6 -8 -19 -28 -36 -31zM235 723c-18 0 -31 3 -31 20l16 2
c26 5 43 33 47 38c17 25 36 65 53 93c3 2 10 1 12 1c8 -1 14 -8 12 -14c-2 -7 -6 -20 -15 -38c-11 -20 -31 -56 -53 -85c-9 -12 -16 -17 -41 -17zM363 97c-3 23 -23 20 -53 21h-98c-33 1 -42 11 -44 43c-1 31 -1 58 1 82c2 43 12 48 50 48c29 0 52 0 67 1c14 1 22 8 22 22
c2 21 2 42 1 63c-1 24 -7 31 -31 31c-7 1 -19 1 -35 1c-31 0 -53 -1 -65 10c-5 6 -9 16 -9 29c-2 32 -2 65 -1 99c2 31 11 41 44 42h99c29 0 50 -2 52 22c2 23 3 73 -6 82c-5 4 -18 7 -41 7h-216c-49 0 -50 -2 -50 -52v-582c0 -37 -1 -50 8 -58s26 -8 40 -8h217
c21 0 45 -2 47 22c3 24 3 49 1 75zM383 610v39c12 -1 15 -3 19 -6c9 -9 7 -44 5 -67c-2 -28 -24 -37 -58 -37h-97c-33 0 -32 -2 -34 -33c-1 -24 -1 -56 0 -79c-26 1 -30 0 -31 22c-1 36 -1 63 0 97c1 22 4 24 25 25h99c44 0 71 -4 72 39zM326 313c1 14 2 29 2 45
c24 0 26 -7 27 -31c1 -21 1 -40 -1 -62c-1 -14 -16 -23 -30 -24c-15 -1 -38 0 -67 0c-38 0 -38 6 -40 -37c-1 -17 0 -47 0 -68h-5c-22 1 -25 3 -26 26c-1 35 -1 59 1 80c1 22 10 31 32 31h68c34 0 37 6 39 40zM410 47c0 -76 -8 -95 -70 -96l-192 -1c-14 0 -31 0 -40 8
c-5 5 -7 11 -8 24h215c38 0 61 -3 65 38c2 15 3 31 2 47c16 0 28 -3 28 -20z" />
    <glyph glyph-name="ecaron" unicode="&#x11b;" horiz-adv-x="430" 
d="M185 771c9 0 59 0 66 1c4 1 6 3 9 5c14 10 62 122 71 143c3 6 0 13 -6 13c-1 1 -13 2 -43 3c-28 0 -37 -1 -46 -7c-6 -4 -13 -27 -22 -57c-3 -10 -12 -10 -16 0c-9 31 -20 53 -25 57c-10 6 -23 7 -53 7c-20 -1 -31 -2 -32 -3c-6 0 -8 -7 -6 -13c2 -7 8 -19 11 -25
c33 -67 61 -122 68 -122c8 -2 16 -2 24 -2zM357 884c6 0 9 -7 6 -13c-9 -21 -57 -133 -71 -143c-3 -2 -5 -4 -9 -5c-7 -1 -40 -1 -49 -1c-8 0 -16 0 -24 2c-3 0 -10 11 -20 29l64 1c8 0 17 3 23 11c14 19 29 53 59 122c9 -1 20 -2 21 -3zM363 97c-3 23 -23 20 -53 21h-98
c-33 1 -42 11 -44 43c-1 31 -1 58 1 82c2 43 12 48 50 48c29 0 52 0 67 1c14 1 22 8 22 22c2 21 2 42 1 63c-1 24 -7 31 -31 31c-7 1 -19 1 -35 1c-31 0 -53 -1 -65 10c-5 6 -9 16 -9 29c-2 32 -2 65 -1 99c2 31 11 41 44 42h99c29 0 50 -2 52 22c2 23 3 73 -6 82
c-5 4 -18 7 -41 7h-216c-49 0 -50 -2 -50 -52v-582c0 -37 -1 -50 8 -58s26 -8 40 -8h217c21 0 45 -2 47 22c3 24 3 49 1 75zM383 610v39c12 -1 15 -3 19 -6c9 -9 7 -44 5 -67c-2 -28 -24 -37 -58 -37h-97c-33 0 -32 -2 -34 -33c-1 -24 -1 -56 0 -79c-26 1 -30 0 -31 22
c-1 36 -1 63 0 97c1 22 4 24 25 25h99c44 0 71 -4 72 39zM326 313c1 14 2 29 2 45c24 0 26 -7 27 -31c1 -21 1 -40 -1 -62c-1 -14 -16 -23 -30 -24c-15 -1 -38 0 -67 0c-38 0 -38 6 -40 -37c-1 -17 0 -47 0 -68h-5c-22 1 -25 3 -26 26c-1 35 -1 59 1 80c1 22 10 31 32 31h68
c34 0 37 6 39 40zM410 47c0 -76 -8 -95 -70 -96l-192 -1c-14 0 -31 0 -40 8c-5 5 -7 11 -8 24h215c38 0 61 -3 65 38c2 15 3 31 2 47c16 0 28 -3 28 -20z" />
    <glyph glyph-name="ecircumflex" unicode="&#xea;" horiz-adv-x="430" 
d="M98 767c30 0 53 1 63 7c5 4 16 26 25 57c4 10 13 10 16 0c9 -30 16 -53 22 -57c9 -6 28 -7 56 -7c30 1 42 2 43 3c6 0 9 7 6 13c-9 21 -57 133 -71 143c-3 2 -5 4 -9 5c-7 1 -77 1 -86 1c-8 0 -6 0 -14 -2c-17 0 -45 -55 -78 -122c-3 -6 -9 -18 -11 -25
c-2 -6 0 -13 6 -13c1 -1 12 -2 32 -3zM384 772c12 -23 0 -47 -24 -47c-8 0 -15 -1 -30 -1c-29 0 -37 1 -46 7c-3 2 -7 6 -11 18c44 1 47 2 52 2c28 0 28 23 20 40c-15 34 -28 65 -40 89c8 0 21 -2 29 -8c15 -11 39 -79 50 -100zM189 788c3 5 7 5 9 -1c6 -16 10 -24 16 -28
c4 -2 7 -4 12 -6c-9 -24 -12 -27 -69 -27h-29c-6 0 -8 5 -6 11c1 4 1 7 4 12c23 1 34 3 44 9c5 2 12 14 19 30zM363 97c-3 23 -23 20 -53 21h-98c-33 1 -42 11 -44 43c-1 31 -1 58 1 82c2 43 12 48 50 48c29 0 52 0 67 1c14 1 22 8 22 22c2 21 2 42 1 63c-1 24 -7 31 -31 31
c-7 1 -19 1 -35 1c-31 0 -53 -1 -65 10c-5 6 -9 16 -9 29c-2 32 -2 65 -1 99c2 31 11 41 44 42h99c29 0 50 -2 52 22c2 23 3 73 -6 82c-5 4 -18 7 -41 7h-216c-49 0 -50 -2 -50 -52v-582c0 -37 -1 -50 8 -58s26 -8 40 -8h217c21 0 45 -2 47 22c3 24 3 49 1 75zM383 610v39
c12 -1 15 -3 19 -6c9 -9 7 -44 5 -67c-2 -28 -24 -37 -58 -37h-97c-33 0 -32 -2 -34 -33c-1 -24 -1 -56 0 -79c-26 1 -30 0 -31 22c-1 36 -1 63 0 97c1 22 4 24 25 25h99c44 0 71 -4 72 39zM326 313c1 14 2 29 2 45c24 0 26 -7 27 -31c1 -21 1 -40 -1 -62
c-1 -14 -16 -23 -30 -24c-15 -1 -38 0 -67 0c-38 0 -38 6 -40 -37c-1 -17 0 -47 0 -68h-5c-22 1 -25 3 -26 26c-1 35 -1 59 1 80c1 22 10 31 32 31h68c34 0 37 6 39 40zM410 47c0 -76 -8 -95 -70 -96l-192 -1c-14 0 -31 0 -40 8c-5 5 -7 11 -8 24h215c38 0 61 -3 65 38
c2 15 3 31 2 47c16 0 28 -3 28 -20z" />
    <glyph glyph-name="edieresis" unicode="&#xeb;" horiz-adv-x="430" 
d="M131 787c9 1 16 8 16 17c3 23 3 45 0 68c-1 9 -7 15 -16 15c-1 1 -13 1 -34 3c-21 -2 -32 -2 -35 -2c-8 -1 -14 -6 -15 -15c-3 -25 -3 -48 0 -68c2 -9 8 -16 15 -17c21 -3 44 -3 69 -1zM306 787c8 1 16 8 16 17c3 23 3 45 0 68c-2 9 -8 15 -16 15c-1 1 -13 1 -34 3
c-21 -2 -33 -2 -35 -2c-8 -1 -14 -6 -15 -15c-3 -25 -3 -48 0 -68c2 -9 8 -16 15 -17c21 -3 43 -3 69 -1zM198 820c3 -22 4 -33 0 -55c-3 -19 -11 -28 -29 -29c-25 -2 -35 -2 -55 1c-7 1 -13 7 -16 17l-2 14c12 -1 23 0 36 1h1c19 2 31 16 32 34c2 11 3 22 2 35
c10 -1 15 -1 16 -2c8 0 14 -6 15 -16zM373 820c3 -22 4 -33 0 -55c-3 -19 -11 -28 -29 -29c-26 -2 -35 -2 -55 1c-8 1 -14 7 -16 17l-2 14c11 -1 23 0 36 1h1c19 2 31 16 32 34c2 11 3 22 2 35c9 -1 14 -1 16 -2c8 0 14 -6 15 -16zM363 97c-3 23 -23 20 -53 21h-98
c-33 1 -42 11 -44 43c-1 31 -1 58 1 82c2 43 12 48 50 48c29 0 52 0 67 1c14 1 22 8 22 22c2 21 2 42 1 63c-1 24 -7 31 -31 31c-7 1 -19 1 -35 1c-31 0 -53 -1 -65 10c-5 6 -9 16 -9 29c-2 32 -2 65 -1 99c2 31 11 41 44 42h99c29 0 50 -2 52 22c2 23 3 73 -6 82
c-5 4 -18 7 -41 7h-216c-49 0 -50 -2 -50 -52v-582c0 -37 -1 -50 8 -58s26 -8 40 -8h217c21 0 45 -2 47 22c3 24 3 49 1 75zM383 610v39c12 -1 15 -3 19 -6c9 -9 7 -44 5 -67c-2 -28 -24 -37 -58 -37h-97c-33 0 -32 -2 -34 -33c-1 -24 -1 -56 0 -79c-26 1 -30 0 -31 22
c-1 36 -1 63 0 97c1 22 4 24 25 25h99c44 0 71 -4 72 39zM326 313c1 14 2 29 2 45c24 0 26 -7 27 -31c1 -21 1 -40 -1 -62c-1 -14 -16 -23 -30 -24c-15 -1 -38 0 -67 0c-38 0 -38 6 -40 -37c-1 -17 0 -47 0 -68h-5c-22 1 -25 3 -26 26c-1 35 -1 59 1 80c1 22 10 31 32 31h68
c34 0 37 6 39 40zM410 47c0 -76 -8 -95 -70 -96l-192 -1c-14 0 -31 0 -40 8c-5 5 -7 11 -8 24h215c38 0 61 -3 65 38c2 15 3 31 2 47c16 0 28 -3 28 -20z" />
    <glyph glyph-name="edotaccent" unicode="&#x117;" horiz-adv-x="430" 
d="M244 782c8 1 16 8 16 17c3 24 3 48 0 72c-1 9 -8 16 -16 16c-1 1 -14 1 -36 3c-23 -2 -35 -2 -37 -2c-8 -1 -15 -7 -16 -16c-3 -26 -3 -50 0 -72c2 -9 9 -16 16 -17c22 -3 46 -3 73 -1zM310 821c3 -24 3 -48 0 -72c0 -9 -8 -16 -16 -17c-27 -2 -51 -2 -73 1
c-7 1 -14 8 -16 17c-1 5 -1 8 -1 13c12 -1 26 0 41 1c21 2 32 19 33 34c1 13 2 27 2 40c9 0 13 0 14 -1c8 0 15 -7 16 -16zM363 97c-3 23 -23 20 -53 21h-98c-33 1 -42 11 -44 43c-1 31 -1 58 1 82c2 43 12 48 50 48c29 0 52 0 67 1c14 1 22 8 22 22c2 21 2 42 1 63
c-1 24 -7 31 -31 31c-7 1 -19 1 -35 1c-31 0 -53 -1 -65 10c-5 6 -9 16 -9 29c-2 32 -2 65 -1 99c2 31 11 41 44 42h99c29 0 50 -2 52 22c2 23 3 73 -6 82c-5 4 -18 7 -41 7h-216c-49 0 -50 -2 -50 -52v-582c0 -37 -1 -50 8 -58s26 -8 40 -8h217c21 0 45 -2 47 22
c3 24 3 49 1 75zM383 610v39c12 -1 15 -3 19 -6c9 -9 7 -44 5 -67c-2 -28 -24 -37 -58 -37h-97c-33 0 -32 -2 -34 -33c-1 -24 -1 -56 0 -79c-26 1 -30 0 -31 22c-1 36 -1 63 0 97c1 22 4 24 25 25h99c44 0 71 -4 72 39zM326 313c1 14 2 29 2 45c24 0 26 -7 27 -31
c1 -21 1 -40 -1 -62c-1 -14 -16 -23 -30 -24c-15 -1 -38 0 -67 0c-38 0 -38 6 -40 -37c-1 -17 0 -47 0 -68h-5c-22 1 -25 3 -26 26c-1 35 -1 59 1 80c1 22 10 31 32 31h68c34 0 37 6 39 40zM410 47c0 -76 -8 -95 -70 -96l-192 -1c-14 0 -31 0 -40 8c-5 5 -7 11 -8 24h215
c38 0 61 -3 65 38c2 15 3 31 2 47c16 0 28 -3 28 -20z" />
    <glyph glyph-name="egrave" unicode="&#xe8;" horiz-adv-x="430" 
d="M208 763c22 -3 33 -3 52 1c10 1 15 8 15 15c-2 7 -4 15 -7 24c-4 10 -22 61 -26 75c-10 28 -13 36 -24 41c-9 6 -21 7 -52 7c-27 -1 -43 -2 -45 -3c-8 0 -15 -7 -13 -13c2 -7 6 -14 9 -19c17 -27 38 -71 56 -99c5 -6 18 -26 35 -29zM328 770c15 -46 -6 -49 -44 -49
c-27 0 -45 2 -62 22c15 -1 26 1 41 3c18 3 39 8 30 36c-2 7 -4 16 -8 27c-3 7 -12 42 -22 63l22 -3c12 -2 14 -13 24 -41c4 -14 15 -48 19 -58zM363 97c-3 23 -23 20 -53 21h-98c-33 1 -42 11 -44 43c-1 31 -1 58 1 82c2 43 12 48 50 48c29 0 52 0 67 1c14 1 22 8 22 22
c2 21 2 42 1 63c-1 24 -7 31 -31 31c-7 1 -19 1 -35 1c-31 0 -53 -1 -65 10c-5 6 -9 16 -9 29c-2 32 -2 65 -1 99c2 31 11 41 44 42h99c29 0 50 -2 52 22c2 23 3 73 -6 82c-5 4 -18 7 -41 7h-216c-49 0 -50 -2 -50 -52v-582c0 -37 -1 -50 8 -58s26 -8 40 -8h217
c21 0 45 -2 47 22c3 24 3 49 1 75zM383 610v39c12 -1 15 -3 19 -6c9 -9 7 -44 5 -67c-2 -28 -24 -37 -58 -37h-97c-33 0 -32 -2 -34 -33c-1 -24 -1 -56 0 -79c-26 1 -30 0 -31 22c-1 36 -1 63 0 97c1 22 4 24 25 25h99c44 0 71 -4 72 39zM326 313c1 14 2 29 2 45
c24 0 26 -7 27 -31c1 -21 1 -40 -1 -62c-1 -14 -16 -23 -30 -24c-15 -1 -38 0 -67 0c-38 0 -38 6 -40 -37c-1 -17 0 -47 0 -68h-5c-22 1 -25 3 -26 26c-1 35 -1 59 1 80c1 22 10 31 32 31h68c34 0 37 6 39 40zM410 47c0 -76 -8 -95 -70 -96l-192 -1c-14 0 -31 0 -40 8
c-5 5 -7 11 -8 24h215c38 0 61 -3 65 38c2 15 3 31 2 47c16 0 28 -3 28 -20z" />
    <glyph glyph-name="emacron" unicode="&#x113;" horiz-adv-x="430" 
d="M274 785c16 0 28 0 34 6c3 4 5 9 5 17c1 6 1 19 1 26c0 41 -2 40 -42 41c-55 1 -109 1 -164 0c-20 0 -30 1 -37 -5c-3 -2 -5 -7 -5 -14c-1 -20 -1 -30 0 -48c1 -17 7 -21 24 -22c43 -2 87 -2 184 -1zM332 825c30 -1 32 -4 32 -41c0 -7 0 -20 -1 -26c0 -8 -2 -13 -5 -17
c-6 -6 -18 -6 -34 -6c-97 -1 -141 -1 -184 1c-17 1 -23 5 -24 22v9c36 -1 80 -1 158 0c16 0 37 0 48 12c6 8 9 17 9 28c1 4 1 9 1 18zM363 97c-3 23 -23 20 -53 21h-98c-33 1 -42 11 -44 43c-1 31 -1 58 1 82c2 43 12 48 50 48c29 0 52 0 67 1c14 1 22 8 22 22
c2 21 2 42 1 63c-1 24 -7 31 -31 31c-7 1 -19 1 -35 1c-31 0 -53 -1 -65 10c-5 6 -9 16 -9 29c-2 32 -2 65 -1 99c2 31 11 41 44 42h99c29 0 50 -2 52 22c2 23 3 73 -6 82c-5 4 -18 7 -41 7h-216c-49 0 -50 -2 -50 -52v-582c0 -37 -1 -50 8 -58s26 -8 40 -8h217
c21 0 45 -2 47 22c3 24 3 49 1 75zM383 610v39c12 -1 15 -3 19 -6c9 -9 7 -44 5 -67c-2 -28 -24 -37 -58 -37h-97c-33 0 -32 -2 -34 -33c-1 -24 -1 -56 0 -79c-26 1 -30 0 -31 22c-1 36 -1 63 0 97c1 22 4 24 25 25h99c44 0 71 -4 72 39zM326 313c1 14 2 29 2 45
c24 0 26 -7 27 -31c1 -21 1 -40 -1 -62c-1 -14 -16 -23 -30 -24c-15 -1 -38 0 -67 0c-38 0 -38 6 -40 -37c-1 -17 0 -47 0 -68h-5c-22 1 -25 3 -26 26c-1 35 -1 59 1 80c1 22 10 31 32 31h68c34 0 37 6 39 40zM410 47c0 -76 -8 -95 -70 -96l-192 -1c-14 0 -31 0 -40 8
c-5 5 -7 11 -8 24h215c38 0 61 -3 65 38c2 15 3 31 2 47c16 0 28 -3 28 -20z" />
    <glyph glyph-name="eogonek" unicode="&#x119;" horiz-adv-x="407" 
d="M344 -6c-58 -44 -79 -77 -79 -100c0 -14 8 -24 20 -24c9 0 20 4 33 10c12 5 23 2 29 -11l11 -25c6 -13 2 -26 -9 -33c-21 -12 -42 -20 -64 -20c-74 0 -102 34 -102 83c0 26 9 50 24 73c17 25 54 53 -22 53h-88c-14 0 -31 0 -40 8s-8 21 -8 58v582c0 50 1 52 50 52h216
c23 0 36 -3 41 -7c9 -9 8 -59 6 -82c-2 -24 -23 -22 -52 -22h-99c-33 -1 -42 -11 -44 -42c-1 -34 -1 -67 1 -99c0 -13 4 -23 9 -29c12 -11 34 -10 65 -10c16 0 28 0 35 -1c24 0 30 -7 31 -31c1 -21 1 -42 -1 -63c0 -14 -8 -21 -22 -22c-15 -1 -38 -1 -67 -1
c-38 0 -48 -5 -50 -48c-2 -24 -2 -51 -1 -82c2 -32 11 -42 44 -43h98c30 -1 50 2 53 -21c2 -26 2 -51 -1 -75c-1 -10 -8 -22 -17 -28zM217 427c-26 1 -30 0 -31 22c-1 36 -1 63 0 97c1 22 4 24 25 25h99c44 0 71 -4 72 39v39c12 -1 15 -3 19 -6c9 -9 7 -44 5 -67
c-2 -28 -24 -37 -58 -37h-97c-33 0 -32 -2 -34 -33c-1 -24 -1 -56 0 -79zM323 241c-15 -1 -38 0 -67 0c-38 0 -38 6 -40 -37c-1 -17 0 -47 0 -68h-5c-22 1 -25 3 -26 26c-1 35 -1 59 1 80c1 22 10 31 32 31h68c34 0 37 6 39 40c1 14 2 29 2 45c24 0 26 -7 27 -31
c1 -21 1 -40 -1 -62c-1 -14 -16 -23 -30 -24zM379 20c2 15 3 31 2 47c16 0 28 -3 28 -20c0 -58 -6 -81 -34 -92c-32 -13 -52 -44 -61 -58c-13 -7 -32 -11 -31 -1c2 20 26 49 72 83c17 12 21 20 24 41zM397 -181c6 -16 5 -22 -5 -32c-21 -20 -40 -29 -71 -32
c-24 -2 -61 2 -76 22c12 -3 26 -4 40 -4c27 0 50 9 72 22c15 9 22 23 22 37c10 4 15 -5 18 -13z" />
    <glyph glyph-name="f" unicode="f" horiz-adv-x="424" 
d="M358 665c0 32 -5 36 -36 38h-170c-41 0 -64 0 -72 -1c-22 0 -28 -6 -29 -28c-1 -4 -1 -15 -1 -32v-588c0 -54 1 -54 56 -54s55 0 55 55v169c0 42 8 55 28 63c6 2 18 4 36 5c38 0 57 1 55 1c28 1 24 26 24 66c-1 49 -2 51 -52 51c-64 1 -84 -5 -89 32c-1 7 -2 18 -2 32
c1 45 1 73 2 83c2 39 34 34 60 34l43 1h43c25 0 46 -3 48 21c2 16 2 33 1 52zM378 610v39c12 -1 15 -3 19 -6c9 -9 7 -44 5 -67c-2 -28 -24 -37 -58 -37h-97c-33 0 -32 -2 -34 -33c-1 -24 -1 -56 0 -79c-26 1 -30 0 -31 22c-1 36 -1 63 0 97c1 22 4 24 25 25h99
c44 0 71 -4 72 39zM350 327c1 -21 1 -40 -1 -62c-1 -14 -16 -23 -30 -24c-15 -1 -38 0 -67 0c-38 0 -41 6 -41 -37v-35v-164c0 -44 -11 -55 -55 -55c-46 0 -54 0 -56 32h6c63 0 73 2 73 73v114c0 37 0 52 3 73c3 22 10 31 32 31h68c34 0 37 6 39 40c1 14 2 29 2 45
c24 0 26 -7 27 -31z" />
    <glyph glyph-name="g" unicode="g" horiz-adv-x="466" 
d="M343 642c-31 40 -70 60 -116 61h-36c-91 1 -151 -85 -151 -160c1 -28 1 -81 1 -385c0 -24 2 -42 7 -54c32 -75 98 -110 161 -110c39 0 78 8 108 32c80 65 59 113 59 329c0 26 0 37 -8 45c-3 3 -9 6 -18 6c-9 1 -27 1 -54 1c-35 0 -44 0 -53 -1c-16 -1 -24 -9 -25 -24
c-1 -6 -1 -27 -1 -62c0 -18 8 -28 24 -30c33 -5 23 -75 13 -133c-1 -1 -2 -4 -3 -7c-24 -44 -78 -42 -93 7c-6 17 -8 36 -8 57v280c0 48 13 86 48 91s59 -28 60 -61c3 -70 -4 -68 23 -70c24 -1 47 -1 70 0c30 2 24 27 24 56c0 66 4 85 -32 132zM385 601l8 -9
c24 -32 32 -61 32 -99v-33c0 -29 0 -56 -30 -56h-7c-2 3 -4 6 -7 9c-7 6 -19 11 -30 11c-8 1 -22 1 -42 1v10h18c8 0 16 1 25 1c51 3 41 47 41 74c0 52 1 60 -8 91zM200 164c0 -10 0 -19 1 -27c-11 1 -21 9 -26 25v1c-5 13 -7 29 -7 51v280c0 46 12 70 33 73
c8 1 16 -1 23 -7c-27 -14 -24 -72 -24 -116v-280zM426 305c0 -233 1 -252 -79 -317c-31 -25 -69 -37 -112 -37c-17 0 -36 4 -54 12c-6 3 -11 5 -16 9c-6 3 -6 10 3 8c3 -1 10 -2 17 -3c51 -7 106 4 143 35c73 60 73 72 66 344h6c9 0 15 -3 18 -6c8 -8 8 -19 8 -45z" />
    <glyph glyph-name="gbreve" unicode="&#x11f;" horiz-adv-x="466" 
d="M198 765c62 0 121 41 121 125c0 28 -5 36 -20 36h-46c-15 0 -14 -16 -17 -36c-4 -28 -21 -46 -42 -46c-19 0 -35 18 -39 46c-3 19 -8 36 -28 36h-39c-10 0 -17 -7 -17 -39c0 -72 41 -122 127 -122zM338 888c14 0 23 -9 23 -37c0 -74 -68 -126 -132 -126
c-17 0 -39 6 -48 12c-11 7 -10 14 3 12s16 -2 24 -2c78 0 128 55 130 141zM188 885c14 0 16 -9 18 -20c-3 -2 -8 -3 -12 -3c-8 0 -16 8 -19 23h13zM343 642c-31 40 -70 60 -116 61h-36c-91 1 -151 -85 -151 -160c1 -28 1 -81 1 -385c0 -24 2 -42 7 -54
c32 -75 98 -110 161 -110c39 0 78 8 108 32c80 65 59 113 59 329c0 26 0 37 -8 45c-3 3 -9 6 -18 6c-9 1 -27 1 -54 1c-35 0 -44 0 -53 -1c-16 -1 -24 -9 -25 -24c-1 -6 -1 -27 -1 -62c0 -18 8 -28 24 -30c33 -5 23 -75 13 -133c-1 -1 -2 -4 -3 -7c-24 -44 -78 -42 -93 7
c-6 17 -8 36 -8 57v280c0 48 13 86 48 91s59 -28 60 -61c3 -70 -4 -68 23 -70c24 -1 47 -1 70 0c30 2 24 27 24 56c0 66 4 85 -32 132zM385 601l8 -9c24 -32 32 -61 32 -99v-33c0 -29 0 -56 -30 -56h-7c-2 3 -4 6 -7 9c-7 6 -19 11 -30 11c-8 1 -22 1 -42 1v10h18
c8 0 16 1 25 1c51 3 41 47 41 74c0 52 1 60 -8 91zM200 164c0 -10 0 -19 1 -27c-11 1 -21 9 -26 25v1c-5 13 -7 29 -7 51v280c0 46 12 70 33 73c8 1 16 -1 23 -7c-27 -14 -24 -72 -24 -116v-280zM426 305c0 -233 1 -252 -79 -317c-31 -25 -69 -37 -112 -37
c-17 0 -36 4 -54 12c-6 3 -11 5 -16 9c-6 3 -6 10 3 8c3 -1 10 -2 17 -3c51 -7 106 4 143 35c73 60 73 72 66 344h6c9 0 15 -3 18 -6c8 -8 8 -19 8 -45z" />
    <glyph glyph-name="gcommaaccent" unicode="&#x123;" horiz-adv-x="466" 
d="M343 642c-31 40 -70 60 -116 61h-36c-91 1 -151 -85 -151 -160c1 -28 1 -81 1 -385c0 -24 2 -42 7 -54c32 -75 98 -110 161 -110c39 0 78 8 108 32c80 65 59 113 59 329c0 26 0 37 -8 45c-3 3 -9 6 -18 6c-9 1 -27 1 -54 1c-35 0 -44 0 -53 -1c-16 -1 -24 -9 -25 -24
c-1 -6 -1 -27 -1 -62c0 -18 8 -28 24 -30c33 -5 23 -75 13 -133c-1 -1 -2 -4 -3 -7c-24 -44 -78 -42 -93 7c-6 17 -8 36 -8 57v280c0 48 13 86 48 91s59 -28 60 -61c3 -70 -4 -68 23 -70c24 -1 47 -1 70 0c30 2 24 27 24 56c0 66 4 85 -32 132zM385 601l8 -9
c24 -32 32 -61 32 -99v-33c0 -29 0 -56 -30 -56h-7c-2 3 -4 6 -7 9c-7 6 -19 11 -30 11c-8 1 -22 1 -42 1v10h18c8 0 16 1 25 1c51 3 41 47 41 74c0 52 1 60 -8 91zM200 164c0 -10 0 -19 1 -27c-11 1 -21 9 -26 25v1c-5 13 -7 29 -7 51v280c0 46 12 70 33 73
c8 1 16 -1 23 -7c-27 -14 -24 -72 -24 -116v-280zM426 305c0 -233 1 -252 -79 -317c-31 -25 -69 -37 -112 -37c-17 0 -36 4 -54 12c-6 3 -11 5 -16 9c-6 3 -6 10 3 8c3 -1 10 -2 17 -3c51 -7 106 4 143 35c73 60 73 72 66 344h6c9 0 15 -3 18 -6c8 -8 8 -19 8 -45zM202 -266
c16 0 27 5 35 19c29 64 33 86 33 115c0 49 4 56 -17 57s-41 1 -62 0c-11 -1 -17 -6 -18 -17c0 -13 -1 -33 0 -59c0 -10 5 -17 13 -20c15 -7 17 -18 2 -61c-2 -6 -4 -12 -4 -18c0 -9 5 -16 18 -16zM304 -182c0 -29 -1 -49 -38 -110c-9 -15 -31 -10 -31 3s8 12 24 46
c23 48 29 78 29 111v7c20 0 16 -13 16 -57z" />
    <glyph glyph-name="gdotaccent" unicode="&#x121;" horiz-adv-x="466" 
d="M246 782c8 1 16 8 16 17c3 24 3 48 0 72c-1 9 -8 16 -16 16c-1 1 -14 1 -36 3c-23 -2 -35 -2 -37 -2c-8 -1 -15 -7 -16 -16c-3 -26 -3 -50 0 -72c2 -9 9 -16 16 -17c22 -3 46 -3 73 -1zM312 821c3 -24 3 -48 0 -72c0 -9 -8 -16 -16 -17c-27 -2 -51 -2 -73 1
c-7 1 -14 8 -16 17c-1 5 -1 8 -1 13c12 -1 26 0 41 1c21 2 32 19 33 34c1 13 2 27 2 40c9 0 13 0 14 -1c8 0 15 -7 16 -16zM343 642c-31 40 -70 60 -116 61h-36c-91 1 -151 -85 -151 -160c1 -28 1 -81 1 -385c0 -24 2 -42 7 -54c32 -75 98 -110 161 -110c39 0 78 8 108 32
c80 65 59 113 59 329c0 26 0 37 -8 45c-3 3 -9 6 -18 6c-9 1 -27 1 -54 1c-35 0 -44 0 -53 -1c-16 -1 -24 -9 -25 -24c-1 -6 -1 -27 -1 -62c0 -18 8 -28 24 -30c33 -5 23 -75 13 -133c-1 -1 -2 -4 -3 -7c-24 -44 -78 -42 -93 7c-6 17 -8 36 -8 57v280c0 48 13 86 48 91
s59 -28 60 -61c3 -70 -4 -68 23 -70c24 -1 47 -1 70 0c30 2 24 27 24 56c0 66 4 85 -32 132zM385 601l8 -9c24 -32 32 -61 32 -99v-33c0 -29 0 -56 -30 -56h-7c-2 3 -4 6 -7 9c-7 6 -19 11 -30 11c-8 1 -22 1 -42 1v10h18c8 0 16 1 25 1c51 3 41 47 41 74c0 52 1 60 -8 91z
M200 164c0 -10 0 -19 1 -27c-11 1 -21 9 -26 25v1c-5 13 -7 29 -7 51v280c0 46 12 70 33 73c8 1 16 -1 23 -7c-27 -14 -24 -72 -24 -116v-280zM426 305c0 -233 1 -252 -79 -317c-31 -25 -69 -37 -112 -37c-17 0 -36 4 -54 12c-6 3 -11 5 -16 9c-6 3 -6 10 3 8
c3 -1 10 -2 17 -3c51 -7 106 4 143 35c73 60 73 72 66 344h6c9 0 15 -3 18 -6c8 -8 8 -19 8 -45z" />
    </font>
</defs>
</svg>
