<?xml version="1.0" encoding="utf-8"?>
<!-- Generator: Adobe Illustrator 19.0.1, SVG Export Plug-In . SVG Version: 6.00 Build 0)  -->
<svg version="1.1" id="Слой_1" xmlns="http://www.w3.org/2000/svg" xmlns:xlink="http://www.w3.org/1999/xlink" x="0px" y="0px"
	 viewBox="0 0 195.3216095 200.389801" style="enable-background:new 0 0 195.3216095 200.389801;" xml:space="preserve">
<style type="text/css">
	.st0{fill:#FE9A27;}
	.st1{fill:#FEFEFD;}
</style>
<g>
	<path class="st0" d="M0,82.651062c0-0.9096832,0-1.8193665,0.0000001-2.7290421
		c0.1387515-0.2671585,0.3488165-0.5200424,0.4055649-0.8036118c0.8594646-4.2946854,3.2404075-7.4244766,7.1197901-9.4479904
		c1.3804545-0.7200623,2.7409501-1.4838943,4.0739713-2.2883682c4.703805-2.8387299,6.9806833-7.863102,6.0567961-13.2965775
		c-0.3263111-1.9190674-0.7368412-3.8273544-0.9760838-5.7570381c-0.8387985-6.765625,3.6191349-12.8976364,10.3247776-14.0487709
		c2.4845676-0.4265175,5.0491314-0.3640633,7.5558643-0.6892052c5.345211-0.6933136,8.8741951-3.7126637,10.644249-8.7596149
		c0.621315-1.7715492,1.0089836-3.6236649,1.5510254-5.4246387c2.2260017-7.3960314,9.7546844-11.1609001,17.0212402-8.4981604
		c1.8262367,0.6692019,3.5942039,1.4979134,5.4222679,2.1615429c5.0604248,1.8370514,10.430809,0.5035667,14.0637054-3.4604053
		c1.1410217-1.244998,2.222908-2.5440698,3.3589325-3.7937856c5.4423141-5.9869971,13.8947067-6.0661726,19.4183502-0.1780419
		c1.1997681,1.2789211,2.2919846,2.6634483,3.5393066,3.892168c4.047554,3.9872026,8.7817917,5.0564642,14.1336594,3.0865755
		c1.7029724-0.6268196,3.3429871-1.4224863,5.0318069-2.0903254c7.4044495-2.9280691,15.026001,0.7137556,17.4029846,8.3097534
		c0.5422821,1.7328911,0.9742126,3.502924,1.5752716,5.2142963c1.5605164,4.4432125,4.6445923,7.3598614,9.2469177,8.3258381
		c2.4541016,0.5150871,5.0270691,0.4768066,7.5487671,0.6544876c7.4843292,0.5273552,12.6766968,6.4214439,12.1190491,13.8908653
		c-0.1492767,1.9995613-0.5951538,3.9763374-0.8897858,5.9657974c-0.839035,5.6654472,1.5778656,10.594162,6.5843506,13.400383
		c1.4150543,0.7931671,2.867218,1.5199509,4.2858276,2.3069916c7.1486969,3.9659882,9.0795898,12.2457123,4.4347076,19.0085678
		c-0.9190826,1.33815-1.8941193,2.6384048-2.795517,3.9880753c-3.1317444,4.6891174-3.0767212,10.1785583,0.1488342,14.7814484
		c1.0433502,1.4888992,2.1858673,2.9092102,3.2081604,4.4118423c4.2540894,6.2529831,2.4577332,14.4000473-4.0246277,18.2724609
		c-1.671051,0.9982452-3.4163361,1.8729706-5.0799408,2.8828125c-4.6247559,2.8072815-6.8930206,7.8033295-6.0075836,13.1394196
		c0.3079987,1.8561707,0.6965942,3.7003937,0.9563141,5.5629272c0.9587402,6.8755341-3.3527679,13.0446167-10.1710358,14.3437347
		c-2.3447571,0.4467468-4.7770691,0.4312134-7.1685791,0.6360931c-5.3250885,0.4561615-9.5725861,3.8143768-11.1793976,8.8905945
		c-0.5674286,1.7926025-1.002533,3.6266937-1.5451813,5.4276428c-2.172699,7.2108307-9.6039734,11.0211487-16.6985474,8.5348358
		c-1.8345184-0.6429291-3.6044159-1.4677582-5.4231644-2.1585236c-5.2143097-1.9804077-10.6439819-0.6914978-14.4155655,3.4135437
		c-1.0546494,1.1478882-2.0686035,2.3332825-3.0967789,3.5053558c-5.4571228,6.2208557-14.0164337,6.3816071-19.6776352,0.3562469
		c-1.2451935-1.3252716-2.3758774-2.7656403-3.6852341-4.0217285c-3.9820404-3.8200378-8.6256714-4.8192596-13.8265533-2.9452972
		c-1.7067184,0.6149445-3.3473892,1.4107513-5.0331497,2.0867157c-7.4927254,3.0044403-15.1589432-0.6431122-17.5347481-8.3379059
		c-0.535717-1.7350616-0.9661102-3.5065308-1.5788956-5.21315c-1.6176949-4.5053711-4.7814674-7.4169769-9.480957-8.3189697
		c-2.529789-0.4855347-5.1705494-0.3611145-7.7479744-0.6362305c-7.9380932-0.8472443-12.924921-7.5917969-11.4996014-15.4644012
		c0.2658844-1.4685974,0.5093327-2.9416046,0.7382889-4.4164429c0.8308964-5.3522797-1.4898453-10.3157043-6.1553259-13.0632172
		c-1.6204176-0.9542694-3.3235283-1.7670288-4.9595919-2.6959991c-6.8231363-3.8741913-8.764142-12.128067-4.3829589-18.6308365
		c1.0158122-1.5077362,2.1637526-2.9302902,3.1224647-4.4719162c2.9190083-4.6937866,3.0231791-9.5044937-0.0428615-14.1073227
		C3.7320633,89.9259033,1.051801,86.7584381,0,82.651062z"/>
	<path class="st1" d="M0,82.651062c1.051801,4.1073761,3.7320633,7.2748413,6.0159707,10.7034988
		c3.0660405,4.602829,2.9618697,9.4135361,0.0428615,14.1073227c-0.9587121,1.541626-2.1066525,2.96418-3.1224647,4.4719162
		c-4.3811827,6.5027695-2.4401774,14.7566452,4.3829589,18.6308365c1.6360636,0.9289703,3.3391743,1.7417297,4.9595919,2.6959991
		c4.6654806,2.7475128,6.9862223,7.7109375,6.1553259,13.0632172c-0.2289562,1.4748383-0.4724045,2.9478455-0.7382889,4.4164429
		c-1.4253197,7.8726044,3.5615082,14.617157,11.4996014,15.4644012c2.577425,0.275116,5.2181854,0.1506958,7.7479744,0.6362305
		c4.6994896,0.9019928,7.8632622,3.8135986,9.480957,8.3189697c0.6127853,1.7066193,1.0431786,3.4780884,1.5788956,5.21315
		c2.3758049,7.6947937,10.0420227,11.3423462,17.5347481,8.3379059c1.6857605-0.6759644,3.3264313-1.4717712,5.0331497-2.0867157
		c5.200882-1.8739624,9.8445129-0.8747406,13.8265533,2.9452972c1.3093567,1.2560883,2.4400406,2.6964569,3.6852341,4.0217285
		c5.6612015,6.0253601,14.2205124,5.8646088,19.6776352-0.3562469c1.0281754-1.1720734,2.0421295-2.3574677,3.0967789-3.5053558
		c3.7715836-4.1050415,9.2012558-5.3939514,14.4155655-3.4135437c1.8187485,0.6907654,3.5886459,1.5155945,5.4231644,2.1585236
		c7.094574,2.4863129,14.5258484-1.3240051,16.6985474-8.5348358c0.5426483-1.8009491,0.9777527-3.6350403,1.5451813-5.4276428
		c1.6068115-5.0762177,5.8543091-8.434433,11.1793976-8.8905945c2.39151-0.2048798,4.823822-0.1893463,7.1685791-0.6360931
		c6.8182678-1.299118,11.129776-7.4682007,10.1710358-14.3437347c-0.2597198-1.8625336-0.6483154-3.7067566-0.9563141-5.5629272
		c-0.885437-5.3360901,1.3828278-10.3321381,6.0075836-13.1394196c1.6636047-1.0098419,3.4088898-1.8845673,5.0799408-2.8828125
		c6.4823608-3.8724136,8.278717-12.0194778,4.0246277-18.2724609c-1.0222931-1.5026321-2.1648102-2.9229431-3.2081604-4.4118423
		c-3.2255554-4.60289-3.2805786-10.0923309-0.1488342-14.7814484c0.9013977-1.3496704,1.8764343-2.6499252,2.795517-3.9880753
		c4.6448822-6.7628555,2.7139893-15.0425797-4.4347076-19.0085678c-1.4186096-0.7870407-2.8707733-1.5138245-4.2858276-2.3069916
		c-5.006485-2.806221-7.4233856-7.7349358-6.5843506-13.400383c0.294632-1.98946,0.740509-3.9662361,0.8897858-5.9657974
		c0.5576477-7.4694214-4.6347198-13.3635101-12.1190491-13.8908653c-2.521698-0.177681-5.0946655-0.1394005-7.5487671-0.6544876
		c-4.6023254-0.9659767-7.6864014-3.8826256-9.2469177-8.3258381c-0.601059-1.7113724-1.0329895-3.4814053-1.5752716-5.2142963
		c-2.3769836-7.5959978-9.9985352-11.2378225-17.4029846-8.3097534c-1.6888199,0.6678391-3.3288345,1.4635057-5.0318069,2.0903254
		c-5.3518677,1.9698887-10.0861053,0.9006271-14.1336594-3.0865755c-1.2473221-1.2287197-2.3395386-2.6132469-3.5393066-3.892168
		c-5.5236435-5.8881307-13.9760361-5.8089552-19.4183502,0.1780419c-1.1360245,1.2497158-2.2179108,2.5487876-3.3589325,3.7937856
		c-3.6328964,3.9639721-9.0032806,5.2974567-14.0637054,3.4604053c-1.828064-0.6636295-3.5960312-1.492341-5.4222679-2.1615429
		c-7.2665558-2.6627398-14.7952385,1.102129-17.0212402,8.4981604c-0.5420418,1.8009739-0.9297104,3.6530895-1.5510254,5.4246387
		c-1.7700539,5.0469513-5.2990379,8.0663013-10.644249,8.7596149c-2.5067329,0.3251419-5.0712967,0.2626877-7.5558643,0.6892052
		c-6.7056427,1.1511345-11.1635761,7.2831459-10.3247776,14.0487709c0.2392426,1.9296837,0.6497726,3.8379707,0.9760838,5.7570381
		c0.9238873,5.4334755-1.3529911,10.4578476-6.0567961,13.2965775c-1.3330212,0.8044739-2.6935167,1.568306-4.0739713,2.2883682
		c-3.8793824,2.0235138-6.2603254,5.1533051-7.1197901,9.4479904c-0.0567483,0.2835693-0.2668133,0.5364532-0.4055649,0.8036118
		C0,53.2813492,0,26.640686,0,0.0000143C65.1071777,0.0000072,130.2143555,0.0000072,195.3215637,0
		c0.0000153,66.7965546,0.0000153,133.5931244,0.0000458,200.3897095
		c-65.1071014,0.0000458-130.2142334,0.0000458-195.3214874,0.0000916C0,161.1435852,0,121.897316,0,82.651062z"/>
</g>
</svg>
