<?xml version="1.0" encoding="utf-8"?>
<!-- Generator: Adobe Illustrator 19.0.1, SVG Export Plug-In . SVG Version: 6.00 Build 0)  -->
<svg version="1.1" id="Слой_1" xmlns="http://www.w3.org/2000/svg" xmlns:xlink="http://www.w3.org/1999/xlink" x="0px" y="0px"
	 viewBox="0 0 479.9165039 499.8305054" style="enable-background:new 0 0 479.9165039 499.8305054;" xml:space="preserve">
<style type="text/css">
	.st0{fill:#FFFFFF;}
</style>
<g>
	<path class="st0" d="M0,0c159.9443359,0,319.8887024,0,479.9165039,0c0,166.5461884,0,333.1147766,0,499.8305054
		c-159.9164124,0-319.9164429,0-479.9165039,0C0,333.2703552,0,166.646347,0,0z M2.206531,37.8151741
		c7.329021,7.2835884,14.6746693,14.5470085,21.9802837,21.8504868c28.9939823,28.985508,57.977356,57.9816093,86.959259,86.979187
		c3.8005295,3.8025818,4.1315155,11.4754028,0.6462097,15.054245
		c-13.9031754,14.2762299-26.350647,29.5859222-36.2813263,47.0177155
		c-10.8633728,19.0690155-17.9215813,39.3822632-22.5132179,60.6986542
		c-3.4066391,15.8151245-3.6945076,31.8789673-2.8139534,47.8721619c0.6453743,11.7216797,2.3376694,23.4740906,4.6441917,34.99646
		c4.0340958,20.1525574,12.1148415,38.8653259,22.5826836,56.5079346
		c12.7951202,21.565094,29.2416458,40.0352478,48.8126373,55.6173096c3.5110931,2.7954407,8.4763184,5.3147278,12.7811432,5.3327026
		c76.3288574,0.319397,152.6595612,0.2878113,228.98909,0.0645752c3.803772-0.0111084,8.2987061-1.5714722,11.2645874-3.9291077
		c7.7429504-6.1550903,14.8895264-13.0752258,22.0947571-19.8799744c1.5136719-1.4294739,2.2599792-3.6714478,3.7655334-6.2277527
		c20.4058228,20.4155579,39.0601501,39.0787964,57.2897644,57.3171082
		c5.043457-4.9035339,10.1364746-9.8552856,15.3316956-14.9064026
		c-18.2413025-18.225647-36.4846191-36.5107117-54.8233032-54.6996765
		c-2.1610107-2.1433716-2.7808533-3.5298767-0.7380981-6.4021606c4.1504211-5.8357849,7.8663025-12.0132751,11.3766479-18.2658691
		c14.3038025-25.4777832,22.1681824-53.0534363,24.1557922-82.0113525
		c0.9442139-13.7558594-0.5418396-27.7588501-1.8152466-41.5679626
		c-1.9669189-21.3296814-8.8302002-41.4253998-18.0950317-60.5752106
		c-10.150177-20.9797668-23.9931335-39.4806671-40.5853882-55.8592224c-2.294342-2.2648468-3.2735596-4.5089417-3.3032837-7.7732239
		c-0.1497192-16.4341583,0.292511-32.9473572-1.2312317-49.2686691
		c-0.9681091-10.3696136-3.9561768-20.8762665-7.8749695-30.5797653
		c-9.3406372-23.1288033-25.1864014-41.1779556-46.4568176-54.3173409
		c-17.0224609-10.5152998-35.4951782-16.5501328-55.5735474-16.8229561
		c-18.995697-0.2581136-37.9977875-0.0138617-56.9968567-0.0683205
		c-15.8526611-0.0454392-30.7455292,4.0579815-44.9424133,10.6975269
		c-16.2891998,7.618084-30.3235168,18.2897243-41.5045013,32.4987183
		c-11.6842194,14.8485222-20.0041885,31.3056984-23.2983551,50.0408821
		c-1.1748352,6.681778-1.8636169,13.4490128-2.7781754,20.2061539
		c-31.8064957-31.8191986-63.598774-63.6241798-95.2826233-95.3206863
		C12.6532326,27.3963718,7.6062908,32.4298363,2.206531,37.8151741z"/>
	<path d="M2.206531,37.8151741c5.3997598-5.3853378,10.446701-10.4188023,15.7659302-15.7238293
		c31.6838531,31.6965084,63.4761314,63.5014877,95.2826233,95.3206863
		c0.9145584-6.7571411,1.6033401-13.5243759,2.7781754-20.2061539
		c3.2941666-18.7351837,11.6141357-35.1923599,23.2983551-50.0408821
		c11.1809845-14.2089958,25.2153015-24.8806362,41.5045013-32.4987183
		c14.1968842-6.6395454,29.0897522-10.7429667,44.9424133-10.6975269
		c18.9990692,0.0544589,38.0011597-0.1897931,56.9968567,0.0683205
		c20.0783691,0.2728252,38.5510864,6.3076572,55.5735474,16.8229561
		c21.2704163,13.1393852,37.1161804,31.1885376,46.4568176,54.3173409
		c3.9187927,9.7034988,6.9068604,20.2101517,7.8749695,30.5797653c1.5237427,16.321312,1.0815125,32.8345108,1.2312317,49.2686691
		c0.0297241,3.2642822,1.0089417,5.5083771,3.3032837,7.7732239c16.5922546,16.3785553,30.4352112,34.8794556,40.5853882,55.8592224
		c9.2648315,19.1498108,16.1281128,39.2455292,18.0950317,60.5752106
		c1.273407,13.8091125,2.7594604,27.8121033,1.8152466,41.5679626
		c-1.9876099,28.9579163-9.8519897,56.5335693-24.1557922,82.0113525
		c-3.5103455,6.252594-7.2262268,12.4300842-11.3766479,18.2658691c-2.0427551,2.8722839-1.4229126,4.2587891,0.7380981,6.4021606
		c18.3386841,18.1889648,36.5820007,36.4740295,54.8233032,54.6996765
		c-5.1952209,5.0511169-10.2882385,10.0028687-15.3316956,14.9064026
		c-18.2296143-18.2383118-36.8839417-36.9015503-57.2897644-57.3171082
		c-1.5055542,2.5563049-2.2518616,4.7982788-3.7655334,6.2277527c-7.2052307,6.8047485-14.3518066,13.724884-22.0947571,19.8799744
		c-2.9658813,2.3576355-7.4608154,3.9179993-11.2645874,3.9291077c-76.3295288,0.2232361-152.6602325,0.2548218-228.98909-0.0645752
		c-4.3048248-0.0179749-9.27005-2.537262-12.7811432-5.3327026c-19.5709915-15.5820618-36.0175171-34.0522156-48.8126373-55.6173096
		c-10.4678421-17.6426086-18.5485878-36.3553772-22.5826836-56.5079346
		c-2.3065224-11.5223694-3.9988174-23.2747803-4.6441917-34.99646c-0.8805542-15.9931946-0.5926857-32.0570374,2.8139534-47.8721619
		c4.5916367-21.316391,11.6498451-41.6296387,22.5132179-60.6986542
		c9.9306793-17.4317932,22.3781509-32.7414856,36.2813263-47.0177155c3.4853058-3.5788422,3.1543198-11.2516632-0.6462097-15.054245
		c-28.9819031-28.9975815-57.9652748-57.9936829-86.959259-86.979187
		C16.8812008,52.3621826,9.535552,45.0987625,2.206531,37.8151741z M402.4277344,406.6141052
		c3.061554-4.9675598,6.0635071-9.3945618,8.6234131-14.0639038c16.9313049-30.8836365,25.6837769-63.6740112,21.8399048-99.0696411
		c-1.2106323-11.1479797-3.1283569-22.3202515-5.9073486-33.1781311
		c-8.8333435-34.513031-27.4858398-63.0111389-54.3112183-86.3317871c-1.4828796-1.2891693-2.5285645-3.903717-2.5540466-5.9168243
		c-0.2044678-16.160675,0.1416931-32.3311005-0.237915-48.4854584c-0.1564941-6.6592484-1.1533813-13.4097824-2.6781616-19.9051514
		c-4.6974792-20.0106125-14.8963013-36.6453972-30.8190613-49.9463425
		c-17.0325012-14.2279701-36.4428406-21.4691296-58.505127-21.712492
		c-14.6618347-0.1617298-29.3313293,0.1996956-43.9893646-0.0852909
		c-21.3784943-0.4156494-40.7268066,5.335186-57.935791,18.0702934
		c-17.6355591,13.0507851-29.1625061,30.1677208-35.0714111,51.3627892
		c-3.7239838,13.3577576-2.496048,26.8746948-2.9598083,40.3690414c-0.1191864,3.4677734,1.0056305,5.8101501,3.4240265,8.2251129
		c85.6024628,85.4808502,171.1369629,171.0297852,256.6875916,256.562561
		C399.2915039,403.7666931,400.6326294,404.9414673,402.4277344,406.6141052z M136.0409698,172.3680115
		c-7.5703888,7.9360809-15.6330948,15.3669434-22.4727173,23.7908325
		c-11.0456467,13.604187-19.863327,28.6460571-26.6848755,44.9039612
		c-7.1519852,17.0454102-11.4400253,34.7996826-12.7132263,53.0597534
		c-1.8374252,26.3521423,1.8485336,52.1072388,11.8695831,76.749054
		c11.4049454,28.0447998,28.7412033,51.7962952,51.784256,71.401886c3.2144318,2.7349548,6.7258759,3.841217,11.1778107,3.8298645
		c68.4993591-0.1746521,136.9993286-0.1448059,205.4990845-0.0823059c6.1236877,0.0055847,12.0299072,0.4760437,16.645874-4.9978333
		c5.1951599-6.160675,10.9105225-11.8826599,16.0888367-17.4607239
		C304.0278625,340.3548279,220.4940948,256.821106,136.0409698,172.3680115z"/>
	<path class="st0" d="M402.4277344,406.6141052c-1.795105-1.6726379-3.1362305-2.8474121-4.3943176-4.1052246
		c-85.5506287-85.5327759-171.0851288-171.0817108-256.6875916-256.562561
		c-2.418396-2.4149628-3.5432129-4.7573395-3.4240265-8.2251129c0.4637604-13.4943466-0.7641754-27.0112839,2.9598083-40.3690414
		c5.908905-21.1950684,17.4358521-38.3120041,35.0714111-51.3627892
		c17.2089844-12.7351074,36.5572968-18.4859428,57.935791-18.0702934
		c14.6580353,0.2849865,29.3275299-0.0764389,43.9893646,0.0852909c22.0622864,0.2433624,41.4726257,7.4845219,58.505127,21.712492
		c15.92276,13.3009453,26.121582,29.93573,30.8190613,49.9463425c1.5247803,6.495369,2.5216675,13.245903,2.6781616,19.9051514
		c0.3796082,16.1543579,0.0334473,32.3247833,0.237915,48.4854584c0.0254822,2.0131073,1.071167,4.627655,2.5540466,5.9168243
		c26.8253784,23.3206482,45.4778748,51.8187561,54.3112183,86.3317871
		c2.7789917,10.8578796,4.6967163,22.0301514,5.9073486,33.1781311
		c3.8438721,35.3956299-4.9085999,68.1860046-21.8399048,99.0696411
		C408.4912415,397.2195435,405.4892883,401.6465454,402.4277344,406.6141052z M254.2544403,61.9817848
		c-10.9918671,0-21.9918671-0.2648926-32.9734344,0.0714111c-11.9768066,0.3667793-22.3738098,5.3435936-30.4549713,13.8684349
		c-9.0881348,9.5871048-13.2188568,21.2156906-13.0084076,34.8848724
		c0.3726654,24.2056732,21.6085205,45.0629425,45.1852875,45.1552429
		c15.9879303,0.0625763,31.9771729,0.1082916,47.9640961-0.0328674c6.9239197-0.061142,13.9607544,0.0804749,20.7434692-1.0680389
		c21.8296509-3.6963654,35.8534851-19.8692932,38.0823059-41.0793533
		c2.9062195-27.6567993-18.2419128-52.0985489-47.0595398-51.8146172
		C273.2411804,62.0603905,263.7474365,61.9816055,254.2544403,61.9817848z"/>
	<path class="st0" d="M136.0409698,172.3680115C220.4940948,256.821106,304.0278625,340.3548279,387.2355957,423.5625
		c-5.1783142,5.578064-10.8936768,11.3000488-16.0888367,17.4607239c-4.6159668,5.473877-10.5221863,5.003418-16.645874,4.9978333
		c-68.4997559-0.0625-136.9997253-0.0923462-205.4990845,0.0823059c-4.4519348,0.0113525-7.9633789-1.0949097-11.1778107-3.8298645
		c-23.0430527-19.6055908-40.3793106-43.3570862-51.784256-71.401886
		c-10.0210495-24.6418152-13.7070084-50.3969116-11.8695831-76.749054
		c1.273201-18.2600708,5.5612411-36.0143433,12.7132263-53.0597534
		c6.8215485-16.2579041,15.6392288-31.2997742,26.6848755-44.9039612
		C120.4078751,187.7349548,128.4705811,180.3040924,136.0409698,172.3680115z M101.3524475,307.2478943
		c0.8790665,7.8382874,1.6804047,15.6861877,2.652916,23.5128784c2.2229233,17.8899231,8.5410233,34.4161377,17.0217056,50.1845093
		c2.3510056,4.3713379,6.6242371,6.1851807,11.1404877,5.8564758c4.873764-0.3547668,8.8004761-2.8356323,10.866394-7.9121399
		c2.5062561-6.1584778-0.9076996-10.8338318-3.4223633-15.6075439
		c-8.4629974-16.0657349-12.3400269-33.3786316-13.415123-51.2409363c-0.4991379-8.2931519,0.851387-16.7470398,1.8464584-25.070343
		c2.030838-16.9869995,8.4803619-32.4624481,17.4327087-46.8624878c4.041214-6.500351,9.0564728-12.3885345,13.4842377-18.6572571
		c3.7180481-5.2639618,2.8754883-12.9822083-1.6013641-16.5881958c-5.2976685-4.2671356-11.9789734-3.994751-16.7353516,1.1047211
		c-4.0313721,4.3222046-8.1021118,8.7216339-11.3939972,13.600647
		C111.3902283,246.007843,101.8486938,275.1039734,101.3524475,307.2478943z"/>
	<path d="M254.2544403,61.9816933c9.4929962-0.0000877,18.9867401,0.0786972,28.4788055-0.0148239
		c28.817627-0.2839317,49.9657593,24.1578178,47.0595398,51.8146172
		c-2.2288208,21.2100601-16.252655,37.382988-38.0823059,41.0793533c-6.7827148,1.1485138-13.8195496,1.006897-20.7434692,1.0680389
		c-15.9869232,0.1411591-31.9761658,0.0954437-47.9640961,0.0328674
		c-23.576767-0.0923004-44.8126221-20.9495697-45.1852875-45.1552429
		c-0.2104492-13.6691818,3.9202728-25.2977676,13.0084076-34.8848724
		c8.0811615-8.5248413,18.4781647-13.5016556,30.4549713-13.8684349
		C232.2625732,61.7168922,243.2625732,61.9817848,254.2544403,61.9816933z M253.9964905,85.9737015
		c-8.6650238,0-17.3313751-0.0866241-25.9943542,0.0463104c-3.0903473,0.0474319-6.2656555,0.2636108-9.2421112,1.0269547
		c-12.1159058,3.1072464-19.598526,17.1206818-15.8680115,27.9656067
		c3.9399719,11.4537811,11.3479156,16.4851685,23.168335,16.833725c17.6479645,0.5203857,35.3228607,0.1833649,52.985672,0.0897369
		c3.0876465-0.0163727,6.2814026-0.2292175,9.2388-1.0371857c11.8209534-3.2295151,18.3946533-13.9893494,17.5258484-23.2812195
		c-1.2569275-13.4431686-13.2829285-22.154007-24.8219299-21.712677
		C272.0035706,86.2485962,262.9947815,85.9737091,253.9964905,85.9737015z"/>
	<path d="M101.3524475,307.2478943c0.4962463-32.1439209,10.0377808-61.2400513,27.876709-87.6796722
		c3.2918854-4.8790131,7.3626251-9.2784424,11.3939972-13.600647c4.7563782-5.099472,11.4376831-5.3718567,16.7353516-1.1047211
		c4.4768524,3.6059875,5.3194122,11.324234,1.6013641,16.5881958c-4.4277649,6.2687225-9.4430237,12.1569061-13.4842377,18.6572571
		c-8.9523468,14.4000397-15.4018707,29.8754883-17.4327087,46.8624878
		c-0.9950714,8.3233032-2.3455963,16.7771912-1.8464584,25.070343c1.0750961,17.8623047,4.9521255,35.1752014,13.415123,51.2409363
		c2.5146637,4.7737122,5.9286194,9.4490662,3.4223633,15.6075439c-2.065918,5.0765076-5.99263,7.557373-10.866394,7.9121399
		c-4.5162506,0.3287048-8.7894821-1.4851379-11.1404877-5.8564758
		c-8.4806824-15.7683716-14.7987823-32.2945862-17.0217056-50.1845093
		C103.0328522,322.934082,102.231514,315.0861816,101.3524475,307.2478943z"/>
	<path class="st0" d="M253.9964905,85.9737015c8.998291,0.0000076,18.0070801,0.2748947,26.9922485-0.0687485
		c11.5390015-0.44133,23.5650024,8.2695084,24.8219299,21.712677c0.8688049,9.2918701-5.704895,20.0517044-17.5258484,23.2812195
		c-2.9573975,0.8079681-6.1511536,1.020813-9.2388,1.0371857c-17.6628113,0.0936279-35.3377075,0.4306488-52.985672-0.0897369
		c-11.8204193-0.3485565-19.228363-5.3799438-23.168335-16.833725
		c-3.7305145-10.8449249,3.7521057-24.8583603,15.8680115-27.9656067c2.9764557-0.7633438,6.1517639-0.9795227,9.2421112-1.0269547
		C236.6651154,85.8870773,245.3314667,85.9737015,253.9964905,85.9737015z"/>
</g>
</svg>
