<?xml version="1.0" encoding="utf-8"?>
<!-- Generator: Adobe Illustrator 19.0.1, SVG Export Plug-In . SVG Version: 6.00 Build 0)  -->
<svg version="1.1" id="Слой_1" xmlns="http://www.w3.org/2000/svg" xmlns:xlink="http://www.w3.org/1999/xlink" x="0px" y="0px"
	 viewBox="0 0 660 680" style="enable-background:new 0 0 660 680;" xml:space="preserve">
<style type="text/css">
	.st0{fill:#FFFFFF;}
</style>
<g>
	<path class="st0" d="M1,681C1,454.3333435,1,227.6666718,1,1c220,0,440,0,660,0c0,226.6666718,0,453.3333435,0,680
		C441,681,221,681,1,681z M156.1616058,230.7726898c-14.6156158,1.4435577-27.102005,6.5417633-36.7272034,18.1720734
		c-13.1561127,15.896698-15.6002197,40.6433716-3.8014679,58.059906
		c8.8850327,13.115448,18.690567,25.6082153,28.1136017,38.3580322
		c20.688446,27.9924011,41.3409576,56.0115662,62.1085052,83.9451904
		c18.9268799,25.4577332,38.0101166,50.7991638,56.9673462,76.2344055c3.915863,5.2540283,9.7089233,6.8986206,14.3312988,3.758728
		c5.1668091-3.5097351,6.2942505-9.5222778,2.5594177-15.0462952c-3.1058655-4.593689-6.4581604-9.0235291-9.7701416-13.4746704
		c-14.9330292-20.069458-29.894043-40.118103-44.8381348-60.1793213
		c-15.0388641-20.188385-30.0879517-40.3692322-45.0986938-60.5785217
		c-14.8134003-19.943634-29.1982117-40.2209167-44.5012817-59.7805176
		c-11.3961639-14.565979-8.4860229-33.3002014,5.3605652-43.5184021c12.5683899-9.2749329,29.705307-6.8183746,39.4464569,6.0332642
		c12.0496368,15.8972778,23.9458923,31.9111938,35.8574829,47.9125977
		c16.9803314,22.8105469,33.8863373,45.6764832,50.9194794,68.4474182c1.4215088,1.9003601,3.3205261,3.7921448,5.4244995,4.7639465
		c5.0614929,2.3378601,8.6086121,1.2182617,12.1933594-3.0858154c3.1711121-3.8075562,3.2348633-7.8466797-0.5073853-12.9996033
		c-9.412262-12.9603271-18.98703-25.8034668-28.5682983-38.6400757
		c-15.161499-20.3128357-30.4314117-40.5447998-45.5630798-60.8797607
		c-15.9005737-21.3682098-31.6368408-42.8588409-47.5659485-64.2056427
		c-4.7534943-6.3702393-8.9741669-12.9523773-9.4523926-21.0843048
		c-0.763916-12.9899445,7.5338898-25.1390533,20.1364594-29.6080322
		c10.4757385-3.7147827,24.5431671,0.1004486,31.2086639,9.3751221c5.0580902,7.0380554,10.4665375,13.8231812,15.6384583,20.780777
		c18.036377,24.2636719,36.0149231,48.5703278,54.0590515,72.8282318
		c16.7846985,22.5647278,33.6194763,45.0922546,50.4468079,67.6252441
		c2.6048279,3.4880066,9.7665405,4.8822327,14.5940857,1.3022766c3.7357483-2.7702942,4.6541748-9.9323425,1.8934326-13.7072144
		c-5.5956421-7.6511536-11.1958313-15.2996521-16.8703918-22.8922119
		c-20.9482422-28.028717-41.968689-56.00354-62.8835144-84.0571289
		c-20.1239471-26.9927826-40.2979279-53.9505005-60.1543427-81.1394806
		c-9.0950165-12.453598-7.3937378-27.766655,3.142746-37.849144c14.5534821-13.926445,32.9652863-10.3647079,43.6154938,3.0064926
		c14.5590668,18.2787094,28.1378326,37.3402481,42.0693207,56.1162872
		c16.7478638,22.5717468,33.4090576,45.2077332,50.1366882,67.7944794
		c17.9934082,24.2959442,36.0105591,48.5743561,54.0432434,72.8411713c2.6878967,3.617157,6.2331848,5.7343445,10.8883667,5.0639343
		c7.2784119-1.0480957,11.6204529-9.5847168,6.4250793-16.5205994
		c-7.7419128-10.3356934-15.3764343-20.7517853-23.1040344-31.0982513
		c-15.0700378-20.1771851-30.2175598-40.2966156-45.2507324-60.5011597
		c-17.948822-24.1230774-35.3174438-48.6981049-53.8773804-72.3394394
		c-13.3384399-16.9903259-12.0364075-36.0109406,3.222168-46.9262848c12.3658447-8.8460121,29.4282837-5.96838,38.6828003,5.4201355
		c5.359314,6.5951385,10.2195129,13.5945892,15.3491516,20.3781815c2.7285767,3.6083298,9.5674133,4.9764404,13.3559875,2.7618256
		c4.5455933-2.6570969,7.0802002-9.2142105,4.1650696-13.2462082c-7.3368225-10.1478119-13.427002-21.2852287-23.4113464-29.4030495
		c-14.0291748-11.4064865-29.8190002-13.6788673-46.6802063-8.9281273
		c-16.6554565,4.6927834-27.1188965,16.1021118-32.3049622,32.509613
		c-20.2309723-19.5483742-45.3203278-19.6319237-62.6369324-8.3295441
		c-25.715271,16.7841263-28.9979858,40.5548782-17.6852417,67.3156357
		c-3.6734467,0.5085449-7.146637,0.7005157-10.4760132,1.4950867c-31.9150238,7.616684-46.6396332,42.2150116-32.9522858,70.01297
		C142.6752625,212.8965454,149.9516144,221.5265808,156.1616058,230.7726898z M616.4120483,484.7243958
		c5.6259155,8.4010925,11.0002441,15.6210938,15.4951172,23.352356c5.0598145,8.7030334-0.1068726,20.5301819-5.5749512,24.9454041
		c-6.9821777,5.6376953-14.3779907,10.7675171-21.6548462,16.0342407
		c-5.0272827,3.6384888-6.1646118,9.8990479-2.6107788,15.1869507c2.7451782,4.0847778,9.6265259,5.1422119,14.1623535,1.9389648
		c6.1340332-4.3320313,12.0377808-8.9920654,18.2006836-13.2809448
		c18.6896362-13.0066528,25.0940552-36.7058716,14.3804321-56.8712463
		c-4.2544556-8.0078125-10.1920166-15.1792603-15.8096924-22.3833313c-3.4022827-4.3629761-4.4605713-8.144165-2.6907349-13.8141479
		c2.4598999-7.8803711,3.8534546-16.2438049,4.5144043-24.495697c0.7456055-9.3089294,0.4048462-18.7306519,0.1194458-28.0905762
		c-0.4636841-15.2068176-4.0338745-29.7626953-10.6445923-43.4574585
		c-6.8033447-14.0939331-10.8076172-28.839325-10.2008667-44.4924316
		c0.4903564-12.6516418,1.4991455-25.3129272,2.9614258-37.8904724c2.5108032-21.5958557,8.350647-42.4488831,14.7610474-63.1854401
		c4.2233276-13.6620941,7.8389282-27.5322418,11.1861572-41.4393158
		c3.3206177-13.7966461-1.6820068-25.7391052-13.4506226-33.6981354
		c-15.793335-10.6807556-32.7609253-14.6705933-51.2011719-8.0108185
		c-14.0808716,5.0853577-24.5964966,14.6722412-32.4141235,27.2945709
		c-9.8390503,15.8861694-17.1505127,32.9986267-22.850708,50.68396
		c-6.0518188,18.7763824-10.9984741,37.9089661-16.3565674,56.6371307
		c-8.6042786-11.6304932-17.7062073-23.9712524-26.8479614-36.2823944
		c-16.955719-22.8342743-33.9355774-45.6506348-50.9037781-68.4756165
		c-12.9711609-17.448349-25.8970642-34.9305878-38.9412231-52.3241501
		c-3.0560608-4.0750427-10.8699951-5.0660858-14.8679504-2.2258377c-3.3048096,2.3478165-4.4814148,9.448555-2.1367188,13.6329498
		c0.9535828,1.7017517,2.1614685,3.2698135,3.3337097,4.8388824c14.1902466,18.9936523,28.4407043,37.9424744,42.5843811,56.9707184
		c14.8173218,19.9345856,29.5054321,39.9651794,44.3063049,59.9120483
		c14.2214966,19.1661072,28.5884705,38.2247314,42.71521,57.460083c2.8508301,3.8817444,6.5751648,4.3451538,10.5139465,3.6641846
		c3.8213501-0.660675,6.8747559-2.8247375,7.524292-7.1877441c0.6237793-4.1898804,1.137207-8.4064636,1.9994507-12.5487671
		c3.6165161-17.3737488,6.4047852-34.9953156,11.3088989-52.0034943
		c4.5393066-15.7427216,10.7577515-31.1012268,17.4568481-46.0833588
		c3.9473267-8.8279724,9.0776367-17.7585602,15.7648926-24.6016083
		c15.0961304-15.4479065,29.961731-17.0046539,49.0142822-3.2477875c3.8509521,2.7805939,5.3847046,7.3092346,4.2781372,11.9489746
		c-1.8468628,7.7429199-4.1686401,15.3773346-6.4373169,23.0138092
		c-4.0769043,13.7236176-8.9387207,27.255127-12.2252197,41.1617126c-3.7826538,16.0057678-7.008606,32.2343903-8.992981,48.5467072
		c-1.7715454,14.5630188-2.5621948,29.4247437-1.8170776,44.0544128c0.5380249,10.5651245,3.8652954,21.0901489,6.7901611,31.394165
		c1.8079224,6.3692322,5.4875488,12.1812134,7.8147583,18.4339905c6.4048462,17.2085266,7.1696777,35.1583252,5.9014893,53.2081604
		c-0.4067993,5.789856-1.9678345,11.5596008-3.522644,17.1945801c-2.8746948,10.4190674-9.3131714,18.9234619-15.4650879,27.5718689
		c-3.7055054,5.2090759-2.5565186,11.6878662,2.3608398,15.0482788c4.5609131,3.1168213,11.1275635,1.5252075,14.7104492-3.5389404
		C613.7764893,488.0606384,614.6881104,486.960144,616.4120483,484.7243958z M462.1940918,670.06427
		c7.1172791,0.4671631,15.1520081-1.4959106,22.2769165-6.2926025c7.4470215-5.0134277,14.7064819-10.3182373,21.8977661-15.6964722
		c24.3505249-18.2110596,48.6230469-36.5263062,72.9535522-54.7642212c4.8341675-3.6236572,6.260376-9.5545654,3.3694458-14.0834961
		c-3.6541748-5.7246094-10.9216919-5.2281494-14.8242798-2.5056763c-3.2205811,2.2466431-6.237854,4.7821655-9.3974609,7.1190186
		c-27.8438721,20.5928345-55.7060852,41.1608276-83.5459595,61.7590942
		c-5.9320679,4.3890381-12.3060913,5.2434692-19.4933472,3.6398315c-9.0018616-2.0084839-13.400238-8.9414673-18.1581421-15.6047363
		c-10.2879639-14.40802-23.3973083-24.975708-40.3258362-30.7578125
		c-9.0773926-3.1004639-18.3061218-6.1268921-26.8051147-10.4785767
		c-20.9508972-10.727356-37.8082886-26.3171387-51.2394104-45.6633301
		c-4.1020813-5.9085693-8.3788452-11.7316284-13.0206909-17.2172241c-3.168396-3.7442017-7.7716675-3.0639038-11.9613037-1.8632202
		c-3.9351807,1.1277466-5.536499,4.7069702-5.0331421,8.1224365c0.5264587,3.5722656,2.1137085,7.319519,4.2382507,10.2694092
		c11.1150208,15.4326782,22.0377502,30.9210815,36.7002258,43.5479736
		c16.4163208,14.137085,34.7815247,24.4536133,55.2457886,30.7543335
		c16.3496094,5.0338745,28.5514832,14.609375,37.9717712,28.5569458
		C431.9908142,662.1537476,443.9871826,670.4055786,462.1940918,670.06427z M102.0600662,429.2507019
		c-1.6175156-2.8390808-2.7790909-6.0948486-4.9289551-8.4474487
		c-11.2067108-12.2635193-23.4071655-23.6949768-33.8481216-36.5630493
		c-13.1615791-16.2210999-23.8627701-34.2118225-32.7932129-53.1834412
		c-2.1596851-4.5879822-8.5376034-6.5492554-13.5158825-4.5190735c-4.3399076,1.7698364-7.1594019,7.5879822-4.9424458,12.1802673
		c5.0217152,10.4021912,9.8770523,21.0073547,16.1482334,30.6535339
		c8.4343777,12.9735413,17.5623531,25.6020813,27.4682865,37.481781
		c9.0462074,10.8486633,19.4013329,20.6271973,29.4457893,30.6095276c3.1476135,3.1281738,7.3097534,2.9860535,11.2282944,0.7787476
		C99.5825729,436.4048462,101.2521896,433.6769409,102.0600662,429.2507019z M442.1588135,13.2014084
		c-4.829834,0.3485804-8.2331238,1.9463224-10.0901489,6.0392208c-2.0648499,4.5509262-0.8132019,8.3381023,2.57901,11.9974976
		c12.2373047,13.201292,24.745697,26.1955051,36.2589111,40.0118866
		c12.5918274,15.1106873,22.0278931,32.3648758,30.7848206,49.9544754c2.8441772,5.7129974,8.8338318,7.619957,14.1292114,4.8501587
		c4.9725952-2.6009521,7.0220947-8.6778717,4.1213379-14.028038c-6.4561157-11.9078598-12.7294312-23.9615173-19.9830627-35.3803329
		c-14.1177368-22.2242165-31.4605103-41.8515244-50.7282715-59.7538528
		C447.3520203,15.1469173,444.5384216,14.4077177,442.1588135,13.2014084z M467.0023804,130.6301117
		c-0.2070007-0.6421356-0.4507141-2.8917694-1.5528259-4.5815125c-9.0828552-13.9256668-17.9873047-27.9890747-27.657074-41.5017548
		c-5.0577698-7.0678101-11.3809814-13.2704163-17.4378967-19.5703354
		c-4.9584656-5.1573792-11.5645447-5.3936539-15.7276917-1.1057625c-4.2137756,4.340023-3.4985046,10.3854866,1.2943726,15.618412
		c6.2195435,6.7906418,12.7009277,13.4614105,18.0157166,20.9333801
		c8.49646,11.9450836,16.1499329,24.4914093,24.1074524,36.8173294c2.5328064,3.923233,7.4190979,5.8777313,12.1290283,4.6426392
		C464.1361084,140.8433533,466.9751282,136.7830658,467.0023804,130.6301117z M74.1900177,310.9738159
		c-0.6257095,0.2138367-2.491066,0.4894409-3.9444046,1.4132385c-5.1588211,3.2791748-6.3999405,8.3277588-3.2130966,14.494812
		c8.2002411,15.8687744,18.2386322,30.5613403,29.6979446,44.2310486
		c5.2040482,6.2078857,10.9750061,11.9575806,16.7188263,17.6843567c1.5108948,1.5063477,3.7978897,2.8017578,5.8701935,3.0609436
		c4.5016251,0.5629578,8.3738785-0.9101257,10.5185318-5.4195557c2.1607208-4.5432434,1.4536896-8.6556091-2.8516464-12.886261
		c-16.8629303-16.5702515-30.6739426-35.3945007-41.9260941-56.1471252
		C82.9928818,313.5922852,80.1227722,310.8429871,74.1900177,310.9738159z"/>
	<path d="M156.1616058,230.7726898c-6.2099915-9.246109-13.4863434-17.8761444-18.3263245-27.70578
		c-13.6873474-27.7979584,1.037262-62.396286,32.9522858-70.01297c3.3293762-0.7945709,6.8025665-0.9865417,10.4760132-1.4950867
		c-11.3127441-26.7607574-8.0300293-50.5315094,17.6852417-67.3156357
		c17.3166046-11.3023796,42.4059601-11.2188301,62.6369324,8.3295441
		c5.1860657-16.4075012,15.6495056-27.8168297,32.3049622-32.509613
		c16.8612061-4.7507401,32.6510315-2.4783592,46.6802063,8.9281273
		c9.9843445,8.1178207,16.0745239,19.2552376,23.4113464,29.4030495c2.9151306,4.0319977,0.3805237,10.5891113-4.1650696,13.2462082
		c-3.7885742,2.2146149-10.6274109,0.8465042-13.3559875-2.7618256
		c-5.1296387-6.7835922-9.9898376-13.7830429-15.3491516-20.3781815
		c-9.2545166-11.3885155-26.3169556-14.2661476-38.6828003-5.4201355
		c-15.2585754,10.9153442-16.5606079,29.9359589-3.222168,46.9262848
		c18.5599365,23.6413345,35.9285583,48.216362,53.8773804,72.3394394
		c15.0331726,20.2045441,30.1806946,40.3239746,45.2507324,60.5011597
		c7.7276001,10.3464661,15.3621216,20.762558,23.1040344,31.0982513c5.1953735,6.9358826,0.8533325,15.4725037-6.4250793,16.5205994
		c-4.6551819,0.6704102-8.20047-1.4467773-10.8883667-5.0639343
		c-18.0326843-24.2668152-36.0498352-48.5452271-54.0432434-72.8411713
		c-16.7276306-22.5867462-33.3888245-45.2227325-50.1366882-67.7944794
		c-13.931488-18.7760391-27.5102539-37.8375778-42.0693207-56.1162872
		c-10.6502075-13.3712006-29.0620117-16.9329376-43.6154938-3.0064926
		c-10.5364838,10.082489-12.2377625,25.395546-3.142746,37.849144
		c19.8564148,27.1889801,40.0303955,54.146698,60.1543427,81.1394806
		c20.9148254,28.0535889,41.9352722,56.0284119,62.8835144,84.0571289
		c5.6745605,7.5925598,11.2747498,15.2410583,16.8703918,22.8922119c2.7607422,3.7748718,1.8423157,10.9369202-1.8934326,13.7072144
		c-4.8275452,3.5799561-11.9892578,2.18573-14.5940857-1.3022766
		c-16.8273315-22.5329895-33.6621094-45.0605164-50.4468079-67.6252441
		c-18.0441284-24.2579041-36.0226746-48.5645599-54.0590515-72.8282318
		c-5.1719208-6.9575958-10.580368-13.7427216-15.6384583-20.780777
		c-6.6654968-9.2746735-20.7329254-13.0899048-31.2086639-9.3751221
		c-12.6025696,4.4689789-20.9003754,16.6180878-20.1364594,29.6080322
		c0.4782257,8.1319275,4.6988983,14.7140656,9.4523926,21.0843048
		c15.9291077,21.3468018,31.6653748,42.8374329,47.5659485,64.2056427
		c15.1316681,20.3349609,30.4015808,40.566925,45.5630798,60.8797607
		c9.5812683,12.8366089,19.1560364,25.6797485,28.5682983,38.6400757c3.7422485,5.1529236,3.6784973,9.1920471,0.5073853,12.9996033
		c-3.5847473,4.3040771-7.1318665,5.4236755-12.1933594,3.0858154c-2.1039734-0.9718018-4.0029907-2.8635864-5.4244995-4.7639465
		c-17.0331421-22.7709351-33.9391479-45.6368713-50.9194794-68.4474182
		c-11.9115906-16.0014038-23.8078461-32.0153198-35.8574829-47.9125977
		c-9.7411499-12.8516388-26.878067-15.308197-39.4464569-6.0332642
		c-13.8465881,10.2182007-16.7567291,28.9524231-5.3605652,43.5184021
		c15.3030701,19.5596008,29.6878815,39.8368835,44.5012817,59.7805176
		c15.0107422,20.2092896,30.0598297,40.3901367,45.0986938,60.5785217
		c14.9440918,20.0612183,29.9051056,40.1098633,44.8381348,60.1793213
		c3.3119812,4.4511414,6.6642761,8.8809814,9.7701416,13.4746704c3.7348328,5.5240173,2.6073914,11.5365601-2.5594177,15.0462952
		c-4.6223755,3.1398926-10.4154358,1.4953003-14.3312988-3.758728
		c-18.9572296-25.4352417-38.0404663-50.7766724-56.9673462-76.2344055
		c-20.7675476-27.9336243-41.4200592-55.9527893-62.1085052-83.9451904
		c-9.4230347-12.7498169-19.228569-25.2425842-28.1136017-38.3580322
		c-11.7987518-17.4165344-9.3546448-42.163208,3.8014679-58.059906
		C129.0596008,237.3144531,141.54599,232.2162476,156.1616058,230.7726898z"/>
	<path d="M616.4120483,484.7243958c-1.723938,2.2357483-2.6355591,3.3362427-3.4584961,4.4993896
		c-3.5828857,5.0641479-10.1495361,6.6557617-14.7104492,3.5389404c-4.9173584-3.3604126-6.0663452-9.8392029-2.3608398-15.0482788
		c6.1519165-8.648407,12.5903931-17.1528015,15.4650879-27.5718689c1.5548096-5.6349792,3.1158447-11.4047241,3.522644-17.1945801
		c1.2681885-18.0498352,0.5033569-35.9996338-5.9014893-53.2081604c-2.3272095-6.2527771-6.0068359-12.0647583-7.8147583-18.4339905
		c-2.9248657-10.3040161-6.2521362-20.8290405-6.7901611-31.394165c-0.7451172-14.6296692,0.0455322-29.491394,1.8170776-44.0544128
		c1.984375-16.3123169,5.2103271-32.5409393,8.992981-48.5467072c3.286499-13.9065857,8.1483154-27.4380951,12.2252197-41.1617126
		c2.2686768-7.6364746,4.5904541-15.2708893,6.4373169-23.0138092c1.1065674-4.63974-0.4271851-9.1683807-4.2781372-11.9489746
		c-19.0525513-13.7568665-33.9181519-12.200119-49.0142822,3.2477875
		c-6.6872559,6.8430481-11.8175659,15.7736359-15.7648926,24.6016083
		c-6.6990967,14.982132-12.9175415,30.3406372-17.4568481,46.0833588
		c-4.9041138,17.0081787-7.6923828,34.6297455-11.3088989,52.0034943
		c-0.8622437,4.1423035-1.3756714,8.3588867-1.9994507,12.5487671c-0.6495361,4.3630066-3.7029419,6.5270691-7.524292,7.1877441
		c-3.9387817,0.6809692-7.6631165,0.2175598-10.5139465-3.6641846c-14.1267395-19.2353516-28.4937134-38.2939758-42.71521-57.460083
		c-14.8008728-19.9468689-29.4889832-39.9774628-44.3063049-59.9120483
		c-14.1436768-19.028244-28.3941345-37.977066-42.5843811-56.9707184c-1.1722412-1.5690689-2.380127-3.1371307-3.3337097-4.8388824
		c-2.344696-4.1843948-1.1680908-11.2851334,2.1367188-13.6329498c3.9979553-2.8402481,11.8118896-1.849205,14.8679504,2.2258377
		c13.0441589,17.3935623,25.9700623,34.8758011,38.9412231,52.3241501
		c16.9682007,22.8249817,33.9480591,45.6413422,50.9037781,68.4756165
		c9.1417542,12.311142,18.2436829,24.6519012,26.8479614,36.2823944
		c5.3580933-18.7281647,10.3047485-37.8607483,16.3565674-56.6371307
		c5.7001953-17.6853333,13.0116577-34.7977905,22.850708-50.68396c7.817627-12.6223297,18.333252-22.2092133,32.4141235-27.2945709
		c18.4402466-6.6597748,35.4078369-2.6699371,51.2011719,8.0108185
		c11.7686157,7.9590302,16.7712402,19.9014893,13.4506226,33.6981354
		c-3.347229,13.907074-6.9628296,27.7772217-11.1861572,41.4393158
		c-6.4104004,20.736557-12.2502441,41.5895844-14.7610474,63.1854401
		c-1.4622803,12.5775452-2.4710693,25.2388306-2.9614258,37.8904724
		c-0.6067505,15.6531067,3.397522,30.3984985,10.2008667,44.4924316
		c6.6107178,13.6947632,10.1809082,28.2506409,10.6445923,43.4574585
		c0.2854004,9.3599243,0.6261597,18.7816467-0.1194458,28.0905762c-0.6609497,8.2518921-2.0545044,16.6153259-4.5144043,24.495697
		c-1.7698364,5.6699829-0.7115479,9.4511719,2.6907349,13.8141479c5.6176758,7.204071,11.5552368,14.3755188,15.8096924,22.3833313
		c10.713623,20.1653748,4.3092041,43.8645935-14.3804321,56.8712463
		c-6.1629028,4.2888794-12.0666504,8.9489136-18.2006836,13.2809448c-4.5358276,3.2032471-11.4171753,2.145813-14.1623535-1.9389648
		c-3.553833-5.2879028-2.4165039-11.5484619,2.6107788-15.1869507c7.2768555-5.2667236,14.6726685-10.3965454,21.6548462-16.0342407
		c5.4680786-4.4152222,10.6347656-16.2423706,5.5749512-24.9454041
		C627.4122925,500.3454895,622.0379639,493.1254883,616.4120483,484.7243958z"/>
	<path d="M462.1940918,670.06427c-18.2069092,0.3413086-30.2032776-7.9105225-39.1509705-21.1583252
		c-9.4202881-13.9475708-21.6221619-23.5230713-37.9717712-28.5569458
		c-20.4642639-6.3007202-38.8294678-16.6172485-55.2457886-30.7543335
		c-14.6624756-12.6268921-25.5852051-28.1152954-36.7002258-43.5479736
		c-2.1245422-2.9498901-3.711792-6.6971436-4.2382507-10.2694092c-0.5033569-3.4154663,1.0979614-6.9946899,5.0331421-8.1224365
		c4.1896362-1.2006836,8.7929077-1.8809814,11.9613037,1.8632202c4.6418457,5.4855957,8.9186096,11.3086548,13.0206909,17.2172241
		c13.4311218,19.3461914,30.2885132,34.9359741,51.2394104,45.6633301
		c8.4989929,4.3516846,17.7277222,7.3781128,26.8051147,10.4785767
		c16.9285278,5.7821045,30.0378723,16.3497925,40.3258362,30.7578125
		c4.7579041,6.663269,9.1562805,13.5962524,18.1581421,15.6047363c7.1872559,1.6036377,13.5612793,0.7492065,19.4933472-3.6398315
		c27.8398743-20.5982666,55.7020874-41.1662598,83.5459595-61.7590942c3.1596069-2.336853,6.1768799-4.8723755,9.3974609-7.1190186
		c3.9025879-2.7224731,11.170105-3.2189331,14.8242798,2.5056763c2.8909302,4.5289307,1.4647217,10.4598389-3.3694458,14.0834961
		c-24.3305054,18.237915-48.6030273,36.5531616-72.9535522,54.7642212
		c-7.1912842,5.3782349-14.4507446,10.6830444-21.8977661,15.6964722
		C477.3460999,668.5683594,469.3113708,670.5314331,462.1940918,670.06427z"/>
	<path d="M102.0600662,429.2507019c-0.8078766,4.426239-2.4774933,7.1541443-5.7380142,8.9908447
		c-3.918541,2.2073059-8.0806808,2.3494263-11.2282944-0.7787476
		c-10.0444565-9.9823303-20.3995819-19.7608643-29.4457893-30.6095276
		c-9.9059334-11.8796997-19.0339088-24.5082397-27.4682865-37.481781
		c-6.2711811-9.6461792-11.1265182-20.2513428-16.1482334-30.6535339
		c-2.2169561-4.5922852,0.6025381-10.4104309,4.9424458-12.1802673c4.9782791-2.0301819,11.3561974-0.0689087,13.5158825,4.5190735
		c8.9304428,18.9716187,19.6316338,36.9623413,32.7932129,53.1834412
		c10.4409561,12.8680725,22.6414108,24.29953,33.8481216,36.5630493
		C99.2809753,423.1558533,100.4425507,426.4116211,102.0600662,429.2507019z"/>
	<path d="M442.1588135,13.2014084c2.3796082,1.2063093,5.1932068,1.945509,7.0718079,3.6910191
		c19.2677612,17.9023266,36.6105347,37.5296326,50.7282715,59.7538528
		c7.2536316,11.4188156,13.526947,23.4724731,19.9830627,35.3803329c2.9007568,5.3501663,0.8512573,11.4270859-4.1213379,14.028038
		c-5.2953796,2.7697983-11.2850342,0.8628387-14.1292114-4.8501587
		c-8.7569275-17.5895996-18.1929932-34.8437881-30.7848206-49.9544754
		c-11.5132141-13.8163834-24.0216064-26.8105965-36.2589111-40.0118866
		c-3.3922119-3.6593952-4.6438599-7.4465714-2.57901-11.9974976
		C433.9256897,15.1477308,437.3289795,13.5499887,442.1588135,13.2014084z"/>
	<path d="M467.0023804,130.6301117c-0.0272522,6.1529541-2.866272,10.2132416-6.8289185,11.2523956
		c-4.7099304,1.2350922-9.5962219-0.7194061-12.1290283-4.6426392
		c-7.9575195-12.3259201-15.6109924-24.8722458-24.1074524-36.8173294
		c-5.3147888-7.4719696-11.7961731-14.1427383-18.0157166-20.9333801c-4.7928772-5.2329254-5.5081482-11.278389-1.2943726-15.618412
		c4.163147-4.2878914,10.7692261-4.0516167,15.7276917,1.1057625c6.0569153,6.2999191,12.380127,12.5025253,17.4378967,19.5703354
		c9.6697693,13.5126801,18.5742188,27.576088,27.657074,41.5017548
		C466.5516663,127.7383423,466.7953796,129.9879761,467.0023804,130.6301117z"/>
	<path d="M74.1900177,310.9738159c5.9327545-0.1308289,8.8028641,2.6184692,10.8702545,6.4314575
		c11.2521515,20.7526245,25.0631638,39.5768738,41.9260941,56.1471252c4.305336,4.2306519,5.0123672,8.3430176,2.8516464,12.886261
		c-2.1446533,4.5094299-6.0169067,5.9825134-10.5185318,5.4195557c-2.0723038-0.2591858-4.3592987-1.5545959-5.8701935-3.0609436
		c-5.7438202-5.7267761-11.5147781-11.4764709-16.7188263-17.6843567
		c-11.4593124-13.6697083-21.4977036-28.3622742-29.6979446-44.2310486
		c-3.1868439-6.1670532-1.9457245-11.2156372,3.2130966-14.494812
		C71.6989517,311.4632568,73.5643082,311.1876526,74.1900177,310.9738159z"/>
</g>
</svg>
