<?xml version="1.0" encoding="utf-8"?>
<!-- Generator: Adobe Illustrator 19.0.1, SVG Export Plug-In . SVG Version: 6.00 Build 0)  -->
<svg version="1.1" id="Слой_1" xmlns="http://www.w3.org/2000/svg" xmlns:xlink="http://www.w3.org/1999/xlink" x="0px" y="0px"
	 viewBox="0 0 1000 392" style="enable-background:new 0 0 1000 392;" xml:space="preserve">
<style type="text/css">
	.st0{fill:#FDFEFE;}
	.st1{fill:#01B6B9;}
	.st2{fill:#01B6BA;}
	.st3{fill:#02B6BA;}
	.st4{fill:#04B6BA;}
	.st5{fill:#0DB9BD;}
	.st6{fill:#0BB8BC;}
	.st7{fill:#11BABE;}
	.st8{fill:#0EB9BD;}
	.st9{fill:#06B7BB;}
	.st10{fill:#0CB9BD;}
	.st11{fill:#14BBBF;}
	.st12{fill:#0FB9BD;}
	.st13{fill:#0AB8BC;}
	.st14{fill:#19BCC0;}
	.st15{fill:#12BABE;}
	.st16{fill:#08B8BB;}
	.st17{fill:#FCFEFE;}
	.st18{fill:#FBFDFD;}
	.st19{fill:#F7FCFC;}
	.st20{fill:#F6FCFC;}
</style>
<g>
	<path class="st0" d="M0,392C0,261.6666565,0,131.3333282,0,1c333.3333435,0,666.666687,0,1000,0c0,130.3333282,0,260.6666565,0,391
		C666.666687,392,333.3333435,392,0,392z M9.1329632,253.5755615c16.2384415,0,31.9671192,0,48.0984344,0
		c0-54.8847504,0-109.4218903,0-163.9590302c1.7524681,1.1923294,2.7224007,2.6331253,3.5897675,4.1332245
		c30.0691986,52.0041504,60.1613693,103.9951477,90.1100006,156.0686798
		c1.8344116,3.1896057,3.8012695,4.2370911,7.4117737,4.1963654c17.6585388-0.199234,35.3205566-0.0902863,52.9813538-0.0903015
		c1.5843658,0,3.1687164,0,4.6380768,0c0-77.7982635,0-154.8284302,0-231.7145691c-16.1358795,0-31.8435516,0-47.815155,0
		c0,27.0798454,0,53.7198181,0,80.359787c0,26.5102234,0,53.0204315,0,79.5306549
		c-1.9046783-1.5580902-2.9551392-3.2064056-3.9308624-4.8978424
		C135.1147156,126.754425,105.9962921,76.3159485,76.9869919,25.8147812
		c-1.6850815-2.9334774-3.455574-4.1719093-6.9624252-4.1361904c-18.825119,0.1917419-37.6532288,0.0837765-56.480278,0.1043606
		c-1.4276934,0.0015602-2.8551722,0.1977806-4.4113274,0.3130398C9.1329632,99.4004974,9.1329632,176.3283691,9.1329632,253.5755615
		z M851.7086182,90.67733c-48.65979-0.0932465-83.5812988,34.6353226-83.6775513,83.2151413
		c-0.0962524,48.6092682,34.6956177,83.7772369,83.0859985,83.984024
		c48.4579468,0.2070618,83.7905273-34.8027496,83.9084473-83.1420593
		C935.1452637,125.6465683,900.5768433,90.7709885,851.7086182,90.67733z M516.3057251,90.6817856
		c-48.7175903-0.025444-83.4616394,34.6493454-83.4848328,83.3184433
		c-0.0231934,48.6976013,34.7080078,83.7499542,83.1080017,83.876358
		c48.5965576,0.1269531,83.8752441-35.0836334,83.9075317-83.7455444
		C599.8685913,125.6630478,564.87854,90.7071457,516.3057251,90.6817856z M755.9434204,253.7098694
		c0.0965576-1.6197815,0.2418823-2.9168091,0.2411499-4.2137604c-0.0183716-30.1648102,0.0904541-60.3309021-0.1802979-90.4935608
		c-0.0714722-7.9581909-0.8145752-15.9908142-2.1266479-23.8426666
		c-4.3748169-26.1805801-16.9625244-39.7928696-40.991394-43.6486282
		c-18.0717773-2.8998642-34.9570313,0.0429001-48.4066162,13.8477402
		c-2.9431152,3.0208817-5.2988892,6.6140366-8.5673828,10.7578201c0-7.6901169,0-14.5319214,0-21.4018097
		c-15.000061,0-29.4155273,0-44.0635986,0c0,53.0961685,0,105.8611526,0,158.8314209c15.4313354,0,30.6295166,0,46.0863037,0
		c0-2.194809-0.0007935-4.014801,0.0001221-5.8347778c0.0125732-25.4985657-0.2744751-51.0029297,0.2200928-76.4921417
		c0.1490479-7.6813812,1.5142822-15.6509399,4.0202637-22.9016418c3.7456055-10.8373108,13.5033569-15.4046478,26.852356-14.2962494
		c9.6311646,0.7996979,16.5515747,6.9991608,18.8132935,17.8314209c1.2506714,5.9900513,1.9140015,12.2045441,1.9660645,18.3253326
		c0.2213135,25.9967957,0.1149292,51.9963837,0.1280518,77.9949493c0.0009155,1.776947,0.0001221,3.553894,0.0001221,5.5365601
		C725.4491577,253.7098694,740.3937988,253.7098694,755.9434204,253.7098694z M436.8702087,236.3251495
		c-9.3249817-10.3906708-18.5560913-20.667984-27.7705078-30.9602203c-0.7746582-0.8652344-1.4375-1.8305511-2.2204285-2.8369751
		c-0.9447937,0.7813873-1.5314636,1.1167908-1.9192505,1.6088867
		c-14.2026062,18.0229187-47.5752869,11.9412079-55.6477661-12.8496094
		c-1.6761169-5.1473083-2.6582031-10.7316895-2.7635803-16.1379852
		c-0.2671814-13.7089081,3.2134094-26.2182007,14.999176-34.7268066
		c14.3682251-10.3729553,30.6879272-8.420578,45.2113647,5.1959229
		c10.0592651-11.2268372,20.1122437-22.4466553,30.1071472-33.6016617
		c-25.525177-29.0044861-81.8000488-28.1604385-112.3470154,1.1560669
		c-32.8484497,31.5252914-32.8065796,90.3366318,0.0869141,122.0615768
		C355.1758118,264.7178955,411.1441956,265.5107422,436.8702087,236.3251495z M947.7319336,6.2019925
		c0,82.7601318,0,165.1000977,0,247.2969055c15.5682373,0,30.7800903,0,45.9121094,0c0-82.6399994,0-164.8477173,0-247.2969055
		C978.291626,6.2019925,963.1958618,6.2019925,947.7319336,6.2019925z M286.431366,253.678421
		c0-53.1978607,0-106.0191498,0-158.8554993c-15.5823364,0-30.7786865,0-45.9641876,0c0,53.1680908,0,105.8855286,0,158.8554993
		C255.8387146,253.678421,270.9328003,253.678421,286.431366,253.678421z M236.7415771,44.146862
		c-0.0684204,15.7020378,11.7909393,28.5876808,26.4708252,28.7615776
		c14.7384949,0.1745911,26.9486084-12.5149078,27.0870667-28.150547
		c0.1427307-16.1148968-11.6936951-28.900238-26.7286072-28.871479
		C248.5789948,15.9150925,236.8105774,28.311285,236.7415771,44.146862z M811.4411621,351.3667297
		c0.4138184-0.0657349,0.8276367-0.1315002,1.2415161-0.1972656c0.5171509,1.1434937,1.0739136,2.2709961,1.5452271,3.433075
		c3.6240845,8.9346008,7.1625977,17.9050598,10.9130859,26.7861023c0.614502,1.454895,2.1399536,2.5251465,3.2443848,3.7731628
		c0.9569092-1.1930542,2.2442627-2.2466431,2.8163452-3.6021118c3.361084-7.9629211,6.5499878-15.9984131,9.8088379-24.0046082
		c1.0643311-2.6147766,2.1640015-5.2151489,3.2476196-7.822113c0.322998,0.097229,0.6460571,0.194458,0.9691162,0.291687
		c0,11.6096191,0,23.2192688,0,35.1488647c1.7602539-0.1005859,3.1513062-0.1800842,4.5673218-0.2609863
		c0-14.9612122,0-29.5339355,0-44.0611877c-6.7695923-0.9699402-6.7572632-0.9648132-9.0844727,4.6562805
		c-4.0083618,9.6818542-8.0338745,19.3566284-12.4685059,30.0368958
		c-4.3787231-10.7241211-8.6187744-20.2879944-12.1552734-30.1052856c-1.8587036-5.1597595-4.7589722-6.0995789-9.6123657-4.5084839
		c0,14.6194153,0,29.1958008,0,44.0119934c1.6851196,0,3.112915,0,4.9671631,0
		C811.4411621,373.5982666,811.4411621,362.4824829,811.4411621,351.3667297z M430.0811462,349.805603
		c0.3387146,0.022583,0.6774292,0.045166,1.0161438,0.067749c0,11.6042786,0,23.2085876,0,35.0542603
		c1.7019043,0,3.0883179,0,4.523468,0c0-14.9371033,0-29.6421204,0-44.0200195
		c-5.2362061-1.833252-7.5470276,0.2503357-9.2470093,4.8275146c-3.6113586,9.7235413-7.8023376,19.2317505-12.1777039,29.8526611
		c-4.3477173-10.6352234-8.3013916-20.2850952-12.2372437-29.9422913c-2.4577332-6.0303955-3.2016907-6.3849487-9.5681152-4.4186096
		c0,14.4593811,0,28.9187622,0,43.5449829c1.7282104,0,3.2290955,0,5.2552185,0c0-11.4166565,0-22.433136,0-33.449585
		c1.4573364,0.9249878,2.0152588,2.0512085,2.4873962,3.2122803c3.633606,8.9356995,7.1845703,17.9060059,10.9381104,26.7908325
		c0.6183472,1.4636536,2.1025391,2.5614929,3.1865845,3.8283997c1.0307922-1.3294678,2.4100647-2.5132751,3.0362854-4.0118103
		C421.6441345,370.7331238,425.8375549,360.2588806,430.0811462,349.805603z M217.380249,340.6768799
		c0,11.8338623,0,23.3475647,0,34.8612671c-1.8493805-1.0794678-2.792984-2.3572998-3.6670074-3.6810913
		c-6.0542755-9.1697998-12.2249908-18.2668762-18.0708466-27.5679626c-2.1856232-3.477478-4.5960999-5.0108948-8.8435364-3.3418579
		c0,14.5069275,0,29.0993652,0,44.2017517c1.6691742-0.0863953,3.1853943-0.1648865,5.1888428-0.2685852
		c0-11.8616638,0-23.2196045,0-35.8712769c1.7332764,2.3893127,2.7176819,3.645813,3.5956268,4.9727478
		c5.9713745,9.0251465,12.0977325,17.9553223,17.7901917,27.153717c2.3153076,3.741272,4.8749542,5.0440979,9.0736084,3.480011
		c0-14.6123352,0-29.1930542,0-43.9387207C220.7665558,340.6768799,219.3777313,340.6768799,217.380249,340.6768799z
		 M474.5555115,339.2138977c-12.7226257-0.0008545-22.3909302,10.3889465-22.2356262,23.89505
		c0.1546631,13.453125,9.5689392,23.3461914,22.2117615,23.3415222
		c12.8389587-0.0047302,22.3790588-10.2185974,22.2451172-23.8162537
		C496.6455994,349.3164063,487.0610962,339.2147522,474.5555115,339.2138977z M588.1359863,384.9591064
		c0-12.0398865,0-23.7264099,0-36.8259583c7.7446899,11.736908,14.8473511,22.1481323,21.5300293,32.8222961
		c2.2936401,3.6636353,4.7653198,5.2073669,8.9761963,3.7947998c0-14.683136,0-29.3977661,0-44.480072
		c-1.7883301,0.2033386-3.1655884,0.3599243-4.9697266,0.5650635c0,12.0860901,0,23.7533264,0,36.5222168
		c-7.710144-11.6935425-14.8898315-22.3046265-21.7369995-33.1260071c-2.2352295-3.5325623-4.7200928-4.7436218-8.7009888-3.3152466
		c0,14.6557617,0,29.2461243,0,44.0429077C584.7609253,384.9591064,586.0457764,384.9591064,588.1359863,384.9591064z
		 M88.267189,365.2016602c0,4.1574707,0.1765594,7.6597595-0.095726,11.1268005
		c-0.0953751,1.214386-1.0433807,3.0426025-2.0302124,3.3965454c-6.7359848,2.4157104-13.4116745,2.6679077-19.3517227-2.1674805
		c-5.7488708-4.6798096-7.914547-13.7336121-5.3145599-21.506134c2.2659149-6.7738647,7.7530975-11.6417236,14.7290344-11.4661865
		c4.3817291,0.1102905,8.7156219,2.1212769,13.8790436,3.4943848c0.2426376-0.2883911,1.2593079-1.4968262,2.244194-2.6674805
		c-10.5443192-11.5333862-31.159584-6.1014404-36.1309662,9.1784973
		c-3.2225418,9.9047241-0.4008942,20.9883423,6.8595276,26.9446106c6.9504776,5.7019958,19.3578644,6.6334839,27.8859406,1.9635315
		c1.024765-0.5611572,2.3605881-1.7847595,2.3895187-2.7366333c0.2060852-6.7801514,0.1098862-13.5694885,0.1098862-20.385376
		c-5.1721497,0-9.7541656,0-14.4879532,0c0,1.6932068,0,3.0910034,0,4.8249207
		C82.0647049,365.2016602,84.8527451,365.2016602,88.267189,365.2016602z M912.307373,340.8634644
		c0,14.8829956,0,29.4590454,0,44.3209534c5.6303101,0,10.9396973,0.101532,16.2439575-0.0209961
		c11.2966919-0.2609253,19.5667725-8.3745422,20.3890381-19.8615112
		c0.9171143-12.8134155-5.6923828-22.7475891-17.0786133-24.2850647
		C925.5341187,340.1624146,918.9963989,340.8634644,912.307373,340.8634644z M673.1625366,345.1953125
		c-6.5469971-6.0744629-13.8429565-7.1684875-21.6235352-4.9352112c-8.3563232,2.398468-13.6645508,8.1620789-15.4562378,16.66922
		c-2.0213623,9.5975952-0.2545166,18.4631653,7.7712402,24.7641602c8.4958496,6.670105,17.9990845,5.7491455,27.4024658,1.8665466
		c1.1220093-0.4632568,2.4980469-2.0221863,2.5372925-3.1169128c0.2364502-6.5994873,0.1174927-13.211731,0.1174927-20.0117188
		c-5.2364502,0-9.9485474,0-14.9888306,0c0.1784058,1.7625427,0.3188477,3.1497192,0.500061,4.9394531
		c3.3189697,0,6.2315063,0,9.4423828,0c0,4.0813599,0.1456909,7.7313232-0.0916138,11.3562622
		c-0.0682373,1.0423584-1.0098877,2.4371643-1.9451904,2.9459534c-5.6121826,3.0531311-14.9404297,1.9138794-19.7963867-2.2115784
		c-5.500061-4.6726379-7.6411133-13.4022522-5.1676636-21.0698547c2.2919312-7.1049194,7.6881714-12.02005,14.9078369-11.8666077
		c4.3615723,0.0927124,8.6797485,2.23172,13.6630859,3.6328125
		C670.7185059,347.849884,671.7216797,346.7602844,673.1625366,345.1953125z M767.9981689,364.4096069
		c6.8548584,0,13.15271,0,19.5969849,0c0-1.807312,0-3.2129211,0-5.2285767c-6.6765137,0-13.0745239,0-19.4666138,0
		c0-4.8495178,0-9.0814819,0-13.8063965c7.1304932,0,13.8840332,0,21.0054932,0
		c-0.1235352-1.9194031-0.2131958-3.3122559-0.3083496-4.7902832c-8.8265991,0-17.2536621,0-25.9841309,0
		c0,14.9615173,0,29.6540833,0,44.3772583c9.2470093,0,18.1339722,0,27.3953857,0
		c-0.1783447-1.7593079-0.3179932-3.1360474-0.5042114-4.9724121c-7.4534302,0-14.538208,0-21.7345581,0
		C767.9981689,374.7209167,767.9981689,369.9585266,767.9981689,364.4096069z M718.0777588,340.8575439
		c0,14.7918091,0,29.3811646,0,44.3518372c1.7084961-0.1513367,3.083374-0.2731018,4.8365479-0.4283752
		c0-6.6526184,0-12.9277039,0-19.091217c4.3980713-1.6227417,6.8345337-0.2072449,8.6460571,3.5903625
		c2.0007324,4.194458,4.7508545,8.0296021,6.7824097,12.211792c1.6853027,3.4693298,3.9498291,4.5579529,7.9765015,3.0829468
		c-3.7196655-6.5300293-7.3679199-12.9347229-11.1216431-19.5244751c1.0603027-0.5017395,1.6311035-0.7886047,2.2150879-1.0456238
		c6.4572144-2.8421021,8.7582397-6.9733887,7.7232666-13.8782349c-0.8208618-5.4771423-4.107605-8.6195679-10.7328491-9.1795349
		C729.1477661,340.5027771,723.8248901,340.8575439,718.0777588,340.8575439z M874.3457031,380.250885
		c0-5.642395,0-10.5568542,0-15.8138733c6.6150513,0,12.9146729,0,19.4718628,0c0-1.7719421,0-3.1909485,0-5.161499
		c-6.5756836,0-12.9810791,0-19.5322266,0c0-4.8088379,0-9.0643005,0-13.867981c7.1642456,0,14.0795898,0,22.7785034,0
		c-1.7011719-2.4391479-2.5727539-4.8479309-3.5333862-4.8839722c-8.0916748-0.3035889-16.199585-0.1730042-24.3018188-0.1730042
		c0,15.2679443,0,29.8541565,0,44.5875244c9.1977539,0,18.1073608,0,27.177002,0c0-1.631134,0-2.992157,0-4.6871948
		C888.9301758,380.250885,881.8101196,380.250885,874.3457031,380.250885z M107.7478333,384.3536377
		c0.4887619,0.5473938,0.9775314,1.0947571,1.4662933,1.6421509c1.669014-1.2159424,4.4845505-2.1820068,4.8132324-3.690094
		c1.6270676-7.465332,6.26297-9.257782,13.0293121-8.1376953c1.2959595,0.2145081,2.694458,0.2313843,3.9830017-0.0037842
		c5.7220917-1.0444946,9.0508881,1.1273804,10.1758575,6.9241638c0.7409363,3.8179626,3.0709229,5.137085,7.2236023,3.3695679
		c-5.6657715-14.1095886-11.2513885-28.1239319-16.9904327-42.0751953
		c-0.3800201-0.9237976-1.9833984-1.9689331-2.9191742-1.8830872c-1.1987457,0.1099854-2.9077835,1.0501099-3.3470459,2.0802307
		C119.2641678,356.4589539,113.5286484,370.4159546,107.7478333,384.3536377z M43.1920319,384.5888062
		c-5.3956604-13.4439087-10.691391-26.8562622-16.2328148-40.1663208c-0.6805973-1.6347351-2.5194149-3.4450073-4.1197319-3.7898254
		c-0.9436226-0.2033081-2.9918098,2.0956421-3.6588955,3.6490479
		c-5.2462206,12.2164917-10.2879066,24.5209351-15.3621655,36.8108521
		c-0.4735222,1.1468811-0.7365146,2.3806763-1.0972614,3.5741272c0.3925767,0.4310913,0.7851534,0.8621826,1.1777301,1.2932739
		c1.6851668-1.1856689,4.540257-2.1199341,4.8581891-3.5993652c1.5950956-7.4225159,6.1111431-9.3776855,12.9363861-8.1937256
		c1.293354,0.2243347,2.6940327,0.2286377,3.9851742-0.00177c5.6726761-1.0124207,9.1736984,1.0281677,10.2416992,6.8633423
		C36.6571236,385.0540161,39.0696487,386.1083374,43.1920319,384.5888062z M544.274353,341.5604248
		c-0.3908691-0.6896667-0.7817383-1.3793335-1.1726074-2.0690002c-2.6903687,1.3295898-5.8242188,2.1612854-7.9848022,4.0856323
		c-5.6509399,5.0330505-10.8765869,10.5436707-17.121521,16.7019043c0-7.2515869,0-13.4256287,0-19.9803772
		c-2.0285034,0.1795654-3.4161987,0.3024292-4.6813354,0.4144287c0,15.0272827,0,29.6062317,0,44.5075073
		c1.7203369-0.1379089,3.1113281-0.2493896,4.9165039-0.3940735c0-7.3895874,0-14.4340515,0-22.840332
		c6.5636597,7.3800659,12.40448,13.6439514,17.8677979,20.221405c2.6340942,3.1712952,5.4030762,3.4819946,9.5491333,2.359375
		c-7.260376-8.1241455-14.0805664-15.7556763-21.0865479-23.5951538
		C531.3145752,354.3215942,537.7944946,347.9410095,544.274353,341.5604248z M238.6054535,380.2364197
		c4.8381195,5.5769043,10.5054169,7.3038635,17.4893646,5.693512c5.8167419-1.3412476,9.486969-5.2680359,10.1572571-10.8672791
		c0.7568665-6.3230286-1.4952393-10.3651428-7.538147-13.1112671c-3.3211365-1.5092163-7.1346893-2.2443848-10.0068359-4.3227539
		c-1.899704-1.3746338-3.568985-4.5899658-3.4055634-6.8406677c0.1465454-2.0186462,2.573822-4.5811157,4.6387024-5.6034546
		c4.302597-2.1302795,8.3701324-0.598175,11.8680573,2.9659729c1.2810059-1.2215881,2.4464417-2.3329773,3.8093872-3.6327209
		c-4.940979-5.4782715-10.7424622-6.177948-17.0683899-4.410675c-5.3340759,1.4902039-8.6757202,5.7713623-9.1480255,11.2431335
		c-0.4593048,5.3209534,1.9172821,9.3658142,7.2804565,11.8558655c3.1551971,1.4649353,6.4821472,2.555542,9.7012177,3.8884888
		c3.2961731,1.3648682,5.602478,4.0617676,4.3343811,7.3691101c-0.9814453,2.5597534-3.5265198,5.3190918-6.0406342,6.317627
		c-4.543396,1.8045959-8.7715759-0.1342163-12.0932922-4.1079407
		C241.2150726,377.8989868,240.0164795,378.9725647,238.6054535,380.2364197z M375.1739502,344.7695313
		c-5.2649841-5.4819641-10.7145996-6.3731995-16.758667-4.8191833c-5.6507263,1.4528809-9.1156616,5.4111938-9.568634,10.7515564
		c-0.5371704,6.3327637,1.5609741,10.04245,7.4081421,12.6785889c2.8687744,1.2934265,5.8520203,2.3358154,8.7959595,3.4590759
		c3.7546082,1.4326782,5.6919556,4.0577698,4.9464111,8.1107178c-0.7351379,3.9960938-3.6690369,6.3378906-7.3945618,6.0828857
		c-3.8454285-0.2632141-7.5970459-1.8970947-11.8086853-3.0455627c-0.5036011,0.3053894-1.8909302,1.1466064-3.3353882,2.0224915
		c5.5445557,6.6713867,11.9265137,7.3259888,18.7509155,5.6388855c5.6474304-1.3960571,9.0470886-5.8015442,9.5090942-11.4855957
		c0.4434509-5.4554443-2.1061707-9.6356812-7.6643677-12.1682434c-3.1658325-1.4425354-6.8442688-2.0890503-9.5566406-4.0904541
		c-2.057312-1.5180359-4.2745972-4.7770081-3.9992065-6.9551392c0.2826843-2.2359924,3.3005371-5.4910278,5.4892578-5.815033
		c3.6759338-0.5441895,7.6432495,0.8799133,11.4879456,1.4759216c-0.0016479,0.4184265-0.0032959,0.8368835-0.0049744,1.2553101
		C372.6053162,346.9170532,373.7400818,345.9683228,375.1739502,344.7695313z M278.8568726,340.5719604
		c-1.3547668,3.7184143-0.2226868,5.1836243,3.499054,4.9826965c3.1051025-0.1676636,6.2264404-0.0343628,9.9075928-0.0343628
		c0,13.4767151,0,26.3746643,0,39.7637939c2.1281128-0.1141052,3.6528931-0.1958313,5.5657349-0.2983704
		c0-13.3183594,0-26.0881958,0-39.4119873c4.6460571,0,8.8978271,0,13.6995239,0
		c-0.0979309-2.0874634-0.1679077-3.5791931-0.2346497-5.00177
		C300.0692749,340.5719604,289.4644775,340.5719604,278.8568726,340.5719604z M995.9626465,340.911438
		c-4.1437378-1.4638367-6.3296509-0.1605225-8.1341553,3.1377258c-2.9932251,5.4708557-6.4175415,10.7059326-9.9480591,16.5138245
		c-3.5686646-6.0700073-6.8814087-11.2660217-9.7311401-16.7045898c-1.9313965-3.6859741-4.4005737-4.216156-8.2597656-2.8554688
		c4.420166,7.1530457,8.3591309,14.1099548,12.8709106,20.6731262c5.0205688,7.3034973,0.770813,15.6384888,3.173584,23.4973145
		c1.456665-0.0947266,2.8495483-0.1853333,4.5712891-0.2973022c0-3.3736267,0.2404785-6.3781128-0.0488892-9.3306274
		c-0.6463623-6.5939026,1.036438-12.306366,4.934021-17.7249756
		C989.2344971,352.4761963,992.4127808,346.6530457,995.9626465,340.911438z M163.0736694,340.5820923
		c0,15.0866394,0,29.6601257,0,44.5941772c1.7056427-0.1192627,3.0868835-0.2158203,4.4963074-0.3143921
		c0-14.9510498,0-29.5032349,0-44.2797852C165.9927216,340.5820923,164.7304688,340.5820923,163.0736694,340.5820923z
		 M563.7570801,384.9966736c0-15.1390991,0-29.6940002,0-44.6382446c-1.7382813,0.1430054-3.1201172,0.2566833-4.395752,0.3616028
		c0,15.0249939,0,29.5974121,0,44.2766418C560.9581909,384.9966736,562.2423706,384.9966736,563.7570801,384.9966736z"/>
	<path class="st1" d="M9.1329632,253.5755615c0-77.2471924,0-154.1750641,0-231.4795685
		c1.5561552-0.1152592,2.983634-0.3114796,4.4113274-0.3130398c18.8270473-0.0205841,37.655159,0.0873814,56.480278-0.1043606
		c3.5068512-0.0357189,5.2773438,1.202713,6.9624252,4.1361904
		c29.0093002,50.5011673,58.1277237,100.9396439,87.2293625,151.3877563
		c0.9757233,1.6914368,2.0261841,3.3397522,3.9308624,4.8978424c0-26.5102234,0-53.0204315,0-79.5306549
		c0-26.6399689,0-53.2799416,0-80.359787c15.9716034,0,31.6792755,0,47.815155,0c0,76.8861313,0,153.9163055,0,231.7145691
		c-1.4693604,0-3.0537109,0-4.6380768,0c-17.6607971,0.0000153-35.3228149-0.1089325-52.9813538,0.0903015
		c-3.6105042,0.0407257-5.5773621-1.0067596-7.4117737-4.1963654
		c-29.9486313-52.0735321-60.040802-104.0645294-90.1100006-156.0686798
		c-0.8673668-1.5000992-1.8372993-2.9408951-3.5897675-4.1332245c0,54.5371399,0,109.0742798,0,163.9590302
		C41.1000824,253.5755615,25.3714046,253.5755615,9.1329632,253.5755615z"/>
	<path class="st2" d="M851.7086182,90.67733c48.8682251,0.0936584,83.4366455,34.9692383,83.3168945,84.057106
		c-0.1179199,48.3393097-35.4505005,83.3491211-83.9084473,83.1420593
		c-48.3903809-0.2067871-83.182251-35.3747559-83.0859985-83.984024
		C768.1273193,125.3126526,803.0488281,90.5840836,851.7086182,90.67733z M851.602417,214.4350128
		c19.1117554-0.1903229,32.4386597-10.7643738,35.8876343-29.4289703
		c1.1564331-6.2582855,1.2159424-12.9820099,0.3516846-19.2980042c-1.9941406-14.573349-9.2971191-25.7413025-24.102478-29.9463501
		c-14.8908081-4.2293396-28.9168701-2.3502808-39.7642212,9.822403c-9.039856,10.1443634-10.307373,22.6347961-9.0755005,35.6262054
		C816.8065796,201.322937,831.4547729,214.6356506,851.602417,214.4350128z"/>
	<path class="st2" d="M516.3057251,90.6817856c48.5728149,0.0253601,83.5628662,34.9812622,83.5307007,83.4492569
		c-0.0322876,48.661911-35.3109741,83.8724976-83.9075317,83.7455444
		c-48.3999939-0.1264038-83.1311951-35.1787567-83.1080017-83.876358
		C432.8440857,125.331131,467.5881348,90.6563416,516.3057251,90.6817856z M553.6216431,174.5131073
		c-0.5845947-4.4857178-0.8515015-8.6507721-1.7028809-12.6927032
		c-3.3257446-15.7892303-15.9893799-26.7984772-31.7058716-27.8020172
		c-19.0097046-1.2138519-32.7170105,7.1605835-38.4061279,23.5439148
		c-3.0704956,8.8423462-3.3769836,17.8846283-1.7511597,27.0535583
		c3.1703491,17.8792877,15.9837036,28.9171295,34.6871338,29.8296204
		c18.0854492,0.8823395,32.2446899-9.1670532,36.798645-26.4638214
		C552.7147217,183.5250092,552.9795532,178.8291931,553.6216431,174.5131073z"/>
	<path class="st2" d="M755.9434204,253.7098694c-15.5496216,0-30.4942627,0-46.0081177,0
		c0-1.982666,0.0007935-3.759613-0.0001221-5.5365601c-0.0131226-25.9985657,0.0932617-51.9981537-0.1280518-77.9949493
		c-0.052063-6.1207886-0.7153931-12.3352814-1.9660645-18.3253326c-2.2617188-10.8322601-9.1821289-17.031723-18.8132935-17.8314209
		c-13.348999-1.1083984-23.1067505,3.4589386-26.852356,14.2962494c-2.5059814,7.2507019-3.8712158,15.2202606-4.0202637,22.9016418
		c-0.4945679,25.489212-0.2075195,50.993576-0.2200928,76.4921417c-0.0009155,1.8199768-0.0001221,3.6399689-0.0001221,5.8347778
		c-15.4567871,0-30.6549683,0-46.0863037,0c0-52.9702606,0-105.7352448,0-158.8314209c14.6480713,0,29.0635376,0,44.0635986,0
		c0,6.8698883,0,13.7116928,0,21.4018097c3.2684937-4.1437836,5.6242676-7.7369385,8.5673828-10.7578201
		c13.449585-13.8048401,30.3348389-16.7476044,48.4066162-13.8477402
		c24.0288696,3.8557587,36.6165771,17.4680481,40.991394,43.6486282c1.3120728,7.8518524,2.0551758,15.8844757,2.1266479,23.8426666
		c0.270752,30.1626587,0.1619263,60.3287506,0.1802979,90.4935608
		C756.1853027,250.7930603,756.039978,252.0900879,755.9434204,253.7098694z"/>
	<path class="st3" d="M436.8702087,236.3251495c-25.7260132,29.1855927-81.694397,28.392746-112.2639465-1.0908051
		c-32.8934937-31.7249451-32.9353638-90.5362854-0.0869141-122.0615768
		c30.5469666-29.3165054,86.8218384-30.160553,112.3470154-1.1560669
		c-9.9949036,11.1550064-20.0478821,22.3748245-30.1071472,33.6016617
		c-14.5234375-13.6165009-30.8431396-15.5688782-45.2113647-5.1959229
		c-11.7857666,8.508606-15.2663574,21.0178986-14.999176,34.7268066c0.1053772,5.4062958,1.0874634,10.9906769,2.7635803,16.1379852
		c8.0724792,24.7908173,41.4451599,30.8725281,55.6477661,12.8496094c0.3877869-0.4920959,0.9744568-0.8274994,1.9192505-1.6088867
		c0.7829285,1.006424,1.4457703,1.9717407,2.2204285,2.8369751
		C418.3141174,215.6571655,427.5452271,225.9344788,436.8702087,236.3251495z"/>
	<path class="st4" d="M947.7319336,6.2019925c15.4639282,0,30.5596924,0,45.9121094,0c0,82.4491882,0,164.6569061,0,247.2969055
		c-15.132019,0-30.3438721,0-45.9121094,0C947.7319336,171.3020935,947.7319336,88.9621277,947.7319336,6.2019925z"/>
	<path class="st4" d="M286.431366,253.678421c-15.4985657,0-30.5926514,0-45.9641876,0c0-52.9699707,0-105.6874084,0-158.8554993
		c15.1855011,0,30.3818512,0,45.9641876,0C286.431366,147.6592712,286.431366,200.4805603,286.431366,253.678421z"/>
	<path class="st3" d="M236.7415771,44.146862c0.0690002-15.835577,11.8374176-28.2317696,26.8292847-28.2604485
		c15.0349121-0.02876,26.8713379,12.7565813,26.7286072,28.871479
		c-0.1384583,15.6356392-12.3485718,28.3251381-27.0870667,28.150547
		C248.5325165,72.7345428,236.6731567,59.8488998,236.7415771,44.146862z"/>
	<path class="st5" d="M811.4411621,351.3667297c0,11.1157532,0,22.2315369,0,33.5760193c-1.854248,0-3.2820435,0-4.9671631,0
		c0-14.8161926,0-29.3925781,0-44.0119934c4.8533936-1.591095,7.7536621-0.6512756,9.6123657,4.5084839
		c3.536499,9.8172913,7.7765503,19.3811646,12.1552734,30.1052856c4.4346313-10.6802673,8.460144-20.3550415,12.4685059-30.0368958
		c2.3272095-5.6210938,2.3148804-5.6262207,9.0844727-4.6562805c0,14.5272522,0,29.0999756,0,44.0611877
		c-1.4160156,0.0809021-2.8070679,0.1604004-4.5673218,0.2609863c0-11.9295959,0-23.5392456,0-35.1488647
		c-0.3230591-0.097229-0.6461182-0.194458-0.9691162-0.291687c-1.0836182,2.6069641-2.1832886,5.2073364-3.2476196,7.822113
		c-3.2588501,8.0061951-6.4477539,16.041687-9.8088379,24.0046082c-0.5720825,1.3554688-1.859436,2.4090576-2.8163452,3.6021118
		c-1.1044312-1.2480164-2.6298828-2.3182678-3.2443848-3.7731628c-3.7504883-8.8810425-7.2890015-17.8515015-10.9130859-26.7861023
		c-0.4713135-1.1620789-1.0280762-2.2895813-1.5452271-3.433075
		C812.2687988,351.2352295,811.8549805,351.3009949,811.4411621,351.3667297z"/>
	<path class="st6" d="M430.0811462,349.805603c-4.2435913,10.4532776-8.4370117,20.9275208-12.7868652,31.3363647
		c-0.6262207,1.4985352-2.0054932,2.6823425-3.0362854,4.0117798c-1.0840454-1.2668762-2.5682373-2.3647156-3.1865845-3.8283691
		c-3.75354-8.8848267-7.3045044-17.8551331-10.9381104-26.7908325c-0.4721375-1.1610718-1.0300598-2.2872925-2.4873962-3.2122803
		c0,11.016449,0,22.0329285,0,33.449585c-2.026123,0-3.5270081,0-5.2552185,0c0-14.6262207,0-29.0856018,0.0033264-43.5455322
		c6.3630981-1.9657898,7.1070557-1.6112366,9.5647888,4.4191589c3.9358521,9.657196,7.8895264,19.3070679,12.2372437,29.9422913
		c4.3753662-10.6209106,8.5663452-20.1291199,12.1777039-29.8526611c1.6999817-4.577179,4.0108032-6.6607666,9.2470093-4.8275146
		c0,14.3778992,0,29.0829163,0,44.0200195c-1.4351501,0-2.8215637,0-4.523468,0c0-11.8456726,0-23.4499817,0-35.0542603
		C430.7585754,349.850769,430.4198608,349.828186,430.0811462,349.805603z"/>
	<path class="st7" d="M217.380249,340.6768799c1.9974823,0,3.3863068,0,5.0668793,0c0,14.7456665,0,29.3263855,0,43.9387207
		c-4.1986542,1.5640869-6.7583008,0.261261-9.0736084-3.480011c-5.6924591-9.1983948-11.8188171-18.1285706-17.7901917-27.153717
		c-0.8779449-1.3269348-1.8623505-2.5834351-3.5956268-4.9727478c0,12.6516724,0,24.009613,0,35.8712769
		c-2.0034485,0.1036987-3.5196686,0.1821899-5.1888428,0.2685852c0-15.1023865,0-29.6948242,0-44.2017517
		c4.2474365-1.6690369,6.6579132-0.1356201,8.8435364,3.3418579c5.8458557,9.3010864,12.016571,18.3981628,18.0708466,27.5679626
		c0.8740234,1.3237915,1.817627,2.6016235,3.6670074,3.6810913
		C217.380249,364.0244446,217.380249,352.5107422,217.380249,340.6768799z"/>
	<path class="st8" d="M474.5555115,339.2138977c12.5055847,0.0008545,22.0900879,10.1025085,22.2212524,23.4203186
		c0.1339417,13.5976563-9.4061584,23.8115234-22.2451172,23.8162537
		c-12.6428223,0.0046692-22.0570984-9.8883972-22.2117615-23.3415222
		C452.1645813,349.6028442,461.8328857,339.2130432,474.5555115,339.2138977z M491.1369324,363.0307007
		c0.0354919-10.7310791-7.0529175-18.7757263-16.5673523-18.8023376
		c-9.4868469-0.0265198-16.6697388,8.0661011-16.6412048,18.7488708
		c0.0283203,10.6044617,6.8049927,18.2127075,16.3354187,18.3400879
		C484.0887146,381.4486389,491.1011658,373.8487854,491.1369324,363.0307007z"/>
	<path class="st9" d="M588.1359863,384.9591064c-2.09021,0-3.375061,0-4.9014893,0c0-14.7967834,0-29.387146,0-44.0429077
		c3.980896-1.4283752,6.4657593-0.2173157,8.7009888,3.3152466c6.847168,10.8213806,14.0268555,21.4324646,21.7369995,33.1260071
		c0-12.7688904,0-24.4361267,0-36.5222168c1.8041382-0.2051392,3.1813965-0.3617249,4.9697266-0.5650635
		c0,15.0823059,0,29.796936,0,44.480072c-4.2108765,1.4125671-6.6825562-0.1311646-8.9761963-3.7947998
		c-6.6826782-10.6741638-13.7853394-21.0853882-21.5300293-32.8222961
		C588.1359863,361.2326965,588.1359863,372.91922,588.1359863,384.9591064z"/>
	<path class="st8" d="M88.267189,365.2016602c-3.414444,0-6.2024841,0-9.3139954,0c0-1.7339172,0-3.1317139,0-4.8249207
		c4.7337875,0,9.3158035,0,14.4879532,0c0,6.8158875,0.096199,13.6052246-0.1098862,20.385376
		c-0.0289307,0.9518738-1.3647537,2.1754761-2.3895187,2.7366333c-8.5280762,4.6699524-20.935463,3.7384644-27.8859406-1.9635315
		c-7.2604218-5.9562683-10.0820694-17.0398865-6.8595276-26.9446106
		c4.9713821-15.2799377,25.586647-20.7118835,36.1309662-9.1784973c-0.9848862,1.1706543-2.0015564,2.3790894-2.244194,2.6674805
		c-5.1634216-1.3731079-9.4973145-3.3840942-13.8790436-3.4943848c-6.9759369-0.1755371-12.4631195,4.6923218-14.7290344,11.4661865
		c-2.599987,7.772522-0.4343109,16.8263245,5.3145599,21.506134c5.9400482,4.8353882,12.6157379,4.5831909,19.3517227,2.1674805
		c0.9868317-0.3539429,1.9348373-2.1821594,2.0302124-3.3965454
		C88.4437485,372.8614197,88.267189,369.3591309,88.267189,365.2016602z"/>
	<path class="st6" d="M912.307373,340.8634644c6.6890259,0,13.2267456-0.7010498,19.5543823,0.1533813
		c11.3862305,1.5374756,17.9957275,11.4716492,17.0786133,24.2850647
		c-0.8222656,11.486969-9.0923462,19.6005859-20.3890381,19.8615112
		c-5.3042603,0.1225281-10.6136475,0.0209961-16.2439575,0.0209961
		C912.307373,370.3225098,912.307373,355.74646,912.307373,340.8634644z M917.270752,380.1386414
		c8.6998901-0.2380066,18.0817871,2.334137,23.5969849-6.8686829c4.119812-6.8746033,4.1010742-14.6078186-0.326355-21.3151245
		c-5.6616211-8.5770569-14.7948608-6.1767578-23.2706299-6.4533997
		C917.270752,357.2843628,917.270752,368.5153809,917.270752,380.1386414z"/>
	<path class="st10" d="M673.1625366,345.1953125c-1.4408569,1.5649719-2.4440308,2.6545715-2.7276001,2.9625244
		c-4.9833374-1.4010925-9.3015137-3.5401001-13.6630859-3.6328125c-7.2196655-0.1534424-12.6159058,4.7616882-14.9078369,11.8666077
		c-2.4734497,7.6676025-0.3323975,16.3972168,5.1676636,21.0698547c4.855957,4.1254578,14.1842041,5.2647095,19.7963867,2.2115784
		c0.9353027-0.5087891,1.8769531-1.903595,1.9451904-2.9459534c0.2373047-3.624939,0.0916138-7.2749023,0.0916138-11.3562622
		c-3.2108765,0-6.1234131,0-9.4423828,0c-0.1812134-1.7897339-0.3216553-3.1769104-0.500061-4.9394531
		c5.0402832,0,9.7523804,0,14.9888306,0c0,6.7999878,0.1189575,13.4122314-0.1174927,20.0117188
		c-0.0392456,1.0947266-1.4152832,2.653656-2.5372925,3.1169128c-9.4033813,3.8825989-18.9066162,4.8035583-27.4024658-1.8665466
		c-8.0257568-6.3009949-9.7926025-15.1665649-7.7712402-24.7641602c1.791687-8.5071411,7.0999146-14.270752,15.4562378-16.66922
		C659.3195801,338.026825,666.6155396,339.1208496,673.1625366,345.1953125z"/>
	<path class="st11" d="M767.9981689,364.4096069c0,5.5489197,0,10.3113098,0,15.5795898c7.1963501,0,14.2811279,0,21.7345581,0
		c0.1862183,1.8363647,0.3258667,3.2131042,0.5042114,4.9724121c-9.2614136,0-18.1483765,0-27.3953857,0
		c0-14.723175,0-29.415741,0-44.3772583c8.7304688,0,17.1575317,0,25.9841309,0
		c0.0951538,1.4780273,0.1848145,2.8708801,0.3083496,4.7902832c-7.12146,0-13.875,0-21.0054932,0
		c0,4.7249146,0,8.9568787,0,13.8063965c6.3920898,0,12.7901001,0,19.4666138,0c0,2.0156555,0,3.4212646,0,5.2285767
		C781.1508789,364.4096069,774.8530273,364.4096069,767.9981689,364.4096069z"/>
	<path class="st5" d="M718.0777588,340.8575439c5.7471313,0,11.0700073-0.3547668,16.3253784,0.0894775
		c6.6252441,0.559967,9.9119873,3.7023926,10.7328491,9.1795349c1.0349731,6.9048462-1.2660522,11.0361328-7.7232666,13.8782349
		c-0.5839844,0.257019-1.1547852,0.5438843-2.2150879,1.0456238c3.7537231,6.5897522,7.4019775,12.9944458,11.1216431,19.5244751
		c-4.0266724,1.4750061-6.2911987,0.3863831-7.9765015-3.0829468c-2.0315552-4.1821899-4.7816772-8.017334-6.7824097-12.211792
		c-1.8115234-3.7976074-4.2479858-5.2131042-8.6460571-3.5903625c0,6.1635132,0,12.4385986,0,19.091217
		c-1.7531738,0.1552734-3.1280518,0.2770386-4.8365479,0.4283752
		C718.0777588,370.2387085,718.0777588,355.649353,718.0777588,340.8575439z M723.0278931,360.4437256
		c4.487915-0.4477539,8.8161011-0.1374512,12.4919434-1.5386047c2.0405884-0.777832,4.1323242-4.432373,4.0928345-6.7543945
		c-0.0350342-2.0571899-2.6266479-5.161499-4.7293091-5.8500671c-3.6057129-1.1807556-7.7102051-0.8381653-11.8554688-1.1542358
		C723.0278931,350.4142151,723.0278931,354.8642883,723.0278931,360.4437256z"/>
	<path class="st12" d="M874.3457031,380.250885c7.4644165,0,14.5844727,0,22.0599365,0c0,1.6950378,0,3.0560608,0,4.6871948
		c-9.0696411,0-17.979248,0-27.177002,0c0-14.7333679,0-29.3195801,0-44.5875244
		c8.1022339,0,16.210144-0.1305847,24.3018188,0.1730042c0.9606323,0.0360413,1.8322144,2.4448242,3.5333862,4.8839722
		c-8.6989136,0-15.6142578,0-22.7785034,0c0,4.8036804,0,9.0591431,0,13.867981c6.5511475,0,12.956543,0,19.5322266,0
		c0,1.9705505,0,3.3895569,0,5.161499c-6.5571899,0-12.8568115,0-19.4718628,0
		C874.3457031,369.6940308,874.3457031,374.60849,874.3457031,380.250885z"/>
	<path class="st5" d="M107.7478333,384.3536377c5.7808151-13.9376831,11.5163345-27.8946838,17.4346466-41.7737427
		c0.4392624-1.0301208,2.1483002-1.9702454,3.3470459-2.0802307c0.9357758-0.0858459,2.5391541,0.9592896,2.9191742,1.8830872
		c5.7390442,13.9512634,11.3246613,27.9656067,16.9904327,42.0751953c-4.1526794,1.7675171-6.482666,0.4483948-7.2236023-3.3695679
		c-1.1249695-5.7967834-4.4537659-7.9686584-10.1758575-6.9241638c-1.2885437,0.2351685-2.6870422,0.2182922-3.9830017,0.0037842
		c-6.7663422-1.1200867-11.4022446,0.6723633-13.0293121,8.1376953c-0.3286819,1.5080872-3.1442184,2.4741516-4.8132324,3.690094
		C108.7253647,385.4483948,108.2365952,384.9010315,107.7478333,384.3536377z M136.4746094,368.925354
		c-2.7247925-7.1432495-5.2640686-13.8001404-8.2760315-21.696228c-3.199646,8.1228638-5.8137131,14.7591553-8.5462723,21.696228
		C125.6498337,368.925354,130.7223511,368.925354,136.4746094,368.925354z"/>
	<path class="st5" d="M43.1920319,384.5888062c-4.1223831,1.5195313-6.5349083,0.46521-7.2716904-3.5603638
		c-1.0680008-5.8351746-4.5690231-7.8757629-10.2416992-6.8633423c-1.2911415,0.2304077-2.6918201,0.2261047-3.9851742,0.00177
		c-6.825243-1.18396-11.3412905,0.7712097-12.9363861,8.1937256c-0.3179321,1.4794312-3.1730223,2.4136963-4.8581891,3.5993652
		c-0.3925767-0.4310913-0.7851534-0.8621826-1.1777301-1.2932739c0.3607469-1.1934509,0.6237392-2.4272461,1.0972614-3.5741272
		c5.0742588-12.289917,10.1159449-24.5943604,15.3621655-36.8108521c0.6670856-1.5534058,2.7152729-3.852356,3.6588955-3.6490479
		c1.600317,0.3448181,3.4391346,2.1550903,4.1197319,3.7898254
		C32.5006409,357.7325439,37.7963715,371.1448975,43.1920319,384.5888062z M31.2205086,368.9804077
		c-2.7445812-7.1607666-5.2816753-13.7801514-8.3208447-21.7095337c-3.2134514,8.1226807-5.8086834,14.6826782-8.5886135,21.7095337
		C20.2010422,368.9804077,25.2961082,368.9804077,31.2205086,368.9804077z"/>
	<path class="st13" d="M544.274353,341.5604248c-6.4798584,6.3805847-12.9597778,12.7611694-19.7133789,19.4113159
		c7.0059814,7.8394775,13.8261719,15.4710083,21.0865479,23.5951538c-4.1460571,1.1226196-6.9150391,0.8119202-9.5491333-2.359375
		c-5.4633179-6.5774536-11.3041382-12.8413391-17.8677979-20.221405c0,8.4062805,0,15.4507446,0,22.840332
		c-1.8051758,0.1446838-3.196167,0.2561646-4.9165039,0.3940735c0-14.9012756,0-29.4802246,0-44.5075073
		c1.2651367-0.1119995,2.652832-0.2348633,4.6813354-0.4144287c0,6.5547485,0,12.7287903,0,19.9803772
		c6.2449341-6.1582336,11.4705811-11.6688538,17.121521-16.7019043c2.1605835-1.9243469,5.2944336-2.7560425,7.9848022-4.0856323
		C543.4926147,340.1810913,543.8834839,340.8707581,544.274353,341.5604248z"/>
	<path class="st5" d="M238.6054535,380.2364197c1.411026-1.263855,2.6096191-2.3374329,3.9779358-3.5630493
		c3.3217163,3.9737244,7.5498962,5.9125366,12.0932922,4.1079407c2.5141144-0.9985352,5.0591888-3.7578735,6.0406342-6.317627
		c1.2680969-3.3073425-1.038208-6.0042419-4.3343811-7.3691101c-3.2190704-1.3329468-6.5460205-2.4235535-9.7012177-3.8884888
		c-5.3631744-2.4900513-7.7397614-6.5349121-7.2804565-11.8558655c0.4723053-5.4717712,3.8139496-9.7529297,9.1480255-11.2431335
		c6.3259277-1.7672729,12.1274109-1.0675964,17.0683899,4.410675c-1.3629456,1.2997437-2.5283813,2.4111328-3.8093872,3.6327209
		c-3.4979248-3.5641479-7.5654602-5.0962524-11.8680573-2.9659729c-2.0648804,1.0223389-4.492157,3.5848083-4.6387024,5.6034546
		c-0.1634216,2.2507019,1.5058594,5.4660339,3.4055634,6.8406677c2.8721466,2.0783691,6.6856995,2.8135376,10.0068359,4.3227539
		c6.0429077,2.7461243,8.2950134,6.7882385,7.538147,13.1112671c-0.6702881,5.5992432-4.3405151,9.5260315-10.1572571,10.8672791
		C249.1108704,387.5402832,243.443573,385.813324,238.6054535,380.2364197z"/>
	<path class="st10" d="M375.1739502,344.7695313c-1.4338684,1.1987915-2.568634,2.147522-3.7033997,3.0962219
		c0.0016785-0.4184265,0.0033264-0.8368835,0.0049744-1.2553101c-3.844696-0.5960083-7.8120117-2.0201111-11.4879456-1.4759216
		c-2.1887207,0.3240051-5.2065735,3.5790405-5.4892578,5.815033c-0.2753906,2.1781311,1.9418945,5.4371033,3.9992065,6.9551392
		c2.7123718,2.0014038,6.3908081,2.6479187,9.5566406,4.0904541c5.558197,2.5325623,8.1078186,6.7127991,7.6643677,12.1682434
		c-0.4620056,5.6840515-3.8616638,10.0895386-9.5090942,11.4855957c-6.8244019,1.6871033-13.2063599,1.0325012-18.7509155-5.6388855
		c1.444458-0.875885,2.8317871-1.7171021,3.3353882-2.0224915c4.2116394,1.148468,7.9632568,2.7823486,11.8086853,3.0455627
		c3.7255249,0.2550049,6.6594238-2.086792,7.3945618-6.0828857c0.7455444-4.052948-1.191803-6.6780396-4.9464111-8.1107178
		c-2.9439392-1.1232605-5.9271851-2.1656494-8.7959595-3.4590759c-5.847168-2.6361389-7.9453125-6.3458252-7.4081421-12.6785889
		c0.4529724-5.3403625,3.9179077-9.2986755,9.568634-10.7515564
		C364.4593506,338.3963318,369.9089661,339.2875671,375.1739502,344.7695313z"/>
	<path class="st14" d="M278.8568726,340.5719604c10.607605,0,21.2124023,0,32.4372559,0
		c0.0667419,1.4225769,0.1367188,2.9143066,0.2346497,5.00177c-4.8016968,0-9.0534668,0-13.6995239,0
		c0,13.3237915,0,26.0936279,0,39.4119873c-1.9128418,0.1025391-3.4376221,0.1842651-5.5657349,0.2983704
		c0-13.3891296,0-26.2870789,0-39.7637939c-3.6811523,0-6.8024902-0.1333008-9.9075928,0.0343628
		C278.6341858,345.7555847,277.5021057,344.2903748,278.8568726,340.5719604z"/>
	<path class="st15" d="M995.9626465,340.911438c-3.5498657,5.7416077-6.7281494,11.5647583-10.5722046,16.9090271
		c-3.897583,5.4186096-5.5803833,11.131073-4.934021,17.7249756c0.2893677,2.9525146,0.0488892,5.9570007,0.0488892,9.3306274
		c-1.7217407,0.111969-3.114624,0.2025757-4.5712891,0.2973022c-2.402771-7.8588257,1.8469849-16.1938171-3.173584-23.4973145
		c-4.5117798-6.5631714-8.4507446-13.5200806-12.8709106-20.6731262c3.8591919-1.3606873,6.3283691-0.8305054,8.2597656,2.8554688
		c2.8497314,5.4385681,6.1624756,10.6345825,9.7311401,16.7045898c3.5305176-5.8078918,6.954834-11.0429688,9.9480591-16.5138245
		C989.6329956,340.7509155,991.8189087,339.4476013,995.9626465,340.911438z"/>
	<path class="st8" d="M163.0736694,340.5820923c1.6567993,0,2.9190521,0,4.4963074,0c0,14.7765503,0,29.3287354,0,44.2797852
		c-1.4094238,0.0985718-2.7906647,0.1951294-4.4963074,0.3143921
		C163.0736694,370.242218,163.0736694,355.6687317,163.0736694,340.5820923z"/>
	<path class="st16" d="M563.7570801,384.9966736c-1.5147095,0-2.7988892,0-4.395752,0c0-14.6792297,0-29.2516479,0-44.2766418
		c1.2756348-0.1049194,2.6574707-0.2185974,4.395752-0.3616028
		C563.7570801,355.3026733,563.7570801,369.8575745,563.7570801,384.9966736z"/>
	<path class="st17" d="M851.602417,214.4350128c-20.147644,0.2006378-34.7958374-13.1120758-36.7028809-33.2247162
		c-1.2318726-12.9914093,0.0356445-25.481842,9.0755005-35.6262054
		c10.8473511-12.1726837,24.8734131-14.0517426,39.7642212-9.822403
		c14.8053589,4.2050476,22.1083374,15.3730011,24.102478,29.9463501c0.8642578,6.3159943,0.8047485,13.0397186-0.3516846,19.2980042
		C884.0410767,203.670639,870.7141724,214.2446899,851.602417,214.4350128z"/>
	<path class="st0" d="M553.6216431,174.5131073c-0.6420898,4.3160858-0.9069214,9.0119019-2.0802612,13.4685516
		c-4.5539551,17.2967682-18.7131958,27.3461609-36.798645,26.4638214
		c-18.7034302-0.9124908-31.5167847-11.9503326-34.6871338-29.8296204
		c-1.625824-9.1689301-1.3193359-18.2112122,1.7511597-27.0535583
		c5.6891174-16.3833313,19.3964233-24.7577667,38.4061279-23.5439148
		c15.7164917,1.00354,28.380127,12.0127869,31.7058716,27.8020172
		C552.7701416,165.8623352,553.0370483,170.0273895,553.6216431,174.5131073z"/>
	<path class="st18" d="M491.1369324,363.0307007c-0.0357666,10.8180847-7.0482178,18.4179382-16.8731384,18.2866211
		c-9.530426-0.1273804-16.3070984-7.7356262-16.3354187-18.3400879
		c-0.0285339-10.6827698,7.1543579-18.7753906,16.6412048-18.7488708
		C484.0840149,344.2549744,491.1724243,352.2996216,491.1369324,363.0307007z"/>
	<path class="st18" d="M917.270752,380.1386414c0-11.6232605,0-22.8542786,0-34.637207
		c8.475769,0.2766418,17.6090088-2.1236572,23.2706299,6.4533997c4.4274292,6.7073059,4.446167,14.4405212,0.326355,21.3151245
		C935.3525391,382.4727783,925.9706421,379.9006348,917.270752,380.1386414z"/>
	<path class="st19" d="M723.0278931,360.4437256c0-5.5794373,0-10.0295105,0-15.2973022
		c4.1452637,0.3160706,8.2497559-0.0265198,11.8554688,1.1542358c2.1026611,0.6885681,4.6942749,3.7928772,4.7293091,5.8500671
		c0.0394897,2.3220215-2.0522461,5.9765625-4.0928345,6.7543945
		C731.8439941,360.3062744,727.5158081,359.9959717,723.0278931,360.4437256z"/>
	<path class="st19" d="M136.4746094,368.925354c-5.7522583,0-10.8247757,0-16.8223038,0
		c2.7325592-6.9370728,5.3466263-13.5733643,8.5462723-21.696228
		C131.2105408,355.1252136,133.7498169,361.7821045,136.4746094,368.925354z"/>
	<path class="st20" d="M31.2205086,368.9804077c-5.9244003,0-11.0194664,0-16.9094582,0
		c2.7799301-7.0268555,5.3751621-13.586853,8.5886135-21.7095337
		C25.9388332,355.2002563,28.4759274,361.8196411,31.2205086,368.9804077z"/>
</g>
</svg>
