<?xml version="1.0" encoding="utf-8"?>
<!-- Generator: Adobe Illustrator 19.0.1, SVG Export Plug-In . SVG Version: 6.00 Build 0)  -->
<svg version="1.1" id="Слой_1" xmlns="http://www.w3.org/2000/svg" xmlns:xlink="http://www.w3.org/1999/xlink" x="0px" y="0px"
	 viewBox="0 0 468.6990356 468.619873" style="enable-background:new 0 0 468.6990356 468.619873;" xml:space="preserve">
<style type="text/css">
	.st0{fill:#FFFFFF;}
</style>
<g>
	<path class="st0" d="M-16.2969913,483.7789612c-0.0000229-166.6664734-0.0000229-333.3330688-0.0000458-499.9997253
		c166.6665344-0.0000515,333.3330688-0.0000515,499.9997253-0.0001049
		c0.000061,166.6664581,0.000061,333.3329773,0.0001526,499.9995728
		C317.0363159,483.7788391,150.3696747,483.7788391-16.2969913,483.7789612z M468.6990356,235.0323639
		c-0.3583374-64.0854797-23.7098389-119.0421066-63.739624-161.2702179
		C360.0066528,26.3406944,304.1684875,1.3423823,238.9350891,0.0519961
		C174.0643311-1.2312137,117.3259277,21.2454987,70.8122025,66.5146179
		C24.2811108,111.800621,0.4109274,168.0035095,0.0052134,232.8392639
		C-0.3895677,295.927948,21.6380901,351.307251,65.5595703,396.8656006
		c44.1542969,45.7998352,98.8158875,70.2471313,162.3753204,71.6893616
		C364.7197266,471.658783,468.0142822,362.9984741,468.6990356,235.0323639z"/>
	<path d="M468.6990356,235.0323639c-0.6847534,127.9661102-103.9793091,236.6264191-240.7641449,233.5225983
		c-63.559433-1.4422302-118.2210236-25.8895264-162.3753204-71.6893616
		C21.6380901,351.307251-0.3895677,295.927948,0.0052134,232.8392639
		c0.405714-64.8357544,24.275898-121.0386429,70.8069916-166.324646
		C117.3259277,21.2454987,174.0643311-1.2312137,238.9350891,0.0519961
		c65.2333984,1.2903862,121.0715637,26.2886982,166.0243225,73.7101517
		C444.9891968,115.9902573,468.3406982,170.9468842,468.6990356,235.0323639z M234.2250671,444.9638367
		c117.2608643,0.4269714,205.1395569-94.6219177,210.4233398-197.8805542
		c3.0078125-58.7800751-14.9486084-110.6511841-54.5632019-154.1809998
		C351.2801819,50.2619934,302.4784546,26.8434486,244.8076477,23.94907
		c-59.0340271-2.9627953-110.801239,16.3177147-153.9613647,56.4776802
		c-41.4781189,38.5948639-64.2448883,86.9519882-66.9387665,143.6256714
		C21.1145039,282.811676,40.0938568,334.5481567,80.250824,377.5681458
		C121.6934967,421.9655457,173.4132996,444.2408752,234.2250671,444.9638367z"/>
	<path class="st0" d="M234.2250671,444.9638367c-60.8117676-0.7229614-112.5315704-22.998291-153.9742432-67.3956909
		c-40.1569672-43.019989-59.136322-94.7564697-56.3432999-153.5157318
		c2.693882-56.6736755,25.4606495-105.0307999,66.9387665-143.6256714
		c43.1601181-40.1599655,94.92733-59.4404755,153.9613647-56.4776802
		c57.6708069,2.8943787,106.4725342,26.3129234,145.2775574,68.9532166
		c39.6145935,43.5298157,57.5710144,95.4009247,54.5632019,154.1809998
		C439.364624,350.3419189,351.4859314,445.3908081,234.2250671,444.9638367z M242.9795837,359.7751465
		c7.6653137,0,15.3760071,0.522644,22.9838867-0.1385193c8.5945129-0.7469482,17.3921204-1.586731,25.5855103-4.0809631
		c29.0539856-8.844696,49.66745-27.3678894,59.7095337-56.3104858c2.8457031-8.2017517,2.8562012-17.3474426,4.7956238-25.9179688
		c1.2190857-5.387207-0.3622742-9.5267944-4.1814575-12.65979c-3.5175781-2.8855591-8.0680847-4.1514282-12.3335266-1.677124
		c-4.0948792,2.3753357-6.8605957,5.9506226-6.8898926,11.1820679c-0.0192261,3.4290466-0.3985901,6.8878784-0.958252,10.2769775
		c-4.2852478,25.9493713-24.5811768,47.6468506-50.1221924,53.250946
		c-5.7229309,1.2556458-11.6870728,1.9888611-17.5380859,1.9763489
		c-18.0917664-0.0386047-36.3078918,0.6508789-54.2390594-1.2158508
		c-18.5744781-1.9337463-33.2384796-12.4742432-43.9953613-27.6795044
		c-8.119278-11.4768982-12.0847321-24.5257263-12.1278839-38.7037659c-0.019165-6.2930298-4.3805237-11.052124-9.970993-11.2934875
		c-6.6829071-0.2885742-12.8084412,3.4753723-12.8416748,8.771637c-0.0464325,7.3965759,0.0102539,14.9653015,1.4692688,22.1672974
		c4.195694,20.7106018,14.5321503,37.9732666,31.1251831,51.2960205
		c9.6692352,7.7634888,20.5228729,13.1836548,32.382431,16.7997131
		C211.2928009,360.5325623,227.1536255,359.7915955,242.9795837,359.7751465z M201.6720123,161.0216522
		c0.9602356-7.34198-4.4170837-10.7611237-9.1212463-14.1816254c-9.9160309-7.2101593-21.1765137-9.7158661-33.4329987-9.1558075
		c-12.4291534,0.5679626-22.8855896,5.127182-31.5370331,13.8161469c-6.2469788,6.2740631-3.6866455,16.3508759,4.508667,19.2944641
		c5.534256,1.9878235,9.8080139-0.2680664,13.7292938-3.6802521c4.776123-4.1560364,10.2709808-6.2390442,16.5432434-6.330307
		c8.1810303-0.1190491,14.6684113,3.745697,20.6883698,8.796936c3.9868317,3.3452759,8.647171,2.8945313,13.0373688,1.3001556
		C200.5002289,169.2789001,202.1395569,165.5701599,201.6720123,161.0216522z M343.0658875,172.8066254
		c5.1825867-0.4792023,8.6280823-2.1772614,10.71521-6.3908234c2.1763306-4.3935699,2.3415222-8.8574982-0.8356323-12.7178192
		c-2.1712036-2.6380463-4.8924866-4.9139404-7.6613464-6.9532928c-10.1062012-7.4435425-21.5933228-9.7315063-33.9588928-9.0068207
		c-12.3616028,0.7244568-22.8368225,5.4912872-31.3084717,14.333725c-5.5983276,5.8433838-2.6932678,15.9022369,4.878479,18.7055664
		c5.2778625,1.9540253,9.5629883,0.0179443,13.4193726-3.1853333c11.2868652-9.375412,25.2877502-9.0451508,36.5637207,0.7220917
		C337.1787415,170.3065186,340.3149414,171.3341675,343.0658875,172.8066254z"/>
	<path d="M242.9795837,359.7751465c-15.8259583,0.016449-31.6867828,0.7574158-47.1469421-3.9564514
		c-11.8595581-3.6160583-22.7131958-9.0362244-32.382431-16.7997131
		c-16.5930328-13.3227539-26.9294891-30.5854187-31.1251831-51.2960205
		c-1.4590149-7.2019958-1.5157013-14.7707214-1.4692688-22.1672974c0.0332336-5.2962646,6.1587677-9.0602112,12.8416748-8.771637
		c5.5904694,0.2413635,9.951828,5.0004578,9.970993,11.2934875c0.0431519,14.1780396,4.008606,27.2268677,12.1278839,38.7037659
		c10.7568817,15.2052612,25.4208832,25.7457581,43.9953613,27.6795044
		c17.9311676,1.8667297,36.1472931,1.1772461,54.2390594,1.2158508c5.8510132,0.0125122,11.815155-0.7207031,17.5380859-1.9763489
		c25.5410156-5.6040955,45.8369446-27.3015747,50.1221924-53.250946c0.5596619-3.3890991,0.9390259-6.8479309,0.958252-10.2769775
		c0.0292969-5.2314453,2.7950134-8.8067322,6.8898926-11.1820679c4.2654419-2.4743042,8.8159485-1.2084351,12.3335266,1.677124
		c3.8191833,3.1329956,5.4005432,7.272583,4.1814575,12.65979c-1.9394226,8.5705261-1.9499207,17.716217-4.7956238,25.9179688
		c-10.0420837,28.9425964-30.6555481,47.4657898-59.7095337,56.3104858
		c-8.1933899,2.4942322-16.9909973,3.3340149-25.5855103,4.0809631
		C258.3555908,360.2977905,250.6448975,359.7751465,242.9795837,359.7751465z"/>
	<path d="M201.6720123,161.0216522c0.4675446,4.5485077-1.1717834,8.2572479-5.5843353,9.8597107
		c-4.3901978,1.5943756-9.0505371,2.0451202-13.0373688-1.3001556c-6.0199585-5.051239-12.5073395-8.9159851-20.6883698-8.796936
		c-6.2722626,0.0912628-11.7671204,2.1742706-16.5432434,6.330307c-3.9212799,3.4121857-8.1950378,5.6680756-13.7292938,3.6802521
		c-8.1953125-2.9435883-10.7556458-13.020401-4.508667-19.2944641c8.6514435-8.6889648,19.1078796-13.2481842,31.5370331-13.8161469
		c12.256485-0.5600586,23.5169678,1.9456482,33.4329987,9.1558075
		C197.2549286,150.2605286,202.6322479,153.6796722,201.6720123,161.0216522z"/>
	<path d="M343.0658875,172.8066254c-2.750946-1.4724579-5.887146-2.5001068-8.187561-4.4927063
		c-11.2759705-9.7672424-25.2768555-10.0975037-36.5637207-0.7220917c-3.8563843,3.2032776-8.14151,5.1393585-13.4193726,3.1853333
		c-7.5717468-2.8033295-10.4768066-12.8621826-4.878479-18.7055664c8.4716492-8.8424377,18.9468689-13.6092682,31.3084717-14.333725
		c12.3655701-0.7246857,23.8526917,1.5632782,33.9588928,9.0068207c2.7688599,2.0393524,5.4901428,4.3152466,7.6613464,6.9532928
		c3.1771545,3.860321,3.0119629,8.3242493,0.8356323,12.7178192
		C351.6939697,170.629364,348.2484741,172.3274231,343.0658875,172.8066254z"/>
</g>
</svg>
