<?xml version="1.0" encoding="utf-8"?>
<!-- Generator: Adobe Illustrator 19.0.1, SVG Export Plug-In . SVG Version: 6.00 Build 0)  -->
<svg version="1.1" id="Слой_1" xmlns="http://www.w3.org/2000/svg" xmlns:xlink="http://www.w3.org/1999/xlink" x="0px" y="0px"
	 viewBox="0 0 499.9638977 499.75" style="enable-background:new 0 0 499.9638977 499.75;" xml:space="preserve">
<style type="text/css">
	.st0{fill:#FFFFFF;}
</style>
<g>
	<path class="st0" d="M0,499.75C0,333.2490845,0,166.6064911,0,0c166.6787109,0,333.3213196,0,499.9638977,0
		c0,166.5361023,0,333.0361023,0,499.75C333.2974548,499.75,166.6307068,499.75,0,499.75z M45.535347,346.4163208
		c-2.2829971-5.368927-4.5646286-10.368042-6.5558319-15.4803162c-8.9710484-23.0325012-13.7265968-46.9969177-14.9403-71.6160889
		c-0.7490921-15.194809,0.4551067-30.3170776,2.8203907-45.3974609
		c3.1561279-20.1225739,9.1065922-39.3621521,17.5837193-57.7662201
		c8.3029099-18.0258179,18.9787941-34.577507,31.5933647-50.0402985
		c13.2569199-16.2501602,28.5935364-30.0447006,45.6159363-41.9880219
		c15.4011307-10.8057976,32.0503464-19.405983,49.7387161-26.0221596
		c22.394516-8.3764629,45.5211945-13.3088188,69.3401031-13.9547977
		c14.0042267-0.3797989,28.0562134,1.2466888,42.0944214,1.7608852c6.1974182,0.227005,9.887146-3.489212,10.1318359-9.530941
		c0.2061462-5.0906916-3.8536377-9.7589025-9.0531616-10.4059372c-5.3618164-0.667232-10.7129822-1.7852383-16.0880127-1.9162478
		c-20.355545-0.4961381-40.7882538-0.7641721-60.8552246,3.1127305
		c-18.700592,3.6129189-36.9590454,8.8265333-54.5868988,16.4677963
		c-26.1333237,11.3281841-49.6963882,26.4453335-70.277916,45.9532013
		c-9.7931824,9.2823029-18.5340958,19.7372055-27.2367706,30.0936203
		c-14.6456413,17.4286728-25.1198444,37.4406891-33.7441521,58.3392334
		c-9.7783184,23.6949615-15.329814,48.5928802-16.9572735,74.114212
		c-1.2950573,20.3087006-0.7095017,40.7650299,2.9873395,60.852066
		c5.1689796,28.0859985,14.6348572,54.7249451,29.0001583,79.5281982
		c13.9632263,24.1090698,31.3027496,45.3496704,52.3970642,63.6514282
		c19.5861664,16.9932861,41.2556076,30.4590454,65.0108566,40.6767273
		c25.2722778,10.8702087,51.7425537,17.4723816,79.1081696,18.8175354
		c17.7885284,0.8743591,35.8542633,0.1104431,53.5438995-2.0155945c22.1903992-2.6669617,43.6477661-9.1026001,64.098053-18.4400024
		c32.7102661-14.9352417,61.0534058-35.6230774,84.855072-62.7554016
		c17.4532776-19.8954468,31.197937-41.9263611,41.7185669-66.0921021
		c11.0610962-25.4071655,17.3580933-52.0970764,18.8032837-79.6213684
		c0.855011-16.2844086-0.0718079-32.830307-2.0036926-49.0433807c-1.7447815-14.6424866-5.1905823-29.2085419-9.2598877-43.4148254
		c-4.766449-16.6399994-12.3200378-32.2468719-20.9019775-47.3462601
		c-9.2789307-16.3257065-20.4248352-31.2426834-33.1357422-44.9687805
		c-14.9431152-16.1365204-31.6672974-30.3223648-50.6495972-41.4296074
		c-12.0692749-7.0621681-24.7811279-13.1567879-37.6191406-18.7311134
		c-9.3853455-4.0751553-15.1208496,3.0963058-14.1350403,11.3144798c0.6899414,5.7519569,5.7169189,6.9759598,9.7434692,8.6555672
		c24.9045105,10.3884239,47.1604919,24.9209061,66.6818237,43.3804169
		c9.1979675,8.6976318,17.3672485,18.5555267,25.4215393,28.36483c5.4286804,6.6115189,9.8409729,14.0576172,14.8523865,21.3403015
		c-2.4358521,1.5427246-4.1382141,2.7858887-5.9815369,3.7632751
		c-22.5250244,11.9438629-45.0740967,23.8424225-67.6102295,35.7653809
		c-22.6824646,12.0003815-45.3574219,24.0149689-68.035675,36.0233459s-45.3565063,24.0167694-68.0347443,36.0251465
		c-22.6782684,12.0083771-45.3521881,24.0249176-68.0361633,36.0225067
		c-17.627655,9.3233337-35.2593842,18.6390381-52.9045868,27.9291382
		C91.5233688,322.2631226,68.9594193,334.1056824,45.535347,346.4163208z M350.5288086,143.9599304
		c7.6575928,0,15.320282,0.1650391,22.970459-0.0731812c3.5524902-0.110611,7.1916199-0.6235352,10.5991516-1.6150208
		c10.8183594-3.1478119,19.3852539-14.6760864,19.9397888-25.2341385
		c0.7913208-15.0662384-8.3973694-26.3923645-19.7222595-30.1855087c-2.0197144-0.6764679-4.281189-2.2823868-5.2770386-4.0936432
		c-6.0137939-10.9375076-15.0057373-17.0885925-27.4824219-17.7590179
		c-14.3544312-0.7713165-24.8138428,5.5956421-32.096283,17.8153839c-1.2005615,2.0145035-3.1497498,4.0441818-5.2402954,4.9918289
		c-13.1904907,5.9792557-18.9936829,20.0980301-16.9847412,31.4604874
		c2.8147278,15.9199524,15.9876099,24.452713,29.3224792,24.6689606
		C334.546051,144.0656281,342.5382996,143.9598694,350.5288086,143.9599304z M91.6788483,276.8417664
		c0.0000076-0.0132446,0.0000076-0.0264893,0.0000153-0.0397339c8.9927902,0,18.0001068,0.298584,26.9716644-0.1378174
		c3.9305191-0.1911926,8.2711487-1.0698242,11.5909119-3.0415649c11.3589783-6.7464905,16.4558563-16.9871826,14.53685-30.2502136
		c-1.7032013-11.7712555-8.7523193-19.1427307-19.6546783-23.3148499c-1.674202-0.640686-3.0941162-2.1903534-4.3796234-3.5567322
		c-3.9810104-4.2313843-7.1557159-9.6319427-11.8685913-12.6912842
		c-17.9186478-11.6317749-39.8011398-4.8473511-48.8271408,14.1278076c-0.5505066,1.1573181-1.594429,2.4993439-2.7152901,2.9018402
		c-12.9308701,4.6434174-19.5409966,17.6587372-18.5779457,30.3231049
		c1.0450783,13.743042,15.1082001,26.7003784,28.9491501,25.7758484
		C75.6623688,276.4065857,83.6851425,276.8417664,91.6788483,276.8417664z M201.912674,103.9678497
		c-23.6663361-1.1272354-44.9031067,19.335762-44.7729492,44.333847
		c0.1270142,24.3943329,18.7024536,43.4765015,42.5057983,44.7498016
		c26.873703,1.4375458,47.4339142-20.3609314,47.3140411-44.7602692
		C246.8427582,124.5195923,227.6160278,102.9944992,201.912674,103.9678497z M252.7313385,211.7883606
		c8.203598-0.7629242,13.2499542-6.3034821,9.8126068-13.0499268c-3.0280762-5.943222-8.5637054-11.0614777-14.0730743-15.0512543
		c-2.0277252-1.4684601-7.9932404,0.3041687-10.6364899,2.4651642c-2.9784088,2.4349976-4.4677582,7.1392059-1.548233,11.1139069
		c2.7166748,3.6985168,5.7468719,7.245575,9.0936737,10.3727417
		C247.3780975,209.5061035,250.2513885,210.4367523,252.7313385,211.7883606z M140.5592499,98.4268875
		c0.5391693,2.0269928,0.4999847,4.5496368,1.7298584,5.9846802c3.2221375,3.759697,6.6788788,7.4754639,10.6355438,10.4081039
		c4.7703705,3.5357361,10.8492126,2.6038055,13.7664032-1.2579575c3.5582581-4.7104263,3.0898285-10.2297897-1.2707672-14.641304
		c-2.5746002-2.60466-5.0548401-5.322197-7.8056488-7.7281265c-3.4777832-3.0417557-7.5741882-3.2513733-11.751709-1.6214218
		C141.9004211,91.1169281,140.6865845,94.3277817,140.5592499,98.4268875z M150.7774963,211.9503632
		c2.7262421-1.5350952,5.6560974-2.8027496,8.1217499-4.680069c2.4949799-1.8996735,4.5420227-4.3914032,6.76474-6.644043
		c3.3806915-3.4261932,4.2058716-9.5742035,1.8408051-13.5526581c-1.9820251-3.3341064-7.7103882-5.6764832-11.7679138-3.0288849
		c-5.332016,3.4792328-10.927536,7.8721161-13.9329529,13.2549591
		C138.3067017,203.5633698,142.645752,211.2415009,150.7774963,211.9503632z M243.8033295,117.629982
		c2.342514-0.7439957,3.6784821-0.7856979,4.4312134-1.4694519c4.8856659-4.4379425,10.1388702-8.6139526,14.2653046-13.6933212
		c2.6086731-3.2111588,0.7110291-9.4695053-2.3883057-11.7856064c-3.5521545-2.6544647-9.5778961-3.1034317-13.4488678,0.2172623
		c-3.1365204,2.6906433-6.0808258,5.6583023-8.7875977,8.7827301c-2.9897461,3.4510651-4.234787,7.781662-1.5352631,11.6763458
		C238.2184753,114.0683441,241.5275116,115.7873077,243.8033295,117.629982z M211.9591217,83.1527557
		c0-2.3328552,0.0520172-4.6671066-0.0109253-6.9982605c-0.1269379-4.7025146-3.1273346-8.3340988-8.1379852-9.0638885
		c-4.3134613-0.6282578-9.2380981,0.4783783-10.0860748,4.9233704c-1.2588806,6.598877-1.5519714,13.6477661-0.6826324,20.2994614
		c0.6491852,4.9670944,6.4738464,7.5588303,11.0102081,6.5797577c5.2899628-1.1417236,7.8710175-4.4804611,7.9063721-10.2415771
		C211.9693298,86.8187332,211.9598389,84.9857101,211.9591217,83.1527557z M269.181366,140.0869293
		c0,0.007431,0,0.0148621,0,0.0222931c-2.3231201,0-4.6481323,0.0611115-6.9689331-0.0124664
		c-5.1705933-0.1639099-7.6003876,2.9430695-8.9302521,7.3779907c-0.9759521,3.2546692,0.8497925,10.4866333,5.0400543,10.9396973
		c6.5841675,0.7118988,13.3587341,1.2948151,19.8726501,0.4848938c4.8098755-0.598053,7.5874329-6.5338898,6.6329956-10.9016571
		c-1.1618042-5.3166962-4.4465332-7.874588-10.1704407-7.9090271
		C272.8321533,140.0776672,271.0067139,140.0869293,269.181366,140.0869293z M211.8538666,217.5997467
		c0.0080109-0.0000153,0.0160217-0.0000153,0.0240326-0.0000305c0-2.3215332,0.0548859-4.6446228-0.0106964-6.9642944
		c-0.1691895-5.9845276-3.6189575-9.4315796-9.4427185-9.5065918c-6.4734344-0.0833588-9.9567719,2.8900604-10.2446136,9.1027679
		c-0.207016,4.4679871-0.1596527,8.9563446-0.021759,13.4293213c0.1358032,4.4060822,5.4437561,9.2465668,9.8486938,9.21315
		c5.7750702-0.043808,9.6654663-3.7023621,9.8373108-9.3054657
		C211.9050903,221.5807648,211.8538666,219.5894623,211.8538666,217.5997467z M135.4606781,139.9684143
		c-1.9940033,0-3.9886932-0.0343628-5.9818573,0.0065155c-5.7516785,0.1179047-10.50634,4.6621094-10.4961624,9.9981537
		c0.0098267,5.1547089,5.1108627,9.9186554,10.7442856,9.9787903c3.8214111,0.040802,7.6439667,0.0421448,11.465332-0.0001068
		c6.0591278-0.0669708,9.7395325-3.8083344,9.7673798-9.8630981c0.0293732-6.3848572-3.5969391-10.0537109-10.0155029-10.1178741
		C139.1165009,139.9525299,137.2885132,139.9680023,135.4606781,139.9684143z M301.088501,20.9642086
		c0.0510864,5.4762344,4.597168,10.6530399,9.4058533,10.7108212c5.4266052,0.0652046,10.3664551-4.8119717,10.344635-10.2134075
		c-0.0233154-5.7820435-4.4491272-10.4802475-9.9148865-10.3936081
		C305.3253174,11.1567621,301.133606,15.3690395,301.088501,20.9642086z"/>
	<path d="M45.535347,346.4163208c23.4240723-12.3106384,45.9880219-24.1531982,68.5366135-36.0249023
		c17.6452026-9.2901001,35.2769318-18.6058044,52.9045868-27.9291382
		c22.6839752-11.9975891,45.3578949-24.0141296,68.0361633-36.0225067
		c22.6782379-12.0083771,45.3564911-24.0167694,68.0347443-36.0251465s45.3532104-24.0229645,68.035675-36.0233459
		c22.5361328-11.9229584,45.0852051-23.8215179,67.6102295-35.7653809c1.8433228-0.9773865,3.5456848-2.2205505,5.9815369-3.7632751
		c-5.0114136-7.2826843-9.4237061-14.7287827-14.8523865-21.3403015
		c-8.0542908-9.8093033-16.2235718-19.6671982-25.4215393-28.36483
		c-19.5213318-18.4595108-41.7773132-32.991993-66.6818237-43.3804169
		c-4.0265503-1.6796074-9.0535278-2.9036102-9.7434692-8.6555672c-0.9858093-8.218174,4.7496948-15.3896351,14.1350403-11.3144798
		c12.8380127,5.5743256,25.5498657,11.6689453,37.6191406,18.7311134
		c18.9822998,11.1072426,35.7064819,25.293087,50.6495972,41.4296074
		c12.710907,13.7260971,23.8568115,28.643074,33.1357422,44.9687805
		c8.5819397,15.0993881,16.1355286,30.7062607,20.9019775,47.3462601
		c4.0693054,14.2062836,7.5151062,28.7723389,9.2598877,43.4148254c1.9318848,16.2130737,2.8587036,32.7589722,2.0036926,49.0433807
		c-1.4451904,27.524292-7.7421875,54.2142029-18.8032837,79.6213684
		c-10.5206299,24.165741-24.2652893,46.1966553-41.7185669,66.0921021
		c-23.8016663,27.1323242-52.1448059,47.8201599-84.855072,62.7554016
		c-20.4502869,9.3374023-41.9076538,15.7730408-64.098053,18.4400024
		c-17.6896362,2.1260376-35.7553711,2.8899536-53.5438995,2.0155945
		c-27.3656158-1.3451538-53.8358917-7.9473267-79.1081696-18.8175354
		c-23.755249-10.2176819-45.4246902-23.6834412-65.0108566-40.6767273
		c-21.0943146-18.3017578-38.4338379-39.5423584-52.3970642-63.6514282
		c-14.3653011-24.8032532-23.8311787-51.4421997-29.0001583-79.5281982
		c-3.6968412-20.0870361-4.2823968-40.5433655-2.9873395-60.852066c1.62746-25.5213318,7.1789556-50.4192505,16.9572735-74.114212
		c8.6243076-20.8985443,19.0985107-40.9105606,33.7441521-58.3392334
		c8.7026749-10.3564148,17.4435883-20.8113174,27.2367706-30.0936203
		c20.5815277-19.5078697,44.1445923-34.6250191,70.277916-45.9532013
		c17.6278534-7.6412621,35.8863068-12.8548765,54.5868988-16.4677963
		c20.0669708-3.8769026,40.4996796-3.6088686,60.8552246-3.1127305c5.3750305,0.1310096,10.7261963,1.2490158,16.0880127,1.9162478
		c5.1995239,0.6470346,9.2593079,5.3152456,9.0531616,10.4059372c-0.2446899,6.041729-3.9344177,9.757946-10.1318359,9.530941
		c-14.038208-0.5141964-28.0901947-2.1406841-42.0944214-1.7608852
		c-23.8189087,0.6459789-46.9455872,5.5783348-69.3401031,13.9547977
		c-17.6883698,6.6161766-34.3375854,15.216362-49.7387161,26.0221596
		c-17.0223999,11.9433212-32.3590164,25.7378616-45.6159363,41.9880219
		c-12.6145706,15.4627914-23.2904549,32.0144806-31.5933647,50.0402985
		c-8.4771271,18.404068-14.4275913,37.6436462-17.5837193,57.7662201
		c-2.365284,15.0803833-3.5694828,30.202652-2.8203907,45.3974609c1.2137032,24.6191711,5.9692516,48.5835876,14.9403,71.6160889
		C40.9707184,336.0482788,43.2523499,341.0473938,45.535347,346.4163208z M455.274353,152.7428131
		c-2.9805298,1.773941-4.1847839,2.5639801-5.4523926,3.2342987
		c-24.5716248,12.9936981-49.1555786,25.9641571-73.7264404,38.9593048
		c-15.7481384,8.328949-31.4706116,16.7064667-47.2198792,25.0332947
		c-29.046875,15.3574066-58.1113281,30.6815796-87.1559906,46.0431671
		c-16.3289642,8.6363831-32.6217651,17.341156-48.9508057,25.977417
		c-29.0446472,15.3615112-58.0968628,30.7087097-87.1609192,46.0334167
		c-15.626976,8.2396851-31.2660751,16.4569702-46.9480705,24.5911255c-2.5934448,1.3452148-3.5556183,2.4183655-1.4540558,5.2080383
		c8.4536858,11.2217102,15.9953575,23.2154846,25.2052574,33.7613831
		c11.9341049,13.6652222,25.7911301,25.4271851,40.9795532,35.5556946
		c14.4764099,9.6536255,29.8002625,17.5690002,45.9748993,23.9252014
		c22.0836029,8.6782227,45.0759125,13.385498,68.6530762,14.7675171c15.9997253,0.9378662,31.984436-0.1713562,47.90271-2.7474976
		c20.2679749-3.2800903,39.6587219-9.2073059,58.2122498-17.8070374
		c18.0228882-8.3537903,34.5745239-18.9959717,49.9872742-31.6865845
		c15.2723083-12.5750427,28.3730469-26.9417114,39.8699646-42.8809204
		c11.7138672-16.2399597,20.9359741-33.8178406,27.9844666-52.5837708
		c8.1713867-21.7554932,12.6652527-44.2747498,13.9043884-67.386322
		c1.1431274-21.3204346-0.7658081-42.5498657-6.1178284-63.1940155
		C465.905365,182.6712646,460.3527222,168.235733,455.274353,152.7428131z"/>
	<path d="M350.5288086,143.9598999c-7.990509-0.0000305-15.9827576,0.1057281-23.9711609-0.023819
		c-13.3348694-0.2162476-26.5077515-8.7490082-29.3224792-24.6689606
		c-2.0089417-11.3624573,3.7942505-25.4812317,16.9847412-31.4604874c2.0905457-0.9476471,4.0397339-2.9773254,5.2402954-4.9918289
		c7.2824402-12.2197418,17.7418518-18.5867004,32.096283-17.8153839
		c12.4766846,0.6704254,21.4686279,6.8215103,27.4824219,17.7590179c0.9958496,1.8112564,3.2573242,3.4171753,5.2770386,4.0936432
		c11.3248901,3.7931442,20.5135803,15.1192703,19.7222595,30.1855087
		c-0.5545349,10.5580521-9.1214294,22.0863266-19.9397888,25.2341385
		c-3.4075317,0.9914856-7.0466614,1.5044098-10.5991516,1.6150208
		C365.8490906,144.1249695,358.1864014,143.9599304,350.5288086,143.9598999z M350.9118042,124.435524
		c0.0076599-0.1571579,0.0153198-0.3143158,0.0229797-0.4714737c7.4969788,0,14.9963684,0.1150589,22.4900513-0.0421906
		c4.6636658-0.0978546,10.2310181-4.4089966,10.4223328-8.2128983c0.2041626-4.0598602-1.529541-7.4445038-5.5931702-8.9049988
		c-1.7863464-0.6419983-3.8180542-0.7384109-5.7489319-0.8147278c-5.2579651-0.20784-9.6190186-4.0717163-10.556427-9.2465515
		c-1.5193481-8.3875122-5.6369629-10.9555817-12.3627014-11.6662216c-5.9752197-0.63134-10.9787292,4.0355148-12.6723633,10.7549896
		c-1.8129272,7.1927719-4.2050476,9.2494507-11.7870178,10.1341019c-3.9083862,0.4560242-7.9794922,4.3038483-8.0462646,8.1540222
		c-0.0655823,3.78582,3.453949,8.6327515,7.1070557,8.8455734
		C333.093811,123.4840317,342.0034485,123.9489059,350.9118042,124.435524z"/>
	<path d="M91.6788483,276.8417664c-7.9937057,0-16.0164795-0.4351807-23.974678,0.096405
		c-13.84095,0.92453-27.9040718-12.0328064-28.9491501-25.7758484
		c-0.9630508-12.6643677,5.6470757-25.6796875,18.5779457-30.3231049c1.1208611-0.4024963,2.1647835-1.7445221,2.7152901-2.9018402
		c9.026001-18.9751587,30.908493-25.7595825,48.8271408-14.1278076c4.7128754,3.0593414,7.8875809,8.4598999,11.8685913,12.6912842
		c1.2855072,1.3663788,2.7054214,2.9160461,4.3796234,3.5567322c10.902359,4.1721191,17.9514771,11.5435944,19.6546783,23.3148499
		c1.9190063,13.263031-3.1778717,23.5037231-14.53685,30.2502136c-3.3197632,1.9717407-7.6603928,2.8503723-11.5909119,3.0415649
		c-8.9715576,0.4364014-17.9788742,0.1378174-26.9716644,0.1378174
		C91.6788559,276.8152771,91.6788559,276.8285217,91.6788483,276.8417664z M91.9389114,256.9669189
		c7.9978333,0,15.9966888,0.0771179,23.9931412-0.027832c5.1123123-0.0670776,9.1073151-4.2356262,9.0339737-9.1218567
		c-0.07061-4.7035675-3.9555206-8.6011963-8.8272476-8.8561249c-9.4058304-0.492157-11.0273056-1.7750092-13.150322-10.4040527
		c-1.6793137-6.8256073-6.0584183-9.8621521-13.8391647-9.596344c-5.2552261,0.1795349-10.3209381,5.003006-11.1913223,10.6562042
		c-0.8351212,5.4241333-4.3499222,8.8375854-9.6191177,9.3417358c-5.8271141,0.5575104-9.5263863,4.2297211-9.3770981,9.3084869
		c0.1479568,5.0335236,4.2769318,8.6666107,9.9834213,8.6920624
		C76.6096115,256.9934082,84.2743225,256.9676819,91.9389114,256.9669189z"/>
	<path d="M201.912674,103.9678497c25.7033539-0.9733505,44.9300842,20.5517426,45.0468903,44.3233795
		c0.119873,24.3993378-20.4403381,46.1978149-47.3140411,44.7602692
		c-23.8033447-1.2733002-42.3787842-20.3554688-42.5057983-44.7498016
		C157.0095673,123.3036118,178.2463379,102.8406143,201.912674,103.9678497z M177.9599609,148.5068054
		c-1.6443024,11.7683716,11.151474,24.8640137,24.1341095,24.3725739
		c13.9705811-0.5288086,24.2909698-10.7319946,24.5940247-24.406601
		c0.2902679-13.0969238-11.095932-24.1666107-24.6843719-24.5820999
		C190.5119324,123.5393143,176.1130676,136.1847229,177.9599609,148.5068054z"/>
	<path d="M252.7313385,211.7883606c-2.47995-1.3516083-5.353241-2.2822571-7.3515167-4.1493683
		c-3.3468018-3.1271667-6.3769989-6.6742249-9.0936737-10.3727417c-2.9195251-3.9747009-1.4301758-8.6789093,1.548233-11.1139069
		c2.6432495-2.1609955,8.6087646-3.9336243,10.6364899-2.4651642c5.5093689,3.9897766,11.0449982,9.1080322,14.0730743,15.0512543
		C265.9812927,205.4848785,260.9349365,211.0254364,252.7313385,211.7883606z"/>
	<path d="M140.5592499,98.4268875c0.1273346-4.0991058,1.3411713-7.3099594,5.3036804-8.8560257
		c4.1775208-1.6299515,8.2739258-1.4203339,11.751709,1.6214218c2.7508087,2.4059296,5.2310486,5.1234665,7.8056488,7.7281265
		c4.3605957,4.4115143,4.8290253,9.9308777,1.2707672,14.641304c-2.9171906,3.861763-8.9960327,4.7936935-13.7664032,1.2579575
		c-3.956665-2.9326401-7.4134064-6.648407-10.6355438-10.4081039
		C141.0592346,102.9765244,141.0984192,100.4538803,140.5592499,98.4268875z"/>
	<path d="M150.7774963,211.9503632c-8.1317444-0.7088623-12.4707947-8.3869934-8.9735718-14.6506958
		c3.0054169-5.382843,8.6009369-9.7757263,13.9329529-13.2549591c4.0575256-2.6475983,9.7858887-0.3052216,11.7679138,3.0288849
		c2.3650665,3.9784546,1.5398865,10.1264648-1.8408051,13.5526581c-2.2227173,2.2526398-4.2697601,4.7443695-6.76474,6.644043
		C156.4335938,209.1476135,153.5037384,210.4152679,150.7774963,211.9503632z"/>
	<path d="M243.8033295,117.629982c-2.2758179-1.8426743-5.5848541-3.5616379-7.4635162-6.2720413
		c-2.6995239-3.8946838-1.454483-8.2252808,1.5352631-11.6763458c2.7067719-3.1244278,5.6510773-6.0920868,8.7875977-8.7827301
		c3.8709717-3.320694,9.8967133-2.871727,13.4488678-0.2172623c3.0993347,2.3161011,4.9969788,8.5744476,2.3883057,11.7856064
		c-4.1264343,5.0793686-9.3796387,9.2553787-14.2653046,13.6933212
		C247.4818115,116.8442841,246.1458435,116.8859863,243.8033295,117.629982z"/>
	<path d="M211.9594727,83.1527557c0.0003662,1.8329544,0.0098572,3.6659775-0.0013885,5.4988632
		c-0.0353546,5.761116-2.6164093,9.0998535-7.9063721,10.2415771c-4.5363617,0.9790726-10.3610229-1.6126633-11.0102081-6.5797577
		c-0.869339-6.6516953-0.5762482-13.7005844,0.6826324-20.2994614c0.8479767-4.4449921,5.7726135-5.5516281,10.0860748-4.9233704
		c5.0106506,0.7297897,8.0110474,4.3613739,8.1379852,9.0638885
		C212.0111389,78.4856491,211.9591217,80.8199005,211.9594727,83.1527557z"/>
	<path d="M269.181366,140.0869293c1.8253479,0,3.6507874-0.0092621,5.4760742,0.0017242
		c5.7239075,0.0344391,9.0086365,2.5923309,10.1704407,7.9090271c0.9544373,4.3677673-1.8231201,10.3036041-6.6329956,10.9016571
		c-6.513916,0.8099213-13.2884827,0.227005-19.8726501-0.4848938c-4.1902618-0.453064-6.0160065-7.6850281-5.0400543-10.9396973
		c1.3298645-4.4349213,3.7596588-7.5419006,8.9302521-7.3779907c2.3208008,0.0735779,4.645813,0.0124664,6.9689331,0.0124664
		C269.181366,140.1017914,269.181366,140.0943604,269.181366,140.0869293z"/>
	<path d="M211.8538666,217.5997467c0,1.9897156,0.0512238,3.9810181-0.0097504,5.9688568
		c-0.1718445,5.6031036-4.0622406,9.2616577-9.8373108,9.3054657c-4.4049377,0.0334167-9.7128906-4.8070679-9.8486938-9.21315
		c-0.1378937-4.4729767-0.185257-8.9613342,0.021759-13.4293213c0.2878418-6.2127075,3.7711792-9.1861267,10.2446136-9.1027679
		c5.823761,0.0750122,9.2735291,3.5220642,9.4427185,9.5065918c0.0655823,2.3196716,0.0106964,4.6427612,0.0106964,6.9642944
		C211.8698883,217.5997314,211.8618774,217.5997314,211.8538666,217.5997467z"/>
	<path d="M135.4606781,139.9682007c1.8278351-0.0001984,3.6558228-0.0156708,5.4834747,0.002594
		c6.4185638,0.0641632,10.0448761,3.733017,10.0155029,10.1178741c-0.0278473,6.0547638-3.708252,9.7961273-9.7673798,9.8630981
		c-3.8213654,0.0422516-7.6439209,0.0409088-11.465332,0.0001068c-5.6334229-0.0601349-10.7344589-4.8240814-10.7442856-9.9787903
		c-0.0101776-5.3360443,4.7444839-9.880249,10.4961624-9.9981537
		C131.4719849,139.9340515,133.4666748,139.9684143,135.4606781,139.9682007z"/>
	<path d="M301.088501,20.9642086c0.045105-5.5951691,4.2368164-9.8074465,9.8356018-9.8961945
		c5.4657593-0.0866394,9.891571,4.6115646,9.9148865,10.3936081c0.0218201,5.4014359-4.9180298,10.2786121-10.344635,10.2134075
		C305.6856689,31.6172485,301.1395874,26.440443,301.088501,20.9642086z"/>
	<path class="st0" d="M455.274353,152.7428131c5.0783691,15.4929199,10.631012,29.9284515,14.4874573,44.8037109
		c5.3520203,20.6441498,7.2609558,41.8735809,6.1178284,63.1940155
		c-1.2391357,23.1115723-5.7330017,45.6308289-13.9043884,67.386322
		c-7.0484924,18.7659302-16.2705994,36.343811-27.9844666,52.5837708
		c-11.4969177,15.939209-24.5976563,30.3058777-39.8699646,42.8809204
		c-15.4127502,12.6906128-31.964386,23.3327942-49.9872742,31.6865845
		c-18.5535278,8.5997314-37.9442749,14.526947-58.2122498,17.8070374
		c-15.9182739,2.5761414-31.9029846,3.6853638-47.90271,2.7474976c-23.5771637-1.382019-46.5694733-6.0892944-68.6530762-14.7675171
		c-16.1746368-6.3562012-31.4984894-14.2715759-45.9748993-23.9252014
		c-15.1884232-10.1285095-29.0454483-21.8904724-40.9795532-35.5556946
		c-9.2098999-10.5458984-16.7515717-22.5396729-25.2052574-33.7613831c-2.1015625-2.7896729-1.139389-3.8628235,1.4540558-5.2080383
		c15.6819954-8.1341553,31.3210945-16.3514404,46.9480705-24.5911255
		c29.0640564-15.324707,58.116272-30.6719055,87.1609192-46.0334167
		c16.3290405-8.636261,32.6218414-17.3410339,48.9508057-25.977417
		c29.0446625-15.3615875,58.1091156-30.6857605,87.1559906-46.0431671
		c15.7492676-8.326828,31.4717407-16.7043457,47.2198792-25.0332947
		c24.5708618-12.9951477,49.1548157-25.9656067,73.7264404-38.9593048
		C451.0895691,155.3067932,452.2938232,154.5167542,455.274353,152.7428131z M288.2080383,408.9098816
		c3.8322754,0,7.7655945,0.5671082,11.4799805-0.0946045c19.9074097-3.5465698,36.7322388-12.6315918,48.9279785-29.0842285
		c13.5866394-18.3289185,18.1921997-38.7556763,13.590332-61.2559814
		c-2.6181946-12.8014221-8.3148804-23.8214111-16.7733459-33.7798767
		c-7.7338562-9.1053467-16.791687-15.9745483-28.0404968-19.8460388c-7.8304749-2.6950073-13.6689453,1.5630493-13.368927,9.6354065
		c0.07724,2.0777283,0.5968323,4.2180786,1.3209229,6.1791382c3.3605347,9.1012268,4.3089294,18.251709,2.7277222,27.9673462
		c-4.0711975,25.014679-28.1439514,45.6382141-52.4841919,45.4710388
		c-8.3735962-0.0575256-16.3319397-1.2399597-24.0036774-4.3100891c-4.2136536-1.6862488-7.6140289,0.0186462-10.2241974,2.5560608
		c-2.4718781,2.4029541-3.8892975,5.6208801-2.5318909,9.714325c3.2242584,9.7234192,8.8461761,18.0340576,15.9467621,24.9610291
		C249.5011139,401.3894653,267.0399475,409.832428,288.2080383,408.9098816z M446.9591675,244.2910919
		c-0.0638123-5.7008667-4.6484985-10.389328-10.0800476-10.3082733c-5.0778198,0.0757751-10.1300659,5.5843353-9.9040833,10.7985992
		c0.2478638,5.7190552,4.9716797,10.4029388,10.2495117,10.1628723
		C442.7987671,254.6907501,447.0238342,250.0670013,446.9591675,244.2910919z M141.0446777,380.9596558
		c5.9985504-0.0187683,9.7888031-3.7597351,9.9130249-9.7841492c0.1228027-5.955658-3.8302002-10.2071838-9.4903259-10.2070313
		c-6.446228,0.0001831-10.3936768,3.901062-10.4941711,10.3704224
		C130.8844604,377.0500793,134.996994,380.9785767,141.0446777,380.9596558z M218.8321533,422.9679871
		c-5.7735138-0.0395203-9.7520599,3.6576538-9.8633423,9.165802c-0.132309,6.5474548,3.5394897,10.7846985,9.3807068,10.8253784
		c6.2805634,0.0437317,10.3659363-3.7235718,10.5948639-9.769989
		C229.1685791,427.2673035,224.9565582,423.0098877,218.8321533,422.9679871z M367.8468628,250.9598999
		c6.0403748,0.005188,10.0580139-3.7422028,10.1082458-9.4283295c0.0504761-5.7114563-4.4543762-10.5149689-9.9049683-10.5616455
		c-5.5345459-0.0473938-10.0280151,4.5689545-10.081604,10.3572388
		C357.9146118,247.1573944,361.8087769,250.9547119,367.8468628,250.9598999z M219.9687347,315.2501831
		c-0.0843964,6.2983398,3.9530029,10.790863,9.6203613,10.704895c5.2229462-0.0792236,10.1751556-4.8839417,10.2544403-9.9490662
		c0.091568-5.851593-4.4862671-10.7962952-10.1800385-10.9958191
		C224.6912079,304.8359375,220.0424805,309.7460938,219.9687347,315.2501831z M418.9578552,337.1810608
		c0.1252441-5.7986755-3.6204529-10.1354065-8.8211975-10.2130432c-6.9154053-0.103241-11.0592041,3.3720093-11.1633606,9.3622742
		c-0.0985413,5.6665955,4.4081726,10.5386658,9.8306274,10.627594
		C414.0229797,347.043457,418.8451233,342.4003906,418.9578552,337.1810608z M358.0014343,408.967865
		c-6.2354736-0.0019226-10.0345154,3.785553-10.0314636,10.000885c0.0027161,5.4388123,4.5047607,9.9623413,9.9417114,9.9891357
		c5.4458923,0.0268555,9.9859924-4.6810303,10.043457-10.4146118
		C368.0118408,412.8847961,363.9420776,408.969696,358.0014343,408.967865z"/>
	<path class="st0" d="M350.9118042,124.435524c-8.9083557-0.486618-17.8179932-0.9514923-26.7244568-1.4703751
		c-3.6531067-0.212822-7.1726379-5.0597534-7.1070557-8.8455734c0.0667725-3.850174,4.1378784-7.697998,8.0462646-8.1540222
		c7.5819702-0.8846512,9.9740906-2.94133,11.7870178-10.1341019c1.693634-6.7194748,6.6971436-11.3863297,12.6723633-10.7549896
		c6.7257385,0.71064,10.8433533,3.2787094,12.3627014,11.6662216c0.9374084,5.1748352,5.2984619,9.0387115,10.556427,9.2465515
		c1.9308777,0.0763168,3.9625854,0.1727295,5.7489319,0.8147278c4.0636292,1.460495,5.7973328,4.8451385,5.5931702,8.9049988
		c-0.1913147,3.8039017-5.758667,8.1150436-10.4223328,8.2128983c-7.4936829,0.1572495-14.9930725,0.0421906-22.4900513,0.0421906
		C350.927124,124.1212082,350.9194641,124.2783661,350.9118042,124.435524z"/>
	<path class="st0" d="M91.9389114,256.9673157c-7.6645889,0.0003662-15.3292999,0.0260925-22.9937363-0.0081177
		c-5.7064896-0.0254517-9.8354645-3.6585388-9.9834213-8.6920624c-0.1492882-5.0787659,3.549984-8.7509766,9.3770981-9.3084869
		c5.2691956-0.5041504,8.7839966-3.9176025,9.6191177-9.3417358c0.8703842-5.6531982,5.9360962-10.4766693,11.1913223-10.6562042
		c7.7807465-0.2658081,12.1598511,2.7707367,13.8391647,9.596344c2.1230164,8.6290436,3.7444916,9.9118958,13.150322,10.4040527
		c4.871727,0.2549286,8.7566376,4.1525574,8.8272476,8.8561249c0.0733414,4.8862305-3.9216614,9.0547791-9.0339737,9.1218567
		C107.9356003,257.0440369,99.9367447,256.9669189,91.9389114,256.9673157z"/>
	<path class="st0" d="M177.9599609,148.5068054c-1.8468933-12.3220825,12.5519714-24.9674911,24.0437622-24.616127
		c13.5884399,0.4154892,24.9746399,11.4851761,24.6843719,24.5820999
		c-0.3030548,13.6746063-10.6234436,23.8777924-24.5940247,24.406601
		C189.1114349,173.3708191,176.3156586,160.275177,177.9599609,148.5068054z"/>
	<path d="M288.2080383,408.9098816c-21.1680908,0.9225464-38.7069244-7.5204163-53.4330292-21.8864746
		c-7.1005859-6.9269714-12.7225037-15.2376099-15.9467621-24.9610291c-1.3574066-4.0934448,0.0600128-7.3113708,2.5318909-9.714325
		c2.6101685-2.5374146,6.0105438-4.2423096,10.2241974-2.5560608c7.6717377,3.0701294,15.6300812,4.2525635,24.0036774,4.3100891
		c24.3402405,0.1671753,48.4129944-20.4563599,52.4841919-45.4710388
		c1.5812073-9.7156372,0.6328125-18.8661194-2.7277222-27.9673462c-0.7240906-1.9610596-1.2436829-4.1014099-1.3209229-6.1791382
		c-0.3000183-8.0723572,5.5384521-12.3304138,13.368927-9.6354065
		c11.2488098,3.8714905,20.3066406,10.7406921,28.0404968,19.8460388
		c8.4584656,9.9584656,14.1551514,20.9784546,16.7733459,33.7798767c4.6018677,22.5003052-0.0036926,42.927063-13.590332,61.2559814
		c-12.1957397,16.4526367-29.0205688,25.5376587-48.9279785,29.0842285
		C295.9736328,409.4769897,292.0403137,408.9098816,288.2080383,408.9098816z M253.6498566,375.3118591
		c9.1240692,10.7518311,29.6688385,17.0832825,47.4994965,12.37323c24.3401489-6.4294739,39.8835449-24.162262,42.7967224-51.851532
		c1.2608337-11.9841614-7.2513733-33.0557556-14.8286133-36.9969788
		C329.3757629,338.437561,300.0898132,372.6520386,253.6498566,375.3118591z"/>
	<path d="M446.9591675,244.2910919c0.0646667,5.7759094-4.1604004,10.3996582-9.7346191,10.6531982
		c-5.277832,0.2400665-10.0016479-4.4438171-10.2495117-10.1628723c-0.2259827-5.2142639,4.8262634-10.7228241,9.9040833-10.7985992
		C442.3106689,233.9017639,446.8953552,238.5902252,446.9591675,244.2910919z"/>
	<path d="M141.0446777,380.9596558c-6.0476837,0.0189209-10.1602173-3.9095764-10.0714722-9.6207581
		c0.1004944-6.4693604,4.0479431-10.3702393,10.4941711-10.3704224c5.6601257-0.0001526,9.6131287,4.2513733,9.4903259,10.2070313
		C150.8334808,377.1999207,147.0432281,380.9408875,141.0446777,380.9596558z"/>
	<path d="M218.8321533,422.9679871c6.1244049,0.0419006,10.3364258,4.2993164,10.1122284,10.2211914
		c-0.2289276,6.0464172-4.3143005,9.8137207-10.5948639,9.769989c-5.841217-0.0406799-9.5130157-4.2779236-9.3807068-10.8253784
		C209.0800934,426.6256409,213.0586395,422.9284668,218.8321533,422.9679871z"/>
	<path d="M367.8468628,250.9598999c-6.0380859-0.005188-9.932251-3.8025055-9.8783264-9.6327362
		c0.0535889-5.7882843,4.5470581-10.4046326,10.081604-10.3572388c5.450592,0.0466766,9.9554443,4.8501892,9.9049683,10.5616455
		C377.9048767,247.2176971,373.8872375,250.9650879,367.8468628,250.9598999z"/>
	<path d="M219.9687347,315.2501831c0.0737457-5.5040894,4.7224731-10.4142456,9.6947632-10.2399902
		c5.6937714,0.1995239,10.2716064,5.1442261,10.1800385,10.9958191c-0.0792847,5.0651245-5.0314941,9.8698425-10.2544403,9.9490662
		C223.9217377,326.0410461,219.8843384,321.5485229,219.9687347,315.2501831z"/>
	<path d="M418.9578552,337.1810608c-0.1127319,5.2193298-4.9348755,9.8623962-10.1539307,9.776825
		c-5.4224548-0.0889282-9.9291687-4.9609985-9.8306274-10.627594c0.1041565-5.9902649,4.2479553-9.4655151,11.1633606-9.3622742
		C415.3374023,327.0456543,419.0830994,331.3823853,418.9578552,337.1810608z"/>
	<path d="M358.0014343,408.967865c5.9406433,0.0018311,10.0104065,3.9169312,9.9537048,9.5754089
		c-0.0574646,5.7335815-4.5975647,10.4414673-10.043457,10.4146118c-5.4369507-0.0267944-9.9389954-4.5503235-9.9417114-9.9891357
		C347.9669189,412.753418,351.7659607,408.9659424,358.0014343,408.967865z"/>
	<path class="st0" d="M253.6498566,375.3118591c46.4399567-2.6598206,75.7259064-36.8742981,75.4676056-76.4752808
		c7.57724,3.9412231,16.089447,25.0128174,14.8286133,36.9969788c-2.9131775,27.68927-18.4565735,45.4220581-42.7967224,51.851532
		C283.3186951,392.3951416,262.7739258,386.0636902,253.6498566,375.3118591z"/>
</g>
</svg>
