<?xml version="1.0" encoding="utf-8"?>
<!-- Generator: Adobe Illustrator 19.0.1, SVG Export Plug-In . SVG Version: 6.00 Build 0)  -->
<svg version="1.1" id="Слой_1" xmlns="http://www.w3.org/2000/svg" xmlns:xlink="http://www.w3.org/1999/xlink" x="0px" y="0px"
	 viewBox="0 0 536.006897 506.0828552" style="enable-background:new 0 0 536.006897 506.0828552;" xml:space="preserve">
<style type="text/css">
	.st0{fill:#FFFFFF;}
</style>
<g>
	<path class="st0" d="M-4.9713125,514.0897827c0-173.2810669,0-346.5620728,0-519.9215698
		c183.2204132,0,366.4586792,0,549.8395386,0c0,173.2547913,0,346.5881348,0,519.9215698
		C361.6272583,514.0897827,178.3368683,514.0897827-4.9713125,514.0897827z M452.0065613,57.0937004
		c0-14.2871208,0.2352295-27.7846146-0.0759277-41.2695007c-0.2401428-10.4078979-3.8970947-15.9750147-15.8752136-15.8210897
		c-23.8265076,0.3061838-47.6596985,0.0814042-71.4901428,0.0958791c-7.9490967,0.0048285-12.5314026,4.57339-12.5450745,12.4930592
		c-0.0204163,11.8315258-0.0053711,23.6631145-0.0054016,35.4946747c0,2.9255753,0,5.8511505,0,8.7656212
		c-55.9882507,0-111.2507935,0-167.0078125,0c0-1.8531456,0.0000153-3.4724121,0-5.0916824
		c-0.0001221-12.9984169,0.0430298-25.997036-0.017868-38.9951706c-0.0327301-6.9856153-5.4581299-12.6243658-12.3308105-12.6433916
		c-25.1634064-0.0696621-50.327301-0.0786748-75.4906158,0.0065613
		c-6.7738113,0.0229449-12.0502014,5.4152746-12.1240845,12.2225695
		c-0.1084976,9.9976063-0.0285187,19.9972591-0.0287399,29.9960423c-0.0001144,4.7801056-0.0000229,9.5602074-0.0000229,14.7464256
		c-2.3456421,0-4.1408539,0-5.9360657,0c-21.3307343,0.0000153-42.6614799-0.0083275-63.9921837,0.0164566
		c-1.642725,0.0019073-3.3746643-0.0554543-4.9121895,0.4148026C3.6915288,59.5077553,0.0833001,62.8094673,0.0754447,74.3757172
		c-0.093833,138.1497803-0.0605726,276.2996216-0.0604634,414.4494629c0.0000005,0.8332214-0.0388384,1.6687927,0.0085526,2.4993286
		c0.5452509,9.5561218,5.6536365,14.7557068,14.5845098,14.756073
		c168.9794159,0.0070801,337.9588318,0.0079956,506.9382324-0.0020752
		c9.5838013-0.0005493,14.4597778-4.9640808,14.4598389-14.5838928
		c0.0012207-139.9829407,0.0012817-279.9658813-0.0003052-419.9488525
		c-0.0001221-9.5207863-4.9448853-14.4372826-14.5986328-14.4460487c-21.1640625-0.0192146-42.328125-0.0060043-63.492218-0.0060349
		C456.1222534,57.0936928,454.3295593,57.0937004,452.0065613,57.0937004z"/>
	<path d="M452.0065613,57.0937004c2.322998,0,4.1156921-0.0000076,5.9083862-0.0000076
		c21.164093,0.0000305,42.3281555-0.0131798,63.492218,0.0060349c9.6537476,0.0087662,14.5985107,4.9252625,14.5986328,14.4460487
		c0.0015869,139.9829559,0.0015259,279.9659119,0.0003052,419.9488525
		c-0.000061,9.619812-4.8760376,14.5833435-14.4598389,14.5838928
		c-168.9794006,0.0100708-337.9588013,0.0091553-506.9382324,0.0020752
		c-8.9308739-0.0003662-14.039259-5.1999512-14.5845098-14.756073c-0.0473909-0.8305359-0.0085521-1.6661072-0.0085526-2.4993286
		C0.0148721,350.675354-0.0183882,212.5254974,0.0754447,74.3757172
		C0.0833001,62.8094673,3.6915288,59.5077553,10.174408,57.5249596c1.5375252-0.4702568,3.2694645-0.4128952,4.9121895-0.4148026
		c21.3307037-0.0247841,42.6614494-0.0164413,63.9921837-0.0164566c1.7952118,0,3.5904236,0,5.9360657,0
		c0-5.1862183-0.0000916-9.96632,0.0000229-14.7464256c0.0002213-9.9987831-0.0797577-19.998436,0.0287399-29.9960423
		c0.0738831-6.8072953,5.3502731-12.199625,12.1240845-12.2225695c25.1633148-0.0852361,50.3272095-0.0762234,75.4906158-0.0065613
		c6.8726807,0.0190258,12.2980804,5.6577768,12.3308105,12.6433916c0.0608978,12.9981327,0.017746,25.9967518,0.017868,38.9951706
		c0.0000153,1.6192703,0,3.2385368,0,5.0916824c55.757019,0,111.0195618,0,167.0078125,0c0-2.9144707,0-5.8400459,0-8.7656212
		c0.0000305-11.831562-0.0150146-23.6631508,0.0054016-35.4946747c0.0136719-7.9196696,4.5959778-12.4882307,12.5450745-12.4930592
		c23.8304443-0.0144749,47.6636353,0.2103047,71.4901428-0.0958791
		c11.9781189-0.1539254,15.6350708,5.4131923,15.8752136,15.8210897
		C452.2417908,29.3090858,452.0065613,42.8065796,452.0065613,57.0937004z M510.6597595,479.8713379
		c0-132.4366455,0-264.477478,0-396.3881836c-161.7270203,0-323.0987549,0-484.3862305,0c0,132.3204651,0,264.2434082,0,396.3881836
		C187.7937012,479.8713379,349.0474243,479.8713379,510.6597595,479.8713379z M110.360611,25.3093719
		c0,10.7675171,0,21.1443863,0,31.3906364c16.7282867,0,33.1000824,0,49.3888397,0c0-10.6547012,0-20.9136086,0-31.3906364
		C143.233017,25.3093719,126.9805603,25.3093719,110.360611,25.3093719z M377.3658142,25.3041649
		c0,10.7840157,0,21.1607742,0,31.3904724c16.4005127,0,32.4393311,0,48.378418,0c0-10.6601181,0-20.9192467,0-31.3904724
		C409.5558472,25.3041649,393.6365356,25.3041649,377.3658142,25.3041649z"/>
	<path class="st0" d="M510.6597595,479.8713379c-161.6123352,0-322.8660583,0-484.3862305,0
		c0-132.1447754,0-264.0677185,0-396.3881836c161.2874756,0,322.6592102,0,484.3862305,0
		C510.6597595,215.3938599,510.6597595,347.4346924,510.6597595,479.8713379z M268.0591431,448.0857849
		c65.9791565,0,131.958313,0.0014954,197.9374695-0.0019531c7.7888184-0.0004272,12.9929504-5.0609131,12.9950867-12.8600159
		c0.0237732-87.1392517,0.0167542-174.2785339,0.0111389-261.4177856
		c-0.0004272-6.6599274-4.3513794-13.8306885-13.8313293-13.8192902
		c-131.4584961,0.1582031-262.9172058,0.1057129-394.3758545,0.1101685
		c-8.1382294,0.0002747-12.7769394,4.6379852-12.7774353,12.7759247
		c-0.0053253,87.4725037-0.0053864,174.9449768-0.0000076,262.4174805
		c0.0005188,8.4546814,4.2937393,12.7947083,12.603035,12.7948608
		C136.4338684,448.0863342,202.2465057,448.0858154,268.0591431,448.0857849z"/>
	<path class="st0" d="M110.360611,25.3093719c16.6199493,0,32.872406,0,49.3888397,0c0,10.4770279,0,20.7359352,0,31.3906364
		c-16.2887573,0-32.660553,0-49.3888397,0C110.360611,46.4537582,110.360611,36.076889,110.360611,25.3093719z"/>
	<path class="st0" d="M377.3658142,25.3041649c16.2707214,0,32.190033,0,48.378418,0c0,10.4712257,0,20.7303543,0,31.3904724
		c-15.9390869,0-31.9779053,0-48.378418,0C377.3658142,46.4649391,377.3658142,36.0881805,377.3658142,25.3041649z"/>
	<path d="M268.0591431,448.0857849c-65.8126373,0.0000305-131.6252747,0.0005493-197.437912-0.0006104
		c-8.3092957-0.0001526-12.6025162-4.3401794-12.603035-12.7948608
		c-0.0053787-87.4725037-0.0053177-174.9449768,0.0000076-262.4174805
		c0.0004959-8.1379395,4.6392059-12.77565,12.7774353-12.7759247
		c131.4586639-0.0044556,262.9173584,0.0480347,394.3758545-0.1101685
		c9.47995-0.0113983,13.8309021,7.1593628,13.8313293,13.8192902c0.0056152,87.1392517,0.0126343,174.2785339-0.0111389,261.4177856
		c-0.0021362,7.7991028-5.2062683,12.8595886-12.9950867,12.8600159
		C400.0174561,448.0872803,334.0382996,448.0857849,268.0591431,448.0857849z M83.3694992,185.3004608
		c0,79.4572296,0,158.4994049,0,237.3904266c123.4000626,0,246.4371643,0,369.3710022,0c0-79.3276062,0-158.2521362,0-237.3904266
		C329.5473938,185.3004608,206.6283569,185.3004608,83.3694992,185.3004608z"/>
	<path class="st0" d="M83.3694992,185.3004608c123.2588577,0,246.177887,0,369.3710022,0c0,79.1382904,0,158.0628204,0,237.3904266
		c-122.9338379,0-245.9709473,0-369.3710022,0C83.3694992,343.7998657,83.3694992,264.7576904,83.3694992,185.3004608z
		 M249.9624023,296.4434814c3.0603943-4.0620117,6.2311401-7.4775696,8.4848633-11.4176025
		c5.6896362-9.9468384,7.0601807-20.7955627,4.394928-31.8413086c-1.9768677-8.1929626-5.8809509-15.6073761-12.6731873-21.04245
		c-11.3364258-9.0713654-24.3435364-11.0818024-38.5566559-10.23703
		c-14.7003326,0.8737793-27.6897888,5.9379883-39.9440765,13.3710785
		c-8.1225281,4.9268799-9.3795471,12.1992798-5.4794464,19.1529388c3.2704315,5.8309937,11.403717,6.9694214,18.4987793,2.7104187
		c11.332077-6.8023682,23.2682037-11.2815094,36.7822723-10.0541687
		c9.8880157,0.8980255,18.6363831,7.4605713,16.6218262,19.8620911c-1.4829559,9.1289978-8.4051056,12.2908325-15.615387,15.0868835
		c-10.0947723,3.9146423-20.7647095,2.8818665-31.2885742,3.1728516c-2.4191284,0.0668335-5.1707611,1.0561218-7.1175232,2.4998779
		c-3.7706604,2.7963562-5.8242035,11.0082092-3.7780914,14.9174194c2.2930756,4.381012,6.0348663,7.6163635,12.2306366,7.5242004
		c12.1624451-0.1809082,24.3140106-0.7350159,36.0955811,3.8587646
		c14.8802643,5.8019714,20.9615021,20.8449097,14.2290802,34.4884338
		c-4.519455,9.158844-18.8253479,16.0525208-30.7984467,14.5292969
		c-12.6602631-1.6105957-25.0294342-4.2359009-36.0778656-11.3194885
		c-6.0081329-3.8520508-13.7798309-1.2676086-17.2213593,5.1040955c-3.9945068,7.3954773-1.6288757,14.0155334,6.8708954,18.4635315
		c18.3740387,9.615387,37.6022034,14.6921082,58.622757,11.9306946
		c12.4145203-1.6308594,23.7956848-5.5695801,32.4194031-14.5262146
		c12.8001404-13.2943115,16.9910583-29.4659424,12.8455811-47.637146
		C266.7535706,312.965271,259.7705688,303.8025513,249.9624023,296.4434814z M285.56427,305.4811096
		c0.4802551,6.9191589,0.9697876,13.8376465,1.4388123,20.7575684c0.905304,13.3564758,4.269104,25.9752808,10.4839783,37.9186401
		c8.1913147,15.7416077,23.0584717,23.9374695,40.6305847,21.9446716
		c15.8757629-1.800415,25.4468079-11.6397095,31.8199463-25.2505798c8.478363-18.1068115,9.1492615-37.7127991,9.9076538-57.1539612
		c0.3117065-7.991333-1.1259766-16.0563354-1.8427734-24.0811768c-1.3398743-15.0008545-5.321991-29.0856323-13.9937134-41.6741486
		c-9.9638367-14.4642639-33.8859253-19.482666-48.9709473-10.5102692
		c-13.2130737,7.858963-19.8040466,20.289444-23.8493652,34.1565247
		C287.0362549,275.8219299,285.1451721,290.5250854,285.56427,305.4811096z"/>
	<path d="M249.9624023,296.4434814c9.8081665,7.3590698,16.7911682,16.5217896,19.54599,28.597168
		c4.1454773,18.1712036-0.0454407,34.3428345-12.8455811,47.637146
		c-8.6237183,8.9566345-20.0048828,12.8953552-32.4194031,14.5262146
		c-21.0205536,2.7614136-40.2487183-2.3153076-58.622757-11.9306946
		c-8.4997711-4.447998-10.8654022-11.0680542-6.8708954-18.4635315c3.4415283-6.3717041,11.2132263-8.9561462,17.2213593-5.1040955
		c11.0484314,7.0835876,23.4176025,9.7088928,36.0778656,11.3194885
		c11.9730988,1.5232239,26.2789917-5.3704529,30.7984467-14.5292969
		c6.7324219-13.6435242,0.6511841-28.6864624-14.2290802-34.4884338
		c-11.7815704-4.5937805-23.933136-4.0396729-36.0955811-3.8587646c-6.1957703,0.0921631-9.937561-3.1431885-12.2306366-7.5242004
		c-2.0461121-3.9092102,0.007431-12.1210632,3.7780914-14.9174194c1.9467621-1.4437561,4.6983948-2.4330444,7.1175232-2.4998779
		c10.5238647-0.2909851,21.1938019,0.7417908,31.2885742-3.1728516c7.2102814-2.796051,14.132431-5.9578857,15.615387-15.0868835
		c2.0145569-12.4015198-6.7338104-18.9640656-16.6218262-19.8620911
		c-13.5140686-1.2273407-25.4501953,3.2518005-36.7822723,10.0541687
		c-7.0950623,4.2590027-15.2283478,3.120575-18.4987793-2.7104187c-3.9001007-6.9536591-2.6430817-14.226059,5.4794464-19.1529388
		c12.2542877-7.4330902,25.2437439-12.4972992,39.9440765-13.3710785
		c14.2131195-0.8447723,27.2202301,1.1656647,38.5566559,10.23703c6.7922363,5.4350739,10.6963196,12.8494873,12.6731873,21.04245
		c2.6652527,11.0457458,1.2947083,21.8944702-4.394928,31.8413086
		C256.1935425,288.9659119,253.0227966,292.3814697,249.9624023,296.4434814z"/>
	<path d="M285.56427,305.4811096c-0.4190979-14.9560242,1.4719849-29.6591797,5.624176-43.8927307
		c4.0453186-13.8670807,10.6362915-26.2975616,23.8493652-34.1565247
		c15.085022-8.9723969,39.0071106-3.9539948,48.9709473,10.5102692
		c8.6717224,12.5885162,12.6538391,26.6732941,13.9937134,41.6741486c0.7167969,8.0248413,2.15448,16.0898438,1.8427734,24.0811768
		c-0.7583923,19.4411621-1.4292908,39.0471497-9.9076538,57.1539612
		c-6.3731384,13.6108704-15.9441833,23.4501648-31.8199463,25.2505798
		c-17.572113,1.9927979-32.43927-6.203064-40.6305847-21.9446716c-6.2148743-11.9433594-9.5786743-24.5621643-10.4839783-37.9186401
		C286.5340576,319.3187561,286.0445251,312.4002686,285.56427,305.4811096z M355.3551331,304.2062073
		c-0.3129883-0.0744934-0.6259766-0.1490173-0.9389648-0.2235107c-0.4679565-7.4135742-0.2475891-14.9541931-1.585968-22.2071533
		c-1.5185852-8.2295227-3.3315125-16.7444458-6.9888-24.1628723c-6.0220337-12.2148743-17.3912659-12.9190674-24.5209351-1.3924866
		c-7.664917,12.3919373-9.5678101,26.3589478-10.0895996,40.3424377
		c-0.4281006,11.4733582,0.1550903,23.1858826,2.1016846,34.4801941c1.4547424,8.4405518,5.1634521,16.7010193,9.0492859,24.449585
		c3.2278442,6.4364624,14.5415649,8.4843445,18.8633423,1.7371216c3.2923584-5.1399231,7.2107544-10.4377747,8.492218-16.1907349
		C352.4315186,328.9442444,353.5751038,316.504364,355.3551331,304.2062073z"/>
	<path class="st0" d="M355.3551331,304.2062073c-1.7800293,12.2981567-2.9236145,24.7380371-5.6177368,36.8325806
		c-1.2814636,5.7529602-5.1998596,11.0508118-8.492218,16.1907349c-4.3217773,6.7472229-15.635498,4.6993408-18.8633423-1.7371216
		c-3.8858337-7.7485657-7.5945435-16.0090332-9.0492859-24.449585c-1.9465942-11.2943115-2.5297852-23.0068359-2.1016846-34.4801941
		c0.5217896-13.98349,2.4246826-27.9505005,10.0895996-40.3424377c7.1296692-11.5265808,18.4989014-10.8223877,24.5209351,1.3924866
		c3.6572876,7.4184265,5.4702148,15.9333496,6.9888,24.1628723c1.3383789,7.2529602,1.1180115,14.7935791,1.585968,22.2071533
		C354.7291565,304.0571899,355.0421448,304.1317139,355.3551331,304.2062073z"/>
</g>
</svg>
