<?xml version="1.0" encoding="utf-8"?>
<!-- Generator: Adobe Illustrator 19.0.1, SVG Export Plug-In . SVG Version: 6.00 Build 0)  -->
<svg version="1.1" id="Слой_1" xmlns="http://www.w3.org/2000/svg" xmlns:xlink="http://www.w3.org/1999/xlink" x="0px" y="0px"
	 viewBox="0 0 487.9849548 616.0036621" style="enable-background:new 0 0 487.9849548 616.0036621;" xml:space="preserve">
<style type="text/css">
	.st0{fill:#FFFFFF;}
</style>
<g>
	<path class="st0" d="M-8.992403,620.7833862c0-209.7295837,0-419.6713257,0-629.7004395c166.5538025,0,333.1254272,0,499.8396606,0
		c0,209.7710876,0,419.6296997,0,629.7004395C324.3352356,620.7833862,157.6802979,620.7833862-8.992403,620.7833862z
		 M-0.0061915,334.0797119c0,89.4859314-0.0005417,178.9718628,0.0008841,268.4577637
		c0.0001345,8.4520264,4.9433832,13.4467773,13.4203558,13.4473877c136.3118896,0.0095215,272.6238098,0,408.9356995,0.0383301
		c4.1870728,0.0011597,7.4938049-1.24823,10.5133362-4.3057861c16.2753296-16.4805908,32.6204834-32.8947754,49.1411743-49.1287231
		c4.190979-4.1182861,6.0375366-8.6304932,6.0345154-14.4503784c-0.0697937-133.9789124-0.0538635-267.9578247-0.053833-401.9367676
		c0-43.6597977,0.0131531-87.3196106-0.0108948-130.9794006c-0.0050659-9.1798458-6.01297-15.2200861-15.0090332-15.2203045
		c-135.31073-0.0032768-270.62146,0.0041924-405.9321594-0.0275917c-5.0356064-0.0011835-9.192688,1.4649677-12.7829285,5.1829176
		c-7.7543945,8.0302267-15.746933,15.8304834-23.6421432,23.7247314
		c-7.7773361,7.7763977-15.0489616,16.1681137-23.5052872,23.1184044
		c-5.8985462,4.8480492-7.210289,10.1396446-7.1994915,17.1212158
		C0.0405852,157.4407196-0.006203,245.7602539-0.0061915,334.0797119z"/>
	<path d="M-0.0061973,334.0797119c-0.0000057-88.319458,0.0467825-176.6389923-0.0898094-264.9582214
		c-0.0107975-6.9815712,1.3009453-12.2731667,7.1994915-17.1212158c8.4563255-6.9502907,15.727951-15.3420067,23.5052872-23.1184044
		c7.8952103-7.8942471,15.8877487-15.6945038,23.6421432-23.7247314c3.5902405-3.7179499,7.7473221-5.1841011,12.7829285-5.1829176
		c135.3107147,0.0317841,270.6214294,0.0243149,405.9321594,0.0275917
		c8.9960632,0.0002184,15.0039673,6.0404587,15.0090332,15.2203045c0.0240479,43.65979,0.0108948,87.3195953,0.0108948,130.9794006
		c-0.0000305,133.9789581-0.0159607,267.9578857,0.053833,401.9367676
		c0.0030212,5.8198853-1.8435364,10.3320923-6.0345154,14.4503784
		c-16.5206909,16.2339478-32.8658447,32.6481323-49.1411743,49.1287231
		c-3.0195313,3.0575562-6.3262634,4.3069458-10.5133362,4.3057861
		c-136.3118896-0.0383301-272.6237793-0.0288086-408.9356995-0.0383301
		c-8.4769726-0.0006104-13.4202213-4.9953613-13.4203558-13.4473877
		C-0.0067332,513.0515747-0.0061915,423.5656433-0.0061973,334.0797119z M26.2049332,588.6412964
		c128.1122131,0,255.8200684,0,383.3890381,0c0-170.3963318,0-340.4343262,0-510.3797607c-127.9901123,0-255.580307,0-383.3890381,0
		C26.2049332,248.4512177,26.2049332,418.3711548,26.2049332,588.6412964z M435.9859314,570.6932373
		c8.6212158-8.6901245,16.3661804-16.3707886,23.9011841-24.2522583c0.9386597-0.9818115,1.0637207-3.0270996,1.0641479-4.5797119
		c0.0452576-163.6120605,0.0432129-327.2241821,0.0268555-490.8362732
		c-0.0001221-1.1664238-0.2358704-2.3328209-0.4311829-4.1454391c-7.4298706,7.090374-14.1903381,13.6933861-21.1386719,20.092392
		c-2.5023193,2.3044586-3.5061035,4.7049103-3.5041199,8.1884766
		c0.0939636,163.1121826,0.0817871,326.2244263,0.0817871,489.3366394
		C435.9859314,566.0932617,435.9859314,567.6893921,435.9859314,570.6932373z M46.9518509,50.5046844
		c1.1772575,0.2747841,1.6188011,0.4680672,2.0603867,0.4681587c83.6487885,0.0175972,167.2975922,0.0260811,250.9463501-0.0194664
		c1.2117615-0.0006561,2.7677307-0.3220901,3.5809631-1.1013184c7.5105286-7.1966896,14.8926392-14.5273438,22.7953491-22.2939415
		c-1.4865723-0.3469849-1.9269714-0.5397758-2.3674316-0.5398674
		c-83.6488037-0.0175552-167.2976227-0.0305557-250.9463348,0.0499687
		c-1.4387054,0.0013847-3.2141342,0.7889252-4.2600098,1.8011093
		C61.5811462,35.8180161,54.5540085,42.9246368,46.9518509,50.5046844z M441.0245667,27.4848824
		c-1.1746521-0.2736397-1.6161499-0.4661827-2.0577698-0.4665298c-23.9864502-0.0188446-47.9729004-0.0375252-71.959198,0.0208435
		c-1.2110291,0.0029449-2.7629089,0.3277855-3.577179,1.1073799c-7.5106506,7.1909294-14.8937073,14.5151558-22.8050232,22.2828522
		c1.5066223,0.3509789,1.946991,0.5430298,2.3875122,0.5433769c23.9864502,0.0188026,47.9730225,0.0530281,71.9589844-0.0524139
		c1.4388428-0.006321,3.2086182-0.7944527,4.2547302-1.8072243
		C426.4029846,42.1657639,433.4273376,35.0612946,441.0245667,27.4848824z"/>
	<path class="st0" d="M26.2049332,588.6412964c0-170.2701416,0-340.1900635,0-510.3797607
		c127.8087234,0,255.3989258,0,383.3890381,0c0,169.9454651,0,339.9834595,0,510.3797607
		C282.0249939,588.6412964,154.3171539,588.6412964,26.2049332,588.6412964z M76.9937897,295.3704834
		c-1.0376892,79.0085144,63.2940826,140.1822205,138.7079315,141.4632263
		c37.5142517,0.6371765,70.73172-12.05896,98.4080811-37.6005249
		c29.8215637-27.5212708,45.1056213-62.2879028,45.5829468-102.5455627
		c0.4231567-35.6889648-11.3570251-67.8517151-35.3816833-94.7767487
		c-26.4851379-29.6825867-59.822998-45.9367981-99.5638733-47.8230438
		C140.2285614,150.0763245,75.0577393,219.5025635,76.9937897,295.3704834z M217.8085632,511.9916687
		c30.1503906,0,60.3007507,0.0055542,90.4511414-0.0036621c7.9085388-0.0023804,12.703064-4.6685791,12.7260742-12.3259277
		c0.0239258-7.9605713-5.2928772-13.646698-12.9579773-13.6496277
		c-59.9676208-0.0230103-119.9352417-0.0203857-179.9028625-0.0032654
		c-7.5509338,0.0021362-13.1293564,5.580658-13.1308441,12.9796753
		c-0.0015564,7.7605591,5.1654053,12.9985352,12.8630371,13.0001831
		C157.8409424,511.9955139,187.8247528,511.9916687,217.8085632,511.9916687z"/>
	<path class="st0" d="M435.9859314,570.6932373c0-3.0038452,0-4.5999756,0-6.196167
		c0-163.1122131,0.0121765-326.2244568-0.0817871-489.3366394c-0.0019836-3.4835663,1.0018005-5.8840179,3.5041199-8.1884766
		c6.9483337-6.3990059,13.7088013-13.002018,21.1386719-20.092392c0.1953125,1.8126183,0.4310608,2.9790154,0.4311829,4.1454391
		c0.0163574,163.6120911,0.0184021,327.2242126-0.0268555,490.8362732
		c-0.0004272,1.5526123-0.1254883,3.5979004-1.0641479,4.5797119
		C452.3521118,554.3224487,444.6071472,562.0031128,435.9859314,570.6932373z"/>
	<path class="st0" d="M46.9518509,50.5046844c7.6021576-7.5800476,14.6292953-14.6866684,21.8092728-21.6353569
		c1.0458755-1.0121841,2.8213043-1.7997246,4.2600098-1.8011093c83.6487122-0.0805244,167.2975311-0.067524,250.9463348-0.0499687
		c0.4404602,0.0000916,0.8808594,0.1928825,2.3674316,0.5398674c-7.90271,7.7665977-15.2848206,15.0972519-22.7953491,22.2939415
		c-0.8132324,0.7792282-2.3692017,1.1006622-3.5809631,1.1013184
		c-83.6487579,0.0455475-167.2975616,0.0370636-250.9463501,0.0194664
		C48.570652,50.9727516,48.1291084,50.7794685,46.9518509,50.5046844z"/>
	<path class="st0" d="M441.0245667,27.4848824c-7.597229,7.5764122-14.621582,14.6808815-21.7979431,21.6282845
		c-1.0461121,1.0127716-2.8158875,1.8009033-4.2547302,1.8072243c-23.9859619,0.105442-47.9725342,0.0712166-71.9589844,0.0524139
		c-0.4405212-0.0003471-0.8808899-0.1923981-2.3875122-0.5433769c7.9113159-7.7676964,15.2943726-15.0919228,22.8050232-22.2828522
		c0.81427-0.7795944,2.3661499-1.104435,3.577179-1.1073799c23.9862976-0.0583687,47.9727478-0.0396881,71.959198-0.0208435
		C439.4084167,27.0186996,439.8499146,27.2112427,441.0245667,27.4848824z"/>
	<path d="M76.9937897,295.3704834c-1.9360504-75.8679199,63.2347717-145.2941589,147.7534027-141.2826538
		c39.7408752,1.8862457,73.0787354,18.1404572,99.5638733,47.8230438
		c24.0246582,26.9250336,35.8048401,59.0877838,35.3816833,94.7767487
		c-0.4773254,40.2576599-15.7613831,75.024292-45.5829468,102.5455627
		c-27.6763611,25.5415649-60.8938293,38.2377014-98.4080811,37.6005249
		C140.2878723,435.5527039,75.9561005,374.3789978,76.9937897,295.3704834z M103.4516983,301.0793457
		c3.2874069,68.0782471,65.7267532,117.453949,130.6341553,107.9454041
		c52.3449707-7.6682129,95.2027588-51.0184937,98.6989441-107.9330444
		c-5.4253235,2.202301-10.7279358,4.1195679-15.8292542,6.473175c-11.6035767,5.3536072-23.7622681,8.4385986-36.5031738,8.331543
		c-11.6658325-0.0979919-23.0622559-2.1178284-33.8652649-6.9495239
		c-7.7249451-3.4549866-15.4184875-6.6116638-24.2292175-7.1469116
		c-12.1033325-0.7353516-22.9834595,2.5510559-33.7588806,7.2544556
		c-19.6257324,8.5664673-39.6649017,9.0631714-59.8031616,2.2161255
		C120.2070007,308.3503418,111.9278259,304.5192871,103.4516983,301.0793457z M330.8370667,273.4287415
		c-8.5519409-37.6620178-29.6497803-64.3497314-62.7130127-81.282486
		c-21.0399475-10.7752533-43.6794281-13.3742828-67.065506-10.1941833
		c-22.1902924,3.0175476-41.5352478,12.4158173-58.2304993,26.8917847
		c-18.2904968,15.8591003-30.3456573,35.8940735-36.5310974,59.3946075
		c-0.8761139,3.3286438,0.0016174,5.3370972,3.1992188,6.5883789c7.1220169,2.7870483,14.2645416,5.5373535,21.2825012,8.5714417
		c16.441864,7.1083679,32.7049408,7.974884,49.3004761,0.1546936c10.6651917-5.0256653,21.9669037-8.021698,33.9252167-8.6402893
		c15.3248444-0.7927246,29.6400757,2.7541504,43.2651978,9.2319946c9.8970337,4.7054138,20.6252747,6.8746643,30.7055054,4.3748474
		C302.5416565,284.907135,316.4491577,278.6370544,330.8370667,273.4287415z"/>
	<path d="M217.8085632,511.9916687c-29.9838104,0-59.9676208,0.0038452-89.9514313-0.0026245
		c-7.6976318-0.0016479-12.8645935-5.239624-12.8630371-13.0001831c0.0014877-7.3990173,5.5799103-12.9775391,13.1308441-12.9796753
		c59.9676208-0.0171204,119.9352417-0.0197449,179.9028625,0.0032654
		c7.6651001,0.0029297,12.9819031,5.6890564,12.9579773,13.6496277
		c-0.0230103,7.6573486-4.8175354,12.3235474-12.7260742,12.3259277
		C278.109314,511.9972229,247.9589539,511.9916687,217.8085632,511.9916687z"/>
	<path class="st0" d="M103.4516983,301.0793457c8.4761276,3.4399414,16.7553024,7.2709961,25.3441391,10.1912231
		c20.1382599,6.8470459,40.1774292,6.3503418,59.8031616-2.2161255c10.7754211-4.7033997,21.6555481-7.9898071,33.7588806-7.2544556
		c8.81073,0.5352478,16.5042725,3.691925,24.2292175,7.1469116c10.803009,4.8316956,22.1994324,6.851532,33.8652649,6.9495239
		c12.7409058,0.1070557,24.8995972-2.9779358,36.5031738-8.331543c5.1013184-2.3536072,10.4039307-4.270874,15.8292542-6.473175
		c-3.4961853,56.9145508-46.3539734,100.2648315-98.6989441,107.9330444
		C169.1784515,418.5332947,106.7391052,369.1575928,103.4516983,301.0793457z"/>
	<path class="st0" d="M330.8370667,273.4287415c-14.3879089,5.208313-28.2954102,11.4783936-42.8619995,15.0907898
		c-10.0802307,2.4998169-20.8084717,0.3305664-30.7055054-4.3748474
		c-13.6251221-6.4778442-27.9403534-10.0247192-43.2651978-9.2319946c-11.958313,0.6185913-23.260025,3.614624-33.9252167,8.6402893
		c-16.5955353,7.8201904-32.8586121,6.9536743-49.3004761-0.1546936
		c-7.0179596-3.0340881-14.1604843-5.7843933-21.2825012-8.5714417c-3.1976013-1.2512817-4.0753326-3.2597351-3.1992188-6.5883789
		c6.1854401-23.5005341,18.2406006-43.5355072,36.5310974-59.3946075
		c16.6952515-14.4759674,36.0402069-23.8742371,58.2304993-26.8917847
		c23.3860779-3.1800995,46.0255585-0.5810699,67.065506,10.1941833
		C301.1872864,209.07901,322.2851257,235.7667236,330.8370667,273.4287415z M192.165329,205.7073669
		c-0.7101746,6.7229004,4.9802551,12.956955,13.2223511,13.1850586c7.6916046,0.2128754,12.9773102-6.7140656,13.4263763-13.4792786
		c0.4463959-6.7250519-6.6152649-13.182373-13.6835938-13.3468933
		C198.221756,191.9054718,192.2700806,198.1674347,192.165329,205.7073669z M256.1635742,231.1943665
		c-0.6519775,7.5080566,6.1568909,12.9369049,13.2105103,13.630722c6.5641785,0.6456909,13.1195984-6.2711182,13.5360413-13.5118561
		c0.3829041-6.6565094-6.1226196-12.7952881-13.4496765-13.1991119
		C262.0280457,217.7044678,256.2371826,223.4344025,256.1635742,231.1943665z M167.2993469,244.0140381
		c-8.3757324-0.1182556-13.1621399,4.2975311-13.3022766,12.2722473
		c-0.1380005,7.8536987,4.5720367,13.0613098,11.3557892,13.6604919c8.7681885,0.7744751,14.614563-5.9251099,14.5424347-12.2433777
		C179.8010864,249.4522552,175.1295166,244.124588,167.2993469,244.0140381z"/>
	<path d="M192.165329,205.7073669c0.1047516-7.5399323,6.056427-13.8018951,12.9651337-13.6411133
		c7.0683289,0.1645203,14.1299896,6.6218414,13.6835938,13.3468933c-0.4490662,6.765213-5.7347717,13.6921539-13.4263763,13.4792786
		C197.1455841,218.6643219,191.4551544,212.4302673,192.165329,205.7073669z"/>
	<path d="M256.1635742,231.1943665c0.0736084-7.759964,5.8644714-13.4898987,13.296875-13.080246
		c7.3270569,0.4038239,13.8325806,6.5426025,13.4496765,13.1991119c-0.4164429,7.2407379-6.9718628,14.157547-13.5360413,13.5118561
		C262.3204651,244.1312714,255.5115967,238.7024231,256.1635742,231.1943665z"/>
	<path d="M167.2993469,244.0140381c7.8301697,0.1105499,12.5017395,5.4382172,12.5959473,13.6893616
		c0.0721283,6.3182678-5.7742462,13.0178528-14.5424347,12.2433777
		c-6.7837524-0.5991821-11.4937897-5.8067932-11.3557892-13.6604919
		C154.137207,248.3115692,158.9236145,243.8957825,167.2993469,244.0140381z"/>
</g>
</svg>
