<svg version="1.1" id="Слой_1" xmlns="http://www.w3.org/2000/svg" viewBox="0 0 208.2720032 208.2720032">
<style type="text/css">
	.st0{fill:#84C336;}
	.st1{fill:#FFFFFF;}
</style>
<g>
	<path class="st0" d="M208.2718964,104.1355057c0-57.2739944-46.8610077-104.135994-104.1360016-104.135994
		S-0.0001068,46.8615112-0.0001068,104.1355057c0,57.2750015,46.8610077,104.137001,104.1360016,104.137001
		S208.2718964,161.4095001,208.2718964,104.1355057"/>
	<path class="st1" d="M95.457901,156.2039032c-2.6030045,0-4.3390045-0.8679962-6.0750046-2.6029968l-34.7119942-34.7109985
		c-3.4710007-3.4720001-3.4710007-8.6790009,0-12.1500015c3.4709969-3.4710007,8.6779976-3.4710007,12.1489983,0
		l26.9020004,26.9020004l45.9939957-77.2350006c2.6029968-4.3390045,7.8099976-5.2070007,12.1490021-2.602005
		c4.3389893,2.602005,5.2070007,7.8090057,2.6029968,12.1480103l-52.0680008,86.7799988
		c-1.7360001,2.6029968-3.4710007,3.470993-6.0749969,4.3389893
		C96.3258972,156.2039032,95.457901,156.2039032,95.457901,156.2039032"/>
</g>
</svg>
