<?xml version="1.0" encoding="utf-8"?>
<!-- Generator: Adobe Illustrator 19.0.1, SVG Export Plug-In . SVG Version: 6.00 Build 0)  -->
<svg version="1.1" id="Слой_1" xmlns="http://www.w3.org/2000/svg" xmlns:xlink="http://www.w3.org/1999/xlink" x="0px" y="0px"
	 viewBox="0 0 150 167" style="enable-background:new 0 0 150 167; fill:#ED9E27;" xml:space="preserve">
<style type="text/css">
	.st0{fill:#FFFFFF;}
</style>
<g>
	<g>
		<path class="st0" d="M39,1c37.3,0,74.7,0,112,0c0,55.7,0,111.3,0,167c-50,0-100,0-150,0C1,112.3,1,56.7,1,1c11.3,0,22.7,0,34,0
			c-6.9,4.6-13.8,9-20.6,13.7C7.6,19.5,3.2,25.9,3.2,34.3c0,7.4,0,15,1.8,22.1c8.4,33.4,27,60.6,52.9,82.8
			c13.5,11.5,28.1,21.3,45.7,25.8c8.4,2.1,16.6,2,23.9-3.1c5.5-3.8,10.8-7.9,15.8-12.2c7.4-6.4,8.2-14.4,2.2-22.1
			c-5.7-7.4-11.5-14.7-17.5-21.9c-6.3-7.6-14.5-8.7-22.6-3.1c-3.7,2.5-7.1,5.6-10.9,8c-1.4,0.9-4.3,1.1-5.6,0.2
			C72.8,99.3,60.9,84.2,52.7,66.1c-1.2-2.7-0.5-4.2,1.8-5.8c3.6-2.5,7-5.1,10.3-7.9c8-6.7,8.8-14.5,2.5-22.8
			c-3.9-5.2-8.2-10.1-12.1-15.3C50.9,8.5,46.2,3.2,39,1z"/>
		<path d="M39,1c7.2,2.2,11.9,7.5,16.2,13.3c3.9,5.2,8.2,10.1,12.1,15.3c6.3,8.3,5.5,16.1-2.5,22.8c-3.3,2.8-6.8,5.4-10.3,7.9
			c-2.3,1.6-3,3.1-1.8,5.8c8.2,18.1,20.1,33.3,36.4,44.8c1.2,0.9,4.1,0.7,5.6-0.2c3.8-2.3,7.2-5.4,10.9-8c8.1-5.6,16.3-4.5,22.6,3.1
			c6,7.2,11.8,14.5,17.5,21.9c5.9,7.7,5.2,15.7-2.2,22.1c-5,4.3-10.3,8.4-15.8,12.2c-7.3,5.1-15.5,5.2-23.9,3.1
			c-17.6-4.5-32.2-14.3-45.7-25.8C32,117,13.4,89.9,5,56.5c-1.8-7.1-1.8-14.7-1.8-22.1c0-8.4,4.4-14.9,11.2-19.6
			C21.2,10,28.1,5.6,35,1C36.3,1,37.7,1,39,1z M112.1,159.3c4.1-1.6,8-2.5,11.1-4.4c4.9-3.1,9.4-6.9,13.9-10.6
			c4.7-3.9,5.1-7.1,1.3-12c-5.5-7.1-11.2-14.1-16.9-21.1c-3.5-4.3-6.7-4.7-11.3-1.5c-4.2,3-8.4,6.1-12.4,9.3
			c-3.9,3.2-7.7,3.7-11.7,0.3c-6.4-5.5-13.3-10.6-19.2-16.7C57.3,92.4,49.2,81,44.3,67.6c-2.5-6.7-1.7-9,4-13.1
			c3.9-2.9,7.8-5.7,11.5-8.8c3.5-2.8,4.4-6.4,1.5-10.1c-6-7.8-12.2-15.4-18.4-23c-2.2-2.6-5.3-4.2-8.4-2
			c-6.7,4.8-13.3,9.9-19.5,15.3c-1.8,1.6-2.9,4.7-3,7.2C11.6,39,11.1,45,12.4,50.5c11,45.5,38,78.8,78.8,101.1
			C97.7,155.1,105.1,156.7,112.1,159.3z"/>
		<path class="st0" d="M112.1,159.3c-7-2.5-14.5-4.1-20.9-7.7C50.5,129.3,23.4,96,12.4,50.5C11.1,45,11.6,39,11.9,33.2
			c0.1-2.5,1.2-5.6,3-7.2c6.2-5.4,12.8-10.5,19.5-15.3c3.1-2.2,6.3-0.6,8.4,2c6.3,7.6,12.4,15.2,18.4,23c2.9,3.7,1.9,7.2-1.5,10.1
			c-3.8,3-7.6,5.9-11.5,8.8c-5.7,4.2-6.5,6.4-4,13.1c5,13.3,13,24.8,22.7,34.9c5.8,6.1,12.7,11.2,19.2,16.7c4,3.4,7.8,2.9,11.7-0.3
			c4-3.3,8.1-6.4,12.4-9.3c4.6-3.2,7.7-2.8,11.3,1.5c5.7,6.9,11.4,14,16.9,21.1c3.8,4.9,3.4,8.1-1.3,12c-4.5,3.7-9,7.5-13.9,10.6
			C120.1,156.8,116.3,157.7,112.1,159.3z"/>
	</g>
</g>
</svg>
