<?xml version="1.0" encoding="utf-8"?>
<!-- Generator: Adobe Illustrator 19.0.1, SVG Export Plug-In . SVG Version: 6.00 Build 0)  -->
<svg version="1.1" id="Слой_1" xmlns="http://www.w3.org/2000/svg" xmlns:xlink="http://www.w3.org/1999/xlink" x="0px" y="0px"
	 viewBox="0 0 150 192.2" style="enable-background:new 0 0 150 192.2; fill:#ED9E27;" xml:space="preserve">
<style type="text/css">
	.st0{fill:#FFFFFF;}
</style>
<g>
	<g>
		<path class="st0" d="M79,1c24,0,48,0,72,0c0,48.7,0,97.3,0,146c-0.4-1.9-0.9-3.8-1.2-5.8c-1.5-8.9-4.8-16.7-13.5-20.9
			c-11-5.4-22-10.8-33.1-15.9c-1.4-0.6-4.4-0.2-5.1,0.8c-1,1.3-1.1,3.9-0.6,5.7c0.4,1.3,2.2,2.5,3.6,3.3c9.3,4.7,18.6,9.6,28.2,13.6
			c5.9,2.5,10.1,5.9,11,12.3c0.8,5.1,0.5,10.3,1.2,15.4c1,7.4-2.4,11.5-9.1,13.6c-0.3,0.1-0.6,0.2-0.9,0.4
			c-22.9,10.2-46.9,13.3-71.7,10.6c-15.6-1.7-30.6-6-44.7-13.2c-3-1.5-4.6-3.4-4.4-6.9c0.2-4.7-0.1-9.3,0.1-14
			c0.4-10.6,4.2-14.7,14-18.7c9.5-3.9,18.5-9,27.5-13.9c2.8-1.5,4.7-4.1,2.5-7.4c-2.3-3.5-4.7-2.1-7.7-0.5
			c-8.9,4.7-17.8,9.7-27.2,13.3c-8.8,3.4-14.1,9-16.5,17.8c-0.9,3.5-1.6,7.1-2.3,10.6C1,98.3,1,49.7,1,1c23.7,0,47.3,0,71,0
			c-1.1,0.4-2.1,1-3.2,1.2c-13,2.5-22.1,9.9-26.5,22.3c-2,5.6-3.1,11.6-3.6,17.5c-1.3,14.4,0.2,28.6,6.6,41.8
			c4.4,8.9,11.1,15.3,21,17.9c18.9,5,35.5-3.8,42.5-22.8c5.9-16.2,6.5-32.9,2.6-49.6C108.1,15.7,99.6,6.4,85.7,2.7
			C83.5,2.1,81.2,1.6,79,1z"/>
		<path d="M1,147c0.8-3.5,1.4-7.1,2.3-10.6c2.4-8.8,7.8-14.4,16.5-17.8c9.4-3.6,18.3-8.6,27.2-13.3c2.9-1.6,5.4-2.9,7.7,0.5
			c2.2,3.4,0.3,5.9-2.5,7.4c-9.1,4.8-18.1,9.9-27.5,13.9c-9.8,4.1-13.5,8.1-14,18.7c-0.2,4.7,0.1,9.3-0.1,14
			c-0.2,3.5,1.5,5.4,4.4,6.9c14.1,7.2,29,11.5,44.7,13.2c24.7,2.7,48.8-0.4,71.7-10.6c0.3-0.1,0.6-0.3,0.9-0.4
			c6.7-2.1,10.1-6.2,9.1-13.6c-0.7-5.1-0.5-10.3-1.2-15.4c-1-6.3-5.1-9.8-11-12.3c-9.6-4-18.9-8.9-28.2-13.6
			c-1.4-0.7-3.2-1.9-3.6-3.3c-0.5-1.8-0.4-4.4,0.6-5.7c0.8-1,3.8-1.4,5.1-0.8c11.1,5.1,22.1,10.5,33.1,15.9c8.6,4.3,12,12,13.5,20.9
			c0.3,1.9,0.8,3.8,1.2,5.8c0,4,0,8,0,12c-0.4,1.4-1.1,2.9-1,4.3c0.2,5.8-2.9,9-7.8,11.6c-11.8,6-24.1,10.5-37.1,12.9
			c-7,1.3-14.1,2.2-21.1,3.3c-5.3,0-10.7,0-16,0c-1.9-0.4-3.8-1-5.8-1.1c-16.6-1.4-32.3-5.6-47.4-12.5c-7.3-3.4-13.7-7-13-16.5
			c0-0.6-0.5-1.2-0.7-1.8C1,155,1,151,1,147z"/>
		<path d="M79,1c2.2,0.6,4.5,1.1,6.7,1.7c13.9,3.7,22.4,12.9,25.6,26.6c4,16.7,3.4,33.4-2.6,49.6c-7,19-23.6,27.8-42.5,22.8
			c-9.8-2.6-16.6-9-21-17.9c-6.5-13.2-7.9-27.4-6.6-41.8c0.5-5.9,1.6-11.9,3.6-17.5C46.7,12.1,55.8,4.7,68.8,2.2
			C69.9,2,70.9,1.4,72,1C74.3,1,76.7,1,79,1z M105.2,49.6c-1-6.4-1.3-12.9-3-19.1c-3.4-12.3-13.1-19.1-26-19.3
			C63.5,11.1,53.4,17.6,50,29.6c-4.6,16.3-4.1,32.6,2.6,48.3c4.3,10,12.2,15.2,23.1,15.2c11.2,0.1,19-5.2,23.7-15.2
			C103.6,69,104.6,59.5,105.2,49.6z"/>
		<path class="st0" d="M1,159c0.3,0.6,0.8,1.2,0.7,1.8c-0.6,9.5,5.7,13.2,13,16.5c15.1,6.9,30.9,11.1,47.4,12.5
			c1.9,0.2,3.9,0.8,5.8,1.1c-22.2,0-44.4,0-67,0C1,180.3,1,169.7,1,159z"/>
		<path class="st0" d="M84,191c7-1.1,14.1-2,21.1-3.3c13-2.4,25.3-6.8,37.1-12.9c4.9-2.5,7.9-5.8,7.8-11.6c0-1.4,0.7-2.9,1-4.3
			c0,10.7,0,21.3,0,32C128.7,191,106.3,191,84,191z"/>
		<path class="st0" d="M105.2,49.6c-0.5,9.8-1.6,19.4-5.8,28.3c-4.7,10-12.5,15.3-23.7,15.2C64.8,93.1,56.9,88,52.6,78
			c-6.7-15.7-7.2-32.1-2.6-48.3c3.4-12,13.6-18.5,26.2-18.4c12.9,0.2,22.6,7,26,19.3C103.8,36.7,104.2,43.3,105.2,49.6z"/>
	</g>
</g>
</svg>
