<svg version="1.1" id="Слой_1" xmlns="http://www.w3.org/2000/svg" x="0px" y="0px"
   viewBox="0 0 1909 597" style="enable-background:new 0 0 1909 597;" xml:space="preserve">
<style type="text/css">
  .st0{fill:#fff;}
    .st1{fill:#2F0258;}
    .st2{fill:#320458;}
    .st3{fill:#fff;}
    .st4{fill:#300258;}
    .st5{fill:#300358;}
    .st6{fill:#2F0257;}
    .st7{fill:#fff;}
    .st8{fill:#310459;}
    .st9{fill:#310359;}
    .st10{fill:#330559;}
    .st11{fill:#340357;}
    .st12{fill:#35075A;}
    .st13{fill:#340458;}
</style>
<g>
  <g>
    <path class="st0" d="M1023.6,331.7c-20.3,0-40.6,0-61.1,0c2.8-18.7,5.6-37.5,8.5-56.2c3.3-21.1,6.7-42.1,10-63.2
      c3-19,5.9-37.9,9-56.9c2.9-17.7,6-35.3,8.9-52.9c3.1-19,6.1-37.9,9-56.9c1.1-7.4,1.9-14.9,3.2-22.3c0.3-1.6,2.2-3.7,3.8-4.2
      c18.6-5.9,37.4-11.5,56.1-17.2c0.4-0.1,0.7-0.6,1-0.9c1.3,0,2.7,0,4,0c-0.3,2.7-0.6,5.5-0.9,8.2c-0.3,1.1-0.8,2.1-1,3.2
      c-3.8,23.9-7.5,47.8-11.3,71.7c-4.5,28.5-9.2,57-13.7,85.4c-4.2,26.4-8.3,52.7-12.4,79.1C1032.3,276.3,1028,304,1023.6,331.7z"/>
    <path class="st1" d="M1023.6,331.7c4.4-27.7,8.7-55.4,13.1-83c4.1-26.4,8.2-52.7,12.4-79.1c4.5-28.5,9.2-57,13.7-85.4
      c3.8-23.9,7.5-47.8,11.3-71.7c0.2-1.1,0.7-2.2,1-3.2c8.3-2.7,16.6-5.5,24.9-8.2c0.7,0,1.3,0,2,0c-3.1,20.4-6.2,40.8-9.4,61.2
      c-6.5,41.1-13,82.2-19.6,123.2c-6.9,43.2-13.7,86.4-20.6,129.6c-0.9,5.4-1.7,10.9-2.6,16.7
      C1041.1,331.7,1032.3,331.7,1023.6,331.7z"/>
    <path class="st2" d="M1820.4,406.9c12.7-0.6,12.7-0.6,17.5,11.3c23.4,57.8,46.8,115.6,70.2,173.4c0.5,1.2,1.2,2.2,1.9,3.3
      c0,1,0,2,0,3c-4.3-0.1-8.6-0.1-12.9-0.2c-0.1-0.5-0.1-1-0.3-1.5c-11.2-27.8-22.5-55.6-33.8-83.4c-9.7-23.8-19.4-47.6-29.1-71.5
      C1829.3,430,1824.9,418.4,1820.4,406.9z"/>
    <path class="st0" d="M568.8,192c1.1-8.1,2.5-16.2,3.2-24.3c1.2-13.7-5.8-17.7-16.7-19.6c-8.4-1.5-17-2-25.5-2.1
      c-46.6-0.2-93.3-0.1-140.6-0.1c4.8-17.8,9.5-35.2,14.4-53c0.8,0,1.6,0,2.4,0c47.1,0,94.3,0,141.4,0.1c6.6,0,13.2,0.8,19.8,1.2
      c1.5,0.2,2.9,0.6,4.4,0.7c12.3,1.1,24.2,4,35.3,9.6c13.9,7,23.5,17.9,25.6,33.4c1.3,9.9,1,20.2-0.1,30.2
      c-1.8,15.8-4.8,31.4-7.3,47.1c-3.9,24.5-7.9,49.1-11.7,73.6c-1.8,11.6-3.4,23.3-5.1,34.9c-0.5,2.5-1,5.1-1.7,8.1
      c-12.2,0.9-22-3.9-30.1-13.1c-2.3-7.1-4.7-14.2-6.5-19.9c-4.5,4.8-9.8,11.4-16,17c-11.1,10-25,14-39.6,15.7
      c-6.5,0.1-13,0.3-19.5,0.3c-29.8,0-59.7,0.3-89.5-0.1c-12.9-0.2-25.4-2.8-37.2-8.7c-10.8-5.4-15.9-14.4-18.3-25.6
      c-2.4-11.2-0.5-22.2,1.8-33.1c2.3-11.3,3.9-22.8,7.1-33.8c4.9-16.4,16.4-27,32.4-32.7c13.7-4.8,27.8-7,42.3-7c32,0,64,0,96,0
      c3.2,0,6.3,0.3,9.4,0.4c9.6,2.3,19.1,4.6,28.8,6.9C568,196.8,568.4,194.4,568.8,192z M452.7,279.9c19.7,0,39.3-0.2,59,0.1
      c10,0.1,19.6-1.7,28.7-5.4c8.6-3.5,15.2-9.6,17.6-19c1.4-5.6,1.6-11.6,3.2-17.2c1-3.5-0.2-3.9-2.9-4.9c-11.5-4.4-23.7-5-35.7-5.4
      c-19.3-0.6-38.6,0-58,0.1c-6.8-0.1-13.6-0.3-20.4-0.2c-15.9,0.3-24.2,5.8-27.8,18.4c-1,3.5-1.8,7.1-2.3,10.7
      c-2,15.7,4.3,22.8,20.1,22.9C440.4,280,446.6,280,452.7,279.9z"/>
    <path class="st0" d="M187.9,331.7c-21.8,0-43.6,0-65.3,0c-40.6-101-81.2-202-122-303.4c1.8-0.1,3-0.3,4.3-0.3
      c21.8,0,43.7,0,65.5,0c1.6,0,3.1,0.6,4.7,0.9c0.4,1.3,0.6,2.6,1.1,3.8c25.6,66.8,51.3,133.6,76.9,200.4
      c4.1,10.7,8.3,21.4,12.8,33.2c6-9,11.4-17.2,16.8-25.3c6.8-9.5,13.5-19,20.3-28.6c19.7-28,39.4-56,59.1-84.1
      c19.8-28.3,39.5-56.8,59.3-85.1c3.1-4.4,6.3-8.7,9.6-12.9c0.9-1.1,2.4-2.3,3.7-2.3c23.3-0.1,46.6-0.1,69.9-0.1
      c0.6,0,1.1,0.5,1.7,0.8c-22.4,31-44.8,62.1-67.2,93.1c-36.8,51-73.6,102-110.4,153C215,293.8,201.5,312.7,187.9,331.7z"/>
    <path class="st0" d="M1269.1,331.6c-38.5,0.1-76.9,0.7-115.4,0c-13.5-0.2-27-3.5-39.4-9.9c-15.2-7.9-22.8-20.8-25.4-37.2
      c-2.6-16-0.1-31.7,2.8-47.4c2.1-11.4,3.3-22.9,5.2-34.3c3.1-17.7,4.7-35.7,10.8-52.9c10-28,29.4-45.5,58.2-51.9
      c11.1-2.5,22.6-3.7,34-4c28.1-0.8,56.1-0.9,84.2-1.1c7.9,0,15.9,0.7,23.9,1.2c7.2,1.3,14.4,2.2,21.5,3.9
      c27.8,6.8,42.7,25.1,42.1,53.8c-0.3,15.5-2.6,31.1-4.9,46.5c-3.2,21.8-6.3,43.7-11.2,65.2c-7.1,31.4-25,54.1-57.3,62.7
      C1288.9,328.8,1278.9,329.9,1269.1,331.6z M1193.5,280c18.3,0,36.6,0.1,54.9-0.1c7.7-0.1,15.6,0,23.2-1.1
      c11-1.5,19.7-7.4,22.5-18.6c3.6-14.9,6.1-30.2,8.8-45.3c2.1-11.7,4.1-23.4,5.5-35.2c0.8-6.6,1.3-13.5,0.2-19.9
      c-1.6-8.8-9.1-13.5-20.9-13.8c-23.6-0.6-47.3-0.3-70.9-0.5c-6.5-0.1-13-0.5-19.4-0.2c-21.2,1-30.7,8.5-34.5,29.4
      c-4.8,26.1-9,52.3-12.6,78.6c-2.4,17.5,6.1,26.3,23.8,26.6C1180.5,280.1,1187,280,1193.5,280z"/>
    <path class="st0" d="M1662.7,331.6c-20.4,0-40.9,0-61.8,0c2.4-13.9,4.8-27.6,7-41.4c1.8-11.4,3.4-22.9,5.2-34.3
      c2.2-13.8,4.5-27.6,6.7-41.4c1.9-11.9,3.7-23.8,5.2-35.8c0.6-4.9,0.2-10,0.1-15c-0.3-11.8-10.9-17.7-21.3-17.8
      c-22.3-0.2-44.6-0.3-66.9-0.4c-6.8-0.1-13.6-0.5-20.4-0.2c-18.6,0.7-27.9,12.5-30.9,24.4c-3.3,12.9-4.4,26.4-6.5,39.7
      c-3.5,22.2-7,44.5-10.5,66.7c-2.9,18.5-5.8,37-8.7,55.5c-20.1,0-40.2,0-61.2,0c12.6-79.5,25.2-158.8,37.8-238.7c2.5,0,5.3,0,8,0
      c15.2,0,30.3,0,45.5,0c1.7,0,3.4,0.5,5.2,0.8c-1.6,10.4-3.3,20.9-5.1,32.5c8.8-11.9,18.2-21.6,30.8-27.5
      c8.4-1.6,16.7-4.3,25.2-4.7c20-1,40.1-1,60.2-1.1c6.3,0,12.6,0.7,18.8,1.1c5.5,0.9,11.1,1.6,16.6,2.8c22.8,5,38.8,17.5,44.1,41.3
      c2.8,12.6,2.8,25.5,1.1,38.2c-3.6,26.6-8,53.1-12.2,79.6C1670.6,281.2,1666.6,306.4,1662.7,331.6z"/>
    <path class="st0" d="M1634,597.3c-1.6,0.2-3.3,0.5-4.9,0.5c-15.3,0-30.6,0.1-45.9-0.1c-2,0-4.7-0.9-6-2.3
      c-15.5-16.2-30.8-32.7-46.2-49.1c-0.8-0.8-1.2-2-1.9-2.8c-4.3-5-8.7-8.5-16.3-8c-13.1,0.9-26.3,0.2-39.4,0.2
      c-3.3-0.2-6.6-0.7-9.9-0.4c-1.3,0.1-3.1,2.1-3.4,3.5c-1.2,5.5-1.9,11.1-2.8,16.7c-2.1,13.9-4.2,27.8-6.3,41.8
      c-13.3,0-26.5,0-39.8,0c9.9-63.6,19.9-127.4,29.9-191.5c1.9,0,3.5,0,5.1,0c51.8,0,103.6,0,155.4,0.1c4.8,0,9.6,0.8,14.3,1.2
      c1.3,0.3,2.6,0.6,3.9,0.8c15.7,2.3,25.6,10.8,28.6,25.1c0.9,4.4,1.5,8.9,1.3,13.3c-0.8,18.1-3.2,36-8.9,53.3
      c-5.5,16.8-16.9,27.4-34.1,31.8c-3.3,0.8-6.6,1.6-9.9,2.4l0.1,0c-3.2,0.2-6.5,0.4-9.7,0.6c-0.7,0.1-1.3,0.2-2,0.3
      c-4.2,0-8.3,0-12.5,0c-0.2,0.6-0.4,1.1-0.6,1.7C1592.9,556.7,1613.5,577,1634,597.3z M1478.9,502.9c36.5,0,72.9,0.1,109.4,0
      c7.3,0,14.8-5.5,16.5-12.8c2.8-11.3,4.9-22.7,4.2-34.5c-0.3-5.2-3.2-8-7.7-9.4c-2.9-0.9-6.1-1.2-9.2-1.2c-11.3-0.1-22.6-0.1-34,0
      c-23.5,0.1-46.9,0.1-70.4,0.2c-2.8-0.1-5.7,0.1-8.5-0.2c-3.9-0.4-5,1.2-5.5,4.9c-1.6,11.8-3.7,23.5-5.5,35.3
      c-0.9,6-1.7,11.9-2.6,18.7C1470.7,503.5,1474.8,503.2,1478.9,502.9z"/>
    <path class="st3" d="M871.6,559.7c28.6,0.1,57.3,0.3,85.9,0.2c15.8-0.1,23.7-8.4,25.6-24.7c1.7-14,4.5-27.9,6.7-41.9
      c1.8-11.6,3.4-23.2,5.2-34.8c2.2-14.1,4.6-28.2,6.9-42.4c0.5-3.2,0.7-6.5,1-9.4c13.3,0,26.3,0,39.3,0c-1.9,12.4-3.8,24.9-5.8,37.3
      c-3.2,20.3-6.2,40.6-9.5,60.9c-2.8,16.8-4.9,33.9-9.2,50.3c-7.4,28.1-24.6,39.6-52.4,42.1c-2.8,0.2-5.6,0.6-8.4,0.6
      c-35.3,0-70.6,0.2-105.9-0.1c-9.4-0.1-18.8-1.6-27.4-6c-10.8-5.4-15.2-15-16.7-26.4c-2.4-17.9,2.3-35,4.9-52.4
      c2.2-14,3.9-28.1,6.1-42.1c2.1-13.6,4.7-27.2,6.8-40.9c1.3-7.9,2.2-15.8,3.2-23.4c13.1,0,26.1,0,39.1,0
      c-1.7,11.1-3.5,22.3-5.2,33.4c-3.8,24.5-7.6,49.1-11.5,73.6c-1.5,9.3-3.1,18.6-4.4,28c-1.3,10.2,2.9,15.9,13,17.5
      C863.3,559.8,867.5,559.5,871.6,559.7z"/>
    <path class="st0" d="M720.2,331.7c-20.3,0-40.6,0-61.3,0c1.1-7.6,2.2-15,3.3-22.3c1.5-9.8,3.1-19.6,4.8-29.4
      c1.9-11.6,3.9-23.1,5.8-34.6c1.8-11.3,3.4-22.5,5.2-33.8c2.3-14.1,4.7-28.3,6.9-42.4c2.1-13.5,4.1-27.1,6.1-40.6
      c1.7-10.9,3.3-21.9,5.1-32.8c0.2-1,1.8-2.7,2.7-2.7c18.8-0.1,37.6,0,56.4,0.2c0.2,0,0.5,0.4,0.7,0.7c-1.6,9.7-3.3,19.4-4.9,29
      c8.2-11,18.3-19.2,30.5-24.9c16.4-6.5,33.3-7.5,50.6-4.9c4.4,1.4,8.8,2.7,13.2,4.1c3,0.9,4.1,2.3,2.9,5.8
      c-4.6,13.4-8.7,27-13,40.5c-0.9,3.1-1.8,6.1-2.9,9.8c-7-6.7-15.5-9.4-25-9.4c-11.5-1.9-22.9-0.8-33.9,2.8
      c-16.1,5.4-26.4,16.1-29.2,33.3c-0.6,3.8-1,7.6-1.6,11.3c-4.6,28.8-9.1,57.6-13.8,86.4C726.1,295.7,723.1,313.7,720.2,331.7z"/>
    <path class="st0" d="M1820.4,406.9c4.5,11.5,8.9,23.1,13.5,34.5c9.6,23.8,19.4,47.6,29.1,71.5c11.3,27.8,22.5,55.6,33.8,83.4
      c0.2,0.4,0.2,1,0.3,1.5c-13.6,0.1-27.3,0.2-40.9,0c-1.6,0-4-1.7-4.6-3.1c-5.5-13.4-10.6-27-15.9-40.6c-35.1,0-70,0-104.9,0
      c-3.5,0-7-0.3-10.5-0.1c-1.2,0.1-2.8,0.8-3.5,1.8c-9.9,13.8-19.7,27.7-29.5,41.6c-14.8,0-29.7-0.1-44.5-0.1c0.5-1,1-2,1.5-3
      c13.3-18.6,26.6-37.3,40-55.9c16-22.2,32.2-44.2,48.2-66.4c10.3-14.2,20.4-28.6,30.6-42.9c5.1-7.2,10.1-14.4,15.2-21.5
      c0.6-0.8,1.8-1.6,2.7-1.7c12.8-0.1,25.7-0.1,38.5,0C1819.7,406,1820,406.6,1820.4,406.9z M1798.2,456.9c-1.3-3.6-2.7-7.2-4.4-12
      c-19,26.5-37.2,51.9-55.8,77.8c5,0,9,0,12.9,0c24.6,0,49.2,0,74.3,0C1816.1,500.5,1807.2,478.7,1798.2,456.9z"/>
    <path class="st0" d="M907.2,331.7c-20.3,0-40.6,0-61.4,0c1.2-7.7,2.3-15,3.4-22.4c1.9-11.7,3.8-23.5,5.7-35.2
      c2.3-14,4.6-27.9,6.8-41.9c1.8-11.3,3.4-22.6,5.2-33.8c2.2-14.1,4.7-28.3,6.9-42.4c1.8-11.1,3.4-22.2,5.1-33.4
      c1.4-9,2.6-18.1,4.1-27.1c0.2-1,1.8-2.5,2.8-2.5c19.5-0.1,39,0,58.5,0.1c0.2,0,0.5,0.4,0.7,0.7c-2,12.5-4.1,24.9-6,37.4
      c-3.9,24.4-7.7,48.8-11.6,73.3c-3.8,24.3-7.6,48.5-11.5,72.8C913.1,295.3,910.2,313.5,907.2,331.7z"/>
    <path class="st0" d="M1231.8,597.2c-1.4,0.2-2.9,0.7-4.3,0.7c-59.6,0-119.3,0-178.9,0c-1.1,0-2.3-0.2-3.4-0.3
      c10-63.9,19.9-127.6,29.8-190.9c13.3,0,26.3,0,39.3,0c-7.9,50.8-15.9,101.5-24,153.1c5.1-0.4,9.2-0.6,13.3-0.9
      c42.8,0,85.6,0,128.5,0c1.7,0,3.5,0.5,5.2,0.8C1235.4,572.2,1233.6,584.7,1231.8,597.2z"/>
    <path class="st0" d="M1413.2,444.6c-17.1,0.1-34.2,0.2-51.3,0.3c-2.3,0-4.6,0.1-7,0.2c-3.2-0.1-6.3,0-9.5-0.3
      c-2.9-0.3-3.9,1.2-4.2,3.6c-1.4,9.2-2.7,18.4-4.2,27.5c-3.5,22.4-7,44.9-10.5,67.3c-2.8,18-5.5,36-8.2,54c-12.9,0-25.9,0-39.5,0
      c7.9-50.6,15.8-101.2,23.8-152.3c-24.1,0-47.6,0-71.1,0c2-13.1,4-25.8,6-39.2c1.4,0,3,0,4.6,0c57.3,0,114.6,0,172,0
      c1.7,0,3.4,0.5,5.2,0.8C1417.1,419.4,1415.1,432,1413.2,444.6z"/>
    <path class="st4" d="M187.9,331.7c13.6-18.9,27.1-37.9,40.7-56.8c36.8-51,73.6-102,110.4-153c22.4-31,44.8-62.1,67.2-93.1
      c8.5,0,16.9,0,26.2,0c-2.5,3.6-4.6,6.7-6.8,9.7C356,135,286.2,231.5,216.6,328.1c-2.1,2.9-4.2,4-7.8,3.9
      C201.9,331.6,194.9,331.8,187.9,331.7z"/>
    <path class="st5" d="M1269.1,331.6c9.8-1.8,19.7-2.9,29.3-5.4c32.4-8.6,50.2-31.3,57.3-62.7c4.8-21.5,7.9-43.4,11.2-65.2
      c2.3-15.4,4.6-30.9,4.9-46.5c0.6-28.8-14.3-47-42.1-53.8c-7.1-1.7-14.3-2.6-21.5-3.9c17.9-1,35.6,0,52.8,5.5
      c25.1,8,38,25.2,37.3,52.4c-0.4,16.4-3,32.7-5.3,49c-2.9,20.1-6,40.1-10.1,60c-3.9,19-12,36.3-27.1,49.3
      c-10.3,8.9-22.5,14-35.6,17.2C1303.4,331.4,1286.3,332.6,1269.1,331.6z"/>
    <path class="st1" d="M907.2,331.7c2.9-18.2,5.9-36.4,8.8-54.5c3.9-24.3,7.7-48.5,11.5-72.8c3.9-24.4,7.7-48.8,11.6-73.3
      c2-12.5,4-24.9,6-37.4c8.6,0,17.2,0,26.3,0c-12.6,79.6-25.1,158.6-37.7,237.9C924.8,331.7,916,331.7,907.2,331.7z"/>
    <path class="st1" d="M1662.7,331.6c4-25.2,8-50.4,11.9-75.6c4.1-26.5,8.5-53,12.2-79.6c1.7-12.7,1.7-25.5-1.1-38.2
      c-5.3-23.7-21.3-36.2-44.1-41.3c-5.5-1.2-11.1-1.9-16.6-2.8c18.1-1,36,0,53.2,6c20.6,7.2,31.7,22.2,34.8,43.5
      c2.8,19.6-0.4,38.8-3.4,58.1c-6.5,41.1-13,82.2-19.6,123.2c-0.4,2.3-0.8,4.5-1.2,6.7C1680,331.6,1671.3,331.6,1662.7,331.6z"/>
    <path class="st1" d="M608.2,323.7c1.7-11.6,3.3-23.3,5.1-34.9c3.8-24.6,7.8-49.1,11.7-73.6c2.5-15.7,5.5-31.4,7.3-47.1
      c1.1-10,1.5-20.3,0.1-30.2c-2.1-15.5-11.7-26.4-25.6-33.4c-11.1-5.6-23-8.4-35.3-9.6c-1.5-0.1-2.9-0.5-4.4-0.7
      c19.2-0.9,38.3,0.1,56.6,6.5c25.8,9,38,25.9,36.1,53c-1.3,18.2-4.5,36.3-7.3,54.3c-6,39.1-12.4,78.2-18.6,117.3
      c-0.3,2.1-0.7,4.2-1.1,6.6C623.6,332.2,615.7,328.6,608.2,323.7z"/>
    <path class="st6" d="M182.7,241c-5.4,8.1-10.8,16.3-16.8,25.3c-4.5-11.8-8.7-22.5-12.8-33.2c-25.6-66.8-51.3-133.6-76.9-200.4
      c-0.5-1.2-0.7-2.5-1.1-3.8c6.8,0,13.7,0.1,20.5-0.2c4-0.2,6,0.9,7.6,5c18.8,49.7,37.9,99.3,57,148.9
      C167.6,202,175.2,221.5,182.7,241z"/>
    <path class="st1" d="M720.2,331.7c2.9-18,5.9-36,8.7-54c4.6-28.8,9.2-57.6,13.8-86.4c0.6-3.8,1-7.6,1.6-11.3
      c2.8-17.2,13-27.9,29.2-33.3c11-3.7,22.4-4.8,33.9-2.8c-3.1,1.1-6.3,1.9-9.4,3.2c-14.7,6-24.5,16-27.1,32.3
      c-7.9,50.6-16,101.2-24.1,151.7c0,0.1-0.2,0.3-0.4,0.7C737.8,331.7,729,331.7,720.2,331.7z"/>
    <path class="st1" d="M1459.8,331.7c2.9-18.5,5.8-37,8.7-55.5c3.5-22.2,7-44.5,10.5-66.7c2.1-13.2,3.2-26.7,6.5-39.7
      c3-11.9,12.2-23.6,30.9-24.4c6.8-0.3,13.6,0.1,20.4,0.2c-15.4,4.4-23.6,14.6-26.1,30.4c-7.8,50.6-15.9,101.2-24,151.8
      c-0.2,1.3-0.6,2.6-0.9,3.9C1477.1,331.7,1468.5,331.7,1459.8,331.7z"/>
    <path class="st7" d="M949,73.2c-1.1,0.2-2.2,0.6-3.3,0.6c-18.8,0-37.6,0-56.4,0c-0.6,0-1.3-0.2-2.4-0.3c1.2-7.9,2.3-15.6,3.5-23.2
      c1.9-11.9,3.9-23.8,5.7-35.7c0.4-2.5,0.3-4.8,4-4.8c19.1,0.1,38.3,0.1,57.4,0.1c0.5,0,1,0.2,1.5,0.3c-1.1,6.8-2.3,13.6-3.4,20.5
      C953.3,44.9,951.2,59.1,949,73.2z"/>
    <path class="st8" d="M965.4,597.3c27.8-2.4,45-14,52.4-42.1c4.3-16.4,6.4-33.5,9.2-50.3c3.4-20.3,6.4-40.6,9.5-60.9
      c1.9-12.4,3.8-24.9,5.8-37.3c4.1,0,8.3,0,13.1,0c-1.2,8.3-2.3,16.1-3.6,23.9c-5.6,35.6-11.1,71.3-16.8,106.9
      c-1.2,7.2-2.9,14.4-5.1,21.3c-7.6,24.1-25,35.9-49.6,38C975.3,597.2,970.3,597.1,965.4,597.3z"/>
    <path class="st8" d="M871.6,559.7c-4.1-0.1-8.3,0.2-12.4-0.5c-10.1-1.6-14.3-7.3-13-17.5c1.2-9.4,2.9-18.7,4.4-28
      c3.8-24.5,7.6-49.1,11.5-73.6c1.7-11.1,3.5-22.3,5.2-33.4c4.1,0,8.3,0,13,0c-1.6,10.5-3.2,20.6-4.7,30.7
      c-5.3,34.1-10.6,68.3-15.9,102.4c-0.3,1.6-0.5,3.3-0.4,4.9C859.6,553.7,862.5,557.1,871.6,559.7z"/>
    <path class="st9" d="M1318.2,597.4c2.7-18,5.5-36,8.2-54c3.5-22.4,7-44.9,10.5-67.3c1.4-9.2,2.8-18.4,4.2-27.5
      c0.4-2.4,1.4-3.9,4.2-3.6c3.1,0.3,6.3,0.2,9.5,0.3c-7.9,50.7-15.8,101.4-23.7,152.3C1326.5,597.4,1322.4,597.4,1318.2,597.4z"/>
    <path class="st9" d="M1103.6,558.9c-4.1,0.3-8.2,0.6-13.3,0.9c8.1-51.6,16-102.3,24-153.1c4.1,0,8.3,0,13,0
      C1119.3,457.8,1111.5,508.3,1103.6,558.9z"/>
    <path class="st5" d="M949,73.2c2.2-14.2,4.3-28.3,6.5-42.5c1.1-6.8,2.3-13.6,3.4-20.5c8.6,0,17.2,0,26,0c-0.1,1.1,0,1.9-0.2,2.7
      c-3.2,20-6.4,40-9.6,60.3C966.2,73.2,957.6,73.2,949,73.2z"/>
    <path class="st10" d="M1597,533.9c3.3-0.8,6.6-1.6,9.9-2.4c17.2-4.4,28.6-15,34.1-31.8c5.7-17.3,8.1-35.2,8.9-53.3
      c0.2-4.4-0.3-9-1.3-13.3c-3-14.3-12.9-22.8-28.6-25.1c-1.3-0.2-2.6-0.5-3.9-0.8c9.9-0.8,19.6,0.6,28.8,4.5
      c12.4,5.3,17.3,15.8,17.8,28.3c0.8,21.6-2.4,42.8-10,63.1c-6.9,18.4-21.6,27.1-40.4,29.7C1607.3,533.5,1602.1,533.6,1597,533.9z"
      />
    <path class="st9" d="M835.3,143.4c4.3-13.5,8.4-27.1,13-40.5c1.2-3.5,0.2-4.9-2.9-5.8c-4.4-1.4-8.8-2.7-13.2-4.1
      c15-2.9,29.2,0,43.7,5.9c-5.7,17.8-11.3,35.3-17.1,53.4C851.9,145.9,843.9,143.9,835.3,143.4z"/>
    <path class="st9" d="M1451.1,597.4c2.1-13.9,4.2-27.9,6.3-41.8c0.8-5.6,1.6-11.2,2.8-16.7c0.3-1.4,2.1-3.3,3.4-3.5
      c3.2-0.4,6.6,0.2,9.9,0.4c-3.1,20.5-6.3,41-9.4,61.5C1459.4,597.4,1455.3,597.4,1451.1,597.4z"/>
    <path class="st11" d="M1644.2,594.3c-0.5,1-1,2-1.5,3c-2.9,0-5.7,0-8.6,0c-20.6-20.3-41.1-40.6-61.7-60.9c0.2-0.6,0.4-1.1,0.6-1.7
      c4.2,0,8.3,0,12.5,0c0.4,0.7,0.8,1.5,1.3,2C1605.9,556,1625,575.1,1644.2,594.3z"/>
    <path class="st12" d="M1687.2,597.4c9.8-13.9,19.6-27.8,29.5-41.6c0.7-1,2.3-1.7,3.5-1.8c3.5-0.2,7,0,10.5,0.1
      c-9.6,13.8-19.2,27.5-29,41.2c-0.9,1.2-2.9,2-4.5,2.1C1693.8,597.7,1690.5,597.4,1687.2,597.4z"/>
    <path class="st13" d="M514.4,331.6c14.6-1.7,28.4-5.7,39.6-15.7c6.2-5.6,11.5-12.1,16-17c1.8,5.6,4.2,12.8,6.5,19.9
      c-11.9,8.9-25.7,12.1-40.1,13C529.1,332.1,521.7,331.6,514.4,331.6z"/>
    <path class="st10" d="M1231.8,597.2c1.8-12.5,3.7-25,5.5-37.4c4.1,0,8.2,0,13,0c-1.3,8.4-2.4,16.3-3.6,24.2
      c-0.5,3.1-1.4,6.2-1.5,9.3c-0.1,3.6-1.8,4.5-5,4.2C1237.4,597.2,1234.6,597.3,1231.8,597.2z"/>
    <path class="st10" d="M1413.2,444.6c2-12.6,4-25.2,6-37.9c4.1,0,8.3,0,13,0c-2,12.7-3.9,25.1-5.9,37.9
      C1421.7,444.6,1417.4,444.6,1413.2,444.6z"/>
    <path class="st4" d="M1520.8,98.8c-12.7,5.9-22,15.6-30.8,27.5c1.8-11.6,3.5-22.1,5.1-32.5c8.6,0,17.1,0,26,0
      C1521,95.7,1520.9,97.3,1520.8,98.8z"/>
    <path class="st11" d="M781.5,98c-12.2,5.8-22.3,14-30.5,24.9c1.6-9.7,3.3-19.4,4.9-29c8.6,0,17.1,0,26,0
      C781.8,95.5,781.7,96.7,781.5,98z"/>
    <path class="st12" d="M568.8,192c-0.4,2.4-0.8,4.9-1,6.3c-9.7-2.3-19.2-4.6-28.8-6.9C548.9,191.6,558.8,191.8,568.8,192z"/>
    <path class="st10" d="M1587.4,534.5c3.2-0.2,6.5-0.4,9.7-0.6C1593.8,534.1,1590.6,534.3,1587.4,534.5z"/>
    <path class="st5" d="M464.6,228.2c-18.5,4.3-29.1,23.4-23.4,41.8c1.8,5.8,6.8,7.6,11.5,10c-6.2,0-12.3,0.1-18.5,0
      c-15.8-0.1-22.1-7.2-20.1-22.9c0.5-3.6,1.2-7.2,2.3-10.7c3.6-12.6,11.9-18.1,27.8-18.4C451,227.9,457.8,228.1,464.6,228.2z"/>
    <path class="st1" d="M1216.8,145.6c-15.8,2.5-24.9,12-27.5,27.4c-4.5,26.9-8.5,53.8-12.6,80.8c-0.5,3.1-0.1,6.3,0.2,9.4
      c0.7,7.4,4.9,12.1,11.7,14.7c1.6,0.6,3.3,1.3,4.9,2c-6.5,0-13,0.1-19.5,0c-17.7-0.3-26.1-9.1-23.8-26.6
      c3.6-26.3,7.7-52.5,12.6-78.6c3.9-20.9,13.3-28.3,34.5-29.4C1203.8,145.1,1210.3,145.5,1216.8,145.6z"/>
    <path class="st8" d="M1487.8,445.1c-3,19.2-6,38.5-8.9,57.7c-4.1,0.3-8.2,0.6-13.2,1c0.9-6.8,1.7-12.8,2.6-18.7
      c1.8-11.8,4-23.5,5.5-35.3c0.5-3.8,1.6-5.4,5.5-4.9C1482.2,445.2,1485,445.1,1487.8,445.1z"/>
    <path class="st13" d="M1798.2,456.9c-15.7,21.9-31.5,43.9-47.2,65.8c-4,0-7.9,0-12.9,0c18.6-25.9,36.8-51.3,55.8-77.8
      C1795.6,449.7,1796.9,453.3,1798.2,456.9z"/>
  </g>
</g>
</svg>
