<svg width="101" height="65" viewBox="0 0 101 65" fill="none" xmlns="http://www.w3.org/2000/svg">
<path fill-rule="evenodd" clip-rule="evenodd" d="M6.97803 54.7368H64.7783C67.949 60.8292 74.4011 65 81.8447 65C92.4238 65 101 56.5759 101 46.1841C101 37.5715 95.1089 30.3103 87.0691 28.0767V6.82178C87.0691 3.0542 83.9702 0 80.0908 0H6.97803C3.12427 0 0 3.06006 0 6.82178V47.915C0 51.6826 3.09888 54.7368 6.97803 54.7368ZM83.5862 27.4451V6.86548C83.5862 5.87427 83.1711 4.98096 82.4958 4.35254L55.55 27.3684L65.7065 36.0439C69.1116 30.8262 75.0671 27.3684 81.8447 27.3684C82.4319 27.3684 83.0127 27.3945 83.5862 27.4451ZM64.0867 39.1162L52.9441 29.594L43.5344 37.6316L34.1245 29.594L8.70679 51.3157H63.4106C62.9409 49.6843 62.6897 47.9631 62.6897 46.1841C62.6897 43.6843 63.1858 41.2986 64.0867 39.1162ZM4.57983 4.35815C3.9043 4.98584 3.48267 5.87646 3.48267 6.86548V47.8713C3.48267 48.8625 3.89771 49.7559 4.57324 50.3845L31.5188 27.3684L4.57983 4.35815ZM78.3621 3.42114L43.5344 33.1843L8.70679 3.42114H78.3621ZM81.8447 61.579C90.5005 61.579 97.5171 54.6865 97.5171 46.1843C97.5171 37.6819 90.5005 30.7896 81.8447 30.7896C73.1892 30.7896 66.1724 37.6819 66.1724 46.1843C66.1724 54.6865 73.1892 61.579 81.8447 61.579ZM71.9065 47.5154L80.1033 55.5669L93.5244 42.3835L90.9741 39.8787L80.1033 50.5569L74.4568 45.0103L71.9065 47.5154Z" fill="#26C6DA"/>
</svg>
