<svg width="20" height="11" viewBox="0 0 20 11" fill="none" xmlns="http://www.w3.org/2000/svg">
<path d="M6.53546 0.728815C6.62989 0.49609 6.803 0.353453 7.02333 0.248352C7.4404 0.0531652 7.88897 -0.00689272 8.33754 0.000614469C8.98279 0.0156289 9.62805 0.0531649 10.2655 0.0756863C10.5567 0.090701 10.8399 0.0982077 11.1154 0.203309C11.5246 0.36096 11.7371 0.653741 11.7528 1.06664C11.7606 1.39696 11.7134 1.73478 11.6977 2.0726C11.6741 2.78579 11.6426 3.49897 11.6426 4.21216C11.6426 4.43737 11.7449 4.66259 11.8078 4.88781C11.8236 4.94786 11.8708 5.00792 11.9102 5.06047C12.0676 5.27067 12.1148 5.27067 12.3351 5.13554C12.7443 4.88781 13.0512 4.54998 13.3267 4.17462C13.7044 3.66413 14.0348 3.13863 14.3181 2.58309C14.5936 2.02756 14.8769 1.46452 15.1366 0.90148C15.2625 0.616205 15.4671 0.49609 15.7897 0.503597C16.9937 0.511104 18.2056 0.511104 19.4096 0.503597C19.7952 0.503597 20.0706 0.818898 19.984 1.17924C19.8896 1.56211 19.7086 1.90744 19.4962 2.23026C18.898 3.16115 18.2292 4.03949 17.4737 4.85777C17.2062 5.14305 16.9701 5.45084 16.8442 5.8262C16.7104 6.23159 16.797 6.59193 17.1118 6.89225C17.6705 7.42524 18.2528 7.94324 18.7958 8.49128C19.1184 8.81409 19.4017 9.17444 19.685 9.53478C19.866 9.75996 19.984 10.0302 19.9525 10.3306C19.9132 10.6683 19.7401 10.841 19.386 10.856C18.7092 10.8936 18.0246 10.9161 17.3399 10.9461C16.9465 10.9611 16.5451 10.9837 16.1517 10.9986C15.8369 11.0137 15.5537 10.9011 15.2861 10.7509C14.8611 10.5182 14.4992 10.2029 14.1529 9.87258C13.7909 9.53478 13.4526 9.18193 13.1771 8.76905C13.004 8.50627 12.5239 8.36361 12.2249 8.47623C11.9889 8.5588 11.8787 8.73901 11.8551 8.96419C11.8158 9.33959 11.7921 9.70743 11.7606 10.0828C11.7134 10.5407 11.4144 10.826 10.9344 10.886C9.99006 11.0061 9.05364 10.9611 8.12507 10.7885C7.4404 10.6609 6.85021 10.3455 6.29151 9.96265C5.52033 9.44465 4.86717 8.80659 4.25337 8.13843C3.9386 7.78558 3.65531 7.40269 3.38776 7.01986C2.51427 5.79618 1.688 4.54998 0.97189 3.23622C0.625642 2.60562 0.279396 1.98252 0.0984027 1.28435C0.0590565 1.12669 0.0354489 0.969045 0.0039719 0.81139C-0.0117666 0.736323 0.0197097 0.676265 0.0905333 0.653741C0.287264 0.593683 0.483996 0.511104 0.68073 0.503597C1.31814 0.481075 1.96342 0.481076 2.60083 0.473568C2.87625 0.473568 3.15168 0.49609 3.4271 0.488583C3.79695 0.473568 4.04877 0.63122 4.20616 0.931505C4.36354 1.23179 4.50519 1.53959 4.65471 1.83988C5.19769 2.92091 5.78788 3.97943 6.55906 4.93285C6.66923 5.07548 6.84235 5.18809 7.00761 5.27818C7.20437 5.38328 7.37748 5.33073 7.49553 5.14305C7.63715 4.92534 7.70014 4.6776 7.708 4.42236C7.71586 3.70166 7.73943 2.98097 7.73157 2.26028C7.72371 1.51707 7.33813 1.02159 6.59842 0.751332C6.58267 0.751332 6.55906 0.743824 6.53546 0.728815Z" fill="white"/>
</svg>
